<svg xmlns="http://www.w3.org/2000/svg" xmlns:xlink="http://www.w3.org/1999/xlink" width="500" zoomAndPan="magnify" viewBox="0 0 375 374.999991" height="500" preserveAspectRatio="xMidYMid meet" version="1.0"><defs><clipPath id="72ac16e2a8"><path d="M 47 61 L 296 61 L 296 315 L 47 315 Z M 47 61 " clip-rule="nonzero"/></clipPath><clipPath id="74b86b712c"><path d="M 323.667969 49.792969 L 335.890625 312.011719 L 51.199219 325.28125 L 38.976562 63.0625 Z M 323.667969 49.792969 " clip-rule="nonzero"/></clipPath><clipPath id="865e5de5e4"><path d="M 323.667969 49.792969 L 335.890625 312.011719 L 51.199219 325.28125 L 38.976562 63.0625 Z M 323.667969 49.792969 " clip-rule="nonzero"/></clipPath><clipPath id="43db670a71"><path d="M 47 59 L 324 59 L 324 308 L 47 308 Z M 47 59 " clip-rule="nonzero"/></clipPath><clipPath id="08bef04b0f"><path d="M 323.667969 49.792969 L 335.890625 312.011719 L 51.199219 325.28125 L 38.976562 63.0625 Z M 323.667969 49.792969 " clip-rule="nonzero"/></clipPath><clipPath id="954911c30c"><path d="M 323.667969 49.792969 L 335.890625 312.011719 L 51.199219 325.28125 L 38.976562 63.0625 Z M 323.667969 49.792969 " clip-rule="nonzero"/></clipPath><clipPath id="6757f601a0"><path d="M 70.308594 149 L 246 149 L 246 281 L 70.308594 281 Z M 70.308594 149 " clip-rule="nonzero"/></clipPath><clipPath id="a293ea2f84"><path d="M 70.308594 189 L 244 189 L 244 281 L 70.308594 281 Z M 70.308594 189 " clip-rule="nonzero"/></clipPath><clipPath id="07312746bc"><path d="M 79 113.167969 L 263.808594 113.167969 L 263.808594 282.667969 L 79 282.667969 Z M 79 113.167969 " clip-rule="nonzero"/></clipPath></defs><g clip-path="url(#72ac16e2a8)"><g clip-path="url(#74b86b712c)"><g clip-path="url(#865e5de5e4)"><path fill="#fbf6f3" d="M 163.765625 61.597656 C 145.371094 62.117188 127.621094 69.058594 111.914062 78.640625 C 93.742188 89.730469 77.699219 104.597656 66.476562 122.6875 C 49.945312 149.328125 44.574219 182.222656 49.503906 213.183594 C 54.730469 246 71.714844 277.285156 98.082031 297.511719 C 117.625 312.503906 145.582031 320.875 166.808594 308.375 C 174.980469 303.5625 181.332031 296.128906 189.367188 291.089844 C 204.898438 281.339844 224.394531 281.671875 242.660156 280.058594 C 260.925781 278.449219 281.179688 273.070312 290.253906 257.140625 C 297.5 244.417969 295.464844 228.738281 294.761719 214.117188 C 293.691406 191.699219 296.246094 168.847656 290.898438 147.054688 C 279.671875 101.324219 208.460938 60.34375 163.765625 61.597656 " fill-opacity="1" fill-rule="nonzero"/></g></g></g><g clip-path="url(#43db670a71)"><g clip-path="url(#08bef04b0f)"><g clip-path="url(#954911c30c)"><path fill="#f1a8db" d="M 47.605469 184.628906 C 47.320312 178.53125 47.265625 172.199219 47.4375 165.601562 C 48.304688 132.730469 55.117188 109.382812 68.882812 92.117188 C 85.132812 71.738281 112.976562 59.609375 143.371094 59.679688 C 167.5 59.730469 193.671875 66.917969 223.386719 81.65625 C 232.027344 85.941406 240.734375 91.296875 249.152344 96.476562 C 263.796875 105.488281 278.9375 114.808594 294.824219 119.28125 C 317.269531 125.609375 327.9375 142.507812 322.664062 163.382812 C 317.867188 182.382812 301.761719 196.203125 290.0625 204.941406 C 286.695312 207.457031 283.199219 209.933594 279.816406 212.332031 C 268.886719 220.074219 257.585938 228.082031 249.046875 238.527344 C 243.121094 245.773438 238.417969 254.3125 233.867188 262.574219 C 226.4375 276.066406 218.75 290.019531 205.628906 298.371094 C 191.066406 307.652344 172.703125 307.84375 160.160156 307.1875 C 134.910156 305.855469 113.902344 299.789062 97.71875 289.160156 C 79.582031 277.242188 65.003906 257.722656 56.664062 234.191406 C 51.464844 219.523438 48.46875 203.183594 47.605469 184.628906 Z M 322.425781 151.5 C 321.640625 134.679688 308.359375 124.714844 294.402344 120.78125 C 278.308594 116.246094 263.074219 106.871094 248.339844 97.804688 C 239.949219 92.640625 231.273438 87.300781 222.695312 83.050781 C 193.199219 68.421875 167.25 61.285156 143.367188 61.234375 C 113.445312 61.167969 86.054688 73.074219 70.097656 93.085938 C 56.554688 110.074219 49.851562 133.128906 48.996094 165.644531 C 48.292969 192.117188 51.289062 214.367188 58.128906 233.675781 C 66.355469 256.882812 80.71875 276.128906 98.574219 287.859375 C 114.523438 298.339844 135.269531 304.320312 160.242188 305.632812 C 172.574219 306.28125 190.605469 306.097656 204.792969 297.0625 C 217.582031 288.917969 224.828125 275.757812 232.503906 261.824219 C 237.089844 253.503906 241.828125 244.898438 247.84375 237.542969 C 256.511719 226.933594 267.902344 218.863281 278.917969 211.0625 C 282.292969 208.671875 285.78125 206.199219 289.132812 203.695312 C 300.636719 195.097656 316.476562 181.523438 321.15625 163.003906 C 322.203125 158.859375 322.589844 155.03125 322.425781 151.5 " fill-opacity="1" fill-rule="nonzero"/></g></g></g><g clip-path="url(#6757f601a0)"><path fill="#fdd6f1" d="M 123.015625 183.648438 L 125.960938 178.980469 L 125.292969 178.207031 C 125.292969 178.207031 134.363281 175.335938 136.355469 174.511719 C 138.351562 173.6875 137.238281 169.375 135.867188 169.554688 C 134.5 169.738281 128.679688 170.628906 128.679688 170.628906 L 126.269531 169.894531 L 128.890625 164.71875 L 133.449219 154.9375 L 156.566406 154.9375 L 143.667969 183.851562 Z M 241.449219 153.46875 C 239.367188 149.71875 239.367188 149.71875 239.367188 149.71875 L 226.464844 152.632812 L 226.882812 154.71875 C 226.882812 154.71875 220.453125 160.335938 217.335938 166.738281 C 214.664062 172.238281 214.113281 174.445312 214.113281 174.445312 L 205.234375 188.75 L 201.070312 185.972656 L 192.597656 193.359375 C 192.597656 193.359375 192.683594 193.445312 192.832031 193.601562 L 70.882812 193.601562 L 70.882812 280.8125 L 243.5 280.8125 L 243.5 193.601562 L 239.210938 193.601562 C 241.257812 186.242188 243.589844 177.820312 244.640625 173.886719 C 246.722656 166.109375 243.53125 157.21875 241.449219 153.46875 Z M 241.449219 153.46875 " fill-opacity="1" fill-rule="nonzero"/></g><g clip-path="url(#a293ea2f84)"><path fill="#f56dcd" d="M 170.285156 213.402344 L 243.503906 213.402344 L 243.503906 280.816406 L 148.5625 280.816406 Z M 192.597656 193.359375 L 196.613281 189.859375 L 70.347656 189.859375 L 70.347656 194.671875 L 193.847656 194.671875 C 193.082031 193.863281 192.597656 193.359375 192.597656 193.359375 Z M 240.253906 189.859375 C 239.796875 191.488281 239.347656 193.113281 238.914062 194.671875 L 243.5 194.671875 L 243.5 189.859375 Z M 240.253906 189.859375 " fill-opacity="1" fill-rule="nonzero"/></g><path fill="#ffffff" d="M 125.820312 170.734375 L 120.796875 172.550781 L 125.960938 178.980469 L 123.167969 183.589844 L 127.214844 183.589844 L 128.574219 189.902344 L 94.519531 189.902344 L 94.554688 186.804688 C 94.554688 186.804688 86.039062 174.925781 82.132812 168.363281 C 78.226562 161.796875 80.597656 155.367188 84.367188 152.851562 C 88.136719 150.335938 95.394531 149.496094 95.394531 149.496094 L 97.628906 147.121094 L 106.144531 149.078125 L 109.074219 154.386719 L 109.074219 148.378906 L 112.144531 150.054688 C 117.03125 150.195312 120.238281 152.570312 122.753906 156.0625 C 125.265625 159.554688 128.894531 164.722656 128.894531 164.722656 Z M 203.292969 204.863281 C 203.292969 204.863281 186.589844 199.207031 182.597656 198.066406 C 178.605469 196.921875 173.46875 195.96875 167.574219 198.824219 C 161.675781 201.683594 160.535156 209.109375 160.535156 209.109375 C 160.535156 209.109375 156.164062 211.394531 155.210938 216.34375 C 154.894531 217.992188 153.859375 223.910156 152.621094 231.070312 L 145.023438 251.417969 L 149.113281 251.417969 C 147.820312 258.960938 146.839844 264.703125 146.839844 264.703125 L 165.289062 264.703125 L 174.421875 222.8125 L 193.628906 228.714844 L 219.960938 228.714844 C 225.011719 228.714844 229.492188 225.457031 231.050781 220.644531 L 235.472656 206.972656 L 215.179688 206.972656 C 215.175781 206.980469 206.070312 208.058594 203.292969 204.863281 Z M 235.605469 206.539062 C 235.585938 206.605469 235.570312 206.667969 235.554688 206.71875 L 235.609375 206.539062 Z M 235.605469 206.539062 " fill-opacity="1" fill-rule="nonzero"/><path fill="#a36357" d="M 201.28125 186.054688 C 201.28125 186.054688 197.0625 189.476562 194.648438 191.691406 C 192.539062 191.894531 189.824219 190.082031 189.824219 190.082031 C 189.824219 190.082031 184.796875 190.082031 181.480469 190.082031 C 178.167969 190.082031 179.773438 188.375 182.085938 187.367188 C 184.394531 186.363281 189.824219 184.046875 192.539062 183.644531 C 195.253906 183.234375 201.28125 186.054688 201.28125 186.054688 Z M 238.828125 124.070312 C 229.449219 117.421875 218.335938 121.179688 216.242188 126.457031 C 214.148438 131.730469 214.871094 136.351562 213.929688 137.222656 C 212.992188 138.085938 211.546875 139.964844 212.199219 140.542969 C 212.847656 141.125 214.292969 141.269531 214.292969 141.269531 C 214.292969 141.269531 215.300781 146.472656 216.53125 148.058594 C 217.757812 149.648438 219.632812 150.730469 222.878906 150.445312 C 226.125 150.15625 228.4375 149.648438 228.4375 149.648438 L 229.132812 152.066406 L 238.683594 150 L 237.75 145.75 C 237.75 145.742188 248.214844 130.714844 238.828125 124.070312 Z M 154.222656 264.621094 L 146.839844 264.707031 L 149.238281 251.453125 L 148.589844 251.546875 C 148.589844 251.546875 146.988281 255.183594 145.828125 258.386719 C 144.664062 261.589844 139.707031 266.480469 137.203125 268.234375 C 134.699219 269.988281 133.699219 274 138.453125 274.25 C 141.859375 274.429688 147 273.328125 149.640625 272.691406 C 150.515625 273.320312 151.382812 274.15625 151.980469 275.253906 C 154.636719 275.253906 159.296875 275.253906 159.296875 275.253906 L 162.0625 264.660156 L 154.191406 264.714844 Z M 135.867188 169.558594 C 134.21875 169.558594 132.542969 169.910156 132.542969 169.910156 C 132.542969 169.910156 132.023438 168.613281 128.496094 169.265625 C 125.792969 169.765625 123.253906 170.625 120.796875 172.550781 L 125.292969 178.207031 C 125.292969 178.207031 133.832031 175.679688 136.355469 174.511719 C 138.875 173.351562 137.515625 169.558594 135.867188 169.558594 Z M 163.707031 146.480469 C 162.921875 146.839844 160.082031 148.355469 160.082031 148.355469 C 160.082031 148.355469 158.992188 148.355469 155.730469 148.472656 C 152.464844 148.59375 149.683594 149.257812 148.355469 150.890625 C 147.265625 152.230469 145.769531 154.257812 145.269531 154.949219 L 151.9375 154.949219 C 153.816406 153.34375 158.878906 153.558594 160.320312 152.40625 C 161.832031 151.195312 164.246094 148.65625 165.152344 147.445312 C 166.0625 146.238281 164.492188 146.117188 163.707031 146.480469 Z M 100.796875 121.265625 C 93.898438 124.308594 93.273438 129.074219 93.550781 133.011719 C 93.828125 136.953125 99.210938 141.71875 99.210938 141.71875 L 99.417969 147.59375 L 106.144531 149.078125 L 109.074219 154.386719 L 109.074219 148.378906 L 109.011719 146.074219 C 109.011719 146.074219 115.570312 145.796875 117.226562 140.820312 C 118.882812 135.84375 117.363281 130.316406 116.261719 126.449219 C 115.152344 122.582031 107.695312 118.226562 100.796875 121.265625 Z M 100.796875 121.265625 " fill-opacity="1" fill-rule="nonzero"/><g clip-path="url(#07312746bc)"><path fill="#000000" d="M 212.539062 118.996094 C 215.066406 117.238281 217.101562 118.011719 217.101562 118.011719 C 217.101562 118.011719 217.589844 115.199219 220.539062 115.269531 C 223.492188 115.339844 224.683594 116.957031 224.683594 116.957031 C 224.683594 116.957031 226.226562 115.058594 228.613281 115.410156 C 231 115.765625 232.054688 117.449219 232.054688 117.449219 C 232.054688 117.449219 239.707031 116.746094 243.777344 123.210938 C 247.847656 129.679688 242.179688 143.328125 237.75 145.746094 C 234.226562 144.226562 230.929688 140.433594 230.929688 140.433594 C 230.929688 140.433594 233.457031 138.042969 232.824219 135.792969 C 232.195312 133.542969 229.597656 132.488281 227.703125 133.542969 L 226.507812 137.761719 C 226.507812 137.761719 224.542969 138.109375 223.632812 135.582031 C 222.71875 133.058594 222.15625 127.855469 222.15625 127.855469 C 222.15625 127.855469 216.328125 126.167969 213.660156 125.539062 C 210.996094 124.898438 210.011719 120.75 212.539062 118.996094 Z M 216.410156 136.632812 C 216.410156 136.941406 216.65625 137.183594 216.960938 137.183594 C 217.265625 137.183594 217.511719 136.941406 217.511719 136.632812 C 217.511719 136.328125 217.265625 136.082031 216.960938 136.082031 C 216.65625 136.082031 216.410156 136.328125 216.410156 136.632812 Z M 219.101562 134.796875 C 219.160156 134.796875 219.226562 134.773438 219.277344 134.730469 C 219.390625 134.632812 219.402344 134.464844 219.300781 134.351562 C 217.839844 132.675781 215.246094 133.683594 215.140625 133.730469 C 215.003906 133.785156 214.933594 133.9375 214.992188 134.074219 C 215.046875 134.210938 215.199219 134.28125 215.335938 134.222656 C 215.359375 134.214844 217.6875 133.3125 218.898438 134.703125 C 218.953125 134.761719 219.03125 134.796875 219.101562 134.796875 Z M 216.433594 143.902344 C 216.460938 143.910156 216.722656 143.964844 217.097656 143.964844 C 217.742188 143.964844 218.734375 143.800781 219.4375 142.917969 C 219.53125 142.800781 219.511719 142.632812 219.398438 142.539062 C 219.28125 142.449219 219.117188 142.46875 219.019531 142.582031 C 218.121094 143.707031 216.613281 143.394531 216.550781 143.378906 C 216.40625 143.34375 216.265625 143.4375 216.230469 143.582031 C 216.199219 143.726562 216.292969 143.871094 216.433594 143.902344 Z M 230.597656 135.6875 C 230.980469 136.070312 231.15625 136.617188 231.125 137.316406 C 231.117188 137.46875 231.230469 137.589844 231.378906 137.597656 C 231.382812 137.597656 231.386719 137.597656 231.390625 137.597656 C 231.53125 137.597656 231.652344 137.488281 231.65625 137.347656 C 231.695312 136.488281 231.46875 135.804688 230.976562 135.308594 C 230.132812 134.460938 228.824219 134.515625 228.765625 134.515625 C 228.617188 134.523438 228.503906 134.648438 228.515625 134.796875 C 228.523438 134.945312 228.644531 135.0625 228.792969 135.050781 C 228.804688 135.050781 229.917969 135.003906 230.597656 135.6875 Z M 146.355469 271.082031 C 150.082031 268.199219 149.609375 264.738281 149.609375 264.738281 L 146.84375 264.707031 L 147.21875 261.828125 L 144.730469 260.457031 C 142.789062 263.40625 139.207031 266.828125 137.203125 268.234375 C 134.699219 269.988281 133.699219 274 138.453125 274.25 C 139.320312 274.292969 140.304688 274.25 141.328125 274.160156 C 138.710938 275.710938 135.667969 277.414062 133.746094 278.183594 C 129.808594 279.761719 131.046875 282.691406 133.296875 282.691406 L 156.339844 282.691406 C 157.695312 282.691406 158.832031 281.660156 158.964844 280.308594 L 159.46875 275.25 L 151.976562 275.25 C 150.40625 271.984375 146.355469 271.082031 146.355469 271.082031 Z M 250.84375 185.304688 C 246.070312 186.148438 240.074219 192.039062 238.464844 196.351562 C 237.460938 199.03125 233.917969 210.972656 231.382812 219.625 C 229.769531 225.140625 224.691406 228.917969 218.949219 228.882812 L 193.894531 228.722656 C 193.894531 228.628906 193.851562 228.542969 193.765625 228.488281 L 160.671875 208.875 C 160.542969 208.804688 160.382812 208.84375 160.308594 208.96875 C 160.230469 209.097656 160.273438 209.257812 160.398438 209.335938 L 193.128906 228.730469 C 185.429688 229.023438 184.625 236.101562 183.304688 243.484375 C 182.300781 249.128906 179.335938 267.734375 177.90625 276.753906 C 177.492188 279.367188 179.507812 281.738281 182.15625 281.738281 L 256.964844 281.738281 C 260.714844 281.738281 263.757812 278.695312 263.757812 274.9375 L 263.757812 196.347656 C 263.757812 186.652344 257.03125 184.210938 250.84375 185.304688 Z M 132.675781 170.261719 C 132.722656 170.121094 132.660156 169.949219 132.519531 169.898438 C 132.378906 169.847656 132.238281 169.902344 132.1875 170.042969 C 132.183594 170.046875 131.988281 170.296875 130.898438 170.457031 C 129.5625 170.65625 127.765625 170.800781 127.746094 170.804688 C 127.597656 170.816406 127.488281 170.945312 127.5 171.09375 C 127.515625 171.234375 127.628906 171.339844 127.765625 171.339844 C 127.773438 171.339844 127.78125 171.339844 127.789062 171.339844 C 127.808594 171.339844 129.621094 171.191406 130.972656 170.988281 C 132.347656 170.785156 132.621094 170.414062 132.675781 170.261719 Z M 136.683594 170.390625 C 136.726562 170.25 136.644531 170.089844 136.503906 170.050781 C 136.363281 170.011719 136.214844 170.085938 136.175781 170.226562 C 135.964844 170.605469 133.339844 171.453125 131.027344 172.019531 C 130.882812 172.054688 130.796875 172.199219 130.828125 172.339844 C 130.859375 172.460938 130.96875 172.546875 131.089844 172.546875 C 131.109375 172.546875 131.132812 172.542969 131.15625 172.539062 C 133.132812 172.054688 136.472656 171.128906 136.683594 170.390625 Z M 131.910156 173.75 C 133.882812 173.265625 137.226562 172.339844 137.441406 171.597656 C 137.480469 171.457031 137.398438 171.296875 137.257812 171.257812 C 137.117188 171.21875 136.972656 171.292969 136.929688 171.433594 C 136.722656 171.8125 134.097656 172.660156 131.78125 173.226562 C 131.636719 173.261719 131.550781 173.40625 131.585938 173.546875 C 131.613281 173.667969 131.726562 173.753906 131.847656 173.753906 C 131.871094 173.757812 131.890625 173.753906 131.910156 173.75 Z M 131.945312 175.164062 C 131.964844 175.164062 131.992188 175.160156 132.011719 175.15625 C 133.984375 174.675781 137.328125 173.75 137.539062 173.003906 C 137.582031 172.863281 137.5 172.707031 137.359375 172.667969 C 137.21875 172.625 137.070312 172.703125 137.03125 172.84375 C 136.820312 173.222656 134.195312 174.066406 131.882812 174.632812 C 131.738281 174.667969 131.652344 174.816406 131.683594 174.957031 C 131.71875 175.085938 131.828125 175.164062 131.945312 175.164062 Z M 99.414062 147.59375 L 99.207031 141.71875 C 99.207031 141.71875 101.011719 141.03125 101.820312 138.597656 C 102.632812 136.164062 101.453125 134.09375 101.453125 134.09375 C 101.453125 134.09375 103.148438 133.945312 104.546875 131.882812 C 105.949219 129.816406 105.359375 127.160156 105.359375 127.160156 C 110.445312 125.535156 110.683594 122.179688 110.683594 122.179688 C 114.199219 123.441406 116.253906 126.449219 116.253906 126.449219 C 116.253906 126.449219 117.152344 125.390625 116.636719 123.617188 C 116.121094 121.847656 114.71875 120.742188 114.71875 120.742188 C 114.71875 120.742188 114.71875 120.007812 113.464844 118.675781 C 112.210938 117.347656 110.074219 117.863281 110.074219 117.863281 C 110.074219 117.863281 109.1875 116.164062 107.121094 115.871094 C 105.058594 115.578125 103.507812 117.125 103.507812 117.125 C 103.507812 117.125 102.253906 116.089844 99.824219 116.238281 C 97.394531 116.390625 96.210938 118.453125 96.210938 118.453125 C 96.210938 118.453125 93.484375 118.082031 91.785156 119.265625 C 90.089844 120.445312 90.164062 122.804688 90.164062 122.804688 C 90.164062 122.804688 88.246094 122.804688 87.214844 124.578125 C 86.179688 126.347656 87.140625 128.191406 87.140625 128.191406 C 87.140625 128.191406 84.78125 128.785156 83.96875 130.554688 C 83.160156 132.324219 84.042969 134.613281 84.042969 134.613281 C 84.042969 134.613281 82.125 135.351562 81.535156 137.492188 C 80.945312 139.632812 81.976562 141.472656 81.976562 141.472656 C 81.976562 141.472656 80.058594 142.800781 79.988281 145.234375 C 79.914062 147.667969 81.535156 148.996094 81.535156 148.996094 C 81.535156 148.996094 81.3125 152.757812 84.351562 152.84375 C 89.378906 150.273438 95.378906 149.488281 95.378906 149.488281 L 97.613281 147.113281 Z M 115.277344 130.371094 C 116.96875 130.371094 118.34375 131.746094 118.34375 133.441406 C 118.34375 133.914062 118.230469 134.355469 118.042969 134.757812 C 118.5 135.132812 118.902344 135.628906 119.109375 136.316406 C 119.84375 138.707031 118.183594 140.101562 118.183594 140.101562 C 118.183594 140.101562 119.578125 140.570312 119.90625 142.558594 C 120.238281 144.550781 118.449219 146.480469 118.449219 146.480469 C 118.449219 146.480469 120.570312 147.144531 120.835938 149.46875 C 121.066406 151.519531 120.0625 152.636719 119.824219 152.871094 C 117.796875 151.195312 115.328125 150.148438 112.144531 150.058594 L 109.074219 148.382812 L 109.058594 147.746094 C 107.285156 147.183594 104.054688 146.046875 104.507812 145.371094 C 105.191406 144.351562 106.726562 145.867188 109.015625 146.078125 C 109.015625 146.078125 115.574219 145.800781 117.230469 140.828125 C 117.863281 138.917969 118.027344 136.933594 117.929688 134.988281 C 117.398438 135.898438 116.414062 136.511719 115.285156 136.511719 C 114.609375 136.511719 113.988281 136.292969 113.480469 135.917969 C 113.46875 136.035156 113.445312 136.140625 113.40625 136.214844 C 113.257812 136.550781 112.90625 136.816406 112.464844 136.925781 C 111.960938 137.050781 111.054688 137.171875 111.015625 137.179688 C 111.003906 137.179688 110.992188 137.183594 110.980469 137.183594 C 110.847656 137.183594 110.734375 137.089844 110.714844 136.953125 C 110.695312 136.808594 110.800781 136.671875 110.945312 136.648438 C 110.953125 136.648438 111.859375 136.523438 112.332031 136.410156 C 112.550781 136.351562 112.820312 136.214844 112.917969 136 C 112.984375 135.84375 112.957031 135.65625 112.839844 135.433594 C 112.808594 135.378906 112.804688 135.3125 112.816406 135.257812 C 112.472656 134.789062 112.253906 134.210938 112.222656 133.59375 C 111.828125 133.335938 111.253906 133.511719 111 133.621094 C 110.910156 135.230469 109.574219 136.511719 107.945312 136.511719 C 106.253906 136.511719 104.878906 135.136719 104.878906 133.445312 C 104.878906 131.75 106.253906 130.375 107.945312 130.375 C 109.503906 130.375 110.792969 131.542969 110.984375 133.054688 C 111.308594 132.945312 111.804688 132.84375 112.253906 133.003906 C 112.460938 131.515625 113.738281 130.371094 115.277344 130.371094 Z M 110.46875 133.441406 C 110.46875 132.042969 109.332031 130.90625 107.9375 130.90625 C 106.542969 130.90625 105.40625 132.042969 105.40625 133.441406 C 105.40625 134.835938 106.542969 135.972656 107.9375 135.972656 C 109.332031 135.972656 110.46875 134.835938 110.46875 133.441406 Z M 115.277344 130.90625 C 113.882812 130.90625 112.746094 132.042969 112.746094 133.441406 C 112.746094 134.835938 113.882812 135.972656 115.277344 135.972656 C 116.671875 135.972656 117.808594 134.835938 117.808594 133.441406 C 117.808594 132.042969 116.675781 130.90625 115.277344 130.90625 Z M 108.355469 133.023438 C 108.066406 133.023438 107.832031 133.257812 107.832031 133.546875 C 107.832031 133.835938 108.066406 134.070312 108.355469 134.070312 C 108.644531 134.070312 108.878906 133.835938 108.878906 133.546875 C 108.878906 133.257812 108.644531 133.023438 108.355469 133.023438 Z M 114.796875 133.546875 C 114.796875 133.835938 115.03125 134.070312 115.320312 134.070312 C 115.609375 134.070312 115.84375 133.835938 115.84375 133.546875 C 115.84375 133.257812 115.609375 133.023438 115.320312 133.023438 C 115.03125 133.023438 114.796875 133.257812 114.796875 133.546875 Z M 111.359375 140.066406 C 111.664062 140.066406 112 140.011719 112.363281 139.875 C 112.5 139.824219 112.570312 139.671875 112.519531 139.535156 C 112.46875 139.398438 112.316406 139.324219 112.179688 139.378906 C 110.714844 139.921875 109.800781 138.882812 109.761719 138.839844 C 109.667969 138.726562 109.496094 138.714844 109.386719 138.8125 C 109.273438 138.90625 109.261719 139.074219 109.355469 139.183594 C 109.363281 139.191406 110.121094 140.066406 111.359375 140.066406 Z M 113.054688 130.332031 C 113.097656 130.296875 114.203125 129.457031 115.992188 130.183594 C 116.128906 130.242188 116.285156 130.171875 116.339844 130.035156 C 116.398438 129.898438 116.328125 129.742188 116.191406 129.6875 C 114.097656 128.832031 112.777344 129.867188 112.722656 129.910156 C 112.605469 130.003906 112.589844 130.167969 112.679688 130.285156 C 112.734375 130.355469 112.8125 130.386719 112.890625 130.386719 C 112.945312 130.390625 113.007812 130.371094 113.054688 130.332031 Z M 105.816406 130.46875 C 105.875 130.433594 107.265625 129.570312 108.960938 130.304688 C 109.097656 130.367188 109.253906 130.300781 109.308594 130.164062 C 109.367188 130.027344 109.304688 129.871094 109.167969 129.816406 C 107.210938 128.964844 105.59375 129.976562 105.527344 130.019531 C 105.402344 130.101562 105.367188 130.265625 105.445312 130.390625 C 105.5 130.46875 105.582031 130.515625 105.671875 130.515625 C 105.722656 130.515625 105.773438 130.5 105.816406 130.46875 Z M 116.742188 157.507812 C 116.605469 157.453125 116.449219 157.523438 116.398438 157.660156 C 116.34375 157.796875 116.414062 157.953125 116.550781 158.003906 C 116.566406 158.011719 118.164062 158.640625 119.746094 160.527344 C 121.207031 162.273438 122.964844 165.480469 123.007812 170.859375 C 123.007812 171.007812 123.128906 171.125 123.273438 171.125 C 123.273438 171.125 123.273438 171.125 123.277344 171.125 C 123.425781 171.125 123.542969 171.003906 123.542969 170.855469 C 123.457031 160.199219 116.808594 157.535156 116.742188 157.507812 Z M 121.011719 172.394531 C 120.921875 172.273438 120.757812 172.246094 120.636719 172.335938 L 108.808594 180.992188 C 108.800781 180.949219 108.789062 180.910156 108.761719 180.875 L 96.53125 164.835938 C 96.445312 164.71875 96.277344 164.695312 96.160156 164.785156 C 96.042969 164.875 96.019531 165.042969 96.105469 165.160156 L 108.339844 181.199219 C 108.363281 181.230469 108.398438 181.253906 108.429688 181.273438 L 107.273438 182.117188 C 107.15625 182.207031 107.128906 182.371094 107.21875 182.492188 C 107.269531 182.5625 107.351562 182.601562 107.4375 182.601562 C 107.492188 182.601562 107.542969 182.582031 107.59375 182.546875 L 120.960938 172.769531 C 121.074219 172.679688 121.101562 172.511719 121.011719 172.394531 Z M 125.492188 178.035156 C 125.394531 177.921875 125.226562 177.910156 125.113281 178.007812 C 125.003906 178.105469 124.988281 178.273438 125.089844 178.386719 L 125.636719 179.019531 C 124.988281 180.167969 121.367188 186.464844 118.109375 189.339844 C 117.996094 189.433594 117.988281 189.605469 118.085938 189.71875 C 118.136719 189.777344 118.210938 189.808594 118.285156 189.808594 C 118.351562 189.808594 118.410156 189.789062 118.464844 189.742188 C 122.074219 186.558594 126.015625 179.445312 126.195312 179.117188 C 126.246094 179.019531 126.234375 178.894531 126.164062 178.808594 Z M 110.78125 157.109375 C 111.425781 157.109375 111.953125 157.636719 111.953125 158.28125 C 111.953125 158.929688 111.425781 159.457031 110.78125 159.457031 C 110.132812 159.457031 109.605469 158.929688 109.605469 158.28125 C 109.605469 157.636719 110.132812 157.109375 110.78125 157.109375 Z M 110.78125 157.644531 C 110.425781 157.644531 110.140625 157.933594 110.140625 158.28125 C 110.140625 158.636719 110.425781 158.921875 110.78125 158.921875 C 111.132812 158.921875 111.417969 158.632812 111.417969 158.28125 C 111.421875 157.929688 111.132812 157.644531 110.78125 157.644531 Z M 115.15625 166.941406 C 115.804688 166.941406 116.328125 167.46875 116.328125 168.117188 C 116.328125 168.765625 115.804688 169.289062 115.15625 169.289062 C 114.507812 169.289062 113.984375 168.765625 113.984375 168.117188 C 113.980469 167.46875 114.503906 166.941406 115.15625 166.941406 Z M 115.15625 167.476562 C 114.800781 167.476562 114.515625 167.765625 114.515625 168.117188 C 114.515625 168.46875 114.804688 168.753906 115.15625 168.753906 C 115.503906 168.753906 115.796875 168.464844 115.796875 168.117188 C 115.796875 167.765625 115.507812 167.476562 115.15625 167.476562 Z M 103.347656 153.59375 C 103.433594 153.59375 103.515625 153.550781 103.566406 153.484375 L 105.796875 150.425781 C 105.886719 150.304688 105.855469 150.140625 105.738281 150.050781 C 105.621094 149.964844 105.453125 149.992188 105.367188 150.109375 L 103.257812 153.003906 L 95.933594 150.34375 C 95.796875 150.296875 95.640625 150.367188 95.59375 150.507812 C 95.542969 150.648438 95.613281 150.800781 95.753906 150.847656 L 103.265625 153.574219 C 103.289062 153.589844 103.320312 153.59375 103.347656 153.59375 Z M 132.660156 138.558594 L 126.882812 141.3125 C 126.847656 141.328125 126.804688 141.335938 126.765625 141.335938 C 126.691406 141.335938 126.613281 141.304688 126.5625 141.242188 C 126.484375 141.148438 126.476562 141.015625 126.546875 140.914062 L 129.765625 136.289062 C 130.707031 134.933594 131.21875 133.34375 131.238281 131.6875 L 131.425781 116.847656 C 131.441406 115.71875 132.332031 114.800781 133.460938 114.753906 L 174.773438 113.207031 C 175.363281 113.183594 175.910156 113.398438 176.332031 113.808594 C 176.75 114.21875 176.980469 114.765625 176.972656 115.355469 L 176.667969 136.550781 C 176.660156 137.117188 176.429688 137.648438 176.019531 138.046875 C 175.609375 138.441406 175.074219 138.644531 174.503906 138.636719 L 136.390625 137.761719 C 135.109375 137.726562 133.820312 138.007812 132.660156 138.558594 Z M 132.433594 138.074219 C 133.664062 137.488281 135.03125 137.191406 136.398438 137.226562 L 174.511719 138.101562 C 174.9375 138.113281 175.339844 137.953125 175.648438 137.660156 C 175.953125 137.367188 176.125 136.96875 176.132812 136.542969 L 176.4375 115.347656 C 176.445312 114.910156 176.273438 114.496094 175.960938 114.191406 C 175.664062 113.898438 175.273438 113.742188 174.855469 113.742188 C 174.835938 113.742188 174.816406 113.742188 174.792969 113.742188 L 133.480469 115.292969 C 132.636719 115.328125 131.96875 116.015625 131.957031 116.855469 L 131.773438 131.699219 C 131.75 133.460938 131.207031 135.148438 130.203125 136.59375 L 127.5625 140.390625 Z M 137.992188 119.589844 C 137.992188 119.589844 137.996094 119.589844 137.992188 119.589844 L 170.578125 119.109375 C 170.726562 119.105469 170.84375 118.984375 170.84375 118.839844 C 170.839844 118.691406 170.71875 118.578125 170.574219 118.574219 L 137.992188 119.054688 C 137.84375 119.058594 137.726562 119.179688 137.726562 119.324219 C 137.726562 119.476562 137.847656 119.589844 137.992188 119.589844 Z M 169.488281 124.371094 C 169.488281 124.371094 169.484375 124.371094 169.488281 124.371094 L 138.351562 124.492188 C 138.203125 124.492188 138.085938 124.613281 138.085938 124.761719 C 138.085938 124.910156 138.207031 125.027344 138.351562 125.027344 L 169.488281 124.90625 C 169.636719 124.90625 169.753906 124.785156 169.753906 124.636719 C 169.753906 124.492188 169.632812 124.371094 169.488281 124.371094 Z M 159.589844 130.046875 L 138.59375 130.046875 C 138.445312 130.046875 138.328125 130.167969 138.328125 130.3125 C 138.328125 130.457031 138.449219 130.578125 138.59375 130.578125 L 159.589844 130.578125 C 159.742188 130.578125 159.855469 130.457031 159.855469 130.3125 C 159.855469 130.167969 159.742188 130.046875 159.589844 130.046875 Z M 229.007812 151.660156 C 231.421875 149.707031 231.414062 148.894531 228.441406 149.648438 Z M 201.875 203.976562 C 204.152344 206.390625 208.503906 207.453125 212.074219 207.453125 C 213.566406 207.453125 214.921875 207.265625 215.929688 206.914062 C 220.742188 205.230469 223.882812 195.535156 224.007812 195.136719 L 232.035156 173.984375 C 232.085938 173.847656 232.019531 173.691406 231.878906 173.640625 C 231.742188 173.585938 231.585938 173.65625 231.53125 173.796875 L 223.503906 194.960938 C 223.46875 195.054688 220.3125 204.8125 215.75 206.40625 C 212.460938 207.550781 205.347656 206.878906 202.253906 203.605469 C 199.183594 200.355469 194.09375 194.558594 194.042969 194.496094 C 193.949219 194.382812 193.78125 194.375 193.667969 194.472656 C 193.554688 194.570312 193.546875 194.738281 193.644531 194.851562 C 193.699219 194.910156 198.792969 200.714844 201.875 203.976562 Z M 207.15625 190.445312 C 207.164062 190.449219 207.179688 190.449219 207.1875 190.453125 L 206.035156 193.214844 C 205.980469 193.351562 206.042969 193.507812 206.179688 193.5625 C 206.214844 193.574219 206.25 193.582031 206.285156 193.582031 C 206.390625 193.582031 206.492188 193.523438 206.53125 193.417969 L 213.9375 175.597656 C 213.992188 175.460938 213.929688 175.304688 213.792969 175.25 C 213.65625 175.191406 213.5 175.257812 213.441406 175.394531 L 207.390625 189.953125 L 205.390625 188.53125 C 205.269531 188.445312 205.105469 188.472656 205.015625 188.59375 C 204.929688 188.714844 204.960938 188.878906 205.082031 188.96875 Z M 180.175781 189.121094 C 180.207031 189.121094 180.238281 189.117188 180.269531 189.105469 C 180.300781 189.09375 183.351562 187.988281 187.730469 188.40625 C 187.875 188.425781 188.007812 188.3125 188.023438 188.164062 C 188.035156 188.015625 187.933594 187.886719 187.785156 187.875 C 183.269531 187.445312 180.210938 188.558594 180.082031 188.605469 C 179.945312 188.660156 179.875 188.8125 179.925781 188.949219 C 179.96875 189.058594 180.066406 189.121094 180.175781 189.121094 Z M 183.679688 187.191406 C 183.714844 187.191406 183.753906 187.183594 183.785156 187.171875 C 183.804688 187.164062 185.898438 186.269531 188.660156 186.546875 C 188.804688 186.558594 188.9375 186.453125 188.953125 186.304688 C 188.96875 186.15625 188.859375 186.027344 188.714844 186.011719 C 185.816406 185.722656 183.667969 186.640625 183.574219 186.675781 C 183.4375 186.734375 183.378906 186.894531 183.433594 187.023438 C 183.480469 187.128906 183.578125 187.191406 183.679688 187.191406 Z M 227.695312 153.222656 C 227.65625 153.078125 227.511719 152.992188 227.367188 153.027344 C 227.222656 153.066406 227.140625 153.210938 227.175781 153.355469 L 227.867188 156.128906 C 227.886719 156.214844 227.949219 156.285156 228.03125 156.316406 C 228.0625 156.328125 228.097656 156.332031 228.128906 156.332031 C 228.179688 156.332031 228.230469 156.316406 228.277344 156.289062 C 228.328125 156.25 233.410156 152.855469 240.09375 152.519531 C 240.242188 152.511719 240.351562 152.386719 240.34375 152.234375 C 240.335938 152.085938 240.222656 151.980469 240.0625 151.984375 C 234.191406 152.28125 229.527344 154.886719 228.292969 155.640625 Z M 227.695312 153.222656 " fill-opacity="1" fill-rule="nonzero"/></g></svg>