<svg xmlns="http://www.w3.org/2000/svg" xmlns:xlink="http://www.w3.org/1999/xlink" width="500" zoomAndPan="magnify" viewBox="0 0 375 374.999991" height="500" preserveAspectRatio="xMidYMid meet" version="1.0"><defs><clipPath id="c9226f6712"><path d="M 46 38 L 294 38 L 294 291 L 46 291 Z M 46 38 " clip-rule="nonzero"/></clipPath><clipPath id="aedc630fea"><path d="M 322.058594 26.332031 L 334.28125 288.546875 L 49.589844 301.816406 L 37.367188 39.601562 Z M 322.058594 26.332031 " clip-rule="nonzero"/></clipPath><clipPath id="cbe756834c"><path d="M 322.058594 26.332031 L 334.28125 288.546875 L 49.589844 301.816406 L 37.367188 39.601562 Z M 322.058594 26.332031 " clip-rule="nonzero"/></clipPath><clipPath id="6d7bd6eb14"><path d="M 45 36 L 323 36 L 323 284 L 45 284 Z M 45 36 " clip-rule="nonzero"/></clipPath><clipPath id="39d4ee792f"><path d="M 322.058594 26.332031 L 334.28125 288.546875 L 49.589844 301.816406 L 37.367188 39.601562 Z M 322.058594 26.332031 " clip-rule="nonzero"/></clipPath><clipPath id="e678f9d352"><path d="M 322.058594 26.332031 L 334.28125 288.546875 L 49.589844 301.816406 L 37.367188 39.601562 Z M 322.058594 26.332031 " clip-rule="nonzero"/></clipPath><clipPath id="fccc66edcf"><path d="M 57 124 L 238 124 L 238 252.460938 L 57 252.460938 Z M 57 124 " clip-rule="nonzero"/></clipPath><clipPath id="1abacc6dea"><path d="M 82 148 L 275.246094 148 L 275.246094 251 L 82 251 Z M 82 148 " clip-rule="nonzero"/></clipPath><clipPath id="3897c22464"><path d="M 86 134 L 238 134 L 238 252.460938 L 86 252.460938 Z M 86 134 " clip-rule="nonzero"/></clipPath><clipPath id="274baf5926"><path d="M 80 90 L 272 90 L 272 252.460938 L 80 252.460938 Z M 80 90 " clip-rule="nonzero"/></clipPath></defs><g clip-path="url(#c9226f6712)"><g clip-path="url(#aedc630fea)"><g clip-path="url(#cbe756834c)"><path fill="#fbf6f3" d="M 162.15625 38.136719 C 143.765625 38.65625 126.015625 45.59375 110.304688 55.179688 C 92.132812 66.269531 76.09375 81.136719 64.871094 99.222656 C 48.335938 125.867188 42.964844 158.757812 47.898438 189.722656 C 53.125 222.535156 70.105469 253.820312 96.472656 274.050781 C 116.015625 289.042969 143.976562 297.414062 165.199219 284.910156 C 173.371094 280.097656 179.726562 272.667969 187.757812 267.625 C 203.289062 257.875 222.785156 258.210938 241.054688 256.597656 C 259.320312 254.984375 279.574219 249.609375 288.648438 233.679688 C 295.894531 220.957031 293.855469 205.277344 293.15625 190.65625 C 292.082031 168.238281 294.640625 145.386719 289.289062 123.59375 C 278.066406 77.859375 206.855469 36.878906 162.15625 38.136719 " fill-opacity="1" fill-rule="nonzero"/></g></g></g><g clip-path="url(#6d7bd6eb14)"><g clip-path="url(#39d4ee792f)"><g clip-path="url(#e678f9d352)"><path fill="#f1a8db" d="M 45.996094 161.167969 C 45.710938 155.070312 45.65625 148.734375 45.832031 142.140625 C 46.695312 109.269531 53.507812 85.921875 67.273438 68.65625 C 83.523438 48.277344 111.367188 36.148438 141.761719 36.214844 C 165.890625 36.269531 192.066406 43.457031 221.78125 58.191406 C 230.417969 62.476562 239.125 67.835938 247.546875 73.015625 C 262.1875 82.027344 277.328125 91.34375 293.214844 95.820312 C 315.660156 102.148438 326.328125 119.046875 321.054688 139.921875 C 316.257812 158.921875 300.152344 172.738281 288.453125 181.480469 C 285.089844 183.996094 281.589844 186.472656 278.207031 188.871094 C 267.277344 196.613281 255.976562 204.621094 247.4375 215.066406 C 241.515625 222.308594 236.808594 230.851562 232.257812 239.113281 C 224.828125 252.605469 217.144531 266.554688 204.019531 274.910156 C 189.457031 284.1875 171.097656 284.382812 158.550781 283.722656 C 133.300781 282.394531 112.292969 276.328125 96.109375 265.695312 C 77.972656 253.78125 63.394531 234.261719 55.054688 210.730469 C 49.855469 196.0625 46.863281 179.722656 45.996094 161.167969 Z M 320.816406 128.039062 C 320.03125 111.21875 306.75 101.253906 292.792969 97.320312 C 276.699219 92.785156 261.464844 83.40625 246.730469 74.339844 C 238.339844 69.179688 229.664062 63.839844 221.085938 59.585938 C 191.589844 44.957031 165.644531 37.820312 141.757812 37.769531 C 111.835938 37.707031 84.445312 49.613281 68.488281 69.625 C 54.949219 86.613281 48.242188 109.667969 47.386719 142.179688 C 46.6875 168.65625 49.679688 190.902344 56.523438 210.214844 C 64.746094 233.421875 79.109375 252.664062 96.964844 264.398438 C 112.914062 274.878906 133.664062 280.855469 158.636719 282.171875 C 170.964844 282.820312 189 282.636719 203.1875 273.597656 C 215.972656 265.457031 223.222656 252.296875 230.894531 238.363281 C 235.480469 230.039062 240.21875 221.433594 246.234375 214.078125 C 254.902344 203.472656 266.292969 195.402344 277.308594 187.601562 C 280.683594 185.210938 284.171875 182.738281 287.523438 180.234375 C 299.03125 171.636719 314.871094 158.0625 319.546875 139.542969 C 320.59375 135.398438 320.980469 131.566406 320.816406 128.039062 " fill-opacity="1" fill-rule="nonzero"/></g></g></g><g clip-path="url(#fccc66edcf)"><path fill="#f56dcd" d="M 233.617188 213.929688 C 233.617188 218.140625 228.875 218.667969 228.875 218.667969 L 185.664062 218.667969 C 185.664062 218.667969 181.976562 217.085938 181.449219 213.929688 C 181.449219 213.929688 181.214844 211.851562 182.167969 210.070312 L 118.625 210.070312 C 115.59375 210.070312 112.675781 208.933594 110.445312 206.886719 L 60.21875 160.765625 C 55.488281 156.421875 58.566406 148.539062 64.992188 148.539062 L 94.066406 148.539062 L 142.277344 184.523438 L 228.601562 184.523438 L 228.601562 208.144531 L 230.449219 208.144531 C 230.453125 208.140625 233.617188 209.71875 233.617188 213.929688 Z M 237.285156 162.460938 C 235.761719 153.757812 232.4375 141.039062 230.914062 136.058594 C 229.390625 131.082031 226.207031 129.144531 220.527344 129.144531 C 220.527344 129.144531 218.3125 124.859375 212.21875 124.859375 C 206.125 124.859375 203.773438 129.699219 203.773438 129.699219 C 203.773438 129.699219 191.863281 128.730469 189.925781 138.136719 C 187.988281 147.542969 185.914062 158.558594 185.914062 158.558594 L 184.59375 155.921875 L 181.953125 155.921875 L 180.71875 154.335938 C 180.71875 154.335938 176.316406 156.535156 175.261719 159.257812 C 175.261719 159.257812 177.902344 166.46875 180.191406 171.742188 C 182.476562 177.015625 192.140625 180.269531 197.652344 174.207031 L 232.277344 174.207031 C 232.277344 174.203125 238.8125 171.15625 237.285156 162.460938 Z M 222.785156 249.378906 C 220.765625 248.976562 210.417969 247.765625 210.417969 234.960938 L 205.464844 234.960938 C 205.464844 243.933594 202.757812 248.285156 193.988281 249.480469 C 191.765625 249.785156 191.664062 252.40625 194.390625 252.40625 C 197.113281 252.40625 220.867188 252.40625 222.988281 252.40625 C 225.105469 252.40625 224.800781 249.78125 222.785156 249.378906 Z M 222.785156 249.378906 " fill-opacity="1" fill-rule="nonzero"/></g><g clip-path="url(#1abacc6dea)"><path fill="#fdd6f1" d="M 275.234375 199.535156 C 272.652344 221.761719 262.421875 228.609375 262.421875 228.609375 L 232.367188 227.824219 C 228.203125 224.839844 225.566406 218.660156 225.566406 218.660156 L 228.875 218.660156 C 228.875 218.660156 233.617188 218.164062 233.617188 213.925781 C 233.617188 209.6875 230.46875 208.234375 230.46875 208.234375 L 231.398438 186.851562 C 238.707031 193.472656 240.386719 201.554688 240.386719 201.554688 C 241.625 193.589844 246.570312 184.046875 246.570312 184.046875 C 251.40625 193.921875 251.066406 204.476562 251.066406 204.476562 C 255.558594 193.25 262.976562 188.757812 262.976562 188.757812 C 264.101562 202.007812 260.503906 212.332031 260.503906 212.332031 C 269.839844 200.4375 275.234375 199.535156 275.234375 199.535156 Z M 135.046875 191.417969 L 156.75 208.324219 L 112.375 208.324219 C 114.246094 209.453125 116.402344 210.070312 118.625 210.070312 L 164.585938 210.070312 L 181.671875 194.664062 L 164.285156 187.21875 Z M 205.460938 234.960938 C 205.460938 243.933594 202.753906 248.285156 193.984375 249.480469 C 193.347656 249.570312 192.894531 249.847656 192.621094 250.199219 L 195.0625 250.199219 C 199.6875 250.199219 204.113281 248.304688 207.300781 244.949219 L 211.296875 240.746094 C 210.75 239.140625 210.414062 237.234375 210.414062 234.960938 Z M 199 166.582031 C 199 166.582031 195.828125 175.960938 188.066406 177.289062 C 191.257812 177.867188 194.761719 177.171875 197.398438 174.46875 Z M 237.492188 165.710938 C 231.695312 171.738281 221.289062 173.632812 214.140625 174.203125 L 232.277344 174.203125 C 232.277344 174.203125 237.144531 171.925781 237.492188 165.710938 Z M 82.753906 148.539062 L 87.445312 164.472656 L 92.949219 164.21875 L 96.515625 150.359375 L 94.070312 148.535156 L 82.753906 148.535156 Z M 131.589844 178.277344 L 109.089844 178.789062 L 107.933594 182.253906 C 107.933594 182.253906 114.878906 186.238281 123.359375 187.648438 C 131.847656 189.066406 131.589844 178.277344 131.589844 178.277344 Z M 131.589844 178.277344 " fill-opacity="1" fill-rule="nonzero"/></g><g clip-path="url(#3897c22464)"><path fill="#ffffff" d="M 230.472656 208.238281 C 230.472656 208.238281 191.148438 208.238281 186.359375 208.238281 C 180.777344 208.238281 181.417969 213.859375 181.417969 213.859375 L 162.628906 213.859375 C 154.402344 200.367188 159.5625 189.203125 166.808594 187.488281 C 174.054688 185.773438 196.652344 180.988281 196.652344 180.988281 L 197.65625 174.203125 L 232.28125 174.203125 C 245.0625 194.523438 230.472656 208.238281 230.472656 208.238281 Z M 176.5625 145.640625 C 177.257812 146.160156 175.769531 149.371094 175.769531 149.371094 L 181.949219 155.917969 L 186.429688 155.917969 L 189.105469 142.5 L 180.730469 134.386719 L 161.527344 134.386719 L 174.039062 147.597656 C 174.042969 147.597656 175.863281 145.121094 176.5625 145.640625 Z M 128.066406 159.707031 C 128.066406 159.707031 124.015625 156.617188 120.972656 154.476562 C 117.929688 152.339844 114.667969 151.046875 111.007812 151.328125 C 107.347656 151.613281 104.703125 150.15625 104.703125 150.15625 L 103.855469 151.835938 L 102.074219 150.492188 L 92.898438 152.679688 L 92.582031 154.054688 C 92.582031 154.054688 89.609375 157.023438 87.914062 159.351562 C 86.21875 161.683594 86.21875 166.980469 90.460938 170.472656 C 94.707031 173.96875 104.039062 180.324219 107.117188 182.445312 C 110.195312 184.5625 115.390625 183.292969 115.390625 183.292969 L 117.296875 184.773438 C 117.296875 184.773438 125.890625 171.214844 127.480469 168.671875 C 129.070312 166.128906 130.4375 165.5 130.4375 165.5 L 125.242188 159.632812 Z M 182.785156 250.007812 L 176.464844 244.136719 C 176.464844 244.136719 171.148438 247.597656 168.429688 249.445312 C 165.707031 251.292969 166.6875 252.382812 166.6875 252.382812 L 177.355469 252.382812 L 184.648438 250.535156 L 184.648438 252.382812 L 191.832031 252.382812 L 191.507812 247.707031 Z M 182.785156 250.007812 " fill-opacity="1" fill-rule="nonzero"/></g><path fill="#a36357" d="M 190.507812 241.84375 C 191.40625 244.414062 192.078125 247.765625 189.726562 248.324219 C 187.378906 248.886719 182.785156 250 182.785156 250 L 176.296875 244.191406 C 177.753906 243.074219 178.199219 240.839844 176.855469 238.152344 C 175.515625 235.472656 164.210938 214.007812 164.210938 214.007812 C 164.210938 214.007812 178.160156 213.855469 181.421875 213.855469 C 182.042969 216.226562 184.445312 218.578125 186.394531 218.578125 C 188.339844 218.578125 189.539062 218.578125 189.539062 218.578125 L 189.613281 239.269531 C 189.613281 239.273438 189.613281 239.273438 190.507812 241.84375 Z M 132.390625 160.457031 C 128.929688 159.253906 125.238281 159.628906 125.238281 159.628906 L 130.433594 165.492188 L 136.082031 165.492188 C 136.082031 165.5 135.855469 161.660156 132.390625 160.457031 Z M 103.316406 130.074219 C 101.691406 128.929688 95.433594 125.6875 89.175781 129.597656 C 82.921875 133.511719 84.113281 142.335938 87.601562 146.105469 C 91.089844 149.875 94.621094 150.777344 94.621094 150.777344 L 95.8125 152.164062 L 102.070312 150.492188 L 103.835938 151.828125 L 104.699219 150.15625 L 104.363281 149.203125 C 104.363281 149.203125 109.519531 147.628906 108.375 140.855469 C 107.230469 134.078125 104.941406 131.21875 103.316406 130.074219 Z M 215.800781 99.75 C 210.296875 90.382812 193.367188 95.976562 191.644531 101.042969 C 189.921875 106.105469 189.921875 112.078125 189.921875 112.078125 C 189.921875 112.078125 188.871094 114.230469 188.535156 115.089844 C 188.199219 115.949219 189.300781 116.238281 190.066406 116.574219 C 190.066406 116.574219 191.074219 126.152344 200.496094 124.621094 L 201.980469 129.664062 L 203.777344 129.699219 C 203.777344 129.699219 205.328125 125.316406 212.886719 124.886719 L 210.875 119.152344 C 210.871094 119.148438 221.300781 109.117188 215.800781 99.75 Z M 176.5625 157.378906 C 178.074219 155.988281 180.597656 154.40625 180.597656 154.40625 L 175.773438 149.394531 C 175.773438 149.394531 177.226562 146.066406 176.5625 145.640625 C 175.894531 145.21875 174.984375 146.125 173.53125 148.363281 C 172.078125 150.601562 172.503906 152.113281 173.046875 153.140625 C 173.59375 154.175781 176.5625 157.378906 176.5625 157.378906 Z M 176.5625 157.378906 " fill-opacity="1" fill-rule="nonzero"/><g clip-path="url(#274baf5926)"><path fill="#000000" d="M 190.570312 111.761719 C 190.570312 111.410156 190.859375 111.121094 191.210938 111.121094 C 191.5625 111.121094 191.851562 111.410156 191.851562 111.761719 C 191.851562 112.113281 191.5625 112.402344 191.210938 112.402344 C 190.859375 112.402344 190.570312 112.113281 190.570312 111.761719 Z M 189.039062 111.113281 C 189.039062 109.191406 190.152344 107.625 191.515625 107.625 C 192.503906 107.625 193.359375 108.449219 193.753906 109.632812 L 194.871094 109.265625 C 193.480469 108.109375 192.078125 106.527344 191.21875 104.433594 C 189.019531 99.054688 191.914062 93.847656 196.605469 92.058594 C 201.296875 90.265625 208.125 90.671875 211.195312 92.40625 C 211.195312 92.40625 215.941406 88.996094 220.050781 92.871094 C 224.164062 96.746094 224.105469 104.203125 218.601562 106 C 218.601562 106 220.503906 116.804688 210.867188 119.152344 C 210.867188 119.152344 205.109375 118.429688 201.871094 115.191406 C 201.871094 115.191406 204.765625 114.09375 204.472656 110.972656 C 204.191406 107.925781 199.730469 108.292969 199.515625 108.308594 L 199.492188 108.316406 L 199.207031 111.839844 C 199.207031 111.839844 197.363281 111.195312 195.359375 109.667969 L 193.886719 110.148438 C 193.949219 110.457031 193.988281 110.78125 193.988281 111.121094 C 193.988281 113.042969 192.875 114.609375 191.511719 114.609375 C 190.148438 114.609375 189.039062 113.039062 189.039062 111.113281 Z M 189.5625 111.113281 C 189.5625 112.746094 190.4375 114.078125 191.515625 114.078125 C 192.59375 114.078125 193.46875 112.75 193.46875 111.113281 C 193.46875 109.476562 192.59375 108.148438 191.515625 108.148438 C 190.4375 108.148438 189.5625 109.480469 189.5625 111.113281 Z M 193.484375 117.332031 C 192.953125 118.140625 191.664062 118.335938 191.652344 118.339844 C 191.507812 118.363281 191.410156 118.496094 191.429688 118.640625 C 191.449219 118.773438 191.5625 118.867188 191.691406 118.867188 C 191.707031 118.867188 191.71875 118.867188 191.730469 118.859375 C 191.792969 118.851562 193.269531 118.632812 193.929688 117.617188 C 194.011719 117.496094 193.976562 117.332031 193.855469 117.25 C 193.726562 117.171875 193.5625 117.207031 193.484375 117.332031 Z M 202.859375 112.820312 C 202.878906 112.824219 202.902344 112.828125 202.929688 112.828125 C 203.042969 112.828125 203.148438 112.753906 203.183594 112.632812 C 203.441406 111.703125 203.347656 110.953125 202.910156 110.402344 C 202.144531 109.4375 200.609375 109.480469 200.550781 109.484375 C 200.402344 109.492188 200.289062 109.613281 200.296875 109.757812 C 200.300781 109.90625 200.433594 110.027344 200.570312 110.011719 C 200.585938 110.011719 201.90625 109.972656 202.503906 110.730469 C 202.832031 111.144531 202.894531 111.734375 202.6875 112.492188 C 202.632812 112.640625 202.71875 112.785156 202.859375 112.820312 Z M 200.492188 124.617188 L 201.339844 127.5 C 205.132812 124.339844 205.238281 122.800781 200.492188 124.617188 Z M 204.558594 129.34375 C 204.414062 129.347656 204.296875 129.464844 204.300781 129.613281 C 204.308594 129.753906 204.425781 129.867188 204.566406 129.867188 C 204.570312 129.867188 204.570312 129.867188 204.574219 129.867188 L 220.539062 129.40625 C 220.683594 129.402344 220.796875 129.28125 220.792969 129.136719 C 220.789062 128.992188 220.664062 128.882812 220.523438 128.878906 Z M 184.867188 163.164062 C 184.882812 163.171875 184.902344 163.171875 184.917969 163.171875 C 185.042969 163.171875 185.152344 163.085938 185.175781 162.957031 L 185.945312 159.195312 C 185.972656 159.054688 185.882812 158.914062 185.734375 158.886719 C 185.59375 158.855469 185.453125 158.949219 185.425781 159.09375 L 184.660156 162.855469 C 184.632812 162.996094 184.71875 163.132812 184.867188 163.164062 Z M 184.394531 208.140625 C 184.394531 207.996094 184.273438 207.875 184.128906 207.875 L 176.96875 207.875 C 176.820312 207.875 176.703125 207.996094 176.703125 208.140625 C 176.703125 208.285156 176.820312 208.40625 176.96875 208.40625 L 184.128906 208.40625 C 184.273438 208.40625 184.394531 208.285156 184.394531 208.140625 Z M 197.414062 175.6875 L 203.597656 148.46875 C 203.625 148.328125 203.539062 148.1875 203.398438 148.15625 C 203.253906 148.125 203.113281 148.210938 203.082031 148.351562 L 197.140625 174.515625 C 196.304688 175.597656 194.320312 177.328125 190.105469 177.390625 C 183.980469 177.480469 181.046875 172.957031 181.046875 172.957031 C 181.046875 172.957031 160.21875 168.113281 150.949219 167.113281 C 141.675781 166.117188 136.082031 165.5 136.082031 165.5 C 136.082031 165.5 133.425781 165.410156 130.433594 165.5 C 128.648438 166.117188 124.769531 172.285156 121.585938 177.613281 C 118.839844 180.933594 115.882812 182.820312 115.851562 182.835938 C 115.726562 182.917969 115.691406 183.074219 115.765625 183.199219 C 115.816406 183.277344 115.902344 183.324219 115.992188 183.324219 C 116.039062 183.324219 116.089844 183.308594 116.132812 183.28125 C 116.160156 183.265625 118.0625 182.050781 120.242188 179.863281 C 118.976562 182.007812 117.917969 183.820312 117.292969 184.773438 C 118.933594 187.542969 124.632812 194.777344 135.914062 194.777344 C 147.195312 194.777344 159.542969 194.777344 159.542969 194.777344 C 159.542969 194.777344 162.652344 188.390625 166.804688 187.484375 C 170.953125 186.582031 196.769531 180.9375 196.769531 180.9375 Z M 109.519531 170.972656 C 108.535156 171.898438 107.898438 172.5 107.875 172.523438 C 107.769531 172.625 107.765625 172.792969 107.867188 172.894531 C 107.921875 172.945312 107.988281 172.976562 108.058594 172.976562 C 108.125 172.976562 108.191406 172.957031 108.238281 172.90625 C 108.320312 172.828125 116.644531 164.910156 120.140625 162.097656 C 123.492188 159.402344 125.144531 159.875 125.152344 159.878906 C 125.289062 159.929688 125.441406 159.855469 125.488281 159.71875 C 125.539062 159.582031 125.460938 159.429688 125.324219 159.382812 C 125.285156 159.367188 124.707031 159.183594 123.585938 159.519531 C 122.050781 155.601562 116.023438 153.507812 115.761719 153.421875 C 115.625 153.371094 115.476562 153.445312 115.425781 153.582031 C 115.378906 153.71875 115.453125 153.871094 115.589844 153.917969 C 115.652344 153.941406 121.621094 156.011719 123.085938 159.6875 C 122.238281 160.011719 121.148438 160.609375 119.8125 161.683594 C 117.363281 163.65625 112.578125 168.09375 109.867188 170.640625 C 109.851562 170.601562 109.828125 170.5625 109.789062 170.535156 L 98.066406 161.777344 C 97.949219 161.6875 97.78125 161.714844 97.695312 161.828125 C 97.605469 161.945312 97.632812 162.113281 97.746094 162.199219 L 109.46875 170.957031 C 109.488281 170.964844 109.5 170.964844 109.519531 170.972656 Z M 106.378906 153.839844 C 106.90625 153.839844 107.328125 154.199219 107.328125 154.644531 C 107.328125 155.089844 106.902344 155.453125 106.378906 155.453125 C 105.855469 155.453125 105.429688 155.089844 105.429688 154.644531 C 105.429688 154.199219 105.855469 153.839844 106.378906 153.839844 Z M 106.378906 154.363281 C 106.15625 154.363281 105.957031 154.496094 105.957031 154.640625 C 105.957031 154.792969 106.15625 154.917969 106.378906 154.917969 C 106.605469 154.917969 106.804688 154.789062 106.804688 154.640625 C 106.804688 154.496094 106.605469 154.363281 106.378906 154.363281 Z M 114.699219 158.066406 C 115.222656 158.066406 115.648438 158.429688 115.648438 158.875 C 115.648438 159.320312 115.21875 159.683594 114.699219 159.683594 C 114.171875 159.683594 113.75 159.320312 113.75 158.875 C 113.75 158.429688 114.175781 158.066406 114.699219 158.066406 Z M 114.273438 158.871094 C 114.273438 159.019531 114.472656 159.148438 114.699219 159.148438 C 114.921875 159.148438 115.121094 159.015625 115.121094 158.871094 C 115.121094 158.71875 114.921875 158.59375 114.699219 158.59375 C 114.472656 158.59375 114.273438 158.726562 114.273438 158.871094 Z M 87.941406 143.027344 C 86.484375 140.441406 88.992188 138.746094 88.992188 138.746094 L 91.335938 140.117188 C 91.335938 140.117188 97.96875 135.996094 100.398438 129.613281 L 104.199219 130.984375 C 104.199219 130.984375 102.339844 125.972656 96.511719 125.8125 C 90.6875 125.648438 83.8125 128.234375 81.707031 135.425781 C 79.605469 142.617188 81.140625 153.84375 88.179688 155.136719 C 95.21875 156.425781 99.425781 150.53125 92.875 144.230469 C 92.878906 144.238281 89.398438 145.613281 87.941406 143.027344 Z M 100.753906 138.640625 C 100.707031 138.503906 100.550781 138.429688 100.414062 138.484375 L 99.148438 138.953125 C 99.011719 139 98.941406 139.15625 98.992188 139.292969 C 99.03125 139.398438 99.132812 139.464844 99.238281 139.464844 C 99.269531 139.464844 99.300781 139.460938 99.332031 139.445312 L 100.601562 138.976562 C 100.730469 138.925781 100.804688 138.777344 100.753906 138.640625 Z M 105.277344 137.804688 C 105.128906 137.785156 104.996094 137.882812 104.976562 138.027344 C 104.953125 138.171875 105.054688 138.304688 105.195312 138.324219 L 106.53125 138.523438 C 106.542969 138.523438 106.554688 138.527344 106.570312 138.527344 C 106.699219 138.527344 106.8125 138.4375 106.828125 138.304688 C 106.851562 138.15625 106.75 138.027344 106.609375 138.003906 Z M 105.292969 139.621094 C 104.980469 139.214844 103.183594 137.378906 103.101562 137.296875 C 103 137.195312 102.835938 137.191406 102.734375 137.292969 C 102.625 137.394531 102.625 137.5625 102.726562 137.664062 C 103.367188 138.316406 104.640625 139.636719 104.878906 139.941406 C 104.949219 140.027344 104.683594 140.464844 104.292969 140.820312 C 104.183594 140.917969 104.175781 141.085938 104.273438 141.191406 C 104.328125 141.25 104.398438 141.28125 104.46875 141.28125 C 104.53125 141.28125 104.597656 141.257812 104.644531 141.214844 C 104.824219 141.046875 105.730469 140.183594 105.292969 139.621094 Z M 102.3125 142.960938 C 103.019531 142.917969 104.25 142.871094 104.253906 142.871094 L 104.238281 142.347656 C 104.238281 142.347656 102.992188 142.390625 102.28125 142.433594 C 101.800781 142.464844 101.597656 142.75 101.570312 143 C 101.53125 143.355469 101.820312 143.808594 102.539062 144.015625 C 103.457031 144.273438 103.847656 144.40625 103.855469 144.410156 C 103.878906 144.417969 103.910156 144.425781 103.9375 144.425781 C 104.046875 144.425781 104.148438 144.355469 104.191406 144.242188 C 104.234375 144.105469 104.164062 143.957031 104.023438 143.910156 C 104.023438 143.910156 103.621094 143.777344 102.683594 143.507812 C 102.246094 143.382812 102.085938 143.15625 102.097656 143.058594 C 102.097656 143.007812 102.1875 142.96875 102.3125 142.960938 Z M 100.726562 136.488281 C 100.859375 136.542969 101.015625 136.484375 101.078125 136.351562 C 101.132812 136.21875 101.074219 136.0625 100.941406 136 C 98.671875 135.007812 96.941406 136.839844 96.921875 136.863281 C 96.824219 136.96875 96.828125 137.136719 96.933594 137.230469 C 96.984375 137.28125 97.050781 137.300781 97.113281 137.300781 C 97.183594 137.300781 97.253906 137.277344 97.304688 137.21875 C 97.367188 137.152344 98.808594 135.644531 100.726562 136.488281 Z M 103.351562 135.632812 C 103.402344 135.683594 103.46875 135.710938 103.535156 135.710938 C 103.601562 135.710938 103.667969 135.683594 103.722656 135.636719 C 103.761719 135.597656 104.710938 134.691406 106.382812 135.171875 C 106.523438 135.210938 106.671875 135.132812 106.710938 134.992188 C 106.75 134.851562 106.671875 134.707031 106.53125 134.664062 C 104.546875 134.101562 103.398438 135.21875 103.351562 135.265625 C 103.246094 135.367188 103.246094 135.53125 103.351562 135.632812 Z M 99.609375 248.8125 C 99.246094 249.5625 99.550781 250.46875 100.296875 250.839844 C 101.011719 251.195312 101.878906 250.941406 102.285156 250.253906 L 126.003906 210.070312 L 118.617188 210.070312 Z M 271.511719 205.058594 C 271.414062 204.949219 271.25 204.9375 271.140625 205.035156 C 271.074219 205.09375 269.546875 206.453125 269.644531 208.429688 C 269.6875 209.277344 268.957031 209.980469 268.109375 210.785156 C 267.253906 211.601562 266.292969 212.523438 265.816406 213.851562 C 264.8125 216.652344 263.785156 218.617188 261.5 220.378906 C 259.851562 221.644531 258.84375 224.984375 258.335938 227.191406 L 255.527344 227.191406 C 259.648438 221.359375 260.570312 213.058594 260.578125 212.96875 C 260.59375 212.824219 260.492188 212.695312 260.347656 212.679688 C 260.203125 212.660156 260.070312 212.765625 260.054688 212.910156 C 260.046875 212.996094 259.101562 221.464844 254.875 227.1875 L 251.804688 227.1875 C 251.835938 224.761719 252.460938 222.886719 253.035156 221.207031 C 253.542969 219.714844 253.980469 218.429688 253.859375 217.09375 C 253.597656 214.226562 254.582031 210.4375 256.15625 208.285156 C 257.640625 206.253906 258.167969 204.445312 258.265625 201.121094 C 258.355469 198.105469 260.398438 196.371094 260.421875 196.351562 C 260.53125 196.261719 260.550781 196.09375 260.457031 195.984375 C 260.363281 195.871094 260.195312 195.855469 260.085938 195.949219 C 259.992188 196.023438 257.835938 197.839844 257.742188 201.101562 C 257.644531 204.34375 257.15625 206.015625 255.726562 207.976562 C 254.09375 210.222656 253.066406 214.160156 253.335938 217.140625 C 253.445312 218.367188 253.023438 219.601562 252.535156 221.035156 C 251.972656 222.675781 251.320312 224.648438 251.28125 227.179688 L 249.914062 227.179688 C 251.613281 222.574219 251.277344 205.695312 251.261719 204.953125 C 251.257812 204.804688 251.144531 204.695312 251 204.695312 C 251 204.695312 250.992188 204.695312 250.992188 204.695312 C 250.847656 204.699219 250.734375 204.820312 250.738281 204.964844 C 250.742188 205.152344 251.09375 223.046875 249.347656 227.179688 L 245.757812 227.179688 C 245.703125 225.996094 245.78125 224.554688 246.167969 222.980469 C 246.914062 219.9375 246.550781 218.027344 246.050781 215.386719 C 245.847656 214.316406 245.617188 213.109375 245.425781 211.648438 C 245.101562 209.140625 245.585938 206.796875 246.007812 204.726562 C 246.433594 202.660156 246.835938 200.710938 246.355469 198.980469 C 245.449219 195.71875 246.253906 192.3125 246.261719 192.28125 C 246.296875 192.140625 246.207031 192 246.066406 191.964844 C 245.925781 191.929688 245.785156 192.019531 245.75 192.160156 C 245.714844 192.304688 244.902344 195.726562 245.847656 199.125 C 246.292969 200.730469 245.921875 202.539062 245.492188 204.625 C 245.058594 206.738281 244.566406 209.128906 244.902344 211.726562 C 245.089844 213.203125 245.324219 214.417969 245.527344 215.492188 C 246.019531 218.066406 246.371094 219.925781 245.65625 222.859375 C 245.257812 224.488281 245.175781 225.96875 245.222656 227.1875 L 243.492188 227.1875 C 239.019531 217.523438 240.535156 202.285156 240.546875 202.132812 C 240.5625 201.988281 240.460938 201.859375 240.3125 201.847656 C 240.167969 201.835938 240.039062 201.9375 240.027344 202.082031 C 240.007812 202.234375 238.507812 217.386719 242.917969 227.191406 L 241.199219 227.191406 C 240.851562 226.390625 240.351562 225.632812 239.835938 224.851562 C 239.160156 223.839844 238.46875 222.789062 238.007812 221.527344 C 237.34375 219.703125 237.351562 218.265625 237.355469 216.597656 C 237.359375 215.496094 237.363281 214.351562 237.179688 212.96875 C 236.707031 209.480469 234.59375 206.605469 234.503906 206.480469 C 234.414062 206.367188 234.25 206.339844 234.136719 206.429688 C 234.023438 206.515625 233.996094 206.679688 234.082031 206.796875 C 234.105469 206.820312 236.203125 209.6875 236.65625 213.039062 C 236.839844 214.390625 236.835938 215.507812 236.828125 216.59375 C 236.820312 218.238281 236.816406 219.789062 237.515625 221.703125 C 237.996094 223.023438 238.707031 224.097656 239.398438 225.140625 C 239.871094 225.847656 240.308594 226.515625 240.632812 227.1875 L 237.710938 227.1875 C 234.253906 224.449219 232.503906 218.292969 232.207031 217.175781 C 232.886719 216.5625 233.4375 215.707031 233.570312 214.503906 L 181.585938 214.503906 C 181.917969 215.59375 182.613281 216.460938 183.34375 217.121094 L 188.921875 238.425781 C 188.953125 238.546875 189.0625 238.625 189.179688 238.625 C 189.203125 238.625 189.222656 238.621094 189.246094 238.617188 C 189.386719 238.582031 189.472656 238.433594 189.4375 238.292969 L 184.035156 217.691406 C 184.910156 218.339844 185.667969 218.667969 185.667969 218.667969 L 205.464844 218.667969 L 205.464844 234.960938 L 210.417969 234.960938 L 210.417969 218.667969 L 228.878906 218.667969 C 228.878906 218.667969 230.433594 218.484375 231.761719 217.542969 C 232.175781 219.070312 233.785156 224.339844 236.902344 227.191406 L 230.519531 227.191406 L 230.519531 240.085938 C 230.519531 246.835938 236 252.308594 242.757812 252.308594 L 252.914062 252.308594 C 259.675781 252.308594 265.152344 246.835938 265.152344 240.085938 L 265.152344 227.191406 L 258.878906 227.191406 C 259.382812 225.054688 260.335938 221.933594 261.820312 220.796875 C 264.199219 218.964844 265.304688 216.847656 266.316406 214.03125 C 266.746094 212.824219 267.667969 211.945312 268.472656 211.167969 C 269.375 210.304688 270.226562 209.492188 270.175781 208.40625 C 270.089844 206.6875 271.476562 205.445312 271.488281 205.433594 C 271.597656 205.335938 271.609375 205.167969 271.511719 205.058594 Z M 113.792969 138.25 C 113.699219 138.175781 113.664062 138.050781 113.714844 137.941406 L 115.398438 133.921875 C 115.71875 133.167969 115.882812 132.367188 115.890625 131.546875 L 116.027344 118.21875 C 116.039062 117.035156 116.976562 116.097656 118.15625 116.078125 L 155.199219 115.46875 C 155.8125 115.464844 156.351562 115.6875 156.769531 116.109375 C 157.191406 116.53125 157.410156 117.09375 157.398438 117.6875 L 156.992188 133.808594 C 156.960938 134.996094 155.964844 135.945312 154.78125 135.917969 L 120.445312 135.167969 C 119.03125 135.136719 117.621094 135.589844 116.492188 136.453125 L 114.109375 138.253906 C 114.0625 138.289062 114.007812 138.308594 113.953125 138.308594 C 113.898438 138.304688 113.839844 138.285156 113.792969 138.25 Z M 114.578125 137.238281 L 116.171875 136.023438 C 117.398438 135.09375 118.910156 134.59375 120.460938 134.636719 L 154.792969 135.382812 C 155.699219 135.402344 156.445312 134.6875 156.464844 133.792969 L 156.871094 117.671875 C 156.886719 117.222656 156.714844 116.796875 156.402344 116.480469 C 156.089844 116.167969 155.675781 115.996094 155.238281 115.996094 C 155.230469 115.996094 155.222656 115.996094 155.210938 115.996094 L 118.167969 116.601562 C 117.277344 116.617188 116.566406 117.332031 116.558594 118.222656 L 116.421875 131.550781 C 116.410156 132.4375 116.230469 133.308594 115.890625 134.125 Z M 120.203125 120.988281 C 120.207031 120.988281 120.207031 120.988281 120.203125 120.988281 L 151.34375 120.679688 C 151.492188 120.679688 151.605469 120.558594 151.605469 120.414062 C 151.605469 120.269531 151.484375 120.152344 151.339844 120.152344 C 151.339844 120.152344 151.339844 120.152344 151.335938 120.152344 L 120.199219 120.460938 C 120.054688 120.460938 119.9375 120.582031 119.9375 120.726562 C 119.941406 120.867188 120.0625 120.988281 120.203125 120.988281 Z M 151.132812 124.488281 L 120.511719 124.695312 C 120.367188 124.695312 120.253906 124.8125 120.253906 124.960938 C 120.253906 125.105469 120.371094 125.21875 120.515625 125.21875 L 151.136719 125.011719 C 151.285156 125.011719 151.398438 124.894531 151.398438 124.75 C 151.398438 124.601562 151.289062 124.511719 151.132812 124.488281 Z M 137.578125 129.035156 L 120.613281 129.34375 C 120.46875 129.347656 120.355469 129.464844 120.355469 129.613281 C 120.359375 129.757812 120.472656 129.871094 120.617188 129.871094 C 120.617188 129.871094 120.625 129.871094 120.625 129.871094 L 137.585938 129.5625 C 137.734375 129.558594 137.847656 129.441406 137.847656 129.292969 C 137.847656 129.144531 137.746094 129.019531 137.578125 129.035156 Z M 140.277344 129.035156 L 139.449219 129.035156 C 139.304688 129.035156 139.183594 129.152344 139.183594 129.300781 C 139.183594 129.445312 139.304688 129.5625 139.449219 129.5625 L 140.277344 129.5625 C 140.421875 129.5625 140.539062 129.445312 140.539062 129.300781 C 140.539062 129.152344 140.421875 129.035156 140.277344 129.035156 Z M 101.269531 150.703125 L 102.074219 150.488281 L 102.582031 150.871094 C 103.160156 150.910156 103.773438 150.90625 104.355469 150.832031 L 104.707031 150.15625 L 104.371094 149.203125 C 104.371094 149.203125 101.90625 149.9375 100.316406 150.070312 C 99.472656 150.136719 100.109375 150.480469 101.269531 150.703125 Z M 101.269531 150.703125 " fill-opacity="1" fill-rule="nonzero"/></g></svg>