<svg xmlns="http://www.w3.org/2000/svg" xmlns:xlink="http://www.w3.org/1999/xlink" width="500" zoomAndPan="magnify" viewBox="0 0 375 374.999991" height="500" preserveAspectRatio="xMidYMid meet" version="1.0"><defs><clipPath id="3af85e920e"><path d="M 248 260 L 311 260 L 311 281.714844 L 248 281.714844 Z M 248 260 " clip-rule="nonzero"/></clipPath><clipPath id="70f8c660b6"><path d="M 53.167969 158 L 98 158 L 98 202 L 53.167969 202 Z M 53.167969 158 " clip-rule="nonzero"/></clipPath><clipPath id="d7ed85d647"><path d="M 53.167969 158 L 85 158 L 85 189 L 53.167969 189 Z M 53.167969 158 " clip-rule="nonzero"/></clipPath></defs><rect x="-37.5" width="450" fill="#ffffff" y="-37.499999" height="449.999989" fill-opacity="1"/><rect x="-37.5" width="450" fill="#ffffff" y="-37.499999" height="449.999989" fill-opacity="1"/><rect x="-37.5" width="450" fill="#ffffff" y="-37.499999" height="449.999989" fill-opacity="1"/><g clip-path="url(#3af85e920e)"><path fill="#000000" d="M 305.964844 265.589844 C 307.410156 267.152344 310.492188 273.046875 310.492188 273.046875 L 308.214844 274.703125 C 308.214844 274.703125 305.597656 270.773438 305.0625 271.011719 C 304.523438 271.25 305.0625 276.996094 304.324219 277.535156 L 298.773438 281.566406 C 298.6875 280.199219 298.929688 278.898438 299.511719 277.660156 C 300.339844 276.003906 301.199219 272.585938 299.027344 267.433594 C 298.742188 266.769531 298.410156 266.070312 298.023438 265.34375 L 303.03125 260.691406 C 303.03125 260.691406 303.648438 262.078125 304.46875 263.488281 C 304.894531 264.242188 305.394531 264.941406 305.964844 265.589844 Z M 263.550781 270.246094 C 263.710938 268.625 264.03125 267.132812 264.03125 267.132812 L 257.238281 267.964844 C 257.125 268.785156 256.984375 269.542969 256.820312 270.246094 C 255.558594 275.699219 252.835938 277.960938 251.207031 278.8125 C 250.015625 279.472656 249.054688 280.382812 248.328125 281.539062 L 255.1875 281.539062 C 256.082031 281.539062 259.03125 276.570312 259.609375 276.695312 C 260.183594 276.824219 259.992188 281.539062 259.992188 281.539062 L 262.808594 281.539062 C 262.808594 281.539062 263.769531 274.960938 263.511719 272.847656 C 263.441406 271.988281 263.453125 271.128906 263.550781 270.273438 Z M 263.550781 270.246094 " fill-opacity="1" fill-rule="nonzero"/></g><path fill="#a66735" d="M 298.023438 265.34375 L 303.03125 260.691406 C 303.03125 260.691406 303.648438 262.078125 304.46875 263.488281 L 299.027344 267.480469 C 298.742188 266.769531 298.410156 266.070312 298.023438 265.34375 Z M 256.820312 270.273438 L 263.550781 270.273438 C 263.710938 268.652344 264.03125 267.160156 264.03125 267.160156 L 257.238281 267.992188 C 257.125 268.808594 256.984375 269.566406 256.820312 270.273438 Z M 256.820312 270.273438 " fill-opacity="1" fill-rule="nonzero"/><path fill="#000000" d="M 318.414062 190.871094 C 318.207031 191.144531 317.957031 191.367188 317.65625 191.535156 C 315.339844 192.820312 311.167969 190.03125 309.265625 190.117188 C 307.132812 190.226562 306.117188 193.023438 301.085938 191.035156 C 296.050781 189.046875 297.226562 181.222656 297.53125 178.269531 C 297.835938 175.316406 296.003906 173.839844 292.882812 173.9375 C 289.765625 174.039062 286.410156 172.316406 287.84375 167.328125 C 289.171875 162.601562 285.65625 160.011719 283.199219 160.503906 C 283.761719 163.097656 283.496094 166.125 281.132812 168.191406 C 278.21875 170.734375 276.789062 170.5625 275.941406 169.308594 C 275.621094 168.84375 274.746094 167.695312 273.761719 166.4375 C 272.125 164.316406 270.199219 161.882812 270.199219 161.882812 C 270.199219 161.882812 267.144531 161.6875 267.078125 159.328125 C 267.066406 158.867188 267.152344 158.421875 267.335938 158 C 268.085938 156.144531 270.46875 154.539062 273.78125 154.261719 C 277.097656 153.980469 280.089844 155.238281 281.75 157.207031 C 282.492188 156.304688 283.402344 155.632812 284.484375 155.199219 C 285.566406 154.761719 286.6875 154.613281 287.84375 154.753906 C 288.929688 154.828125 289.898438 155.207031 290.746094 155.890625 C 290.910156 156.023438 291.0625 156.167969 291.203125 156.324219 C 292.378906 157.597656 292.84375 159.386719 293.589844 160.757812 C 294.808594 162.992188 296.84375 162.839844 299.988281 161.875 C 303.136719 160.910156 309.488281 161.355469 310.859375 166.625 C 312.226562 171.890625 308.558594 178.082031 315.09375 179.578125 C 321.628906 181.074219 320.445312 188.222656 318.414062 190.871094 Z M 318.414062 190.871094 " fill-opacity="1" fill-rule="nonzero"/><path fill="#000000" d="M 174.722656 265.503906 C 174.589844 265.863281 171.488281 274.257812 165.957031 276.292969 L 165.726562 275.667969 C 166.992188 275.15625 168.097656 274.40625 169.046875 273.425781 C 168.554688 272.148438 168.148438 270.847656 167.835938 269.515625 C 167.503906 267.847656 168.28125 267.621094 168.726562 267.519531 C 169.171875 267.421875 170.28125 267.964844 170.507812 269.753906 C 170.546875 270.757812 170.328125 271.695312 169.84375 272.574219 C 171.636719 270.371094 173.050781 267.941406 174.078125 265.292969 Z M 180.816406 265.691406 C 181.40625 264.78125 181.726562 264.222656 181.738281 264.203125 L 181.15625 263.867188 C 181.117188 263.941406 177.105469 271.003906 170.898438 275.839844 L 171.308594 276.371094 C 174.203125 274.050781 176.746094 271.390625 178.9375 268.390625 C 179.742188 268.609375 182.132812 269.195312 182.722656 268.609375 C 183.441406 267.945312 182.117188 266.882812 179.925781 267.699219 C 179.679688 267.800781 179.433594 267.917969 179.195312 268.046875 C 179.589844 267.511719 179.933594 267.019531 180.238281 266.574219 C 181.214844 266.617188 183.351562 266.636719 183.773438 265.996094 C 184.296875 265.199219 182.789062 264.433594 180.816406 265.691406 Z M 180.816406 265.691406 " fill-opacity="1" fill-rule="nonzero"/><path fill="#000000" d="M 127.011719 275.667969 L 126.785156 276.292969 C 121.246094 274.257812 118.152344 265.863281 118.015625 265.503906 L 118.679688 265.277344 C 119.707031 267.929688 121.117188 270.355469 122.914062 272.5625 C 122.429688 271.683594 122.207031 270.742188 122.25 269.742188 C 122.476562 267.953125 123.578125 267.398438 124.03125 267.507812 C 124.480469 267.613281 125.257812 267.847656 124.917969 269.5 C 124.605469 270.832031 124.203125 272.136719 123.710938 273.410156 C 124.652344 274.398438 125.753906 275.148438 127.011719 275.667969 Z M 111.613281 263.867188 L 111.03125 264.203125 C 111.03125 264.203125 111.363281 264.78125 111.953125 265.691406 C 109.960938 264.433594 108.472656 265.171875 109.023438 266.003906 C 109.441406 266.667969 111.585938 266.621094 112.558594 266.582031 C 112.863281 267.027344 113.222656 267.519531 113.597656 268.050781 C 113.363281 267.925781 113.117188 267.808594 112.867188 267.707031 C 110.679688 266.886719 109.355469 267.925781 110.074219 268.617188 C 110.664062 269.203125 113.054688 268.617188 113.859375 268.398438 C 116.050781 271.398438 118.59375 274.058594 121.492188 276.378906 L 121.898438 275.847656 C 115.664062 271.023438 111.652344 263.960938 111.613281 263.867188 Z M 111.613281 263.867188 " fill-opacity="1" fill-rule="nonzero"/><path fill="#f56dcd" d="M 217.320312 114.132812 C 228.523438 104.785156 240.140625 109.398438 240.140625 109.398438 C 240.140625 109.398438 242.21875 101.871094 253.007812 100.414062 C 263.796875 98.957031 268.359375 111.433594 268.359375 111.433594 C 280.808594 106.445312 286.207031 118.496094 286.207031 118.496094 L 207.78125 118.496094 C 208.199219 113.097656 217.320312 114.132812 217.320312 114.132812 Z M 72.453125 118.078125 L 152.746094 118.078125 C 152.746094 118.078125 148 108.726562 137.03125 113.421875 C 137.03125 113.421875 131.054688 102.6875 118.882812 109.035156 C 118.882812 109.035156 114.191406 97.0625 101.039062 98.71875 C 88.414062 100.273438 86.03125 111.328125 86.03125 111.328125 C 86.03125 111.328125 73.777344 110.789062 72.453125 118.078125 Z M 72.453125 118.078125 " fill-opacity="1" fill-rule="nonzero"/><path fill="#000000" d="M 123.550781 174.492188 C 123.550781 174.421875 123.578125 174.363281 123.625 174.3125 C 123.675781 174.261719 123.734375 174.238281 123.804688 174.238281 L 237.9375 174.238281 C 238.011719 174.226562 238.082031 174.246094 238.140625 174.296875 C 238.199219 174.34375 238.230469 174.410156 238.230469 174.488281 C 238.230469 174.566406 238.199219 174.628906 238.140625 174.679688 C 238.082031 174.730469 238.011719 174.75 237.9375 174.738281 L 123.804688 174.738281 C 123.640625 174.738281 123.554688 174.65625 123.550781 174.492188 Z M 237.9375 180.894531 L 123.804688 180.894531 C 123.726562 180.882812 123.660156 180.902344 123.601562 180.953125 C 123.539062 181.003906 123.511719 181.066406 123.511719 181.144531 C 123.511719 181.222656 123.539062 181.285156 123.601562 181.335938 C 123.660156 181.386719 123.726562 181.40625 123.804688 181.394531 L 237.9375 181.394531 C 238.011719 181.40625 238.082031 181.386719 238.140625 181.335938 C 238.199219 181.285156 238.230469 181.222656 238.230469 181.144531 C 238.230469 181.066406 238.199219 181.003906 238.140625 180.953125 C 238.082031 180.902344 238.011719 180.882812 237.9375 180.894531 Z M 237.9375 187.546875 L 123.804688 187.546875 C 123.734375 187.546875 123.675781 187.570312 123.625 187.621094 C 123.578125 187.667969 123.550781 187.726562 123.550781 187.796875 C 123.550781 187.867188 123.578125 187.925781 123.625 187.972656 C 123.675781 188.023438 123.734375 188.046875 123.804688 188.042969 L 237.9375 188.042969 C 238.003906 188.046875 238.066406 188.023438 238.113281 187.972656 C 238.164062 187.925781 238.1875 187.867188 238.1875 187.796875 C 238.1875 187.726562 238.164062 187.667969 238.113281 187.621094 C 238.066406 187.570312 238.007812 187.546875 237.9375 187.546875 Z M 237.9375 194.195312 L 123.804688 194.195312 C 123.726562 194.183594 123.660156 194.203125 123.601562 194.253906 C 123.539062 194.300781 123.511719 194.367188 123.511719 194.445312 C 123.511719 194.523438 123.539062 194.585938 123.601562 194.636719 C 123.660156 194.6875 123.726562 194.707031 123.804688 194.695312 L 237.9375 194.695312 C 238.011719 194.707031 238.082031 194.6875 238.140625 194.636719 C 238.199219 194.585938 238.230469 194.523438 238.230469 194.445312 C 238.230469 194.367188 238.199219 194.300781 238.140625 194.253906 C 238.082031 194.203125 238.011719 194.183594 237.9375 194.195312 Z M 237.9375 200.84375 L 123.804688 200.84375 C 123.734375 200.84375 123.675781 200.867188 123.625 200.914062 C 123.578125 200.964844 123.550781 201.023438 123.550781 201.089844 C 123.550781 201.160156 123.578125 201.222656 123.625 201.269531 C 123.675781 201.320312 123.734375 201.34375 123.804688 201.34375 L 237.9375 201.34375 C 238.007812 201.34375 238.066406 201.320312 238.113281 201.269531 C 238.164062 201.222656 238.1875 201.160156 238.1875 201.089844 C 238.179688 200.933594 238.097656 200.855469 237.9375 200.859375 Z M 237.9375 207.496094 L 123.804688 207.496094 C 123.726562 207.484375 123.660156 207.503906 123.601562 207.550781 C 123.539062 207.601562 123.511719 207.667969 123.511719 207.746094 C 123.511719 207.824219 123.539062 207.886719 123.601562 207.9375 C 123.660156 207.988281 123.726562 208.007812 123.804688 207.996094 L 237.9375 207.996094 C 238.011719 208.007812 238.082031 207.988281 238.140625 207.9375 C 238.199219 207.886719 238.230469 207.824219 238.230469 207.746094 C 238.230469 207.667969 238.199219 207.601562 238.140625 207.550781 C 238.082031 207.503906 238.011719 207.484375 237.9375 207.496094 Z M 237.9375 214.144531 L 123.804688 214.144531 C 123.726562 214.132812 123.660156 214.152344 123.601562 214.203125 C 123.539062 214.253906 123.511719 214.316406 123.511719 214.394531 C 123.511719 214.472656 123.539062 214.539062 123.601562 214.585938 C 123.660156 214.636719 123.726562 214.65625 123.804688 214.644531 L 237.9375 214.644531 C 238.011719 214.65625 238.082031 214.636719 238.140625 214.585938 C 238.199219 214.539062 238.230469 214.472656 238.230469 214.394531 C 238.230469 214.316406 238.199219 214.253906 238.140625 214.203125 C 238.082031 214.152344 238.011719 214.132812 237.9375 214.144531 Z M 237.9375 214.144531 " fill-opacity="1" fill-rule="nonzero"/><path fill="#f56dcd" d="M 247.550781 151.480469 L 247.550781 156.523438 L 114.257812 156.523438 L 114.257812 151.480469 C 114.257812 150.976562 114.308594 150.472656 114.40625 149.976562 C 114.503906 149.480469 114.652344 148.996094 114.84375 148.527344 C 115.039062 148.0625 115.277344 147.617188 115.558594 147.195312 C 115.839844 146.773438 116.160156 146.382812 116.515625 146.027344 C 116.875 145.667969 117.265625 145.347656 117.683594 145.066406 C 118.105469 144.785156 118.550781 144.546875 119.015625 144.355469 C 119.484375 144.160156 119.964844 144.015625 120.460938 143.914062 C 120.957031 143.816406 121.460938 143.765625 121.964844 143.765625 L 239.84375 143.765625 C 240.347656 143.765625 240.847656 143.816406 241.34375 143.914062 C 241.839844 144.015625 242.324219 144.160156 242.789062 144.355469 C 243.257812 144.546875 243.703125 144.785156 244.121094 145.066406 C 244.542969 145.347656 244.933594 145.667969 245.289062 146.027344 C 245.648438 146.382812 245.96875 146.773438 246.25 147.195312 C 246.53125 147.617188 246.769531 148.0625 246.960938 148.527344 C 247.15625 148.996094 247.300781 149.480469 247.402344 149.976562 C 247.5 150.472656 247.550781 150.976562 247.550781 151.480469 Z M 247.550781 151.480469 " fill-opacity="1" fill-rule="nonzero"/><path fill="#ffffff" d="M 126.53125 150.222656 C 126.53125 150.425781 126.496094 150.621094 126.417969 150.808594 C 126.339844 150.996094 126.230469 151.164062 126.085938 151.304688 C 125.941406 151.449219 125.777344 151.558594 125.589844 151.636719 C 125.402344 151.714844 125.207031 151.753906 125.003906 151.753906 C 124.804688 151.753906 124.609375 151.714844 124.421875 151.636719 C 124.234375 151.558594 124.070312 151.449219 123.925781 151.304688 C 123.78125 151.164062 123.671875 150.996094 123.59375 150.808594 C 123.515625 150.621094 123.480469 150.425781 123.480469 150.222656 C 123.480469 150.023438 123.515625 149.828125 123.59375 149.640625 C 123.671875 149.453125 123.78125 149.285156 123.925781 149.144531 C 124.070312 149 124.234375 148.890625 124.421875 148.8125 C 124.609375 148.734375 124.804688 148.695312 125.003906 148.695312 C 125.207031 148.695312 125.402344 148.734375 125.589844 148.8125 C 125.777344 148.890625 125.941406 149 126.085938 149.144531 C 126.230469 149.285156 126.339844 149.453125 126.417969 149.640625 C 126.496094 149.828125 126.53125 150.023438 126.53125 150.222656 Z M 130.796875 148.695312 C 130.59375 148.695312 130.398438 148.734375 130.210938 148.8125 C 130.027344 148.890625 129.859375 149.003906 129.71875 149.148438 C 129.574219 149.289062 129.464844 149.457031 129.390625 149.644531 C 129.3125 149.832031 129.273438 150.027344 129.273438 150.230469 C 129.277344 150.433594 129.316406 150.625 129.394531 150.8125 C 129.46875 151 129.582031 151.164062 129.726562 151.308594 C 129.867188 151.453125 130.03125 151.5625 130.21875 151.640625 C 130.40625 151.714844 130.601562 151.753906 130.804688 151.753906 C 131.007812 151.753906 131.199219 151.714844 131.386719 151.636719 C 131.574219 151.558594 131.738281 151.449219 131.882812 151.304688 C 132.027344 151.160156 132.136719 150.996094 132.214844 150.808594 C 132.289062 150.621094 132.328125 150.425781 132.328125 150.222656 C 132.328125 150.019531 132.289062 149.820312 132.210938 149.632812 C 132.128906 149.441406 132.015625 149.273438 131.871094 149.132812 C 131.722656 148.988281 131.554688 148.878906 131.363281 148.800781 C 131.171875 148.726562 130.972656 148.691406 130.769531 148.695312 Z M 136.589844 148.695312 C 136.390625 148.695312 136.195312 148.734375 136.007812 148.8125 C 135.820312 148.890625 135.65625 149 135.511719 149.144531 C 135.367188 149.285156 135.257812 149.453125 135.179688 149.640625 C 135.101562 149.828125 135.066406 150.023438 135.066406 150.222656 C 135.066406 150.425781 135.101562 150.621094 135.179688 150.808594 C 135.257812 150.996094 135.367188 151.164062 135.511719 151.304688 C 135.65625 151.449219 135.820312 151.558594 136.007812 151.636719 C 136.195312 151.714844 136.390625 151.753906 136.589844 151.753906 C 136.792969 151.753906 136.988281 151.714844 137.175781 151.636719 C 137.363281 151.558594 137.527344 151.449219 137.671875 151.304688 C 137.816406 151.164062 137.925781 150.996094 138.003906 150.808594 C 138.078125 150.621094 138.117188 150.425781 138.117188 150.222656 C 138.117188 150.019531 138.078125 149.824219 138 149.632812 C 137.917969 149.445312 137.804688 149.277344 137.660156 149.136719 C 137.515625 148.992188 137.347656 148.882812 137.15625 148.804688 C 136.96875 148.730469 136.769531 148.691406 136.566406 148.695312 Z M 136.589844 148.695312 " fill-opacity="1" fill-rule="nonzero"/><path fill="#f56dcd" d="M 178.355469 166.046875 L 178.355469 187.1875 C 177.671875 187.167969 177 187.085938 176.332031 186.9375 C 175.667969 186.789062 175.019531 186.578125 174.394531 186.308594 C 173.769531 186.035156 173.179688 185.703125 172.617188 185.3125 C 172.054688 184.925781 171.535156 184.488281 171.0625 184 C 170.585938 183.507812 170.160156 182.980469 169.785156 182.40625 C 169.414062 181.835938 169.097656 181.234375 168.839844 180.601562 C 168.582031 179.96875 168.390625 179.316406 168.257812 178.644531 C 168.128906 177.976562 168.0625 177.296875 168.0625 176.617188 C 168.0625 175.933594 168.128906 175.253906 168.257812 174.585938 C 168.390625 173.914062 168.582031 173.261719 168.839844 172.628906 C 169.097656 171.996094 169.414062 171.394531 169.785156 170.824219 C 170.160156 170.253906 170.585938 169.722656 171.0625 169.234375 C 171.535156 168.746094 172.054688 168.304688 172.617188 167.917969 C 173.179688 167.527344 173.769531 167.199219 174.394531 166.925781 C 175.019531 166.652344 175.667969 166.441406 176.332031 166.292969 C 177 166.144531 177.671875 166.0625 178.355469 166.046875 Z M 178.355469 166.046875 " fill-opacity="1" fill-rule="nonzero"/><path fill="#000000" d="M 82.15625 276.203125 L 66.28125 276.203125 C 66.160156 276.203125 66.050781 276.179688 65.945312 276.125 C 65.839844 276.074219 65.75 276 65.675781 275.90625 C 65.605469 275.8125 65.558594 275.707031 65.535156 275.59375 C 65.511719 275.476562 65.511719 275.363281 65.542969 275.246094 L 66.484375 271.667969 L 66.929688 266.082031 L 74.234375 266.082031 L 73.84375 270.964844 L 82.339844 275.398438 C 82.539062 275.5 82.613281 275.660156 82.5625 275.875 C 82.511719 276.089844 82.375 276.199219 82.15625 276.203125 Z M 99.890625 275.398438 L 91.210938 270.871094 L 90.699219 266.082031 L 83.375 266.082031 L 83.988281 271.78125 L 83.078125 275.246094 C 83.046875 275.363281 83.042969 275.476562 83.066406 275.59375 C 83.09375 275.707031 83.140625 275.8125 83.210938 275.90625 C 83.285156 276 83.371094 276.074219 83.480469 276.125 C 83.585938 276.179688 83.695312 276.203125 83.816406 276.203125 L 99.691406 276.203125 C 99.914062 276.207031 100.054688 276.101562 100.109375 275.882812 C 100.164062 275.664062 100.089844 275.503906 99.890625 275.398438 Z M 99.890625 275.398438 " fill-opacity="1" fill-rule="nonzero"/><path fill="#ffffff" d="M 81.226562 182.824219 L 88.375 216.972656 L 93.820312 267.273438 L 82.585938 267.273438 L 78.503906 223.796875 L 67.964844 190.050781 Z M 81.226562 182.824219 " fill-opacity="1" fill-rule="nonzero"/><path fill="#000000" d="M 93.820312 267.507812 L 82.585938 267.507812 C 82.445312 267.507812 82.367188 267.4375 82.355469 267.292969 L 78.265625 223.816406 L 67.742188 190.144531 C 67.703125 190.023438 67.742188 189.933594 67.851562 189.871094 L 81.132812 182.617188 C 81.203125 182.585938 81.273438 182.585938 81.34375 182.617188 C 81.414062 182.652344 81.457031 182.707031 81.472656 182.785156 L 88.621094 216.933594 L 94.074219 267.253906 C 94.082031 267.320312 94.0625 267.382812 94.019531 267.433594 C 93.964844 267.492188 93.898438 267.515625 93.820312 267.507812 Z M 82.796875 267.035156 L 93.5625 267.035156 L 88.136719 217 L 81.058594 183.183594 L 68.25 190.191406 L 78.730469 223.722656 Z M 82.796875 267.035156 " fill-opacity="1" fill-rule="nonzero"/><path fill="#dcb07b" d="M 109.371094 164.847656 L 108.46875 168.644531 L 86.324219 175.855469 L 67.734375 162.242188 L 76.152344 157.035156 L 88.328125 166.625 Z M 109.371094 164.847656 " fill-opacity="1" fill-rule="nonzero"/><path fill="#ffffff" d="M 65.222656 267.273438 L 67.945312 220.554688 L 60.96875 191.90625 L 78.503906 185.089844 L 82.585938 217.484375 L 75.945312 267.273438 Z M 65.222656 267.273438 " fill-opacity="1" fill-rule="nonzero"/><path fill="#000000" d="M 75.945312 267.507812 L 65.222656 267.507812 C 65.15625 267.507812 65.097656 267.480469 65.050781 267.433594 C 65.003906 267.386719 64.980469 267.328125 64.984375 267.261719 L 67.707031 220.578125 L 60.734375 191.980469 C 60.703125 191.84375 60.75 191.753906 60.882812 191.703125 L 78.417969 184.886719 C 78.484375 184.851562 78.554688 184.851562 78.621094 184.886719 C 78.683594 184.925781 78.722656 184.984375 78.734375 185.058594 L 82.820312 217.457031 L 82.820312 217.515625 L 76.179688 267.308594 C 76.160156 267.441406 76.082031 267.507812 75.945312 267.507812 Z M 65.449219 267.035156 L 75.742188 267.035156 L 82.378906 217.484375 L 78.304688 185.398438 L 61.246094 192.046875 L 68.171875 220.496094 C 68.175781 220.519531 68.175781 220.546875 68.171875 220.570312 Z M 65.449219 267.035156 " fill-opacity="1" fill-rule="nonzero"/><g clip-path="url(#70f8c660b6)"><path fill="#f56dcd" d="M 96.175781 177.558594 L 71.425781 200.8125 C 71.136719 201.085938 70.804688 201.289062 70.433594 201.429688 C 70.0625 201.570312 69.679688 201.632812 69.28125 201.621094 C 68.886719 201.609375 68.507812 201.519531 68.144531 201.355469 C 67.78125 201.191406 67.46875 200.964844 67.195312 200.671875 L 55.359375 187.945312 L 54.535156 187.054688 C 54.265625 186.765625 54.0625 186.433594 53.921875 186.0625 C 53.785156 185.695312 53.71875 185.3125 53.734375 184.917969 C 53.746094 184.519531 53.835938 184.144531 53.996094 183.78125 C 54.160156 183.421875 54.386719 183.105469 54.675781 182.835938 L 79.4375 159.5625 C 79.726562 159.289062 80.058594 159.085938 80.429688 158.945312 C 80.800781 158.804688 81.183594 158.742188 81.582031 158.753906 C 81.976562 158.769531 82.355469 158.859375 82.714844 159.023438 C 83.078125 159.1875 83.390625 159.417969 83.660156 159.707031 L 84.570312 160.683594 L 96.324219 173.320312 C 96.59375 173.609375 96.800781 173.941406 96.941406 174.3125 C 97.078125 174.6875 97.140625 175.070312 97.128906 175.46875 C 97.113281 175.867188 97.023438 176.246094 96.859375 176.609375 C 96.695312 176.96875 96.46875 177.285156 96.175781 177.558594 Z M 96.175781 177.558594 " fill-opacity="1" fill-rule="nonzero"/></g><g clip-path="url(#d7ed85d647)"><path fill="#000000" d="M 55.359375 188.175781 C 55.289062 188.175781 55.234375 188.152344 55.183594 188.105469 L 54.363281 187.210938 C 54.070312 186.902344 53.851562 186.542969 53.703125 186.144531 C 53.554688 185.746094 53.484375 185.332031 53.5 184.90625 C 53.515625 184.480469 53.609375 184.074219 53.785156 183.683594 C 53.960938 183.296875 54.203125 182.957031 54.515625 182.664062 L 79.273438 159.386719 C 79.925781 158.785156 80.699219 158.496094 81.589844 158.523438 C 82.480469 158.550781 83.230469 158.890625 83.835938 159.546875 L 84.742188 160.527344 C 84.855469 160.636719 84.855469 160.746094 84.742188 160.859375 L 55.53125 188.125 C 55.480469 188.167969 55.421875 188.183594 55.359375 188.175781 Z M 81.476562 159.003906 C 80.753906 159 80.125 159.25 79.597656 159.746094 L 54.828125 183.011719 C 54.5625 183.261719 54.355469 183.550781 54.207031 183.882812 C 54.058594 184.214844 53.976562 184.5625 53.964844 184.925781 C 53.953125 185.289062 54.011719 185.640625 54.140625 185.980469 C 54.265625 186.324219 54.453125 186.625 54.699219 186.894531 L 55.363281 187.613281 L 84.238281 160.683594 L 83.488281 159.878906 C 82.972656 159.320312 82.335938 159.027344 81.578125 159.003906 Z M 81.476562 159.003906 " fill-opacity="1" fill-rule="nonzero"/></g><path fill="#ffffff" d="M 76.558594 165.246094 C 76.675781 165.371094 76.734375 165.519531 76.730469 165.691406 C 76.726562 165.863281 76.664062 166.007812 76.539062 166.128906 C 76.417969 166.246094 76.269531 166.304688 76.097656 166.300781 C 75.925781 166.296875 75.78125 166.234375 75.660156 166.113281 C 75.542969 165.988281 75.488281 165.839844 75.492188 165.671875 C 75.5 165.5 75.5625 165.355469 75.6875 165.242188 C 75.8125 165.125 75.960938 165.070312 76.132812 165.078125 C 76.300781 165.085938 76.445312 165.152344 76.558594 165.28125 Z M 77.78125 163.253906 C 77.660156 163.371094 77.601562 163.515625 77.601562 163.683594 C 77.601562 163.851562 77.660156 163.996094 77.78125 164.117188 C 77.898438 164.238281 78.042969 164.296875 78.210938 164.296875 C 78.378906 164.296875 78.523438 164.238281 78.644531 164.117188 C 78.761719 163.996094 78.824219 163.851562 78.824219 163.683594 C 78.824219 163.515625 78.761719 163.371094 78.644531 163.25 C 78.523438 163.132812 78.378906 163.074219 78.210938 163.074219 C 78.042969 163.074219 77.898438 163.132812 77.78125 163.253906 Z M 79.863281 161.308594 C 79.742188 161.429688 79.683594 161.574219 79.679688 161.742188 C 79.679688 161.914062 79.738281 162.058594 79.859375 162.179688 C 79.980469 162.296875 80.121094 162.359375 80.292969 162.359375 C 80.460938 162.359375 80.605469 162.296875 80.726562 162.179688 C 80.84375 162.058594 80.902344 161.914062 80.902344 161.742188 C 80.902344 161.574219 80.839844 161.429688 80.71875 161.308594 C 80.601562 161.195312 80.457031 161.136719 80.289062 161.140625 C 80.121094 161.144531 79.980469 161.207031 79.863281 161.332031 Z M 79.863281 161.308594 " fill-opacity="1" fill-rule="nonzero"/><path fill="#f56dcd" d="M 104.621094 152.273438 L 119.429688 164.855469 L 100.175781 171.210938 Z M 104.621094 152.273438 " fill-opacity="1" fill-rule="nonzero"/><path fill="#dcb07b" d="M 110.597656 168.992188 C 110.453125 169.609375 109.75 169.757812 109.410156 169.796875 C 109.097656 170.148438 108.703125 170.328125 108.234375 170.335938 C 107.855469 170.722656 107.398438 170.886719 106.859375 170.828125 C 106.515625 171.179688 106.097656 171.316406 105.613281 171.230469 C 104.945312 171.386719 104.28125 171.367188 103.621094 171.179688 C 103.207031 171.085938 102.804688 170.957031 102.410156 170.792969 L 99.757812 171.457031 L 105.253906 168.539062 L 105.3125 166.835938 C 105.328125 166.464844 105.492188 166.183594 105.8125 165.992188 C 106.019531 165.882812 106.242188 165.851562 106.476562 165.898438 C 106.554688 165.722656 106.679688 165.585938 106.847656 165.488281 C 107.152344 165.339844 107.464844 165.3125 107.789062 165.40625 C 107.914062 165.199219 108.085938 165.050781 108.308594 164.960938 C 108.5625 164.863281 108.820312 164.847656 109.085938 164.914062 C 109.304688 164.695312 109.570312 164.597656 109.882812 164.621094 C 110.148438 164.628906 110.390625 164.710938 110.609375 164.863281 C 110.828125 165.015625 110.984375 165.21875 111.082031 165.464844 C 111.261719 166.160156 110.722656 168.527344 110.597656 168.992188 Z M 110.597656 168.992188 " fill-opacity="1" fill-rule="nonzero"/><path fill="#000000" d="M 119.722656 261.800781 C 119.722656 262.03125 119.675781 262.253906 119.589844 262.46875 C 119.5 262.679688 119.375 262.871094 119.210938 263.03125 C 119.046875 263.195312 118.859375 263.320312 118.648438 263.410156 C 118.433594 263.5 118.210938 263.542969 117.980469 263.542969 C 117.75 263.542969 117.527344 263.5 117.316406 263.410156 C 117.101562 263.320312 116.914062 263.195312 116.75 263.03125 C 116.589844 262.871094 116.460938 262.679688 116.375 262.46875 C 116.285156 262.253906 116.242188 262.03125 116.242188 261.800781 C 116.242188 261.570312 116.285156 261.347656 116.375 261.132812 C 116.460938 260.921875 116.589844 260.730469 116.75 260.570312 C 116.914062 260.40625 117.101562 260.28125 117.316406 260.191406 C 117.527344 260.101562 117.75 260.058594 117.980469 260.058594 C 118.210938 260.058594 118.433594 260.101562 118.648438 260.191406 C 118.859375 260.28125 119.046875 260.40625 119.210938 260.570312 C 119.375 260.730469 119.5 260.921875 119.589844 261.132812 C 119.675781 261.347656 119.722656 261.570312 119.722656 261.800781 Z M 111.042969 258.980469 C 110.832031 258.980469 110.628906 259.023438 110.433594 259.101562 C 110.238281 259.183594 110.066406 259.300781 109.917969 259.449219 C 109.769531 259.601562 109.65625 259.773438 109.574219 259.96875 C 109.496094 260.164062 109.457031 260.367188 109.457031 260.578125 C 109.457031 260.789062 109.5 260.996094 109.582031 261.1875 C 109.664062 261.382812 109.78125 261.554688 109.929688 261.703125 C 110.082031 261.851562 110.253906 261.964844 110.449219 262.042969 C 110.644531 262.125 110.851562 262.160156 111.0625 262.160156 C 111.273438 262.15625 111.476562 262.113281 111.667969 262.03125 C 111.863281 261.949219 112.035156 261.832031 112.179688 261.679688 C 112.328125 261.527344 112.441406 261.351562 112.519531 261.15625 C 112.597656 260.960938 112.632812 260.753906 112.628906 260.542969 C 112.625 260.335938 112.582031 260.136719 112.5 259.945312 C 112.417969 259.753906 112.304688 259.582031 112.15625 259.4375 C 112.007812 259.289062 111.835938 259.179688 111.644531 259.097656 C 111.453125 259.019531 111.25 258.980469 111.042969 258.980469 Z M 111.042969 258.980469 " fill-opacity="1" fill-rule="nonzero"/><path fill="#f56dcd" d="M 115.285156 262.273438 C 115.285156 262.273438 117.980469 260.863281 120.671875 261.714844 C 120.671875 261.714844 121.402344 265.65625 118.679688 265.949219 C 115.550781 266.28125 115.285156 262.273438 115.285156 262.273438 Z M 111.667969 264.339844 C 114.148438 264.074219 113.488281 260.492188 113.488281 260.492188 C 112.667969 260.253906 111.835938 260.179688 110.992188 260.265625 C 110.144531 260.351562 109.34375 260.597656 108.59375 260.996094 C 108.59375 260.996094 108.832031 264.648438 111.667969 264.339844 Z M 111.667969 264.339844 " fill-opacity="1" fill-rule="nonzero"/><path fill="#000000" d="M 174.753906 260.058594 C 174.984375 260.058594 175.207031 260.101562 175.421875 260.191406 C 175.632812 260.28125 175.824219 260.40625 175.984375 260.570312 C 176.148438 260.730469 176.273438 260.921875 176.363281 261.132812 C 176.449219 261.347656 176.496094 261.570312 176.496094 261.800781 C 176.496094 262.03125 176.449219 262.253906 176.363281 262.46875 C 176.273438 262.679688 176.148438 262.871094 175.984375 263.03125 C 175.824219 263.195312 175.632812 263.320312 175.421875 263.410156 C 175.207031 263.5 174.984375 263.542969 174.753906 263.542969 C 174.523438 263.542969 174.304688 263.5 174.089844 263.410156 C 173.875 263.320312 173.6875 263.195312 173.523438 263.03125 C 173.363281 262.871094 173.238281 262.679688 173.148438 262.46875 C 173.058594 262.253906 173.015625 262.03125 173.015625 261.800781 C 173.015625 261.570312 173.058594 261.347656 173.148438 261.132812 C 173.238281 260.921875 173.363281 260.730469 173.523438 260.570312 C 173.6875 260.40625 173.875 260.28125 174.089844 260.191406 C 174.304688 260.101562 174.523438 260.058594 174.753906 260.058594 Z M 180.105469 260.570312 C 180.105469 260.78125 180.148438 260.984375 180.226562 261.179688 C 180.308594 261.375 180.421875 261.546875 180.570312 261.695312 C 180.71875 261.84375 180.890625 261.957031 181.085938 262.039062 C 181.28125 262.121094 181.484375 262.160156 181.695312 262.160156 C 181.902344 262.160156 182.105469 262.121094 182.300781 262.039062 C 182.496094 261.957031 182.667969 261.84375 182.816406 261.695312 C 182.964844 261.546875 183.078125 261.375 183.160156 261.179688 C 183.238281 260.984375 183.28125 260.78125 183.28125 260.570312 C 183.28125 260.359375 183.238281 260.15625 183.160156 259.960938 C 183.078125 259.765625 182.964844 259.59375 182.816406 259.445312 C 182.667969 259.296875 182.496094 259.183594 182.300781 259.101562 C 182.105469 259.019531 181.902344 258.980469 181.695312 258.980469 C 181.484375 258.980469 181.285156 259.019531 181.09375 259.097656 C 180.898438 259.179688 180.730469 259.289062 180.582031 259.4375 C 180.433594 259.582031 180.316406 259.753906 180.234375 259.945312 C 180.152344 260.136719 180.109375 260.335938 180.105469 260.542969 Z M 180.105469 260.570312 " fill-opacity="1" fill-rule="nonzero"/><path fill="#f56dcd" d="M 174.070312 265.949219 C 171.335938 265.65625 172.078125 261.714844 172.078125 261.714844 C 174.734375 260.863281 177.457031 262.273438 177.457031 262.273438 C 177.457031 262.273438 177.183594 266.28125 174.070312 265.949219 Z M 184.144531 260.996094 C 183.390625 260.597656 182.59375 260.351562 181.746094 260.265625 C 180.898438 260.179688 180.066406 260.253906 179.25 260.492188 C 179.25 260.492188 178.585938 264.074219 181.070312 264.339844 C 183.90625 264.648438 184.144531 260.996094 184.144531 260.996094 Z M 184.144531 260.996094 " fill-opacity="1" fill-rule="nonzero"/><path fill="#f56dcd" d="M 230.207031 276.589844 L 230.160156 276.949219 L 202.640625 276.949219 L 202.601562 276.578125 C 202.125 271.667969 204.179688 269.015625 205.835938 266.886719 C 206.5 266.109375 207.0625 265.261719 207.519531 264.347656 C 208.398438 262.484375 208.980469 260.53125 209.269531 258.492188 C 209.554688 256.449219 209.535156 254.410156 209.207031 252.378906 C 208.542969 248.066406 208.863281 241.769531 211.742188 238.199219 C 212.410156 237.355469 213.226562 236.6875 214.183594 236.195312 C 215.140625 235.703125 216.160156 235.433594 217.234375 235.386719 C 219.511719 235.238281 221.277344 235.984375 222.488281 237.601562 C 225.054688 241.050781 224.300781 247.4375 223.324219 250.082031 C 222.949219 251.042969 222.757812 252.039062 222.753906 253.070312 C 222.746094 254.101562 222.921875 255.101562 223.28125 256.066406 C 224.492188 257.476562 225.554688 258.984375 226.472656 260.597656 C 227.390625 262.210938 228.148438 263.894531 228.742188 265.652344 C 229.335938 267.414062 229.753906 269.210938 230 271.050781 C 230.25 272.890625 230.316406 274.738281 230.207031 276.589844 Z M 127.667969 266.238281 C 126.824219 267.761719 126.257812 269.382812 125.972656 271.101562 C 125.683594 272.824219 125.691406 274.542969 125.996094 276.257812 L 126.046875 276.515625 L 134.082031 276.515625 L 134.082031 276.589844 L 162.699219 276.589844 L 162.730469 276.296875 C 162.929688 273.964844 162.804688 271.652344 162.351562 269.355469 C 161.875 266.6875 161.054688 264.128906 159.890625 261.683594 C 158.730469 259.234375 157.269531 256.980469 155.507812 254.925781 C 155.121094 253.902344 154.929688 252.84375 154.929688 251.753906 C 154.929688 250.660156 155.121094 249.601562 155.507812 248.582031 C 156.488281 245.921875 157.28125 239.15625 154.644531 235.617188 C 153.402344 233.949219 151.582031 233.183594 149.238281 233.34375 C 148.128906 233.390625 147.074219 233.667969 146.085938 234.175781 C 145.09375 234.683594 144.253906 235.375 143.5625 236.25 C 140.570312 239.960938 140.242188 246.519531 140.90625 251.007812 C 141.359375 253.832031 141.25 256.632812 140.574219 259.414062 C 138.316406 257.851562 138.050781 256.308594 137.714844 254.320312 C 137.613281 253.726562 137.507812 253.121094 137.347656 252.464844 C 136.480469 248.992188 132.867188 246.480469 129.765625 247.242188 C 128.945312 247.507812 128.226562 247.941406 127.601562 248.535156 C 126.980469 249.132812 126.515625 249.832031 126.214844 250.640625 C 125.734375 251.761719 125.53125 252.933594 125.609375 254.148438 C 125.691406 255.367188 126.039062 256.5 126.660156 257.550781 C 129.003906 261.488281 127.789062 265.863281 127.667969 266.238281 Z M 127.667969 266.238281 " fill-opacity="1" fill-rule="nonzero"/><path fill="#000000" d="M 165.558594 269.234375 C 165.078125 266.554688 164.253906 263.980469 163.089844 261.519531 C 161.921875 259.054688 160.457031 256.789062 158.6875 254.71875 C 158.328125 253.726562 158.148438 252.707031 158.15625 251.652344 C 158.164062 250.597656 158.359375 249.578125 158.734375 248.59375 C 159.738281 245.886719 160.535156 239.011719 157.84375 235.398438 C 156.960938 234.1875 155.785156 233.441406 154.3125 233.160156 C 154.285156 233.152344 154.253906 233.152344 154.226562 233.160156 C 153.503906 233.023438 152.773438 232.988281 152.039062 233.050781 C 151.308594 233.113281 150.59375 233.273438 149.902344 233.523438 C 149.210938 233.777344 148.566406 234.117188 147.964844 234.542969 C 147.367188 234.96875 146.832031 235.46875 146.363281 236.039062 C 143.316406 239.816406 143.011719 246.453125 143.675781 250.988281 C 144.101562 253.664062 144.023438 256.324219 143.4375 258.96875 C 141.539062 257.539062 141.300781 256.148438 140.972656 254.246094 C 140.875 253.65625 140.769531 253.042969 140.601562 252.382812 C 139.707031 248.785156 135.953125 246.21875 132.726562 246.984375 C 131.867188 247.253906 131.113281 247.703125 130.457031 248.324219 C 129.804688 248.945312 129.320312 249.675781 129.003906 250.523438 C 128.503906 251.679688 128.296875 252.886719 128.375 254.144531 C 128.457031 255.402344 128.820312 256.574219 129.460938 257.65625 C 131.679688 261.488281 130.523438 265.679688 130.402344 266.097656 C 129.546875 267.648438 128.972656 269.296875 128.679688 271.046875 C 128.386719 272.796875 128.394531 274.546875 128.703125 276.292969 L 128.765625 276.550781 C 128.789062 276.683594 128.867188 276.75 129.003906 276.75 L 138.921875 276.75 C 138.960938 276.761719 138.996094 276.761719 139.035156 276.75 C 139.070312 276.761719 139.105469 276.761719 139.140625 276.75 L 165.652344 276.816406 C 165.800781 276.816406 165.882812 276.746094 165.898438 276.597656 L 165.9375 276.3125 C 166.136719 273.933594 166.007812 271.578125 165.558594 269.234375 Z M 150.546875 266.15625 L 161.171875 259.039062 C 161.742188 259.996094 162.265625 260.980469 162.730469 261.992188 L 150.894531 269.632812 C 150.792969 268.5625 150.667969 267.398438 150.546875 266.15625 Z M 157.441406 235.691406 C 160.023438 239.15625 159.238281 245.800781 158.269531 248.421875 C 157.871094 249.472656 157.671875 250.5625 157.671875 251.6875 C 157.671875 252.8125 157.871094 253.898438 158.269531 254.949219 L 158.308594 255.011719 C 159.285156 256.148438 160.171875 257.351562 160.964844 258.621094 L 150.527344 265.589844 C 149.644531 255.808594 149.480469 241.757812 154.371094 233.671875 C 155.648438 233.960938 156.667969 234.632812 157.441406 235.691406 Z M 146.121094 237.269531 L 150.382812 242.902344 C 150.425781 242.957031 150.480469 242.984375 150.546875 242.988281 C 150.414062 243.691406 150.296875 244.402344 150.1875 245.128906 L 145.410156 238.84375 C 145.386719 238.8125 145.359375 238.789062 145.324219 238.777344 C 145.550781 238.253906 145.816406 237.75 146.121094 237.269531 Z M 152.246094 233.550781 C 152.773438 233.515625 153.296875 233.535156 153.820312 233.605469 C 152.277344 236.371094 151.222656 239.316406 150.652344 242.433594 L 146.410156 236.828125 C 146.519531 236.675781 146.628906 236.511719 146.75 236.363281 C 147.417969 235.511719 148.230469 234.835938 149.1875 234.339844 C 150.148438 233.84375 151.167969 233.570312 152.246094 233.519531 Z M 140.476562 254.285156 C 140.820312 256.28125 141.09375 257.917969 143.445312 259.539062 C 143.519531 259.582031 143.597656 259.582031 143.675781 259.539062 C 143.757812 259.507812 143.808594 259.449219 143.828125 259.367188 C 144.503906 256.554688 144.617188 253.722656 144.160156 250.867188 C 143.664062 247.457031 143.722656 242.839844 145.117188 239.222656 L 149.863281 245.476562 C 149.914062 245.539062 149.980469 245.574219 150.0625 245.574219 C 150.078125 245.578125 150.09375 245.578125 150.109375 245.574219 C 149.171875 252.46875 149.445312 260.046875 150.03125 265.96875 C 150.011719 266.019531 150.011719 266.074219 150.03125 266.125 C 150.15625 267.507812 150.300781 268.785156 150.441406 269.96875 C 150.390625 270.050781 150.390625 270.136719 150.441406 270.21875 C 150.820312 273.265625 151.191406 275.441406 151.332031 276.203125 L 139.222656 276.203125 C 139.097656 269.980469 138.449219 263.816406 137.269531 257.703125 L 137.308594 257.703125 C 137.914062 256.925781 139.660156 254.484375 139.964844 252.050781 C 140.011719 252.191406 140.058594 252.332031 140.089844 252.476562 C 140.285156 253.097656 140.382812 253.695312 140.476562 254.285156 Z M 138.601562 249.597656 C 138.945312 249.996094 139.242188 250.425781 139.492188 250.886719 C 139.777344 253.242188 138.011719 255.957031 137.183594 257.078125 C 137.015625 256.335938 136.832031 255.597656 136.636719 254.878906 C 137.429688 253.699219 138.597656 251.597656 138.609375 249.597656 Z M 138.074219 249.058594 C 138.296875 250.882812 137.261719 252.941406 136.457031 254.238281 C 135.640625 251.445312 134.59375 249.003906 133.238281 247.34375 C 134.132812 247.25 135.003906 247.351562 135.851562 247.652344 C 136.699219 247.953125 137.441406 248.421875 138.078125 249.058594 Z M 129.890625 257.351562 C 129.296875 256.339844 128.957031 255.25 128.882812 254.078125 C 128.804688 252.90625 129 251.78125 129.460938 250.703125 C 129.742188 249.957031 130.164062 249.304688 130.730469 248.742188 C 131.296875 248.183594 131.953125 247.765625 132.699219 247.496094 C 136.683594 252.152344 138.078125 264.179688 138.550781 271.210938 C 137.441406 269.925781 134.566406 266.941406 130.929688 266.023438 C 131.179688 264.917969 131.996094 260.988281 129.890625 257.351562 Z M 137.035156 276.199219 L 129.1875 276.199219 L 129.1875 276.132812 C 128.90625 274.476562 128.898438 272.820312 129.164062 271.164062 C 129.433594 269.507812 129.960938 267.9375 130.75 266.457031 C 134.957031 267.5 138.277344 271.609375 138.601562 272.023438 C 138.722656 274.082031 138.769531 275.601562 138.78125 276.199219 Z M 165.445312 276.199219 L 165.445312 276.269531 L 151.902344 276.238281 C 151.78125 275.574219 151.390625 273.359375 151 270.191406 L 162.949219 262.460938 C 163.921875 264.664062 164.617188 266.949219 165.042969 269.320312 C 165.496094 271.59375 165.632812 273.882812 165.445312 276.191406 Z M 165.445312 276.199219 " fill-opacity="1" fill-rule="nonzero"/><path fill="#000000" d="M 241.355469 249.902344 C 241.699219 249.824219 242.042969 249.8125 242.390625 249.871094 C 242.738281 249.929688 243.0625 250.054688 243.359375 250.242188 C 243.660156 250.425781 243.910156 250.664062 244.117188 250.953125 C 244.320312 251.238281 244.460938 251.554688 244.539062 251.898438 C 244.621094 252.242188 244.628906 252.589844 244.570312 252.9375 C 244.511719 253.285156 244.390625 253.609375 244.203125 253.90625 C 244.015625 254.207031 243.78125 254.457031 243.492188 254.664062 C 243.207031 254.867188 242.890625 255.007812 242.546875 255.089844 C 242.203125 255.167969 241.859375 255.175781 241.511719 255.117188 C 241.164062 255.058594 240.839844 254.9375 240.542969 254.75 C 240.242188 254.5625 239.992188 254.324219 239.789062 254.035156 C 239.582031 253.75 239.441406 253.433594 239.363281 253.089844 C 239.285156 252.746094 239.277344 252.398438 239.335938 252.050781 C 239.394531 251.707031 239.515625 251.382812 239.703125 251.082031 C 239.890625 250.785156 240.125 250.535156 240.410156 250.328125 C 240.699219 250.125 241.011719 249.984375 241.355469 249.902344 Z M 241.355469 249.902344 " fill-opacity="1" fill-rule="nonzero"/><path fill="#000000" d="M 243.203125 257.988281 C 243.128906 258.5625 241.105469 272.300781 233.621094 277.277344 L 233.414062 276.179688 C 235.121094 274.984375 236.503906 273.496094 237.566406 271.703125 C 236.394531 269.992188 235.34375 268.207031 234.417969 266.347656 C 233.34375 263.988281 234.417969 263.390625 235.035156 263.070312 C 235.652344 262.75 237.5 263.191406 238.441406 265.730469 C 238.847656 267.199219 238.847656 268.671875 238.441406 270.140625 C 240.335938 266.253906 241.585938 262.167969 242.191406 257.882812 Z M 243.203125 257.988281 " fill-opacity="1" fill-rule="nonzero"/><path fill="#000000" d="M 226.820312 255.960938 C 226.484375 255.027344 226.316406 254.066406 226.328125 253.074219 C 226.335938 252.082031 226.519531 251.121094 226.875 250.195312 C 227.871094 247.503906 228.632812 241.011719 226.003906 237.480469 C 225.695312 237.0625 225.332031 236.691406 224.921875 236.371094 C 224.511719 236.046875 224.066406 235.785156 223.585938 235.582031 C 223.105469 235.378906 222.609375 235.242188 222.089844 235.171875 C 221.574219 235.101562 221.058594 235.097656 220.542969 235.167969 C 219.429688 235.214844 218.378906 235.492188 217.390625 236 C 216.398438 236.507812 215.558594 237.199219 214.871094 238.074219 C 211.941406 241.703125 211.644531 248.046875 212.28125 252.445312 C 212.605469 254.449219 212.621094 256.460938 212.339844 258.472656 C 212.054688 260.484375 211.480469 262.410156 210.613281 264.246094 C 210.164062 265.144531 209.613281 265.972656 208.960938 266.734375 C 207.28125 268.902344 205.183594 271.597656 205.640625 276.605469 L 205.683594 276.96875 C 205.699219 277.117188 205.78125 277.191406 205.925781 277.195312 L 233.449219 277.195312 C 233.597656 277.195312 233.679688 277.125 233.695312 276.976562 L 233.742188 276.617188 C 233.855469 274.753906 233.789062 272.898438 233.542969 271.046875 C 233.300781 269.195312 232.882812 267.386719 232.289062 265.613281 C 231.695312 263.84375 230.941406 262.148438 230.019531 260.523438 C 229.101562 258.902344 228.035156 257.378906 226.820312 255.960938 Z M 219.433594 267.859375 L 228.25 258.660156 C 228.726562 259.328125 229.160156 260.039062 229.578125 260.730469 L 219.71875 270.425781 C 219.617188 269.632812 219.511719 268.789062 219.40625 267.898438 C 219.417969 267.886719 219.425781 267.875 219.433594 267.859375 Z M 225.605469 237.800781 C 228.125 241.171875 227.375 247.4375 226.410156 250.042969 C 226.023438 251.03125 225.824219 252.058594 225.820312 253.121094 C 225.816406 254.1875 226 255.214844 226.378906 256.207031 L 226.417969 256.273438 C 226.976562 256.941406 227.484375 257.605469 227.957031 258.269531 L 219.324219 267.292969 C 218.597656 260.890625 217.945312 252.277344 218.574219 245.109375 C 218.582031 245.085938 218.582031 245.066406 218.574219 245.042969 C 218.90625 241.386719 219.570312 238.113281 220.726562 235.730469 C 221.664062 235.625 222.566406 235.75 223.433594 236.117188 C 224.304688 236.480469 225.027344 237.035156 225.605469 237.78125 Z M 213.769531 241.019531 L 218.039062 245.117188 C 217.972656 245.875 217.917969 246.679688 217.878906 247.496094 L 213.3125 242.921875 C 213.269531 242.882812 213.21875 242.863281 213.164062 242.859375 C 213.324219 242.226562 213.527344 241.605469 213.769531 241 Z M 215.261719 238.40625 C 215.863281 237.648438 216.589844 237.039062 217.4375 236.578125 C 218.285156 236.117188 219.1875 235.839844 220.148438 235.746094 C 218.992188 238.550781 218.3125 241.46875 218.105469 244.496094 L 214.046875 240.59375 C 214.046875 240.59375 213.988281 240.59375 213.960938 240.554688 C 214.300781 239.773438 214.734375 239.050781 215.261719 238.386719 Z M 206.207031 276.558594 C 205.734375 271.742188 207.761719 269.136719 209.386719 267.042969 C 210.066406 266.25 210.636719 265.382812 211.101562 264.449219 C 211.984375 262.566406 212.574219 260.597656 212.863281 258.539062 C 213.15625 256.480469 213.136719 254.421875 212.804688 252.371094 C 212.355469 249.34375 212.449219 246.328125 213.078125 243.332031 L 217.878906 248.148438 C 217.753906 252.171875 217.847656 256.191406 218.164062 260.203125 C 218.828125 269.007812 220.15625 276.542969 220.15625 276.617188 C 220.15625 276.691406 220.1875 276.671875 220.203125 276.695312 L 206.207031 276.695312 Z M 233.316406 276.558594 L 233.316406 276.695312 L 220.574219 276.695312 C 220.609375 276.648438 220.621094 276.589844 220.609375 276.53125 C 220.609375 276.449219 220.214844 274.316406 219.777344 271.011719 L 229.785156 261.175781 C 231.082031 263.523438 232.027344 266.003906 232.621094 268.617188 C 233.214844 271.234375 233.4375 273.878906 233.28125 276.558594 Z M 233.316406 276.558594 " fill-opacity="1" fill-rule="nonzero"/><path fill="#ffffff" d="M 130.761719 177.210938 L 138.730469 177.210938 L 138.730469 185.191406 L 130.761719 185.191406 Z M 130.761719 177.210938 " fill-opacity="1" fill-rule="nonzero"/><path fill="#000000" d="M 138.734375 185.398438 L 130.769531 185.398438 C 130.613281 185.398438 130.535156 185.320312 130.53125 185.164062 L 130.53125 177.183594 C 130.53125 177.117188 130.554688 177.0625 130.601562 177.015625 C 130.648438 176.972656 130.703125 176.949219 130.769531 176.953125 L 138.734375 176.953125 C 138.890625 176.953125 138.96875 177.027344 138.96875 177.183594 L 138.96875 185.164062 C 138.96875 185.320312 138.890625 185.398438 138.734375 185.398438 Z M 131 184.933594 L 138.484375 184.933594 L 138.484375 177.417969 L 131 177.417969 Z M 131 184.933594 " fill-opacity="1" fill-rule="nonzero"/><path fill="#ffffff" d="M 213.777344 199.402344 L 208.257812 199.402344 L 211.011719 194.613281 L 213.777344 189.832031 L 216.53125 194.613281 L 219.292969 199.402344 Z M 213.777344 199.402344 " fill-opacity="1" fill-rule="nonzero"/><path fill="#000000" d="M 219.292969 199.640625 L 208.257812 199.640625 C 208.164062 199.644531 208.097656 199.601562 208.050781 199.523438 C 208.007812 199.441406 208.007812 199.363281 208.050781 199.28125 L 213.570312 189.714844 C 213.617188 189.636719 213.683594 189.601562 213.773438 189.601562 C 213.859375 189.601562 213.929688 189.636719 213.976562 189.714844 L 219.484375 199.28125 C 219.527344 199.363281 219.527344 199.441406 219.484375 199.523438 C 219.441406 199.59375 219.378906 199.636719 219.292969 199.640625 Z M 208.667969 199.167969 L 218.886719 199.167969 L 213.78125 190.304688 Z M 208.667969 199.167969 " fill-opacity="1" fill-rule="nonzero"/><path fill="#f56dcd" d="M 151.609375 206.796875 L 145.714844 200.890625 L 151.609375 194.988281 L 157.507812 200.890625 Z M 219.265625 174.410156 L 213.371094 168.503906 L 207.476562 174.410156 L 213.371094 180.316406 Z M 195.914062 211.839844 L 193.257812 207.234375 L 190.605469 202.632812 L 187.949219 207.234375 L 185.292969 211.839844 Z M 195.914062 211.839844 " fill-opacity="1" fill-rule="nonzero"/><path fill="#000000" d="M 240.066406 237.746094 L 121.289062 237.746094 C 120.808594 237.742188 120.332031 237.695312 119.859375 237.597656 C 119.390625 237.5 118.933594 237.359375 118.492188 237.175781 C 118.046875 236.988281 117.628906 236.761719 117.230469 236.492188 C 116.832031 236.222656 116.460938 235.917969 116.121094 235.578125 C 115.785156 235.234375 115.480469 234.863281 115.214844 234.464844 C 114.949219 234.0625 114.726562 233.640625 114.542969 233.195312 C 114.359375 232.75 114.21875 232.292969 114.125 231.820312 C 114.03125 231.351562 113.984375 230.875 113.984375 230.390625 L 113.984375 151.136719 C 113.988281 150.65625 114.035156 150.179688 114.132812 149.710938 C 114.226562 149.242188 114.367188 148.785156 114.550781 148.34375 C 114.738281 147.902344 114.960938 147.480469 115.230469 147.082031 C 115.496094 146.683594 115.796875 146.316406 116.136719 145.976562 C 116.476562 145.636719 116.84375 145.335938 117.242188 145.066406 C 117.640625 144.800781 118.058594 144.574219 118.5 144.390625 C 118.941406 144.203125 119.398438 144.0625 119.867188 143.96875 C 120.335938 143.871094 120.808594 143.824219 121.289062 143.820312 L 240.066406 143.820312 C 240.546875 143.820312 241.023438 143.867188 241.496094 143.960938 C 241.964844 144.054688 242.421875 144.195312 242.867188 144.378906 C 243.3125 144.5625 243.734375 144.789062 244.132812 145.054688 C 244.535156 145.320312 244.902344 145.625 245.246094 145.960938 C 245.585938 146.300781 245.890625 146.671875 246.15625 147.070312 C 246.425781 147.46875 246.652344 147.890625 246.839844 148.335938 C 247.023438 148.777344 247.164062 149.234375 247.261719 149.707031 C 247.359375 150.179688 247.40625 150.65625 247.410156 151.136719 L 247.410156 230.390625 C 247.410156 230.875 247.363281 231.351562 247.269531 231.828125 C 247.175781 232.300781 247.035156 232.757812 246.851562 233.207031 C 246.664062 233.652344 246.4375 234.074219 246.171875 234.476562 C 245.902344 234.878906 245.597656 235.25 245.257812 235.589844 C 244.917969 235.933594 244.546875 236.238281 244.144531 236.503906 C 243.746094 236.773438 243.320312 237 242.875 237.183594 C 242.429688 237.371094 241.972656 237.511719 241.5 237.605469 C 241.027344 237.699219 240.550781 237.746094 240.066406 237.746094 Z M 121.289062 144.257812 C 120.835938 144.261719 120.390625 144.304688 119.949219 144.394531 C 119.507812 144.480469 119.078125 144.613281 118.660156 144.785156 C 118.246094 144.957031 117.851562 145.167969 117.476562 145.421875 C 117.101562 145.671875 116.753906 145.957031 116.433594 146.273438 C 116.117188 146.59375 115.832031 146.941406 115.582031 147.316406 C 115.332031 147.691406 115.121094 148.089844 114.945312 148.503906 C 114.773438 148.921875 114.644531 149.351562 114.554688 149.792969 C 114.46875 150.238281 114.421875 150.683594 114.421875 151.136719 L 114.421875 230.390625 C 114.421875 230.84375 114.46875 231.289062 114.554688 231.734375 C 114.644531 232.175781 114.777344 232.605469 114.949219 233.019531 C 115.121094 233.4375 115.332031 233.835938 115.582031 234.210938 C 115.835938 234.585938 116.117188 234.929688 116.4375 235.25 C 116.753906 235.570312 117.101562 235.855469 117.476562 236.105469 C 117.851562 236.355469 118.246094 236.566406 118.664062 236.742188 C 119.078125 236.914062 119.507812 237.046875 119.949219 237.132812 C 120.390625 237.222656 120.835938 237.265625 121.289062 237.269531 L 240.066406 237.269531 C 240.519531 237.269531 240.964844 237.222656 241.40625 237.136719 C 241.851562 237.046875 242.28125 236.914062 242.695312 236.742188 C 243.113281 236.570312 243.507812 236.359375 243.882812 236.105469 C 244.257812 235.855469 244.605469 235.570312 244.925781 235.25 C 245.242188 234.929688 245.527344 234.582031 245.78125 234.207031 C 246.03125 233.832031 246.242188 233.4375 246.414062 233.019531 C 246.585938 232.601562 246.71875 232.171875 246.804688 231.726562 C 246.894531 231.285156 246.9375 230.835938 246.941406 230.386719 L 246.941406 151.136719 C 246.9375 150.683594 246.894531 150.238281 246.804688 149.792969 C 246.714844 149.351562 246.585938 148.921875 246.414062 148.503906 C 246.238281 148.085938 246.027344 147.691406 245.777344 147.316406 C 245.527344 146.941406 245.242188 146.59375 244.921875 146.273438 C 244.605469 145.957031 244.257812 145.671875 243.882812 145.421875 C 243.507812 145.167969 243.113281 144.957031 242.695312 144.785156 C 242.277344 144.613281 241.847656 144.480469 241.40625 144.394531 C 240.964844 144.304688 240.519531 144.261719 240.066406 144.257812 Z M 121.289062 144.257812 " fill-opacity="1" fill-rule="nonzero"/><path fill="#000000" d="M 165.851562 127.027344 C 165.851562 127.027344 160.859375 121.65625 168.097656 117.054688 C 168.097656 117.054688 166.476562 111.425781 171.589844 111.070312 C 176.699219 110.710938 174.582031 116.8125 174.582031 116.8125 C 174.582031 116.8125 177.703125 119.1875 177.828125 122.691406 L 174.835938 129.535156 Z M 165.851562 127.027344 " fill-opacity="1" fill-rule="nonzero"/><path fill="#f56dcd" d="M 179.308594 127.117188 C 179.308594 127.117188 186.847656 126.996094 190.058594 127.734375 C 193.273438 128.472656 199.660156 135.652344 199.660156 135.652344 L 193.636719 138.625 L 194.011719 140.355469 L 184.003906 142.351562 C 182.421875 141.679688 180.773438 141.429688 179.0625 141.605469 C 178.246094 141.632812 177.472656 141.839844 176.75 142.230469 C 176.027344 142.621094 175.429688 143.148438 174.953125 143.820312 L 167.300781 143.820312 L 163.253906 148.289062 L 155.953125 142.105469 C 155.953125 142.105469 161.882812 133.8125 162.988281 131.957031 C 164.097656 130.101562 167.4375 128.984375 167.4375 128.984375 Z M 179.308594 127.117188 " fill-opacity="1" fill-rule="nonzero"/><path fill="#ffffff" d="M 163.316406 148.15625 C 163.019531 148.382812 162.765625 148.652344 162.558594 148.960938 C 162.347656 149.269531 162.191406 149.605469 162.09375 149.964844 C 161.992188 150.324219 161.949219 150.691406 161.96875 151.0625 C 161.988281 151.4375 162.0625 151.796875 162.199219 152.144531 C 163.070312 154.738281 167.882812 168.472656 168.007812 169.089844 C 168.628906 169.464844 173.320312 172.683594 172.332031 173.300781 C 171.34375 173.917969 167.765625 171.566406 167.765625 171.566406 C 167.765625 171.566406 168.5 172.4375 169.863281 174.292969 C 171.222656 176.148438 172.824219 178.496094 171.855469 178.746094 C 170.882812 179 169.628906 177.628906 168.394531 177.417969 C 167.160156 177.203125 165.925781 176.796875 164.9375 174.570312 C 164.214844 172.726562 163.679688 170.828125 163.328125 168.878906 C 163.328125 168.878906 153.695312 150.921875 154.1875 148.835938 C 154.675781 146.746094 157.273438 143.140625 157.273438 143.140625 Z M 163.316406 148.15625 " fill-opacity="1" fill-rule="nonzero"/><path fill="#000000" d="M 171.582031 178.992188 C 170.941406 178.910156 170.359375 178.675781 169.835938 178.292969 C 169.367188 177.996094 168.863281 177.773438 168.328125 177.628906 C 167 177.363281 165.707031 176.964844 164.691406 174.636719 C 163.960938 172.789062 163.425781 170.886719 163.078125 168.929688 C 161.996094 166.9375 153.429688 150.871094 153.925781 148.75 C 154.425781 146.625 156.949219 143.109375 157.054688 142.960938 C 157.097656 142.902344 157.160156 142.867188 157.234375 142.863281 C 157.308594 142.847656 157.371094 142.867188 157.425781 142.917969 L 163.476562 147.988281 C 163.539062 148.042969 163.566406 148.113281 163.566406 148.195312 C 163.5625 148.277344 163.527344 148.339844 163.460938 148.390625 C 163.1875 148.597656 162.957031 148.84375 162.761719 149.132812 C 162.570312 149.417969 162.429688 149.726562 162.335938 150.058594 C 162.246094 150.390625 162.207031 150.726562 162.226562 151.070312 C 162.246094 151.414062 162.320312 151.746094 162.445312 152.066406 C 162.769531 153.058594 163.707031 155.757812 164.695312 158.609375 C 166.609375 164.125 168.015625 168.152344 168.230469 168.929688 C 168.894531 169.351562 172.710938 171.910156 172.722656 173.054688 C 172.722656 173.257812 172.636719 173.410156 172.464844 173.511719 C 171.734375 173.972656 170.046875 173.195312 168.847656 172.523438 C 169.171875 172.941406 169.582031 173.480469 170.066406 174.136719 C 171.941406 176.707031 172.585938 177.957031 172.351562 178.59375 C 172.273438 178.808594 172.125 178.941406 171.902344 178.988281 C 171.792969 179 171.6875 179.003906 171.582031 178.992188 Z M 157.308594 143.449219 C 156.742188 144.257812 154.832031 147.09375 154.417969 148.828125 C 154.074219 150.304688 159.683594 161.515625 163.535156 168.691406 C 163.539062 168.71875 163.539062 168.746094 163.535156 168.773438 C 163.882812 170.699219 164.414062 172.578125 165.121094 174.40625 C 166.042969 176.472656 167.152344 176.851562 168.402344 177.105469 C 168.996094 177.261719 169.550781 177.511719 170.0625 177.855469 C 170.726562 178.226562 171.296875 178.582031 171.746094 178.46875 C 171.828125 178.46875 171.839844 178.414062 171.847656 178.386719 C 172 177.96875 171.257812 176.625 169.628906 174.398438 C 168.300781 172.574219 167.550781 171.738281 167.542969 171.691406 C 167.421875 171.582031 167.414062 171.464844 167.523438 171.34375 C 167.628906 171.21875 167.746094 171.210938 167.871094 171.320312 C 169.304688 172.257812 171.589844 173.40625 172.171875 173.046875 C 172.386719 172.542969 169.171875 170.0625 167.851562 169.269531 C 167.789062 169.230469 167.75 169.175781 167.730469 169.105469 C 167.664062 168.738281 165.738281 163.191406 164.191406 158.738281 C 163.203125 155.878906 162.265625 153.183594 161.933594 152.1875 C 161.808594 151.839844 161.734375 151.480469 161.710938 151.113281 C 161.691406 150.742188 161.726562 150.378906 161.8125 150.019531 C 161.902344 149.660156 162.039062 149.324219 162.230469 149.003906 C 162.417969 148.6875 162.648438 148.40625 162.921875 148.15625 Z M 157.308594 143.449219 " fill-opacity="1" fill-rule="nonzero"/><path fill="#ffffff" d="M 165.972656 126.875 C 165.972656 126.875 169.921875 126.628906 170.664062 122.671875 C 170.664062 122.671875 174.125 125.765625 174.863281 125.519531 C 175.597656 125.273438 174.863281 121.183594 176.714844 121.683594 C 178.566406 122.179688 178.203125 125.886719 178.203125 125.886719 L 181.40625 128.871094 C 181.304688 129.398438 181.117188 129.898438 180.851562 130.367188 C 180.585938 130.835938 180.253906 131.25 179.851562 131.609375 C 179.453125 131.96875 179.003906 132.253906 178.511719 132.46875 C 178.015625 132.683594 177.503906 132.8125 176.964844 132.859375 L 175.730469 130.867188 C 175.730469 130.867188 175 133.527344 172.273438 133.179688 C 169.542969 132.835938 165.972656 126.875 165.972656 126.875 Z M 165.972656 126.875 " fill-opacity="1" fill-rule="nonzero"/><path fill="#000000" d="M 172.769531 133.464844 C 172.59375 133.476562 172.417969 133.476562 172.238281 133.464844 C 169.429688 133.082031 165.90625 127.28125 165.753906 127.035156 C 165.707031 126.953125 165.707031 126.871094 165.753906 126.789062 C 165.792969 126.703125 165.863281 126.65625 165.957031 126.648438 C 166.496094 126.609375 167.015625 126.484375 167.515625 126.273438 C 168.011719 126.0625 168.464844 125.777344 168.867188 125.414062 C 169.269531 125.054688 169.605469 124.636719 169.871094 124.167969 C 170.136719 123.695312 170.320312 123.191406 170.417969 122.660156 C 170.441406 122.5625 170.496094 122.5 170.585938 122.46875 C 170.679688 122.4375 170.761719 122.453125 170.839844 122.511719 C 172.4375 123.941406 174.398438 125.398438 174.789062 125.304688 C 174.953125 124.902344 175.039062 124.480469 175.046875 124.042969 C 175.148438 123.09375 175.261719 122.007812 175.863281 121.589844 C 176.152344 121.402344 176.460938 121.363281 176.785156 121.46875 C 178.640625 121.960938 178.519531 125.125 178.46875 125.820312 L 181.585938 128.703125 C 181.625 128.753906 181.644531 128.808594 181.640625 128.871094 C 181.527344 129.421875 181.328125 129.941406 181.046875 130.425781 C 180.765625 130.914062 180.417969 131.34375 180 131.71875 C 179.582031 132.09375 179.117188 132.394531 178.601562 132.621094 C 178.085938 132.847656 177.550781 132.988281 176.992188 133.039062 C 176.886719 133.050781 176.808594 133.011719 176.753906 132.921875 L 175.785156 131.371094 C 175.539062 131.992188 175.140625 132.492188 174.59375 132.875 C 174.042969 133.253906 173.4375 133.453125 172.769531 133.464844 Z M 166.371094 127.070312 C 167.160156 128.300781 170.074219 132.628906 172.285156 132.925781 C 174.742188 133.265625 175.4375 130.867188 175.464844 130.757812 C 175.496094 130.652344 175.5625 130.589844 175.671875 130.574219 C 175.78125 130.558594 175.867188 130.597656 175.925781 130.691406 L 177.074219 132.542969 C 177.554688 132.492188 178.019531 132.367188 178.460938 132.171875 C 178.90625 131.972656 179.308594 131.714844 179.671875 131.390625 C 180.035156 131.066406 180.339844 130.695312 180.585938 130.277344 C 180.832031 129.859375 181.007812 129.410156 181.117188 128.9375 L 178.007812 126.066406 C 177.949219 126.007812 177.921875 125.941406 177.929688 125.859375 C 177.929688 125.820312 178.253906 122.355469 176.632812 121.921875 C 176.457031 121.855469 176.285156 121.871094 176.125 121.96875 C 175.710938 122.253906 175.605469 123.25 175.519531 124.054688 C 175.433594 124.859375 175.359375 125.605469 174.921875 125.753906 C 174.203125 126 171.992188 124.1875 170.796875 123.136719 C 170.660156 123.644531 170.449219 124.121094 170.171875 124.570312 C 169.894531 125.015625 169.558594 125.414062 169.167969 125.761719 C 168.773438 126.113281 168.339844 126.398438 167.863281 126.621094 C 167.386719 126.839844 166.890625 126.992188 166.371094 127.070312 Z M 166.371094 127.070312 " fill-opacity="1" fill-rule="nonzero"/><path fill="#ffffff" d="M 173.753906 143.992188 C 175.292969 142.675781 177.0625 141.878906 179.0625 141.59375 C 182.382812 141.101562 184.003906 142.335938 184.003906 142.335938 L 194.011719 140.34375 L 193.636719 138.613281 L 198.578125 134.777344 C 198.578125 134.777344 203.890625 139.597656 204.878906 140.960938 C 205.097656 141.238281 205.226562 141.554688 205.261719 141.910156 C 205.300781 142.265625 205.238281 142.601562 205.082031 142.917969 C 204.921875 143.234375 204.691406 143.488281 204.386719 143.671875 C 204.082031 143.855469 203.753906 143.941406 203.398438 143.933594 Z M 173.753906 143.992188 " fill-opacity="1" fill-rule="nonzero"/><path fill="#000000" d="M 173.753906 144.246094 C 173.636719 144.246094 173.558594 144.195312 173.515625 144.085938 C 173.472656 143.976562 173.496094 143.886719 173.582031 143.808594 C 175.152344 142.449219 176.96875 141.628906 179.023438 141.347656 C 182.003906 140.902344 183.671875 141.800781 184.058594 142.066406 L 193.710938 140.175781 L 193.390625 138.699219 C 193.367188 138.59375 193.398438 138.511719 193.484375 138.445312 L 198.425781 134.609375 C 198.535156 134.515625 198.640625 134.515625 198.75 134.609375 C 198.96875 134.804688 204.0625 139.464844 205.085938 140.835938 C 205.332031 141.152344 205.472656 141.507812 205.515625 141.910156 C 205.554688 142.308594 205.488281 142.6875 205.308594 143.050781 C 205.125 143.40625 204.863281 143.691406 204.519531 143.898438 C 204.171875 144.109375 203.800781 144.210938 203.398438 144.207031 L 173.753906 144.253906 Z M 180.578125 141.730469 C 180.082031 141.734375 179.589844 141.769531 179.097656 141.84375 C 177.394531 142.09375 175.84375 142.722656 174.449219 143.734375 L 203.378906 143.695312 C 203.691406 143.707031 203.980469 143.636719 204.253906 143.480469 C 204.523438 143.328125 204.730469 143.113281 204.878906 142.835938 C 205.015625 142.558594 205.066406 142.269531 205.03125 141.960938 C 205 141.65625 204.890625 141.382812 204.699219 141.140625 C 203.828125 139.949219 199.472656 135.945312 198.589844 135.15625 L 193.945312 138.757812 L 194.28125 140.335938 C 194.296875 140.402344 194.285156 140.46875 194.25 140.527344 C 194.210938 140.585938 194.15625 140.621094 194.089844 140.636719 L 184.078125 142.628906 C 184.003906 142.644531 183.9375 142.628906 183.878906 142.582031 C 182.863281 141.960938 181.765625 141.679688 180.578125 141.730469 Z M 180.578125 141.730469 " fill-opacity="1" fill-rule="nonzero"/><path fill="#ffffff" d="M 163.316406 148.148438 L 168.8125 142.199219 " fill-opacity="1" fill-rule="nonzero"/><path fill="#000000" d="M 163.316406 148.402344 C 163.25 148.398438 163.191406 148.378906 163.144531 148.335938 C 163.027344 148.21875 163.027344 148.101562 163.144531 147.984375 L 168.640625 142 C 168.757812 141.890625 168.875 141.890625 168.992188 142 C 169.105469 142.117188 169.105469 142.234375 168.992188 142.351562 L 163.496094 148.335938 C 163.445312 148.382812 163.386719 148.40625 163.316406 148.402344 Z M 163.316406 148.402344 " fill-opacity="1" fill-rule="nonzero"/><path fill="#ffffff" d="M 61.679688 188.597656 C 61.609375 188.597656 61.554688 188.570312 61.507812 188.523438 C 61.457031 188.476562 61.433594 188.421875 61.433594 188.355469 C 61.433594 188.289062 61.457031 188.234375 61.507812 188.191406 L 85.234375 166.316406 C 85.28125 166.269531 85.335938 166.246094 85.402344 166.246094 C 85.46875 166.246094 85.523438 166.269531 85.566406 166.316406 C 85.675781 166.429688 85.675781 166.539062 85.566406 166.652344 L 61.839844 188.535156 C 61.792969 188.574219 61.738281 188.59375 61.679688 188.597656 Z M 63.777344 190.796875 L 87.492188 168.925781 C 87.601562 168.8125 87.601562 168.703125 87.492188 168.59375 C 87.449219 168.542969 87.394531 168.519531 87.328125 168.519531 C 87.261719 168.519531 87.207031 168.542969 87.160156 168.59375 L 63.457031 190.445312 C 63.34375 190.558594 63.34375 190.671875 63.457031 190.785156 C 63.507812 190.832031 63.566406 190.855469 63.636719 190.855469 C 63.691406 190.851562 63.738281 190.832031 63.777344 190.796875 Z M 65.714844 192.933594 L 89.429688 171.058594 C 89.480469 171.015625 89.503906 170.960938 89.503906 170.894531 C 89.503906 170.828125 89.480469 170.773438 89.429688 170.726562 C 89.320312 170.613281 89.210938 170.613281 89.097656 170.726562 L 65.398438 192.585938 C 65.347656 192.628906 65.324219 192.6875 65.324219 192.753906 C 65.324219 192.816406 65.347656 192.875 65.398438 192.917969 C 65.445312 192.96875 65.5 192.992188 65.570312 192.992188 C 65.625 192.988281 65.671875 192.96875 65.714844 192.933594 Z M 67.707031 195.28125 L 91.410156 173.425781 C 91.523438 173.320312 91.527344 173.210938 91.421875 173.09375 C 91.316406 172.980469 91.207031 172.976562 91.089844 173.082031 L 67.375 194.933594 C 67.328125 194.976562 67.300781 195.035156 67.300781 195.101562 C 67.300781 195.164062 67.328125 195.222656 67.375 195.265625 C 67.421875 195.320312 67.476562 195.347656 67.546875 195.347656 C 67.605469 195.34375 67.652344 195.320312 67.695312 195.28125 Z M 67.707031 195.28125 " fill-opacity="1" fill-rule="nonzero"/><path fill="#dcb07b" d="M 75.125 148.933594 C 74.964844 149.609375 74.652344 150.203125 74.191406 150.71875 C 73.726562 151.234375 73.167969 151.605469 72.515625 151.832031 L 73.84375 158.164062 L 65.265625 159.214844 L 64.785156 152.320312 C 63.988281 151.867188 60.800781 149.859375 61.261719 147.09375 C 61.792969 143.90625 63.324219 141.507812 69.605469 138.671875 L 69.820312 138.582031 L 69.984375 138.746094 C 70.21875 138.992188 75.980469 144.832031 75.125 148.933594 Z M 75.125 148.933594 " fill-opacity="1" fill-rule="nonzero"/><path fill="#000000" d="M 65.097656 148.90625 C 65.097656 148.90625 65.941406 151.042969 64.820312 152.480469 C 64.820312 152.480469 54.234375 149.386719 59.347656 141.546875 C 59.347656 141.546875 63.496094 133.863281 68.132812 134.988281 C 72.765625 136.113281 74.546875 140.128906 72.089844 141.71875 C 69.632812 143.308594 65.609375 145.550781 65.609375 145.550781 L 66.40625 147.3125 L 65.929688 147.789062 C 65.929688 147.789062 63.53125 146.347656 63.210938 147.3125 C 62.894531 148.277344 63.496094 149.707031 65.097656 148.90625 Z M 65.097656 148.90625 " fill-opacity="1" fill-rule="nonzero"/><path fill="#dcb07b" d="M 87.113281 185.5625 C 87.398438 186.011719 87.621094 186.488281 87.777344 186.992188 C 87.898438 187.347656 87.859375 187.683594 87.660156 187.996094 C 87.40625 188.316406 87.085938 188.519531 86.691406 188.609375 C 86.652344 188.875 86.53125 189.097656 86.332031 189.273438 C 86.082031 189.476562 85.800781 189.589844 85.480469 189.605469 C 85.457031 189.898438 85.339844 190.144531 85.128906 190.34375 C 84.765625 190.632812 84.355469 190.757812 83.894531 190.71875 C 83.847656 190.953125 83.726562 191.144531 83.535156 191.289062 C 83.339844 191.433594 83.117188 191.503906 82.871094 191.503906 C 82.738281 191.5 82.609375 191.484375 82.480469 191.457031 C 81.230469 191.261719 79.613281 188.183594 79.101562 187.152344 L 74.1875 187.464844 L 74.1875 181.308594 L 81.382812 182.25 C 82.679688 181.492188 84.066406 181.242188 85.546875 181.5 L 85.632812 181.5 C 86.976562 182.417969 87.992188 183.613281 88.6875 185.085938 L 88.828125 185.390625 L 88.527344 185.535156 C 88.0625 185.738281 87.589844 185.746094 87.113281 185.5625 Z M 87.113281 185.5625 " fill-opacity="1" fill-rule="nonzero"/><path fill="#000000" d="M 67.234375 178.507812 L 78.929688 181.40625 L 78.929688 189.925781 L 61.375 186.546875 C 60.9375 186.464844 60.523438 186.3125 60.136719 186.097656 C 59.75 185.878906 59.40625 185.605469 59.105469 185.277344 C 58.808594 184.945312 58.566406 184.578125 58.386719 184.171875 C 58.207031 183.765625 58.097656 183.339844 58.054688 182.898438 L 56.3125 163.722656 C 56.273438 163.265625 56.351562 162.832031 56.550781 162.417969 C 56.75 162.003906 57.039062 161.671875 57.421875 161.417969 L 65.199219 156.214844 L 65.375 156.308594 C 67.828125 157.566406 69.773438 157.871094 71.152344 157.207031 C 72.058594 156.738281 72.636719 156.003906 72.886719 155.011719 L 72.953125 154.695312 L 73.277344 154.738281 C 78.066406 155.523438 79.992188 158.796875 80.058594 158.917969 L 80.195312 159.148438 L 66.453125 172.035156 Z M 67.234375 178.507812 " fill-opacity="1" fill-rule="nonzero"/><path fill="#f56dcd" d="M 281.9375 156.800781 C 282.53125 157.242188 282.976562 157.800781 283.273438 158.480469 C 283.574219 159.15625 283.6875 159.863281 283.617188 160.597656 C 283.617188 160.597656 283.617188 161.332031 282.785156 160.957031 C 281.957031 160.585938 281.273438 157.824219 281.34375 157.226562 C 281.417969 156.628906 281.722656 156.75 281.9375 156.800781 Z M 281.9375 156.800781 " fill-opacity="1" fill-rule="nonzero"/><path fill="#a66735" d="M 260.230469 214.957031 C 259.992188 215.5625 259.695312 216.140625 259.347656 216.691406 C 258.757812 217.625 256.226562 220.296875 255.363281 220.542969 C 254.503906 220.789062 254.28125 221.113281 253.574219 221.128906 C 252.863281 221.140625 253.152344 220.628906 253.152344 220.628906 C 253.152344 220.628906 252.125 221.394531 251.792969 221.035156 C 251.460938 220.675781 252.296875 220.039062 252.296875 220.039062 C 252.09375 220.171875 251.871094 220.207031 251.632812 220.144531 C 251.273438 220.011719 251.382812 219.691406 252.296875 218.980469 C 253.03125 218.414062 253.722656 217.804688 254.375 217.152344 C 255.191406 216.378906 255.292969 215.753906 254.640625 216.007812 C 253.992188 216.261719 252.324219 216.753906 252.363281 216.441406 C 252.402344 216.128906 254.355469 215.191406 255.125 214.589844 C 255.882812 214.117188 256.6875 213.757812 257.542969 213.515625 Z M 260.230469 214.957031 " fill-opacity="1" fill-rule="nonzero"/><path fill="#a66735" d="M 264.03125 212.382812 C 263.886719 211.8125 263.925781 211.25 264.140625 210.699219 C 264.5 209.917969 266.199219 212.265625 266.199219 212.265625 L 266.652344 214.21875 Z M 264.03125 212.382812 " fill-opacity="1" fill-rule="nonzero"/><path fill="#ffffff" d="M 307.085938 259.546875 L 295.980469 267.148438 C 295.980469 267.148438 290.167969 259.992188 285.011719 253.410156 C 281.578125 249.019531 278.429688 244.890625 277.507812 243.3125 C 275.648438 240.132812 272.992188 227.566406 272.042969 222.859375 C 271.816406 221.742188 271.683594 221.0625 271.683594 221.0625 L 273.046875 217.238281 L 275.703125 209.808594 L 275.902344 209.257812 C 277.191406 208.617188 278.53125 208.113281 279.925781 207.75 C 280.488281 207.601562 281.058594 207.5 281.636719 207.449219 C 283.371094 207.296875 284.957031 207.707031 285.441406 209.476562 C 285.441406 209.578125 285.496094 209.691406 285.515625 209.796875 C 285.613281 210.328125 285.722656 211 285.832031 211.792969 C 286.796875 218.441406 288.136719 233.199219 288.5625 234.855469 C 289.027344 236.695312 307.085938 259.546875 307.085938 259.546875 Z M 307.085938 259.546875 " fill-opacity="1" fill-rule="nonzero"/><path fill="#000000" d="M 295.980469 267.398438 C 295.898438 267.398438 295.835938 267.371094 295.785156 267.308594 C 295.726562 267.234375 289.910156 260.070312 284.816406 253.566406 C 280.613281 248.203125 278.078125 244.789062 277.289062 243.441406 C 275.441406 240.273438 272.828125 228.03125 271.792969 222.910156 C 271.566406 221.785156 271.4375 221.109375 271.4375 221.109375 C 271.425781 221.0625 271.425781 221.019531 271.4375 220.976562 L 275.640625 209.171875 C 275.664062 209.109375 275.703125 209.0625 275.761719 209.03125 C 277.070312 208.378906 278.429688 207.871094 279.84375 207.503906 C 280.421875 207.355469 281.003906 207.253906 281.597656 207.195312 C 284.378906 206.957031 285.34375 208.265625 285.667969 209.402344 L 285.746094 209.75 C 285.847656 210.28125 285.953125 210.960938 286.066406 211.746094 C 286.542969 215.070312 287.113281 220.390625 287.621094 225.078125 C 288.125 229.765625 288.582031 233.964844 288.789062 234.78125 C 289.167969 236.25 302.257812 253.035156 307.277344 259.386719 C 307.320312 259.445312 307.335938 259.507812 307.324219 259.578125 C 307.316406 259.65625 307.28125 259.710938 307.21875 259.753906 L 296.113281 267.355469 C 296.070312 267.382812 296.027344 267.398438 295.980469 267.398438 Z M 271.9375 221.082031 C 271.976562 221.28125 272.097656 221.898438 272.28125 222.8125 C 273.3125 227.90625 275.90625 240.101562 277.71875 243.1875 C 278.496094 244.515625 281.039062 247.910156 285.210938 253.253906 C 289.855469 259.179688 295.089844 265.652344 296.019531 266.800781 L 306.714844 259.488281 C 304.769531 257.027344 288.789062 236.714844 288.296875 234.914062 C 288.085938 234.0625 287.632812 229.925781 287.121094 225.136719 C 286.617188 220.484375 286.039062 215.164062 285.566406 211.839844 C 285.457031 211.054688 285.347656 210.382812 285.25 209.84375 C 285.25 209.742188 285.203125 209.636719 285.175781 209.542969 C 284.792969 208.152344 283.601562 207.550781 281.636719 207.703125 C 281.074219 207.75 280.519531 207.847656 279.972656 207.996094 C 278.625 208.347656 277.328125 208.828125 276.082031 209.4375 Z M 271.9375 221.082031 " fill-opacity="1" fill-rule="nonzero"/><path fill="#ffffff" d="M 284.148438 209.664062 C 285.640625 215.496094 276.019531 231.78125 273.445312 236.265625 C 270.867188 240.746094 265.046875 268.523438 265.046875 268.523438 L 250.144531 268.523438 C 250.144531 268.523438 254.480469 248.0625 257.332031 238.597656 C 260.179688 229.136719 269.945312 206.171875 269.945312 206.171875 C 269.945312 206.171875 282.660156 203.832031 284.148438 209.664062 Z M 284.148438 209.664062 " fill-opacity="1" fill-rule="nonzero"/><path fill="#000000" d="M 265.046875 268.804688 L 250.144531 268.804688 C 250.066406 268.804688 250 268.773438 249.949219 268.710938 C 249.898438 268.648438 249.882812 268.574219 249.902344 268.496094 C 249.941406 268.292969 254.269531 247.882812 257.085938 238.492188 C 259.898438 229.101562 269.59375 206.265625 269.699219 206.039062 C 269.734375 205.957031 269.796875 205.90625 269.886719 205.886719 C 270.417969 205.792969 282.867188 203.605469 284.398438 209.605469 C 285.855469 215.28125 277.273438 230.140625 274.046875 235.738281 L 273.671875 236.402344 C 271.148438 240.792969 265.359375 268.324219 265.304688 268.625 C 265.261719 268.746094 265.175781 268.808594 265.046875 268.804688 Z M 250.4375 268.296875 L 264.820312 268.296875 C 265.398438 265.578125 270.730469 240.441406 273.207031 236.132812 L 273.582031 235.464844 C 276.480469 230.453125 285.28125 215.195312 283.882812 209.71875 C 282.554688 204.484375 271.433594 206.132812 270.085938 206.351562 C 269.292969 208.207031 260.246094 229.628906 257.550781 238.625 C 254.945312 247.382812 251.007812 265.703125 250.457031 268.296875 Z M 250.4375 268.296875 " fill-opacity="1" fill-rule="nonzero"/><path fill="#f56dcd" d="M 285.011719 209.625 C 281.085938 211.527344 267.214844 212.617188 267.222656 209.664062 C 267.222656 209.570312 267.222656 209.464844 267.222656 209.359375 C 263.75 212.757812 260.34375 215.886719 260.34375 215.886719 L 257.171875 213.402344 C 257.171875 213.402344 264.035156 204.296875 265.75 199.914062 C 265.230469 197.007812 264.800781 194.476562 264.917969 193.84375 C 265.191406 192.398438 268.710938 184.832031 271.691406 180.761719 C 273.390625 178.363281 275.558594 176.511719 278.191406 175.210938 C 278.796875 175.46875 279.363281 175.804688 279.882812 176.210938 C 280.40625 176.613281 280.867188 177.078125 281.269531 177.601562 C 281.671875 178.125 282.003906 178.691406 282.265625 179.300781 C 282.523438 179.910156 282.703125 180.539062 282.800781 181.195312 C 283.609375 185.808594 283.464844 195.824219 283.464844 197.339844 C 283.464844 198.855469 285.011719 209.625 285.011719 209.625 Z M 285.011719 209.625 " fill-opacity="1" fill-rule="nonzero"/><path fill="#000000" d="M 279.179688 218.402344 L 253.035156 206.246094 C 252.882812 206.167969 252.746094 206.066406 252.632812 205.941406 C 252.519531 205.8125 252.429688 205.667969 252.371094 205.507812 C 252.3125 205.347656 252.285156 205.179688 252.292969 205.007812 C 252.296875 204.835938 252.335938 204.671875 252.402344 204.515625 L 258.984375 190.332031 C 259.058594 190.175781 259.160156 190.042969 259.289062 189.929688 C 259.414062 189.8125 259.558594 189.726562 259.71875 189.667969 C 259.878906 189.609375 260.046875 189.582031 260.21875 189.589844 C 260.390625 189.59375 260.554688 189.632812 260.710938 189.699219 L 286.855469 201.855469 C 287.011719 201.933594 287.144531 202.035156 287.257812 202.160156 C 287.371094 202.289062 287.460938 202.433594 287.519531 202.59375 C 287.578125 202.753906 287.605469 202.921875 287.597656 203.09375 C 287.59375 203.265625 287.554688 203.429688 287.488281 203.585938 L 280.90625 217.769531 C 280.832031 217.925781 280.730469 218.058594 280.601562 218.171875 C 280.476562 218.289062 280.332031 218.375 280.171875 218.433594 C 280.011719 218.492188 279.84375 218.519531 279.671875 218.511719 C 279.5 218.507812 279.335938 218.472656 279.179688 218.402344 Z M 279.179688 218.402344 " fill-opacity="1" fill-rule="nonzero"/><path fill="#ffffff" d="M 254.375 204.777344 L 260.449219 191.675781 L 285.515625 203.351562 L 279.441406 216.445312 Z M 254.375 204.777344 " fill-opacity="1" fill-rule="nonzero"/><path fill="#000000" d="M 267.800781 211.265625 L 256.917969 206.199219 L 267.195312 198.96875 L 268.257812 210.941406 L 275.734375 205.679688 L 276.597656 215.375 Z M 271.53125 202.800781 C 271.757812 202.90625 271.992188 202.964844 272.242188 202.976562 C 272.492188 202.988281 272.730469 202.949219 272.964844 202.867188 C 273.199219 202.78125 273.40625 202.65625 273.589844 202.488281 C 273.773438 202.320312 273.917969 202.121094 274.023438 201.898438 C 274.128906 201.671875 274.1875 201.433594 274.199219 201.1875 C 274.210938 200.9375 274.171875 200.695312 274.085938 200.460938 C 274.003906 200.226562 273.875 200.019531 273.707031 199.835938 C 273.539062 199.652344 273.34375 199.507812 273.117188 199.402344 C 272.894531 199.296875 272.65625 199.238281 272.40625 199.230469 C 272.160156 199.21875 271.917969 199.257812 271.683594 199.339844 C 271.453125 199.425781 271.242188 199.554688 271.0625 199.722656 C 270.878906 199.890625 270.734375 200.085938 270.628906 200.3125 C 270.523438 200.539062 270.46875 200.773438 270.457031 201.023438 C 270.445312 201.269531 270.484375 201.511719 270.566406 201.742188 C 270.652344 201.976562 270.777344 202.183594 270.945312 202.367188 C 271.113281 202.550781 271.308594 202.695312 271.53125 202.800781 Z M 271.53125 202.800781 " fill-opacity="1" fill-rule="nonzero"/><path fill="#a66735" d="M 271.671875 211.527344 C 270.222656 213.003906 267.601562 214.984375 267.0625 214.902344 C 266.527344 214.824219 265.246094 213.699219 264.40625 212.949219 C 263.570312 212.199219 264.222656 211.878906 265.027344 211.617188 C 265.828125 211.359375 267.242188 210.609375 266.691406 210.554688 C 266.140625 210.5 263.84375 210.128906 264.035156 209.695312 C 264.230469 209.265625 266.09375 209.402344 267.03125 209.15625 C 267.96875 208.914062 269.292969 208.734375 269.292969 208.734375 C 269.292969 208.734375 273.113281 210.050781 271.671875 211.527344 Z M 271.671875 211.527344 " fill-opacity="1" fill-rule="nonzero"/><path fill="#f56dcd" d="M 290.242188 195.210938 C 291.191406 198.472656 290.90625 200.976562 287.738281 203.285156 C 284.570312 205.59375 271.683594 212.070312 271.683594 212.070312 L 268.894531 208.566406 C 268.894531 208.566406 282.453125 198.265625 282.726562 197.726562 C 283 197.1875 279.339844 191.210938 278.078125 187.957031 C 276.816406 184.707031 275.792969 179.671875 278.351562 177.710938 C 283.808594 173.507812 289.292969 191.960938 290.242188 195.210938 Z M 290.242188 195.210938 " fill-opacity="1" fill-rule="nonzero"/><path fill="#a66735" d="M 278.183594 175.210938 C 278.183594 175.210938 271.378906 182.226562 271.976562 180.375 C 272.308594 179.359375 271.730469 176.925781 271.152344 174.941406 C 270.6875 173.378906 270.230469 172.117188 270.199219 172.03125 C 269.480469 172.0625 268.832031 171.871094 268.246094 171.457031 C 266.347656 170.070312 266.617188 168.132812 266.84375 167.023438 C 267.183594 165.332031 267.839844 164.214844 268.664062 162.453125 C 269.957031 159.675781 270.398438 159.527344 270.398438 159.527344 C 270.628906 158.988281 273.246094 159.363281 273.714844 161.902344 C 274.1875 164.441406 274.328125 166.144531 275.410156 165.328125 C 276.492188 164.507812 278.359375 165.667969 277.78125 167.5 C 277.644531 167.894531 277.421875 168.226562 277.113281 168.503906 C 276.804688 168.78125 276.449219 168.964844 276.046875 169.058594 C 276.601562 171.164062 277.3125 173.214844 278.183594 175.210938 Z M 278.183594 175.210938 " fill-opacity="1" fill-rule="nonzero"/><path fill="#000000" d="M 256.984375 268.863281 L 256.9375 268.863281 C 256.777344 268.828125 256.710938 268.726562 256.738281 268.5625 C 256.964844 267.378906 262.316406 239.496094 264.527344 234.515625 C 266.738281 229.535156 273.160156 216.265625 273.238281 216.132812 C 273.269531 216.070312 273.316406 216.027344 273.382812 216.003906 C 273.449219 215.980469 273.515625 215.988281 273.578125 216.019531 C 273.640625 216.050781 273.683594 216.097656 273.707031 216.164062 C 273.726562 216.230469 273.722656 216.292969 273.691406 216.355469 C 273.625 216.488281 267.183594 229.773438 264.984375 234.722656 C 262.789062 239.667969 257.289062 268.371094 257.238281 268.636719 C 257.222656 268.789062 257.136719 268.863281 256.984375 268.863281 Z M 256.984375 268.863281 " fill-opacity="1" fill-rule="nonzero"/><path fill="#000000" d="M 301.152344 263.390625 C 301.074219 263.390625 301.007812 263.359375 300.957031 263.304688 C 300.261719 262.5 283.863281 243.539062 282.558594 239.269531 C 281.257812 235 279.726562 224.367188 279.710938 224.261719 C 279.683594 224.101562 279.746094 224.003906 279.90625 223.96875 C 280.070312 223.945312 280.167969 224.015625 280.195312 224.179688 C 280.195312 224.289062 281.75 234.914062 283.023438 239.117188 C 284.300781 243.320312 301.152344 262.765625 301.316406 262.964844 C 301.386719 263.046875 301.402344 263.136719 301.355469 263.234375 C 301.3125 263.332031 301.238281 263.382812 301.132812 263.382812 Z M 301.152344 263.390625 " fill-opacity="1" fill-rule="nonzero"/><path fill="#000000" d="M 150.519531 114.984375 L 70.230469 114.984375 C 70.152344 114.984375 70.085938 114.953125 70.039062 114.890625 C 69.988281 114.835938 69.96875 114.769531 69.984375 114.691406 C 70.550781 111.605469 73.132812 109.425781 77.46875 108.386719 C 79.496094 107.921875 81.554688 107.703125 83.636719 107.722656 C 84.207031 105.679688 85.128906 103.808594 86.390625 102.105469 C 88.382812 99.363281 92.171875 95.925781 98.78125 95.09375 C 110.902344 93.625 115.996094 103.601562 116.78125 105.328125 C 123.054688 102.152344 127.660156 103.539062 130.4375 105.277344 C 132.261719 106.4375 133.75 107.925781 134.910156 109.75 C 145.820312 105.242188 150.695312 114.527344 150.746094 114.621094 C 150.792969 114.703125 150.792969 114.785156 150.746094 114.867188 C 150.695312 114.949219 150.621094 114.988281 150.519531 114.984375 Z M 70.535156 114.488281 L 150.097656 114.488281 C 149.09375 112.804688 144.417969 106.242188 134.90625 110.289062 C 134.769531 110.347656 134.664062 110.3125 134.59375 110.183594 C 133.457031 108.34375 131.976562 106.847656 130.152344 105.6875 C 126.234375 103.242188 121.734375 103.308594 116.773438 105.894531 C 116.707031 105.921875 116.640625 105.921875 116.574219 105.894531 C 116.503906 105.871094 116.453125 105.824219 116.425781 105.753906 C 116.382812 105.640625 111.640625 94.003906 98.847656 95.621094 C 92.425781 96.40625 88.753906 99.742188 86.800781 102.398438 C 85.53125 104.105469 84.621094 105.984375 84.074219 108.042969 C 84.046875 108.183594 83.960938 108.246094 83.820312 108.234375 C 83.703125 108.253906 72.089844 107.804688 70.535156 114.488281 Z M 290.300781 115.03125 L 211.855469 115.03125 C 211.785156 115.03125 211.722656 115.007812 211.671875 114.953125 C 211.625 114.902344 211.601562 114.839844 211.605469 114.765625 C 211.640625 114.191406 211.789062 113.644531 212.050781 113.132812 C 212.316406 112.621094 212.671875 112.183594 213.117188 111.820312 C 215.667969 109.710938 220.515625 110.085938 221.316406 110.164062 C 222.859375 108.839844 224.539062 107.726562 226.359375 106.824219 C 228.179688 105.925781 230.082031 105.265625 232.070312 104.847656 C 234.058594 104.425781 236.066406 104.261719 238.09375 104.351562 C 240.121094 104.4375 242.109375 104.777344 244.050781 105.371094 C 244.542969 104.039062 247.371094 97.769531 257.039062 96.457031 C 267.058594 95.128906 271.851562 105.667969 272.5625 107.398438 C 284.925781 102.621094 290.441406 114.558594 290.488281 114.710938 C 290.53125 114.789062 290.53125 114.867188 290.488281 114.945312 C 290.433594 115.007812 290.367188 115.039062 290.28125 115.03125 Z M 212.148438 114.535156 L 289.863281 114.535156 C 288.859375 112.539062 283.535156 103.527344 272.507812 107.949219 C 272.445312 107.976562 272.378906 107.976562 272.316406 107.949219 C 272.25 107.917969 272.207031 107.871094 272.183594 107.804688 C 272.136719 107.683594 267.535156 95.535156 257.097656 96.949219 C 251.613281 97.695312 248.464844 100.042969 246.785156 101.882812 C 245.726562 103.003906 244.945312 104.296875 244.441406 105.753906 C 244.421875 105.824219 244.375 105.875 244.308594 105.90625 C 244.242188 105.941406 244.175781 105.941406 244.109375 105.90625 C 243.992188 105.863281 232.492188 101.460938 221.535156 110.601562 C 221.480469 110.644531 221.421875 110.664062 221.351562 110.65625 C 221.296875 110.65625 215.972656 110.078125 213.382812 112.191406 C 212.652344 112.804688 212.234375 113.585938 212.128906 114.535156 Z M 212.148438 114.535156 " fill-opacity="1" fill-rule="nonzero"/><path fill="#f56dcd" d="M 242.390625 258.875 C 238.25 259.386719 237.964844 253.308594 237.964844 253.308594 C 241.632812 251.105469 246.117188 252.257812 246.117188 252.257812 C 246.117188 252.257812 247.117188 258.28125 242.390625 258.875 Z M 242.390625 258.875 " fill-opacity="1" fill-rule="nonzero"/></svg>