<svg xmlns="http://www.w3.org/2000/svg" xmlns:xlink="http://www.w3.org/1999/xlink" width="500" zoomAndPan="magnify" viewBox="0 0 375 374.999991" height="500" preserveAspectRatio="xMidYMid meet" version="1.0"><defs><clipPath id="6b9abf7742"><path d="M 145 249 L 243 249 L 243 281.96875 L 145 281.96875 Z M 145 249 " clip-rule="nonzero"/></clipPath><clipPath id="75715f2205"><path d="M 57.191406 176 L 128 176 L 128 274 L 57.191406 274 Z M 57.191406 176 " clip-rule="nonzero"/></clipPath></defs><rect x="-37.5" width="450" fill="#ffffff" y="-37.499999" height="449.999989" fill-opacity="1"/><rect x="-37.5" width="450" fill="#ffffff" y="-37.499999" height="449.999989" fill-opacity="1"/><g clip-path="url(#6b9abf7742)"><path fill="#f56dcd" d="M 145.804688 264.386719 L 157.292969 252.222656 C 157.292969 252.222656 158.617188 259.316406 163.433594 263.976562 C 166.308594 266.769531 169.484375 269.164062 172.957031 271.160156 L 162.746094 281.992188 C 162.746094 281.992188 156.566406 281.003906 151.402344 273.351562 C 146.234375 265.703125 145.804688 264.386719 145.804688 264.386719 Z M 242.257812 265.496094 L 236.035156 249.972656 C 236.035156 249.972656 232.214844 256.097656 226.027344 258.695312 C 222.332031 260.230469 218.503906 261.289062 214.542969 261.867188 L 220.085938 275.6875 C 220.085938 275.6875 226.203125 277.035156 233.777344 271.800781 C 241.347656 266.570312 242.226562 265.496094 242.226562 265.496094 Z M 242.257812 265.496094 " fill-opacity="1" fill-rule="nonzero"/></g><path fill="#000000" d="M 88.277344 122.757812 C 88.277344 122.757812 82.894531 123.191406 82.984375 118.320312 C 83.070312 113.449219 87.386719 113.339844 87.386719 113.339844 C 87.316406 112.746094 87.351562 112.160156 87.5 111.582031 C 87.644531 111.003906 87.890625 110.472656 88.238281 109.988281 C 88.582031 109.5 89.003906 109.09375 89.5 108.765625 C 90 108.4375 90.539062 108.210938 91.121094 108.085938 C 95.476562 106.953125 96.039062 112.445312 96.039062 112.445312 C 96.039062 112.445312 98.9375 112.417969 97.113281 117.542969 C 95.289062 122.667969 88.277344 122.757812 88.277344 122.757812 Z M 88.277344 122.757812 " fill-opacity="1" fill-rule="nonzero"/><path fill="#000000" d="M 280.402344 243.992188 L 123.511719 243.992188 C 122.902344 243.992188 122.300781 243.933594 121.707031 243.8125 C 121.109375 243.695312 120.53125 243.519531 119.972656 243.285156 C 119.410156 243.050781 118.878906 242.765625 118.371094 242.429688 C 117.867188 242.089844 117.402344 241.707031 116.972656 241.277344 C 116.542969 240.847656 116.160156 240.378906 115.820312 239.875 C 115.484375 239.367188 115.199219 238.835938 114.964844 238.273438 C 114.730469 237.710938 114.554688 237.132812 114.4375 236.535156 C 114.316406 235.941406 114.257812 235.339844 114.257812 234.730469 L 114.257812 129.691406 C 114.257812 129.082031 114.316406 128.480469 114.4375 127.882812 C 114.554688 127.285156 114.730469 126.707031 114.964844 126.144531 C 115.195312 125.582031 115.480469 125.050781 115.820312 124.542969 C 116.15625 124.039062 116.539062 123.570312 116.96875 123.140625 C 117.398438 122.710938 117.867188 122.324219 118.371094 121.988281 C 118.875 121.648438 119.410156 121.363281 119.96875 121.128906 C 120.53125 120.898438 121.109375 120.71875 121.707031 120.601562 C 122.300781 120.480469 122.902344 120.421875 123.511719 120.421875 L 280.402344 120.421875 C 281.007812 120.421875 281.613281 120.480469 282.207031 120.601562 C 282.804688 120.71875 283.382812 120.898438 283.941406 121.128906 C 284.503906 121.363281 285.035156 121.648438 285.542969 121.988281 C 286.046875 122.324219 286.515625 122.710938 286.945312 123.140625 C 287.371094 123.570312 287.757812 124.039062 288.09375 124.542969 C 288.429688 125.050781 288.714844 125.582031 288.949219 126.144531 C 289.183594 126.707031 289.359375 127.285156 289.476562 127.882812 C 289.59375 128.480469 289.65625 129.082031 289.65625 129.691406 L 289.65625 234.730469 C 289.65625 235.339844 289.59375 235.941406 289.476562 236.535156 C 289.355469 237.132812 289.179688 237.710938 288.949219 238.273438 C 288.714844 238.835938 288.429688 239.367188 288.09375 239.875 C 287.753906 240.378906 287.371094 240.847656 286.941406 241.277344 C 286.511719 241.707031 286.042969 242.089844 285.539062 242.429688 C 285.035156 242.765625 284.503906 243.050781 283.941406 243.285156 C 283.378906 243.519531 282.800781 243.695312 282.207031 243.8125 C 281.609375 243.933594 281.007812 243.992188 280.402344 243.992188 Z M 123.511719 120.886719 C 122.933594 120.890625 122.363281 120.945312 121.796875 121.058594 C 121.230469 121.171875 120.679688 121.339844 120.148438 121.5625 C 119.617188 121.78125 119.109375 122.054688 118.628906 122.375 C 118.152344 122.695312 117.707031 123.0625 117.300781 123.46875 C 116.890625 123.878906 116.527344 124.324219 116.207031 124.804688 C 115.886719 125.285156 115.617188 125.789062 115.394531 126.324219 C 115.171875 126.859375 115.007812 127.40625 114.894531 127.972656 C 114.78125 128.539062 114.722656 129.113281 114.722656 129.691406 L 114.722656 234.730469 C 114.726562 235.308594 114.78125 235.878906 114.894531 236.445312 C 115.007812 237.011719 115.171875 237.5625 115.394531 238.09375 C 115.617188 238.628906 115.886719 239.136719 116.207031 239.617188 C 116.527344 240.097656 116.890625 240.539062 117.300781 240.949219 C 117.707031 241.355469 118.152344 241.722656 118.628906 242.042969 C 119.109375 242.363281 119.617188 242.632812 120.148438 242.855469 C 120.683594 243.078125 121.230469 243.242188 121.796875 243.355469 C 122.363281 243.46875 122.933594 243.527344 123.511719 243.527344 L 280.402344 243.527344 C 280.980469 243.527344 281.550781 243.472656 282.121094 243.359375 C 282.6875 243.25 283.238281 243.082031 283.769531 242.863281 C 284.304688 242.640625 284.8125 242.371094 285.292969 242.050781 C 285.773438 241.730469 286.21875 241.367188 286.628906 240.957031 C 287.039062 240.546875 287.402344 240.105469 287.726562 239.625 C 288.046875 239.144531 288.320312 238.636719 288.539062 238.101562 C 288.761719 237.566406 288.929688 237.015625 289.042969 236.449219 C 289.15625 235.882812 289.214844 235.308594 289.214844 234.730469 L 289.214844 129.691406 C 289.214844 129.113281 289.15625 128.539062 289.042969 127.972656 C 288.929688 127.40625 288.765625 126.859375 288.542969 126.324219 C 288.320312 125.789062 288.050781 125.285156 287.730469 124.804688 C 287.410156 124.324219 287.046875 123.878906 286.636719 123.46875 C 286.230469 123.0625 285.785156 122.695312 285.308594 122.375 C 284.828125 122.054688 284.320312 121.78125 283.789062 121.5625 C 283.257812 121.339844 282.707031 121.171875 282.140625 121.058594 C 281.574219 120.945312 281.003906 120.890625 280.425781 120.886719 Z M 123.511719 120.886719 " fill-opacity="1" fill-rule="nonzero"/><path fill="#000000" d="M 280.359375 235.136719 L 123.546875 235.136719 C 123.425781 235.136719 123.320312 235.09375 123.234375 235.003906 C 123.148438 234.917969 123.105469 234.816406 123.105469 234.691406 L 123.105469 129.726562 C 123.105469 129.605469 123.148438 129.5 123.234375 129.414062 C 123.320312 129.328125 123.425781 129.285156 123.546875 129.285156 L 280.359375 129.285156 C 280.480469 129.285156 280.585938 129.328125 280.671875 129.414062 C 280.757812 129.5 280.800781 129.605469 280.800781 129.726562 L 280.800781 234.691406 C 280.800781 234.816406 280.757812 234.917969 280.671875 235.003906 C 280.585938 235.09375 280.480469 235.136719 280.359375 235.136719 Z M 123.546875 234.691406 Z M 123.546875 234.691406 L 280.359375 234.691406 L 280.359375 129.753906 L 123.546875 129.753906 Z M 123.546875 234.691406 " fill-opacity="1" fill-rule="nonzero"/><path fill="#f56dcd" d="M 245.335938 214.160156 L 208.277344 214.160156 C 208.109375 214.160156 207.953125 214.128906 207.800781 214.066406 C 207.648438 214.003906 207.511719 213.914062 207.394531 213.796875 C 207.277344 213.679688 207.1875 213.542969 207.125 213.390625 C 207.0625 213.238281 207.03125 213.082031 207.03125 212.914062 L 207.03125 188.070312 C 207.03125 187.90625 207.0625 187.746094 207.125 187.59375 C 207.1875 187.441406 207.277344 187.308594 207.394531 187.191406 C 207.511719 187.074219 207.648438 186.984375 207.800781 186.921875 C 207.953125 186.859375 208.109375 186.828125 208.277344 186.828125 L 245.335938 186.828125 C 245.503906 186.828125 245.660156 186.859375 245.8125 186.921875 C 245.964844 186.984375 246.101562 187.074219 246.21875 187.191406 C 246.335938 187.308594 246.425781 187.441406 246.488281 187.59375 C 246.550781 187.746094 246.582031 187.90625 246.582031 188.070312 L 246.582031 212.902344 C 246.582031 213.070312 246.554688 213.230469 246.492188 213.382812 C 246.429688 213.539062 246.339844 213.671875 246.222656 213.792969 C 246.105469 213.910156 245.96875 214 245.816406 214.066406 C 245.664062 214.128906 245.503906 214.160156 245.335938 214.160156 Z M 245.261719 157.839844 L 245.261719 133.011719 C 245.261719 132.84375 245.230469 132.6875 245.167969 132.535156 C 245.105469 132.382812 245.015625 132.246094 244.898438 132.128906 C 244.78125 132.011719 244.648438 131.921875 244.496094 131.859375 C 244.34375 131.796875 244.183594 131.765625 244.019531 131.765625 L 206.945312 131.765625 C 206.777344 131.765625 206.621094 131.796875 206.46875 131.859375 C 206.316406 131.921875 206.179688 132.011719 206.0625 132.128906 C 205.945312 132.246094 205.855469 132.382812 205.792969 132.535156 C 205.730469 132.6875 205.699219 132.84375 205.699219 133.011719 L 205.699219 157.839844 C 205.699219 158.007812 205.730469 158.164062 205.792969 158.316406 C 205.855469 158.46875 205.945312 158.605469 206.0625 158.722656 C 206.179688 158.839844 206.316406 158.929688 206.46875 158.992188 C 206.621094 159.054688 206.777344 159.085938 206.945312 159.085938 L 244.007812 159.085938 C 244.171875 159.089844 244.332031 159.058594 244.484375 158.996094 C 244.640625 158.933594 244.777344 158.84375 244.894531 158.726562 C 245.011719 158.609375 245.101562 158.472656 245.167969 158.320312 C 245.230469 158.167969 245.261719 158.007812 245.261719 157.839844 Z M 167 211.542969 L 167 186.714844 C 167 186.550781 166.96875 186.390625 166.90625 186.238281 C 166.84375 186.085938 166.753906 185.949219 166.636719 185.832031 C 166.519531 185.714844 166.386719 185.625 166.230469 185.5625 C 166.078125 185.5 165.921875 185.46875 165.757812 185.46875 L 128.667969 185.46875 C 128.503906 185.46875 128.34375 185.5 128.191406 185.5625 C 128.039062 185.625 127.90625 185.714844 127.789062 185.832031 C 127.671875 185.949219 127.582031 186.085938 127.519531 186.238281 C 127.457031 186.390625 127.425781 186.550781 127.425781 186.714844 L 127.425781 211.542969 C 127.425781 211.710938 127.457031 211.867188 127.519531 212.019531 C 127.582031 212.175781 127.671875 212.308594 127.789062 212.425781 C 127.90625 212.542969 128.039062 212.632812 128.191406 212.695312 C 128.34375 212.757812 128.503906 212.789062 128.667969 212.789062 L 165.730469 212.789062 C 165.898438 212.792969 166.058594 212.765625 166.214844 212.703125 C 166.371094 212.640625 166.507812 212.550781 166.628906 212.433594 C 166.746094 212.316406 166.839844 212.179688 166.902344 212.027344 C 166.96875 211.871094 167 211.710938 167 211.542969 Z M 167 211.542969 " fill-opacity="1" fill-rule="nonzero"/><path fill="#000000" d="M 186.203125 104.914062 C 186.203125 104.914062 182.132812 99.464844 186.769531 96.226562 C 191.40625 92.988281 192.886719 94.425781 197.523438 94.773438 C 202.160156 95.125 204.367188 100.796875 210.253906 100.6875 C 216.140625 100.574219 218.125 108.480469 223.453125 109.957031 C 228.777344 111.433594 231.964844 121.253906 220.765625 120.5625 C 209.5625 119.871094 186.203125 104.914062 186.203125 104.914062 Z M 186.203125 104.914062 " fill-opacity="1" fill-rule="nonzero"/><path fill="#f56dcd" d="M 188.84375 177.183594 L 176.546875 177.183594 C 176.296875 177.183594 176.058594 177.136719 175.832031 177.039062 C 175.601562 176.945312 175.402344 176.8125 175.226562 176.636719 C 175.050781 176.460938 174.917969 176.257812 174.820312 176.03125 C 174.726562 175.800781 174.679688 175.5625 174.679688 175.3125 L 174.679688 163.023438 C 174.679688 162.777344 174.726562 162.539062 174.820312 162.308594 C 174.917969 162.078125 175.050781 161.878906 175.226562 161.703125 C 175.402344 161.527344 175.601562 161.390625 175.832031 161.296875 C 176.058594 161.203125 176.296875 161.15625 176.546875 161.15625 L 188.84375 161.15625 C 189.089844 161.15625 189.328125 161.203125 189.554688 161.296875 C 189.785156 161.390625 189.988281 161.527344 190.164062 161.703125 C 190.335938 161.878906 190.472656 162.078125 190.566406 162.308594 C 190.660156 162.539062 190.707031 162.777344 190.707031 163.023438 L 190.707031 175.339844 C 190.707031 175.585938 190.65625 175.820312 190.558594 176.046875 C 190.464844 176.273438 190.328125 176.472656 190.152344 176.644531 C 189.980469 176.816406 189.777344 176.949219 189.550781 177.042969 C 189.324219 177.136719 189.085938 177.183594 188.84375 177.183594 Z M 188.84375 177.183594 " fill-opacity="1" fill-rule="nonzero"/><path fill="#f56dcd" d="M 195.132812 247.269531 L 171.890625 247.269531 C 171.636719 247.269531 171.394531 247.222656 171.15625 247.125 C 170.921875 247.027344 170.714844 246.886719 170.535156 246.707031 C 170.355469 246.527344 170.21875 246.320312 170.121094 246.085938 C 170.023438 245.851562 169.976562 245.605469 169.976562 245.351562 L 169.976562 221.554688 C 169.972656 221.300781 170.023438 221.054688 170.121094 220.820312 C 170.214844 220.585938 170.355469 220.375 170.535156 220.195312 C 170.714844 220.015625 170.921875 219.878906 171.15625 219.78125 C 171.390625 219.683594 171.636719 219.636719 171.890625 219.636719 L 195.132812 219.636719 C 195.386719 219.636719 195.632812 219.683594 195.867188 219.78125 C 196.101562 219.878906 196.308594 220.015625 196.492188 220.195312 C 196.671875 220.375 196.808594 220.585938 196.90625 220.820312 C 197.003906 221.054688 197.050781 221.300781 197.050781 221.554688 L 197.050781 245.351562 C 197.050781 245.605469 197 245.851562 196.902344 246.085938 C 196.804688 246.320312 196.667969 246.527344 196.488281 246.707031 C 196.308594 246.886719 196.101562 247.027344 195.867188 247.125 C 195.632812 247.222656 195.386719 247.269531 195.132812 247.269531 Z M 195.132812 247.269531 " fill-opacity="1" fill-rule="nonzero"/><path fill="#ffffff" d="M 181.984375 215.1875 L 185.65625 215.1875 L 185.65625 224.601562 L 181.984375 224.601562 Z M 181.984375 215.1875 " fill-opacity="1" fill-rule="nonzero"/><path fill="#000000" d="M 185.65625 224.832031 L 181.984375 224.832031 C 181.835938 224.828125 181.757812 224.75 181.753906 224.601562 L 181.753906 215.1875 C 181.753906 215.035156 181.832031 214.957031 181.984375 214.957031 L 185.65625 214.957031 C 185.71875 214.957031 185.773438 214.976562 185.820312 215.023438 C 185.867188 215.070312 185.886719 215.125 185.886719 215.1875 L 185.886719 224.601562 C 185.886719 224.753906 185.808594 224.832031 185.65625 224.832031 Z M 182.222656 224.363281 L 185.417969 224.363281 L 185.417969 215.425781 L 182.222656 215.425781 Z M 182.222656 224.363281 " fill-opacity="1" fill-rule="nonzero"/><path fill="#ffffff" d="M 105.550781 229.546875 C 110.0625 233.097656 120.578125 243.65625 120.578125 264.835938 L 64.363281 264.835938 C 64.363281 243.65625 74.886719 233.066406 79.398438 229.542969 C 80.03125 229.046875 80.527344 228.441406 80.878906 227.722656 C 81.234375 227 81.410156 226.238281 81.414062 225.4375 L 81.414062 225.316406 C 81.410156 224.515625 81.230469 223.75 80.878906 223.03125 C 80.523438 222.308594 80.03125 221.699219 79.398438 221.207031 C 74.886719 217.660156 64.363281 207.117188 64.363281 185.917969 L 120.578125 185.917969 C 120.578125 207.097656 110.050781 217.6875 105.539062 221.207031 C 104.90625 221.699219 104.414062 222.308594 104.0625 223.03125 C 103.710938 223.753906 103.53125 224.515625 103.53125 225.316406 L 103.53125 225.4375 C 103.53125 226.242188 103.710938 227.003906 104.066406 227.726562 C 104.421875 228.449219 104.917969 229.054688 105.550781 229.546875 Z M 105.550781 229.546875 " fill-opacity="1" fill-rule="nonzero"/><path fill="#000000" d="M 120.578125 265.074219 L 64.363281 265.074219 C 64.300781 265.074219 64.242188 265.054688 64.199219 265.007812 C 64.152344 264.964844 64.128906 264.90625 64.128906 264.84375 C 64.128906 243.558594 74.707031 232.941406 79.253906 229.367188 C 79.859375 228.894531 80.332031 228.316406 80.667969 227.625 C 81.007812 226.9375 81.175781 226.210938 81.179688 225.441406 L 81.179688 225.324219 C 81.175781 224.554688 81.007812 223.828125 80.667969 223.140625 C 80.332031 222.449219 79.859375 221.871094 79.253906 221.398438 C 74.707031 217.824219 64.128906 207.207031 64.128906 185.890625 C 64.128906 185.734375 64.207031 185.65625 64.363281 185.65625 L 120.578125 185.65625 C 120.734375 185.660156 120.808594 185.738281 120.808594 185.890625 C 120.808594 207.175781 110.230469 217.792969 105.683594 221.398438 C 105.078125 221.871094 104.605469 222.449219 104.269531 223.140625 C 103.929688 223.828125 103.761719 224.554688 103.761719 225.324219 L 103.761719 225.441406 C 103.761719 226.210938 103.929688 226.9375 104.269531 227.625 C 104.605469 228.316406 105.078125 228.894531 105.683594 229.367188 C 110.230469 232.941406 120.808594 243.558594 120.808594 264.84375 C 120.808594 264.996094 120.734375 265.074219 120.578125 265.074219 Z M 64.574219 264.605469 L 120.335938 264.605469 C 120.261719 243.6875 109.863281 233.253906 105.402344 229.722656 C 104.738281 229.207031 104.222656 228.574219 103.855469 227.820312 C 103.484375 227.066406 103.300781 226.269531 103.300781 225.429688 L 103.300781 225.3125 C 103.300781 224.472656 103.484375 223.675781 103.855469 222.921875 C 104.222656 222.167969 104.738281 221.535156 105.402344 221.019531 C 109.875 217.5 120.273438 207.066406 120.335938 186.136719 L 64.574219 186.136719 C 64.65625 207.058594 75.046875 217.492188 79.511719 221.019531 C 80.171875 221.535156 80.6875 222.167969 81.058594 222.921875 C 81.425781 223.675781 81.613281 224.472656 81.613281 225.3125 L 81.613281 225.429688 C 81.613281 226.269531 81.425781 227.066406 81.058594 227.820312 C 80.6875 228.574219 80.171875 229.207031 79.511719 229.722656 C 75.066406 233.253906 64.675781 243.6875 64.574219 264.605469 Z M 64.574219 264.605469 " fill-opacity="1" fill-rule="nonzero"/><path fill="#f56dcd" d="M 111.519531 255.582031 C 111.542969 255.921875 111.496094 256.253906 111.382812 256.574219 C 111.269531 256.898438 111.09375 257.183594 110.863281 257.433594 C 110.632812 257.683594 110.359375 257.878906 110.046875 258.019531 C 109.734375 258.15625 109.410156 258.230469 109.066406 258.234375 L 75.996094 258.234375 C 75.652344 258.230469 75.320312 258.15625 75.007812 258.015625 C 74.695312 257.875 74.421875 257.679688 74.191406 257.425781 C 73.957031 257.171875 73.785156 256.882812 73.671875 256.558594 C 73.558594 256.234375 73.515625 255.898438 73.542969 255.554688 C 74.539062 245.128906 77.738281 237.457031 84.527344 231.339844 C 87.636719 228.539062 89.710938 224.875 89.710938 220.703125 L 89.710938 220.609375 C 89.710938 219.582031 89.597656 218.570312 89.367188 217.570312 C 89.136719 216.570312 88.796875 215.609375 88.347656 214.6875 C 87.898438 213.765625 87.351562 212.90625 86.707031 212.109375 C 86.0625 211.3125 85.335938 210.597656 84.527344 209.96875 C 81.453125 207.472656 79.003906 204.472656 77.175781 200.960938 C 77.082031 200.773438 77.011719 200.578125 76.96875 200.371094 C 76.925781 200.164062 76.90625 199.957031 76.914062 199.746094 C 76.921875 199.539062 76.957031 199.332031 77.019531 199.128906 C 77.078125 198.929688 77.164062 198.738281 77.269531 198.558594 C 77.378906 198.378906 77.507812 198.214844 77.65625 198.066406 C 77.808594 197.921875 77.972656 197.792969 78.15625 197.6875 C 78.335938 197.582031 78.527344 197.503906 78.730469 197.445312 C 78.933594 197.390625 79.136719 197.359375 79.347656 197.355469 L 105.601562 197.355469 C 105.8125 197.351562 106.023438 197.378906 106.226562 197.433594 C 106.433594 197.488281 106.628906 197.566406 106.8125 197.667969 C 106.996094 197.773438 107.164062 197.898438 107.316406 198.046875 C 107.46875 198.195312 107.597656 198.359375 107.707031 198.542969 C 107.816406 198.722656 107.902344 198.914062 107.960938 199.117188 C 108.019531 199.324219 108.054688 199.53125 108.058594 199.742188 C 108.066406 199.953125 108.042969 200.164062 107.996094 200.371094 C 107.945312 200.578125 107.871094 200.773438 107.773438 200.960938 C 105.949219 204.472656 103.5 207.476562 100.425781 209.96875 C 99.617188 210.597656 98.890625 211.3125 98.246094 212.109375 C 97.597656 212.90625 97.050781 213.765625 96.601562 214.6875 C 96.152344 215.609375 95.8125 216.570312 95.585938 217.570312 C 95.355469 218.570312 95.238281 219.582031 95.242188 220.609375 L 95.242188 220.726562 C 95.257812 221.75 95.386719 222.757812 95.625 223.753906 C 95.863281 224.746094 96.207031 225.703125 96.652344 226.621094 C 97.101562 227.542969 97.644531 228.402344 98.277344 229.203125 C 98.914062 230 99.628906 230.722656 100.425781 231.367188 C 107.25 237.183594 110.910156 246.441406 111.519531 255.582031 Z M 111.519531 255.582031 " fill-opacity="1" fill-rule="nonzero"/><g clip-path="url(#75715f2205)"><path fill="#f56dcd" d="M 127.21875 265.011719 L 127.21875 265.589844 C 127.21875 265.910156 127.160156 266.214844 127.039062 266.511719 C 126.917969 266.804688 126.746094 267.066406 126.519531 267.289062 C 126.296875 267.515625 126.035156 267.691406 125.742188 267.8125 C 125.449219 267.933594 125.140625 267.996094 124.824219 267.996094 L 119.722656 267.996094 C 119.746094 268.148438 119.761719 268.300781 119.765625 268.457031 L 119.765625 270.226562 C 119.765625 270.644531 119.683594 271.046875 119.523438 271.429688 C 119.363281 271.816406 119.136719 272.15625 118.839844 272.453125 C 118.546875 272.746094 118.207031 272.976562 117.820312 273.136719 C 117.433594 273.296875 117.03125 273.375 116.617188 273.378906 L 68.308594 273.378906 C 67.894531 273.371094 67.496094 273.289062 67.117188 273.125 C 66.734375 272.964844 66.398438 272.734375 66.109375 272.441406 C 65.816406 272.144531 65.59375 271.804688 65.4375 271.421875 C 65.277344 271.039062 65.199219 270.640625 65.199219 270.226562 L 65.199219 268.457031 C 65.203125 268.300781 65.21875 268.148438 65.246094 267.996094 L 60.132812 267.996094 C 59.8125 267.996094 59.507812 267.933594 59.214844 267.8125 C 58.917969 267.691406 58.660156 267.515625 58.433594 267.292969 C 58.210938 267.066406 58.035156 266.804688 57.914062 266.511719 C 57.792969 266.214844 57.730469 265.910156 57.730469 265.589844 L 57.730469 265.011719 C 57.730469 264.691406 57.792969 264.386719 57.914062 264.089844 C 58.035156 263.796875 58.210938 263.535156 58.433594 263.3125 C 58.660156 263.085938 58.917969 262.910156 59.214844 262.789062 C 59.507812 262.667969 59.8125 262.605469 60.132812 262.605469 L 124.847656 262.605469 C 125.164062 262.609375 125.46875 262.671875 125.757812 262.796875 C 126.050781 262.921875 126.304688 263.09375 126.527344 263.320312 C 126.75 263.546875 126.921875 263.804688 127.042969 264.097656 C 127.160156 264.390625 127.21875 264.695312 127.21875 265.011719 Z M 124.824219 182.308594 L 119.722656 182.308594 C 119.746094 182.15625 119.761719 182.003906 119.765625 181.847656 L 119.765625 180.078125 C 119.765625 179.660156 119.683594 179.261719 119.523438 178.875 C 119.363281 178.488281 119.136719 178.148438 118.839844 177.851562 C 118.546875 177.558594 118.207031 177.328125 117.820312 177.167969 C 117.433594 177.007812 117.03125 176.929688 116.617188 176.929688 L 68.308594 176.929688 C 67.894531 176.933594 67.496094 177.015625 67.117188 177.179688 C 66.734375 177.34375 66.398438 177.570312 66.109375 177.867188 C 65.816406 178.160156 65.59375 178.5 65.4375 178.882812 C 65.277344 179.265625 65.199219 179.664062 65.199219 180.078125 L 65.199219 181.847656 C 65.203125 182.003906 65.21875 182.15625 65.246094 182.308594 L 60.132812 182.308594 C 59.8125 182.308594 59.507812 182.371094 59.214844 182.492188 C 58.917969 182.613281 58.660156 182.789062 58.433594 183.015625 C 58.210938 183.238281 58.035156 183.5 57.914062 183.792969 C 57.792969 184.089844 57.730469 184.394531 57.730469 184.714844 L 57.730469 185.292969 C 57.730469 185.613281 57.792969 185.917969 57.914062 186.214844 C 58.035156 186.507812 58.210938 186.769531 58.433594 186.992188 C 58.660156 187.21875 58.917969 187.394531 59.214844 187.515625 C 59.507812 187.636719 59.8125 187.699219 60.132812 187.699219 L 124.847656 187.699219 C 125.167969 187.699219 125.472656 187.636719 125.765625 187.515625 C 126.0625 187.394531 126.320312 187.21875 126.542969 186.992188 C 126.769531 186.769531 126.941406 186.507812 127.0625 186.214844 C 127.183594 185.917969 127.246094 185.613281 127.246094 185.292969 L 127.246094 184.714844 C 127.246094 184.394531 127.183594 184.085938 127.0625 183.789062 C 126.9375 183.492188 126.761719 183.230469 126.535156 183.003906 C 126.308594 182.78125 126.046875 182.605469 125.75 182.484375 C 125.453125 182.367188 125.144531 182.304688 124.824219 182.308594 Z M 124.824219 182.308594 " fill-opacity="1" fill-rule="nonzero"/></g><path fill="#000000" d="M 119.957031 182.433594 L 65.359375 182.433594 C 65.296875 182.433594 65.238281 182.410156 65.195312 182.363281 C 65.148438 182.320312 65.128906 182.261719 65.128906 182.199219 C 65.128906 182.132812 65.148438 182.078125 65.195312 182.03125 C 65.242188 181.988281 65.296875 181.964844 65.359375 181.96875 L 119.957031 181.96875 C 120.023438 181.964844 120.078125 181.988281 120.125 182.03125 C 120.171875 182.078125 120.195312 182.132812 120.195312 182.199219 C 120.195312 182.355469 120.113281 182.433594 119.957031 182.433594 Z M 119.957031 182.433594 " fill-opacity="1" fill-rule="nonzero"/><path fill="#000000" d="M 280.730469 208.023438 L 242.121094 208.023438 L 242.121094 182.308594 L 280.730469 182.308594 C 280.796875 182.3125 280.851562 182.289062 280.898438 182.246094 C 280.945312 182.199219 280.96875 182.144531 280.96875 182.078125 C 280.96875 181.921875 280.890625 181.84375 280.730469 181.84375 L 242.121094 181.84375 L 242.121094 156.132812 L 273.886719 156.132812 C 274.019531 156.113281 274.085938 156.035156 274.085938 155.902344 C 274.085938 155.765625 274.019531 155.6875 273.886719 155.667969 L 242.121094 155.667969 L 242.121094 129.503906 C 242.097656 129.371094 242.019531 129.304688 241.886719 129.304688 C 241.753906 129.304688 241.675781 129.371094 241.652344 129.503906 L 241.652344 155.667969 L 202.269531 155.667969 L 202.269531 129.503906 C 202.25 129.371094 202.171875 129.304688 202.039062 129.304688 C 201.902344 129.304688 201.824219 129.371094 201.804688 129.503906 L 201.804688 155.667969 L 164.289062 155.667969 L 164.289062 129.503906 C 164.289062 129.351562 164.210938 129.273438 164.058594 129.273438 C 163.902344 129.273438 163.824219 129.351562 163.820312 129.503906 L 163.820312 155.667969 L 123.34375 155.667969 C 123.269531 155.65625 123.207031 155.671875 123.152344 155.71875 C 123.09375 155.765625 123.066406 155.828125 123.066406 155.902344 C 123.066406 155.972656 123.09375 156.035156 123.152344 156.082031 C 123.207031 156.128906 123.269531 156.144531 123.34375 156.132812 L 163.820312 156.132812 L 163.820312 181.84375 L 123.34375 181.84375 C 123.183594 181.84375 123.105469 181.921875 123.105469 182.078125 C 123.105469 182.144531 123.128906 182.199219 123.175781 182.246094 C 123.222656 182.289062 123.277344 182.3125 123.34375 182.308594 L 163.820312 182.308594 L 163.820312 208.023438 L 123.34375 208.023438 C 123.269531 208.011719 123.207031 208.03125 123.152344 208.078125 C 123.09375 208.125 123.066406 208.183594 123.066406 208.257812 C 123.066406 208.332031 123.09375 208.390625 123.152344 208.4375 C 123.207031 208.484375 123.269531 208.503906 123.34375 208.492188 L 163.820312 208.492188 L 163.820312 234.898438 C 163.820312 235.054688 163.898438 235.136719 164.058594 235.136719 C 164.121094 235.136719 164.175781 235.113281 164.222656 235.066406 C 164.269531 235.019531 164.289062 234.964844 164.289062 234.898438 L 164.289062 208.492188 L 201.804688 208.492188 L 201.804688 234.898438 C 201.792969 234.96875 201.808594 235.035156 201.855469 235.089844 C 201.902344 235.144531 201.964844 235.171875 202.039062 235.171875 C 202.109375 235.171875 202.171875 235.144531 202.21875 235.089844 C 202.265625 235.035156 202.28125 234.96875 202.269531 234.898438 L 202.269531 208.492188 L 241.652344 208.492188 L 241.652344 234.898438 C 241.640625 234.96875 241.660156 235.035156 241.707031 235.089844 C 241.753906 235.144531 241.8125 235.171875 241.886719 235.171875 C 241.960938 235.171875 242.019531 235.144531 242.066406 235.089844 C 242.113281 235.035156 242.132812 234.96875 242.121094 234.898438 L 242.121094 208.492188 L 280.730469 208.492188 C 280.804688 208.503906 280.867188 208.484375 280.921875 208.4375 C 280.980469 208.390625 281.007812 208.332031 281.007812 208.257812 C 281.007812 208.183594 280.980469 208.125 280.921875 208.078125 C 280.867188 208.03125 280.804688 208.011719 280.730469 208.023438 Z M 241.652344 156.132812 L 241.652344 181.84375 L 202.269531 181.84375 L 202.269531 156.132812 Z M 164.289062 156.132812 L 201.804688 156.132812 L 201.804688 181.84375 L 164.289062 181.84375 Z M 164.289062 208.023438 L 164.289062 182.308594 L 201.804688 182.308594 L 201.804688 208.023438 Z M 202.246094 208.023438 L 202.246094 182.308594 L 241.628906 182.308594 L 241.628906 208.023438 Z M 202.246094 208.023438 " fill-opacity="1" fill-rule="nonzero"/><path fill="#ffffff" d="M 191.519531 230.3125 L 176.042969 230.3125 C 175.886719 230.3125 175.8125 230.238281 175.8125 230.082031 C 175.8125 229.929688 175.886719 229.851562 176.042969 229.847656 L 191.519531 229.847656 C 191.675781 229.847656 191.753906 229.925781 191.753906 230.082031 C 191.753906 230.148438 191.730469 230.203125 191.683594 230.25 C 191.636719 230.292969 191.582031 230.316406 191.519531 230.3125 Z M 191.753906 234.445312 C 191.75 234.289062 191.671875 234.214844 191.519531 234.214844 L 176.042969 234.214844 C 175.910156 234.234375 175.84375 234.3125 175.84375 234.445312 C 175.84375 234.582031 175.910156 234.660156 176.042969 234.679688 L 191.519531 234.679688 C 191.664062 234.667969 191.734375 234.589844 191.734375 234.445312 Z M 191.753906 239.425781 C 191.753906 239.269531 191.675781 239.191406 191.519531 239.191406 L 176.042969 239.191406 C 175.910156 239.210938 175.84375 239.289062 175.84375 239.425781 C 175.84375 239.558594 175.910156 239.636719 176.042969 239.65625 L 191.519531 239.65625 C 191.65625 239.648438 191.730469 239.574219 191.734375 239.433594 Z M 191.753906 239.425781 " fill-opacity="1" fill-rule="nonzero"/><path fill="#000000" d="M 150.242188 139.003906 L 137.042969 139.003906 C 136.972656 139.015625 136.910156 138.996094 136.851562 138.949219 C 136.796875 138.902344 136.769531 138.84375 136.769531 138.769531 C 136.769531 138.695312 136.796875 138.636719 136.851562 138.589844 C 136.910156 138.542969 136.972656 138.523438 137.042969 138.535156 L 150.242188 138.535156 C 150.375 138.558594 150.441406 138.636719 150.441406 138.769531 C 150.441406 138.902344 150.375 138.980469 150.242188 139.003906 Z M 156.496094 143.132812 C 156.496094 142.976562 156.417969 142.898438 156.261719 142.898438 L 131.019531 142.898438 C 130.890625 142.917969 130.824219 142.996094 130.824219 143.128906 C 130.824219 143.265625 130.890625 143.34375 131.019531 143.363281 L 156.261719 143.363281 C 156.402344 143.363281 156.480469 143.292969 156.496094 143.152344 Z M 156.496094 147.492188 C 156.496094 147.429688 156.472656 147.375 156.425781 147.328125 C 156.378906 147.285156 156.324219 147.261719 156.261719 147.261719 L 131.019531 147.261719 C 130.867188 147.261719 130.792969 147.339844 130.792969 147.492188 C 130.789062 147.648438 130.867188 147.726562 131.019531 147.730469 L 156.261719 147.730469 C 156.40625 147.730469 156.484375 147.660156 156.496094 147.511719 Z M 150.472656 163.691406 C 150.476562 163.625 150.453125 163.570312 150.40625 163.523438 C 150.363281 163.476562 150.308594 163.453125 150.242188 163.453125 L 137.042969 163.453125 C 136.972656 163.441406 136.910156 163.460938 136.851562 163.507812 C 136.796875 163.554688 136.769531 163.613281 136.769531 163.6875 C 136.769531 163.761719 136.796875 163.820312 136.851562 163.867188 C 136.910156 163.914062 136.972656 163.933594 137.042969 163.921875 L 150.242188 163.921875 C 150.363281 163.910156 150.433594 163.84375 150.449219 163.722656 Z M 156.496094 168.050781 C 156.496094 167.984375 156.472656 167.929688 156.425781 167.886719 C 156.378906 167.839844 156.324219 167.820312 156.261719 167.820312 L 131.019531 167.820312 C 130.867188 167.820312 130.792969 167.898438 130.792969 168.050781 C 130.789062 168.203125 130.867188 168.285156 131.019531 168.289062 L 156.261719 168.289062 C 156.398438 168.289062 156.476562 168.21875 156.496094 168.082031 Z M 156.496094 172.410156 C 156.492188 172.257812 156.414062 172.179688 156.261719 172.179688 L 131.019531 172.179688 C 130.890625 172.203125 130.824219 172.28125 130.824219 172.414062 C 130.824219 172.546875 130.890625 172.625 131.019531 172.648438 L 156.261719 172.648438 C 156.398438 172.648438 156.476562 172.582031 156.496094 172.441406 Z M 150.472656 190.476562 C 150.472656 190.324219 150.398438 190.246094 150.242188 190.246094 L 137.042969 190.246094 C 136.972656 190.234375 136.910156 190.253906 136.851562 190.300781 C 136.796875 190.347656 136.769531 190.40625 136.769531 190.480469 C 136.769531 190.554688 136.796875 190.613281 136.851562 190.660156 C 136.910156 190.707031 136.972656 190.726562 137.042969 190.714844 L 150.242188 190.714844 C 150.359375 190.703125 150.429688 190.636719 150.449219 190.519531 Z M 156.496094 194.835938 C 156.496094 194.679688 156.417969 194.601562 156.261719 194.601562 L 131.019531 194.601562 C 130.890625 194.621094 130.824219 194.699219 130.824219 194.835938 C 130.824219 194.96875 130.890625 195.046875 131.019531 195.066406 L 156.261719 195.066406 C 156.386719 195.070312 156.464844 195.011719 156.496094 194.886719 Z M 156.496094 199.199219 C 156.496094 199.132812 156.472656 199.078125 156.425781 199.03125 C 156.378906 198.988281 156.324219 198.964844 156.261719 198.96875 L 131.019531 198.96875 C 130.867188 198.96875 130.792969 199.042969 130.792969 199.199219 C 130.789062 199.351562 130.867188 199.429688 131.019531 199.433594 L 156.261719 199.433594 C 156.390625 199.4375 156.46875 199.375 156.496094 199.246094 Z M 189.699219 138.734375 C 189.695312 138.585938 189.621094 138.507812 189.46875 138.503906 L 176.273438 138.503906 C 176.199219 138.492188 176.136719 138.511719 176.082031 138.558594 C 176.027344 138.605469 175.996094 138.664062 175.996094 138.738281 C 175.996094 138.8125 176.027344 138.871094 176.082031 138.917969 C 176.136719 138.964844 176.199219 138.984375 176.273438 138.972656 L 189.46875 138.972656 C 189.597656 138.972656 189.675781 138.910156 189.699219 138.785156 Z M 195.722656 143.097656 C 195.722656 142.9375 195.644531 142.859375 195.488281 142.859375 L 170.25 142.859375 C 170.117188 142.878906 170.050781 142.957031 170.050781 143.09375 C 170.050781 143.226562 170.117188 143.304688 170.25 143.328125 L 195.488281 143.328125 C 195.613281 143.332031 195.691406 143.273438 195.722656 143.152344 Z M 195.722656 147.457031 C 195.722656 147.390625 195.703125 147.335938 195.65625 147.292969 C 195.609375 147.246094 195.550781 147.222656 195.488281 147.226562 L 170.25 147.226562 C 170.09375 147.226562 170.019531 147.304688 170.019531 147.457031 C 170.019531 147.609375 170.09375 147.6875 170.25 147.691406 L 195.488281 147.691406 C 195.617188 147.695312 195.695312 147.636719 195.722656 147.511719 Z M 228.929688 138.734375 C 228.925781 138.582031 228.84375 138.503906 228.691406 138.503906 L 215.492188 138.503906 C 215.363281 138.527344 215.296875 138.605469 215.296875 138.738281 C 215.296875 138.871094 215.363281 138.949219 215.492188 138.972656 L 228.691406 138.972656 C 228.820312 138.976562 228.902344 138.914062 228.929688 138.785156 Z M 234.945312 143.097656 C 234.949219 143.03125 234.925781 142.976562 234.878906 142.929688 C 234.835938 142.882812 234.78125 142.859375 234.714844 142.859375 L 209.476562 142.859375 C 209.34375 142.878906 209.277344 142.957031 209.277344 143.09375 C 209.277344 143.226562 209.34375 143.304688 209.476562 143.328125 L 234.714844 143.328125 C 234.839844 143.332031 234.914062 143.273438 234.945312 143.152344 Z M 234.945312 147.457031 C 234.949219 147.390625 234.925781 147.335938 234.878906 147.292969 C 234.835938 147.246094 234.78125 147.222656 234.714844 147.226562 L 209.476562 147.226562 C 209.410156 147.222656 209.355469 147.246094 209.3125 147.292969 C 209.265625 147.335938 209.246094 147.390625 209.246094 147.457031 C 209.246094 147.519531 209.265625 147.578125 209.3125 147.625 C 209.355469 147.671875 209.410156 147.691406 209.476562 147.691406 L 234.714844 147.691406 C 234.839844 147.695312 234.917969 147.636719 234.945312 147.511719 Z M 228.929688 163.652344 C 228.929688 163.496094 228.847656 163.417969 228.691406 163.417969 L 215.492188 163.417969 C 215.363281 163.4375 215.296875 163.515625 215.296875 163.648438 C 215.296875 163.785156 215.363281 163.863281 215.492188 163.882812 L 228.691406 163.882812 C 228.8125 163.890625 228.890625 163.835938 228.929688 163.722656 Z M 234.945312 168.011719 C 234.949219 167.949219 234.925781 167.894531 234.878906 167.847656 C 234.835938 167.804688 234.78125 167.78125 234.714844 167.78125 L 209.476562 167.78125 C 209.410156 167.78125 209.355469 167.804688 209.3125 167.847656 C 209.265625 167.894531 209.246094 167.949219 209.246094 168.011719 C 209.246094 168.078125 209.265625 168.132812 209.3125 168.179688 C 209.355469 168.226562 209.410156 168.25 209.476562 168.25 L 234.714844 168.25 C 234.835938 168.253906 234.914062 168.199219 234.945312 168.082031 Z M 234.945312 172.375 C 234.945312 172.21875 234.867188 172.144531 234.714844 172.144531 L 209.476562 172.144531 C 209.34375 172.164062 209.277344 172.242188 209.277344 172.378906 C 209.277344 172.511719 209.34375 172.589844 209.476562 172.609375 L 234.714844 172.609375 C 234.835938 172.617188 234.914062 172.558594 234.945312 172.441406 Z M 228.929688 217.226562 C 228.929688 217.066406 228.847656 216.988281 228.691406 216.988281 L 215.492188 216.988281 C 215.363281 217.011719 215.296875 217.089844 215.296875 217.222656 C 215.296875 217.355469 215.363281 217.433594 215.492188 217.457031 L 228.691406 217.457031 C 228.800781 217.46875 228.878906 217.425781 228.929688 217.324219 Z M 234.945312 221.585938 C 234.949219 221.523438 234.925781 221.46875 234.878906 221.421875 C 234.835938 221.375 234.78125 221.355469 234.714844 221.355469 L 209.476562 221.355469 C 209.410156 221.355469 209.355469 221.375 209.3125 221.421875 C 209.265625 221.46875 209.246094 221.523438 209.246094 221.585938 C 209.246094 221.652344 209.265625 221.707031 209.3125 221.753906 C 209.355469 221.800781 209.410156 221.824219 209.476562 221.824219 L 234.714844 221.824219 C 234.824219 221.832031 234.902344 221.785156 234.945312 221.6875 Z M 234.945312 225.945312 C 234.949219 225.882812 234.925781 225.828125 234.878906 225.78125 C 234.835938 225.734375 234.78125 225.710938 234.714844 225.710938 L 209.476562 225.710938 C 209.34375 225.730469 209.277344 225.808594 209.277344 225.945312 C 209.277344 226.078125 209.34375 226.15625 209.476562 226.175781 L 234.714844 226.175781 C 234.820312 226.1875 234.898438 226.148438 234.945312 226.054688 Z M 268.15625 163.617188 C 268.15625 163.457031 268.078125 163.378906 267.917969 163.378906 L 254.722656 163.378906 C 254.589844 163.402344 254.523438 163.476562 254.523438 163.613281 C 254.523438 163.746094 254.589844 163.824219 254.722656 163.847656 L 267.917969 163.847656 C 268.027344 163.859375 268.105469 163.816406 268.15625 163.722656 Z M 274.171875 167.976562 C 274.171875 167.824219 274.097656 167.746094 273.941406 167.746094 L 248.703125 167.746094 C 248.640625 167.742188 248.582031 167.765625 248.535156 167.8125 C 248.492188 167.855469 248.46875 167.910156 248.46875 167.976562 C 248.46875 168.132812 248.546875 168.210938 248.703125 168.210938 L 273.941406 168.210938 C 274.050781 168.222656 274.125 168.175781 274.171875 168.082031 Z M 274.171875 172.335938 C 274.167969 172.1875 274.09375 172.109375 273.941406 172.105469 L 248.703125 172.105469 C 248.632812 172.09375 248.566406 172.113281 248.511719 172.160156 C 248.457031 172.207031 248.429688 172.265625 248.429688 172.339844 C 248.429688 172.414062 248.457031 172.472656 248.511719 172.519531 C 248.566406 172.566406 248.632812 172.585938 248.703125 172.574219 L 273.941406 172.574219 C 274.050781 172.582031 274.125 172.539062 274.171875 172.441406 Z M 268.15625 138.699219 C 268.152344 138.542969 268.074219 138.46875 267.917969 138.46875 L 254.722656 138.46875 C 254.589844 138.488281 254.523438 138.566406 254.523438 138.699219 C 254.523438 138.835938 254.589844 138.914062 254.722656 138.933594 L 267.917969 138.933594 C 268.035156 138.941406 268.113281 138.894531 268.15625 138.785156 Z M 274.171875 143.058594 C 274.171875 142.90625 274.097656 142.824219 273.941406 142.820312 L 248.703125 142.820312 C 248.632812 142.808594 248.566406 142.828125 248.511719 142.875 C 248.457031 142.921875 248.429688 142.980469 248.429688 143.054688 C 248.429688 143.128906 248.457031 143.1875 248.511719 143.234375 C 248.566406 143.28125 248.632812 143.300781 248.703125 143.289062 L 273.941406 143.289062 C 274.050781 143.296875 274.128906 143.25 274.171875 143.152344 Z M 274.171875 147.417969 C 274.171875 147.265625 274.097656 147.1875 273.941406 147.1875 L 248.703125 147.1875 C 248.640625 147.1875 248.582031 147.207031 248.535156 147.253906 C 248.492188 147.300781 248.46875 147.355469 248.46875 147.417969 C 248.46875 147.578125 248.546875 147.65625 248.703125 147.65625 L 273.941406 147.65625 C 274.054688 147.660156 274.128906 147.613281 274.171875 147.511719 Z M 274.171875 147.417969 " fill-opacity="1" fill-rule="nonzero"/><path fill="#ffffff" d="M 313.824219 146.476562 L 277.65625 156.65625 C 277.230469 156.777344 276.792969 156.8125 276.351562 156.757812 C 275.910156 156.707031 275.496094 156.570312 275.109375 156.355469 C 274.71875 156.136719 274.386719 155.851562 274.113281 155.5 C 273.839844 155.152344 273.640625 154.761719 273.519531 154.332031 L 263.121094 117.3125 C 263.003906 116.882812 262.96875 116.449219 263.023438 116.007812 C 263.074219 115.5625 263.210938 115.148438 263.425781 114.761719 C 263.644531 114.371094 263.929688 114.039062 264.277344 113.765625 C 264.625 113.488281 265.015625 113.292969 265.441406 113.167969 L 301.609375 102.984375 C 302.039062 102.863281 302.472656 102.832031 302.914062 102.882812 C 303.355469 102.9375 303.769531 103.074219 304.15625 103.289062 C 304.546875 103.507812 304.878906 103.792969 305.152344 104.140625 C 305.425781 104.492188 305.625 104.878906 305.746094 105.308594 L 316.144531 142.324219 C 316.265625 142.753906 316.304688 143.191406 316.25 143.632812 C 316.199219 144.078125 316.066406 144.492188 315.847656 144.882812 C 315.628906 145.273438 315.34375 145.605469 314.996094 145.882812 C 314.644531 146.160156 314.253906 146.359375 313.824219 146.476562 Z M 313.824219 146.476562 " fill-opacity="1" fill-rule="nonzero"/><path fill="#000000" d="M 276.769531 157.007812 C 276.375 157.003906 275.996094 156.941406 275.625 156.816406 C 275.253906 156.691406 274.914062 156.511719 274.601562 156.277344 C 274.289062 156.039062 274.023438 155.757812 273.804688 155.433594 C 273.582031 155.109375 273.421875 154.761719 273.316406 154.382812 L 262.898438 117.375 C 262.769531 116.914062 262.734375 116.449219 262.789062 115.976562 C 262.847656 115.503906 262.992188 115.058594 263.226562 114.644531 C 263.460938 114.230469 263.761719 113.875 264.136719 113.578125 C 264.511719 113.285156 264.929688 113.074219 265.386719 112.945312 L 301.554688 102.761719 C 302.011719 102.632812 302.476562 102.59375 302.949219 102.652344 C 303.421875 102.707031 303.867188 102.851562 304.28125 103.085938 C 304.695312 103.320312 305.050781 103.625 305.34375 104 C 305.640625 104.375 305.847656 104.792969 305.976562 105.253906 L 316.375 142.261719 C 316.503906 142.71875 316.539062 143.1875 316.480469 143.660156 C 316.425781 144.132812 316.28125 144.578125 316.046875 144.996094 C 315.8125 145.410156 315.511719 145.765625 315.136719 146.058594 C 314.761719 146.355469 314.34375 146.566406 313.886719 146.695312 L 277.71875 156.875 C 277.410156 156.964844 277.089844 157.007812 276.769531 157.007812 Z M 302.535156 103.097656 C 302.25 103.097656 301.96875 103.136719 301.691406 103.210938 L 265.503906 113.394531 C 265.105469 113.503906 264.742188 113.6875 264.417969 113.945312 C 264.089844 114.199219 263.828125 114.511719 263.625 114.871094 C 263.421875 115.234375 263.296875 115.621094 263.246094 116.035156 C 263.199219 116.445312 263.230469 116.851562 263.347656 117.25 L 273.742188 154.257812 C 273.855469 154.660156 274.039062 155.023438 274.292969 155.347656 C 274.550781 155.675781 274.859375 155.941406 275.21875 156.140625 C 275.582031 156.34375 275.96875 156.472656 276.378906 156.519531 C 276.792969 156.566406 277.195312 156.535156 277.59375 156.421875 L 313.761719 146.242188 C 314.160156 146.128906 314.523438 145.945312 314.851562 145.691406 C 315.175781 145.433594 315.441406 145.125 315.644531 144.765625 C 315.847656 144.402344 315.972656 144.015625 316.019531 143.601562 C 316.066406 143.191406 316.035156 142.785156 315.921875 142.386719 L 305.523438 105.363281 C 305.429688 105.035156 305.289062 104.734375 305.097656 104.453125 C 304.90625 104.171875 304.671875 103.929688 304.402344 103.722656 C 304.128906 103.519531 303.832031 103.363281 303.511719 103.257812 C 303.1875 103.148438 302.855469 103.09375 302.515625 103.097656 Z M 313.824219 146.476562 Z M 313.824219 146.476562 " fill-opacity="1" fill-rule="nonzero"/><path fill="#f56dcd" d="M 275.230469 139.882812 C 275.109375 139.882812 275.035156 139.828125 275.007812 139.707031 C 274.964844 139.554688 275.019531 139.460938 275.167969 139.421875 L 307.652344 130.28125 C 307.71875 130.25 307.78125 130.25 307.851562 130.28125 C 307.917969 130.308594 307.960938 130.359375 307.980469 130.429688 C 308 130.5 307.992188 130.566406 307.949219 130.625 C 307.910156 130.6875 307.855469 130.722656 307.78125 130.730469 L 275.292969 139.867188 Z M 274.277344 136.394531 L 306.761719 127.25 C 306.914062 127.207031 306.964844 127.113281 306.921875 126.960938 C 306.90625 126.898438 306.871094 126.851562 306.816406 126.816406 C 306.757812 126.785156 306.699219 126.78125 306.636719 126.800781 L 274.125 135.945312 C 274 135.984375 273.945312 136.070312 273.964844 136.199219 C 273.980469 136.332031 274.054688 136.398438 274.1875 136.40625 Z M 273.234375 132.21875 L 305.722656 123.074219 C 305.867188 123.03125 305.921875 122.9375 305.882812 122.789062 C 305.839844 122.636719 305.742188 122.582031 305.589844 122.625 L 273.109375 131.769531 C 272.957031 131.8125 272.902344 131.90625 272.949219 132.058594 C 272.972656 132.175781 273.050781 132.234375 273.171875 132.230469 Z M 290.289062 121.367188 L 303.980469 117.511719 C 304.046875 117.496094 304.101562 117.457031 304.132812 117.394531 C 304.167969 117.332031 304.171875 117.265625 304.148438 117.199219 C 304.105469 117.046875 304.007812 116.996094 303.855469 117.039062 L 290.164062 120.894531 C 290.027344 120.925781 289.96875 121.011719 289.988281 121.148438 C 290.007812 121.289062 290.089844 121.355469 290.226562 121.347656 Z M 289.417969 118.582031 L 303.109375 114.734375 C 303.261719 114.691406 303.3125 114.59375 303.269531 114.441406 C 303.230469 114.289062 303.132812 114.234375 302.984375 114.277344 L 289.292969 118.132812 C 289.148438 118.179688 289.09375 118.277344 289.132812 118.425781 C 289.167969 118.539062 289.242188 118.59375 289.355469 118.59375 Z M 288.554688 115.628906 L 302.242188 111.773438 C 302.390625 111.730469 302.445312 111.636719 302.40625 111.488281 C 302.363281 111.335938 302.265625 111.28125 302.113281 111.324219 L 288.421875 115.183594 C 288.273438 115.222656 288.21875 115.316406 288.261719 115.46875 C 288.292969 115.585938 288.367188 115.640625 288.484375 115.636719 Z M 276.332031 143.519531 L 308.820312 134.375 C 308.96875 134.332031 309.023438 134.238281 308.984375 134.089844 C 308.941406 133.9375 308.847656 133.882812 308.695312 133.925781 L 276.207031 143.070312 C 276.085938 143.113281 276.03125 143.199219 276.046875 143.328125 C 276.066406 143.457031 276.140625 143.523438 276.269531 143.53125 Z M 277.578125 147.519531 L 310.039062 138.378906 C 310.183594 138.335938 310.234375 138.238281 310.195312 138.09375 C 310.15625 137.941406 310.058594 137.886719 309.910156 137.933594 L 277.421875 147.101562 C 277.273438 147.144531 277.222656 147.238281 277.257812 147.386719 C 277.292969 147.503906 277.367188 147.5625 277.488281 147.5625 Z M 277.578125 147.519531 " fill-opacity="1" fill-rule="nonzero"/><path fill="#f56dcd" d="M 274.820312 107.769531 L 275.523438 110.292969 L 275.007812 110.441406 L 274.277344 107.914062 C 274.21875 107.703125 274.121094 107.511719 273.984375 107.339844 C 273.847656 107.167969 273.683594 107.027344 273.492188 106.921875 C 273.300781 106.8125 273.097656 106.746094 272.878906 106.722656 C 272.664062 106.695312 272.449219 106.710938 272.238281 106.773438 L 269.125 107.636719 C 268.921875 107.707031 268.738281 107.808594 268.574219 107.949219 C 268.410156 108.085938 268.277344 108.253906 268.179688 108.441406 C 268.078125 108.632812 268.019531 108.835938 267.996094 109.050781 C 267.976562 109.265625 267.996094 109.476562 268.054688 109.679688 L 272.324219 124.894531 C 272.386719 125.105469 272.484375 125.296875 272.621094 125.46875 C 272.753906 125.640625 272.917969 125.78125 273.109375 125.886719 C 273.300781 125.996094 273.503906 126.0625 273.722656 126.089844 C 273.941406 126.113281 274.15625 126.097656 274.367188 126.039062 L 276.144531 125.535156 C 276.355469 125.476562 276.550781 125.378906 276.722656 125.242188 C 276.894531 125.105469 277.035156 124.941406 277.140625 124.75 C 277.25 124.558594 277.316406 124.355469 277.339844 124.136719 C 277.367188 123.917969 277.351562 123.703125 277.289062 123.492188 L 274.691406 114.242188 C 274.628906 114.03125 274.535156 113.835938 274.398438 113.664062 C 274.261719 113.492188 274.097656 113.351562 273.90625 113.246094 C 273.714844 113.136719 273.511719 113.070312 273.292969 113.042969 C 273.078125 113.019531 272.863281 113.035156 272.652344 113.09375 C 272.441406 113.152344 272.246094 113.25 272.074219 113.386719 C 271.902344 113.523438 271.765625 113.6875 271.65625 113.878906 C 271.550781 114.070312 271.484375 114.277344 271.457031 114.496094 C 271.433594 114.710938 271.449219 114.925781 271.511719 115.136719 L 273.425781 121.992188 C 273.484375 122.203125 273.582031 122.394531 273.71875 122.566406 C 273.855469 122.738281 274.019531 122.878906 274.210938 122.988281 C 274.402344 123.09375 274.605469 123.160156 274.824219 123.1875 C 275.042969 123.214844 275.257812 123.195312 275.46875 123.136719 L 275.871094 123.023438 C 275.945312 123.003906 276.011719 123.011719 276.074219 123.050781 C 276.140625 123.085938 276.183594 123.140625 276.203125 123.210938 C 276.246094 123.382812 276.183594 123.492188 276.015625 123.542969 L 275.609375 123.652344 C 275.332031 123.730469 275.046875 123.75 274.761719 123.71875 C 274.472656 123.683594 274.203125 123.59375 273.949219 123.453125 C 273.699219 123.308594 273.480469 123.125 273.300781 122.898438 C 273.121094 122.671875 272.992188 122.417969 272.910156 122.140625 L 270.992188 115.289062 C 270.898438 115.003906 270.863281 114.710938 270.886719 114.414062 C 270.914062 114.113281 270.996094 113.832031 271.136719 113.566406 C 271.277344 113.300781 271.460938 113.074219 271.695312 112.886719 C 271.929688 112.699219 272.191406 112.5625 272.480469 112.480469 C 272.769531 112.402344 273.058594 112.378906 273.359375 112.417969 C 273.65625 112.457031 273.933594 112.554688 274.191406 112.707031 C 274.449219 112.859375 274.664062 113.058594 274.839844 113.300781 C 275.019531 113.542969 275.140625 113.8125 275.207031 114.105469 L 277.808594 123.355469 C 277.886719 123.632812 277.90625 123.917969 277.871094 124.207031 C 277.835938 124.496094 277.75 124.765625 277.609375 125.019531 C 277.464844 125.273438 277.28125 125.488281 277.054688 125.667969 C 276.828125 125.847656 276.574219 125.980469 276.296875 126.058594 L 274.507812 126.558594 C 274.226562 126.640625 273.941406 126.664062 273.652344 126.632812 C 273.359375 126.597656 273.085938 126.511719 272.832031 126.367188 C 272.574219 126.222656 272.359375 126.039062 272.175781 125.808594 C 271.996094 125.578125 271.867188 125.320312 271.789062 125.035156 L 267.515625 109.824219 C 267.4375 109.546875 267.414062 109.261719 267.449219 108.972656 C 267.484375 108.6875 267.570312 108.414062 267.710938 108.164062 C 267.855469 107.910156 268.039062 107.691406 268.265625 107.515625 C 268.496094 107.335938 268.75 107.207031 269.027344 107.128906 L 272.136719 106.253906 C 272.417969 106.179688 272.699219 106.160156 272.984375 106.195312 C 273.269531 106.230469 273.539062 106.320312 273.789062 106.460938 C 274.039062 106.601562 274.253906 106.785156 274.433594 107.011719 C 274.613281 107.238281 274.742188 107.492188 274.820312 107.769531 Z M 274.820312 107.769531 " fill-opacity="1" fill-rule="nonzero"/><path fill="#ffffff" d="M 182.121094 172.425781 C 182.058594 172.425781 182.003906 172.402344 181.960938 172.355469 L 178.65625 169.054688 C 178.554688 168.945312 178.554688 168.832031 178.65625 168.722656 C 178.765625 168.617188 178.875 168.617188 178.984375 168.722656 L 182.097656 171.839844 L 186.800781 165.609375 C 186.894531 165.484375 187.003906 165.46875 187.125 165.5625 C 187.25 165.660156 187.261719 165.765625 187.167969 165.890625 L 182.308594 172.324219 C 182.265625 172.378906 182.210938 172.40625 182.140625 172.410156 Z M 182.121094 172.425781 " fill-opacity="1" fill-rule="nonzero"/><path fill="#a36357" d="M 87.457031 133.140625 L 89.546875 124.257812 C 88.980469 123.867188 87.511719 122.738281 87.523438 121.484375 C 87.550781 121.136719 87.667969 120.816406 87.867188 120.53125 C 88.070312 120.242188 88.332031 120.027344 88.652344 119.886719 L 88.726562 119.835938 L 88.84375 119.835938 C 89.203125 119.847656 89.546875 119.929688 89.871094 120.078125 C 89.78125 119.144531 89.988281 118.277344 90.492188 117.488281 C 90.910156 116.96875 91.449219 116.699219 92.109375 116.683594 C 92.761719 116.671875 93.382812 116.53125 93.972656 116.25 C 94.5625 115.972656 95.066406 115.585938 95.488281 115.089844 L 95.769531 114.683594 L 96.03125 115.101562 C 96.207031 115.375 100.324219 121.953125 99.535156 124.90625 C 99.40625 125.464844 99.089844 125.878906 98.589844 126.152344 C 97.578125 126.710938 96.496094 127.015625 95.339844 127.0625 L 96.101562 133.398438 Z M 87.457031 133.140625 " fill-opacity="1" fill-rule="nonzero"/><path fill="#a36357" d="M 101.066406 206.386719 L 106.664062 206.386719 L 105.421875 212.453125 L 99.820312 212.453125 Z M 124.523438 194.804688 L 126.734375 200.414062 L 132.335938 198.894531 L 130.125 192.574219 Z M 124.523438 194.804688 " fill-opacity="1" fill-rule="nonzero"/><path fill="#000000" d="M 100.046875 210.355469 C 100.046875 210.355469 103.105469 212.679688 105.675781 210.355469 L 113.304688 214.335938 C 113.457031 214.433594 113.507812 214.566406 113.460938 214.742188 C 113.410156 214.914062 113.292969 215 113.113281 215 L 99.660156 215 C 99.558594 215.007812 99.460938 214.988281 99.367188 214.945312 C 99.277344 214.902344 99.199219 214.839844 99.136719 214.757812 C 99.074219 214.679688 99.035156 214.589844 99.015625 214.488281 C 99 214.386719 99.007812 214.289062 99.035156 214.191406 Z M 125.992188 202.367188 C 125.988281 202.46875 126.007812 202.566406 126.050781 202.65625 C 126.09375 202.75 126.152344 202.824219 126.234375 202.886719 C 126.3125 202.949219 126.402344 202.988281 126.503906 203.007812 C 126.601562 203.027344 126.699219 203.019531 126.796875 202.992188 L 139.863281 199.734375 C 140.050781 199.691406 140.144531 199.574219 140.144531 199.382812 C 140.144531 199.191406 140.050781 199.074219 139.863281 199.03125 L 131.507812 197.019531 C 129.570312 199.894531 126.035156 198.375 126.035156 198.375 Z M 125.992188 202.367188 " fill-opacity="1" fill-rule="nonzero"/><path fill="#f56dcd" d="M 75.777344 155.667969 L 78.210938 137.328125 C 78.328125 136.414062 78.636719 135.566406 79.132812 134.789062 C 79.632812 134.015625 80.273438 133.382812 81.054688 132.890625 C 83.300781 131.5625 85.648438 130.441406 88.097656 129.535156 L 88.277344 129.472656 L 88.421875 129.589844 C 90.429688 131.246094 92.15625 131.933594 93.5625 131.628906 C 94.414062 131.4375 95.050781 130.960938 95.472656 130.195312 L 95.601562 129.925781 L 95.882812 130.027344 L 101.394531 132.070312 C 102.085938 132.324219 102.683594 132.722656 103.1875 133.261719 C 103.691406 133.800781 104.046875 134.421875 104.257812 135.128906 L 109.976562 154.441406 L 103.21875 156.058594 L 102.472656 155.515625 L 102.167969 162.730469 L 82.410156 162.785156 L 82.894531 158.78125 L 78.496094 158.78125 C 78.300781 158.78125 78.105469 158.761719 77.914062 158.71875 C 77.722656 158.675781 77.539062 158.617188 77.359375 158.535156 C 77.183594 158.453125 77.015625 158.355469 76.855469 158.238281 C 76.699219 158.121094 76.554688 157.988281 76.425781 157.84375 C 76.296875 157.695312 76.183594 157.535156 76.089844 157.363281 C 75.996094 157.191406 75.917969 157.015625 75.859375 156.828125 C 75.804688 156.636719 75.765625 156.445312 75.75 156.25 C 75.734375 156.054688 75.738281 155.859375 75.765625 155.667969 Z M 75.777344 155.667969 " fill-opacity="1" fill-rule="nonzero"/><path fill="#ffffff" d="M 106.441406 179.339844 C 101.351562 180.539062 88.046875 177.664062 88.046875 177.664062 C 88.046875 177.664062 102.914062 171.6875 110 169.882812 C 117.089844 168.074219 119.335938 173.171875 119.335938 173.5 C 119.335938 173.832031 108.757812 207.453125 108.757812 207.453125 L 98.898438 207.289062 Z M 106.441406 179.339844 " fill-opacity="1" fill-rule="nonzero"/><path fill="#000000" d="M 108.757812 207.6875 L 98.882812 207.527344 C 98.804688 207.527344 98.746094 207.496094 98.699219 207.433594 C 98.65625 207.371094 98.644531 207.304688 98.664062 207.234375 L 106.128906 179.648438 C 100.808594 180.640625 88.546875 178.011719 88.011719 177.898438 C 87.898438 177.875 87.835938 177.804688 87.828125 177.6875 C 87.820312 177.574219 87.867188 177.496094 87.972656 177.457031 C 88.121094 177.394531 102.90625 171.453125 109.925781 169.664062 C 113.773438 168.679688 116.199219 169.734375 117.5625 170.785156 C 118.523438 171.480469 119.199219 172.386719 119.585938 173.507812 C 119.585938 173.832031 112.167969 197.410156 109.003906 207.53125 C 108.964844 207.652344 108.878906 207.703125 108.757812 207.6875 Z M 99.203125 207.066406 L 108.582031 207.222656 C 112.210938 195.714844 119 174.085938 119.117188 173.476562 C 118.625 172.371094 117.867188 171.496094 116.847656 170.847656 C 115.042969 169.664062 112.75 169.414062 110.042969 170.105469 C 103.953125 171.664062 91.957031 176.378906 88.84375 177.625 C 91.738281 178.203125 102.09375 180.15625 106.375 179.140625 C 106.460938 179.117188 106.535156 179.140625 106.597656 179.207031 C 106.660156 179.269531 106.679688 179.34375 106.652344 179.425781 Z M 99.203125 207.066406 " fill-opacity="1" fill-rule="nonzero"/><path fill="#ffffff" d="M 95.6875 161.988281 L 116.847656 161.222656 C 117.464844 161.199219 118.074219 161.277344 118.671875 161.449219 C 119.265625 161.621094 119.820312 161.878906 120.332031 162.230469 C 120.847656 162.578125 121.292969 163 121.667969 163.492188 C 122.046875 163.984375 122.339844 164.523438 122.546875 165.109375 C 126.648438 176.835938 131.257812 194.300781 131.257812 194.300781 L 122.222656 198.738281 L 117.050781 179.25 C 117.050781 179.25 118.527344 173.644531 116.230469 171.855469 C 113.933594 170.070312 110.480469 172.019531 110.480469 172.019531 C 103.578125 175.308594 88.792969 180.570312 83.375 175.914062 C 77.953125 171.253906 82.84375 162.207031 82.84375 162.207031 Z M 95.6875 161.988281 " fill-opacity="1" fill-rule="nonzero"/><path fill="#000000" d="M 122.210938 198.972656 C 122.175781 198.980469 122.144531 198.980469 122.109375 198.972656 C 122.042969 198.945312 122.003906 198.894531 121.984375 198.824219 L 116.808594 179.339844 C 116.800781 179.300781 116.800781 179.257812 116.808594 179.21875 C 116.808594 179.164062 118.222656 173.757812 116.066406 172.0625 C 113.914062 170.367188 110.617188 172.230469 110.578125 172.25 C 106.03125 174.402344 101.308594 176.050781 96.410156 177.195312 C 90.089844 178.554688 85.660156 178.1875 83.242188 176.085938 C 77.742188 171.363281 82.621094 162.21875 82.660156 162.125 C 82.699219 162.046875 82.765625 162.003906 82.859375 162.003906 L 95.707031 161.753906 L 116.863281 160.992188 L 117.089844 160.992188 C 117.714844 160.988281 118.328125 161.082031 118.925781 161.273438 C 119.523438 161.460938 120.078125 161.734375 120.589844 162.097656 C 121.101562 162.460938 121.546875 162.894531 121.921875 163.394531 C 122.296875 163.894531 122.589844 164.441406 122.796875 165.035156 C 126.847656 176.640625 131.464844 194.070312 131.507812 194.246094 C 131.539062 194.371094 131.5 194.457031 131.382812 194.511719 L 122.347656 198.953125 C 122.304688 198.980469 122.257812 198.984375 122.210938 198.972656 Z M 117.277344 179.25 L 122.359375 198.402344 L 130.972656 194.175781 C 130.460938 192.265625 126.136719 176.113281 122.316406 165.183594 C 122.117188 164.625 121.835938 164.105469 121.472656 163.632812 C 121.109375 163.160156 120.683594 162.757812 120.191406 162.421875 C 119.699219 162.085938 119.167969 161.832031 118.597656 161.667969 C 118.023438 161.5 117.441406 161.425781 116.847656 161.449219 L 95.6875 162.207031 L 82.96875 162.457031 C 82.429688 163.527344 78.613281 171.527344 83.511719 175.726562 C 88.761719 180.234375 103.367188 175.101562 110.363281 171.792969 C 110.492188 171.71875 113.957031 169.777344 116.355469 171.65625 C 118.644531 173.46875 117.46875 178.601562 117.277344 179.25 Z M 117.277344 179.25 " fill-opacity="1" fill-rule="nonzero"/><path fill="#000000" d="M 128.78125 146.816406 L 123.113281 162.320312 L 87.457031 162.320312 C 87.457031 162.097656 87.5 161.882812 87.585938 161.675781 C 87.667969 161.46875 87.792969 161.289062 87.949219 161.128906 C 88.105469 160.972656 88.289062 160.851562 88.492188 160.765625 C 88.699219 160.679688 88.914062 160.636719 89.136719 160.636719 L 99.421875 160.636719 L 104.792969 145.9375 C 104.886719 145.683594 105.042969 145.484375 105.261719 145.328125 C 105.480469 145.175781 105.726562 145.101562 105.992188 145.101562 L 127.609375 145.101562 C 127.820312 145.097656 128.015625 145.144531 128.199219 145.242188 C 128.386719 145.339844 128.539062 145.472656 128.65625 145.644531 C 128.773438 145.816406 128.84375 146.007812 128.863281 146.214844 C 128.886719 146.421875 128.859375 146.621094 128.78125 146.816406 Z M 128.78125 146.816406 " fill-opacity="1" fill-rule="nonzero"/><path fill="#ffffff" d="M 130.179688 146.785156 L 124.511719 162.015625 L 100.183594 162.015625 L 106.167969 145.925781 C 106.257812 145.671875 106.414062 145.472656 106.632812 145.320312 C 106.851562 145.167969 107.097656 145.097656 107.363281 145.101562 L 128.980469 145.101562 C 129.1875 145.097656 129.382812 145.140625 129.570312 145.230469 C 129.753906 145.324219 129.90625 145.453125 130.027344 145.621094 C 130.148438 145.792969 130.222656 145.976562 130.25 146.183594 C 130.277344 146.390625 130.253906 146.589844 130.179688 146.785156 Z M 130.179688 146.785156 " fill-opacity="1" fill-rule="nonzero"/><path fill="#000000" d="M 124.511719 162.246094 L 100.183594 162.246094 C 100.101562 162.246094 100.035156 162.210938 99.988281 162.144531 C 99.953125 162.074219 99.953125 162.003906 99.988281 161.933594 L 105.949219 145.855469 C 106.0625 145.5625 106.246094 145.324219 106.503906 145.144531 C 106.761719 144.96875 107.046875 144.878906 107.363281 144.878906 L 128.980469 144.878906 C 129.503906 144.871094 129.917969 145.078125 130.226562 145.5 C 130.519531 145.921875 130.578125 146.371094 130.398438 146.851562 L 124.730469 162.082031 C 124.695312 162.191406 124.625 162.242188 124.511719 162.246094 Z M 100.519531 161.777344 L 124.351562 161.777344 L 129.949219 146.703125 C 130.070312 146.375 130.03125 146.066406 129.832031 145.78125 C 129.625 145.476562 129.335938 145.328125 128.96875 145.332031 L 107.363281 145.332031 C 107.144531 145.332031 106.949219 145.390625 106.769531 145.515625 C 106.589844 145.636719 106.460938 145.800781 106.386719 146.003906 Z M 100.519531 161.777344 " fill-opacity="1" fill-rule="nonzero"/><path fill="#f56dcd" d="M 118.4375 154.839844 C 117.644531 156.496094 115.949219 157.328125 114.707031 156.746094 C 113.460938 156.160156 113.113281 154.308594 113.890625 152.65625 C 114.667969 151.007812 116.34375 150.167969 117.625 150.75 C 118.90625 151.335938 119.230469 153.1875 118.4375 154.839844 Z M 118.4375 154.839844 " fill-opacity="1" fill-rule="nonzero"/><path fill="#a36357" d="M 90.367188 152.328125 C 90.871094 152.289062 91.367188 152.207031 91.855469 152.085938 C 93.011719 151.753906 96.210938 151.273438 96.328125 151.257812 L 96.460938 151.257812 L 98.917969 153.011719 L 100.667969 155.683594 L 100.269531 155.824219 C 99.871094 155.914062 99.484375 155.875 99.109375 155.703125 C 98.738281 155.53125 98.457031 155.261719 98.265625 154.902344 L 97.460938 154.203125 C 97.3125 154.398438 97.121094 154.535156 96.882812 154.609375 C 96.769531 155.101562 96.472656 155.429688 95.992188 155.59375 C 95.917969 155.824219 95.777344 156.011719 95.574219 156.152344 C 95.375 156.289062 95.148438 156.355469 94.90625 156.347656 C 94.835938 156.351562 94.765625 156.351562 94.695312 156.347656 L 90.367188 156.066406 Z M 90.367188 152.328125 " fill-opacity="1" fill-rule="nonzero"/><path fill="#000000" d="M 82.816406 158.992188 C 82.679688 158.992188 82.601562 158.921875 82.585938 158.789062 C 82.566406 158.632812 82.636719 158.546875 82.789062 158.527344 L 90.089844 157.746094 L 90.089844 152.601562 L 83.773438 152.601562 C 83.703125 152.605469 83.648438 152.582031 83.601562 152.53125 C 83.554688 152.480469 83.535156 152.421875 83.542969 152.351562 L 84.203125 141.667969 C 84.203125 141.605469 84.226562 141.550781 84.277344 141.507812 C 84.324219 141.464844 84.378906 141.445312 84.445312 141.453125 C 84.507812 141.453125 84.5625 141.476562 84.605469 141.527344 C 84.648438 141.574219 84.667969 141.628906 84.664062 141.695312 L 84.039062 152.132812 L 90.34375 152.132812 C 90.5 152.132812 90.582031 152.214844 90.582031 152.371094 L 90.582031 157.976562 C 90.578125 158.117188 90.507812 158.195312 90.367188 158.207031 L 82.839844 159.011719 Z M 82.816406 158.992188 " fill-opacity="1" fill-rule="nonzero"/><path fill="#f56dcd" d="M 198.792969 104.859375 C 198.792969 104.859375 205.855469 104.742188 208.867188 105.4375 C 211.878906 106.136719 217.863281 112.839844 217.863281 112.839844 L 212.21875 115.625 L 212.570312 117.242188 L 203.191406 119.113281 C 201.707031 118.492188 200.160156 118.273438 198.5625 118.445312 C 197.792969 118.472656 197.070312 118.667969 196.394531 119.035156 C 195.71875 119.398438 195.15625 119.894531 194.710938 120.519531 L 187.535156 120.519531 L 183.746094 124.675781 L 176.902344 118.882812 C 176.902344 118.882812 182.457031 111.113281 183.496094 109.375 C 184.535156 107.636719 187.667969 106.597656 187.667969 106.597656 Z M 198.792969 104.859375 " fill-opacity="1" fill-rule="nonzero"/><path fill="#d49891" d="M 183.800781 124.558594 C 183.523438 124.769531 183.285156 125.019531 183.089844 125.3125 C 182.894531 125.601562 182.75 125.914062 182.65625 126.25 C 182.5625 126.589844 182.523438 126.929688 182.539062 127.28125 C 182.558594 127.632812 182.628906 127.96875 182.757812 128.292969 C 183.570312 130.722656 188.082031 143.59375 188.203125 144.171875 C 188.78125 144.515625 193.179688 147.53125 192.253906 148.109375 C 191.324219 148.691406 187.972656 146.476562 187.972656 146.476562 C 187.972656 146.476562 188.660156 147.289062 189.9375 149.027344 C 191.214844 150.765625 192.710938 152.964844 191.804688 153.199219 C 190.894531 153.4375 189.71875 152.152344 188.5625 151.953125 C 187.40625 151.753906 186.246094 151.375 185.320312 149.289062 C 184.644531 147.558594 184.144531 145.78125 183.8125 143.957031 C 183.8125 143.957031 174.785156 127.136719 175.246094 125.179688 C 175.707031 123.222656 178.140625 119.855469 178.140625 119.855469 Z M 183.800781 124.558594 " fill-opacity="1" fill-rule="nonzero"/><path fill="#d49891" d="M 186.246094 104.910156 C 186.246094 104.910156 189.980469 104.394531 190.691406 100.6875 C 190.691406 100.6875 193.933594 103.582031 194.621094 103.351562 C 195.3125 103.121094 194.621094 99.296875 196.367188 99.757812 C 198.109375 100.21875 197.742188 103.699219 197.742188 103.699219 L 200.746094 106.480469 C 200.644531 106.972656 200.46875 107.4375 200.21875 107.871094 C 199.96875 108.308594 199.65625 108.691406 199.28125 109.027344 C 198.90625 109.359375 198.488281 109.625 198.027344 109.824219 C 197.5625 110.023438 197.082031 110.144531 196.582031 110.1875 L 195.425781 108.316406 C 195.425781 108.316406 194.730469 110.863281 192.183594 110.515625 C 189.636719 110.167969 186.246094 104.910156 186.246094 104.910156 Z M 186.246094 104.910156 " fill-opacity="1" fill-rule="nonzero"/><path fill="#d49891" d="M 193.582031 120.664062 C 195.027344 119.429688 196.683594 118.683594 198.5625 118.414062 C 201.671875 117.953125 203.191406 119.113281 203.191406 119.113281 L 212.570312 117.242188 L 212.21875 115.625 L 216.980469 111.847656 C 216.980469 111.847656 221.835938 116.578125 222.753906 117.824219 C 222.964844 118.082031 223.085938 118.378906 223.125 118.710938 C 223.160156 119.042969 223.105469 119.359375 222.960938 119.65625 C 222.8125 119.957031 222.597656 120.195312 222.3125 120.367188 C 222.027344 120.542969 221.71875 120.625 221.386719 120.621094 Z M 193.582031 120.664062 " fill-opacity="1" fill-rule="nonzero"/><path fill="#000000" d="M 119.914062 267.859375 C 119.914062 267.699219 119.835938 267.621094 119.675781 267.621094 L 65.265625 267.621094 C 65.203125 267.621094 65.148438 267.644531 65.101562 267.691406 C 65.054688 267.738281 65.035156 267.792969 65.035156 267.859375 C 65.035156 267.921875 65.054688 267.976562 65.101562 268.023438 C 65.148438 268.070312 65.203125 268.089844 65.265625 268.089844 L 119.675781 268.089844 C 119.742188 268.089844 119.796875 268.070312 119.84375 268.023438 C 119.890625 267.976562 119.914062 267.921875 119.914062 267.859375 Z M 119.914062 267.859375 " fill-opacity="1" fill-rule="nonzero"/><path fill="#000000" d="M 296.058594 163.191406 C 291.703125 168.703125 282.367188 167.96875 279.585938 163.566406 C 275.777344 157.554688 279.84375 151.164062 281.191406 148.566406 C 281.660156 147.660156 289.992188 145.339844 294.0625 145.582031 C 298.546875 145.855469 300.414062 157.691406 296.058594 163.191406 Z M 296.058594 163.191406 " fill-opacity="1" fill-rule="nonzero"/><path fill="#000000" d="M 279.878906 273.59375 L 285.882812 275.726562 C 285.882812 275.726562 285.40625 276.898438 282.59375 277.425781 C 279.78125 277.957031 275.847656 277.636719 275.472656 277.265625 C 275.101562 276.890625 275.871094 275.621094 279.878906 273.59375 Z M 301.503906 275.140625 L 295.125 274.605469 C 293.320312 275.140625 294.382812 280.085938 295.179688 280.085938 C 296.933594 279.828125 298.5625 279.222656 300.066406 278.28125 C 301.527344 277.296875 301.476562 275.140625 301.476562 275.140625 Z M 301.503906 275.140625 " fill-opacity="1" fill-rule="nonzero"/><path fill="#d49891" d="M 307.320312 275.726562 C 307.320312 275.726562 304.136719 278.492188 298.820312 276.574219 C 293.507812 274.65625 292.019531 275.085938 292.019531 275.085938 L 292.019531 275.039062 C 289.933594 275.839844 286.824219 276.742188 284.160156 276.363281 C 281.636719 276.042969 279.230469 275.335938 276.9375 274.238281 C 276.9375 274.238281 276.082031 239.140625 276.9375 211.699219 L 289.6875 208.503906 L 289.753906 209.484375 L 305.835938 209.144531 C 307.53125 248.074219 307.320312 275.726562 307.320312 275.726562 Z M 307.320312 275.726562 " fill-opacity="1" fill-rule="nonzero"/><path fill="#ffffff" d="M 291.863281 163.734375 C 291.863281 163.734375 300.257812 165.414062 302.535156 169.964844 C 305.558594 176.023438 305.835938 215.089844 305.835938 215.089844 C 305.835938 215.089844 285.4375 216.367188 282.03125 214.878906 L 278.636719 213.402344 C 278.636719 213.402344 279.460938 188.484375 279.257812 181.492188 C 279.046875 173.621094 289.214844 164.582031 289.214844 164.582031 Z M 291.863281 163.734375 " fill-opacity="1" fill-rule="nonzero"/><path fill="#000000" d="M 290.898438 215.847656 C 286.855469 215.847656 283.234375 215.667969 281.9375 215.101562 L 278.542969 213.613281 C 278.445312 213.570312 278.398438 213.5 278.40625 213.394531 C 278.40625 213.144531 279.226562 188.425781 279.027344 181.5 C 278.914062 177.363281 281.648438 172.933594 283.960938 169.945312 C 285.503906 167.960938 287.195312 166.113281 289.039062 164.40625 C 289.0625 164.386719 289.089844 164.371094 289.121094 164.355469 L 291.777344 163.507812 C 291.816406 163.496094 291.855469 163.496094 291.894531 163.507812 C 292.242188 163.578125 300.433594 165.273438 302.730469 169.875 C 305.746094 175.917969 306.039062 213.480469 306.050781 215.109375 C 306.050781 215.253906 305.980469 215.332031 305.835938 215.339844 C 305.328125 215.371094 297.539062 215.847656 290.898438 215.847656 Z M 278.871094 213.25 L 282.125 214.671875 C 285.238281 216.042969 303.382812 215.015625 305.597656 214.882812 C 305.566406 211.707031 305.175781 175.789062 302.324219 170.074219 C 300.226562 165.875 292.617188 164.132812 291.875 163.96875 L 289.324219 164.785156 C 288.664062 165.410156 279.308594 174.050781 279.507812 181.488281 C 279.6875 188.140625 278.945312 211.109375 278.871094 213.25 Z M 278.871094 213.25 " fill-opacity="1" fill-rule="nonzero"/><path fill="#000000" d="M 292.355469 159.035156 C 292.824219 163.808594 293.800781 164.917969 293.800781 164.917969 L 295.042969 158.4375 Z M 292.355469 159.035156 " fill-opacity="1" fill-rule="nonzero"/><path fill="#f56dcd" d="M 304.769531 175.394531 C 306.046875 182.414062 308.914062 224.53125 308.914062 224.53125 C 308.914062 224.53125 307.320312 225.648438 302.542969 226.289062 C 299.214844 226.625 295.921875 226.417969 292.660156 225.667969 C 292.660156 225.667969 291.417969 199.828125 291.546875 187.667969 C 291.675781 175.507812 295.398438 166.566406 297.339844 165.597656 C 299.28125 164.625 303.488281 168.382812 304.769531 175.394531 Z M 304.769531 175.394531 " fill-opacity="1" fill-rule="nonzero"/><path fill="#f56dcd" d="M 280.054688 209.109375 C 280.214844 218.996094 280.214844 224.898438 280.214844 224.898438 C 280.214844 224.898438 275.273438 224.898438 274.796875 224.582031 C 274.578125 224.433594 274.765625 216.261719 275.167969 206.902344 C 275.09375 207.007812 274.988281 207.0625 274.859375 207.0625 C 274.726562 207.0625 274.625 207.007812 274.546875 206.902344 C 273.40625 205.914062 270.539062 199.921875 272.808594 190.84375 C 274.976562 182.167969 276.039062 179.5 276.128906 179.28125 C 276.660156 177.523438 277.332031 175.820312 278.144531 174.167969 C 278.957031 172.496094 280.070312 171.054688 281.480469 169.84375 C 281.800781 169.402344 282.199219 169.050781 282.679688 168.792969 C 283.804688 168.316406 284.960938 167.921875 286.140625 167.601562 C 282.492188 175.425781 279.878906 199.214844 280.054688 209.109375 Z M 280.054688 209.109375 " fill-opacity="1" fill-rule="nonzero"/><path fill="#d49891" d="M 288.535156 193.230469 C 288.285156 192.605469 287.402344 192.683594 286.707031 192.882812 L 280.085938 192.882812 L 280.085938 195.023438 C 280.085938 195.414062 280.148438 195.789062 280.28125 196.15625 C 280.414062 196.519531 280.601562 196.851562 280.851562 197.148438 C 281.097656 197.449219 281.390625 197.695312 281.726562 197.890625 C 282.0625 198.085938 282.417969 198.21875 282.800781 198.289062 C 283.183594 198.359375 283.5625 198.363281 283.945312 198.296875 C 284.328125 198.234375 284.6875 198.105469 285.027344 197.914062 C 285.363281 197.722656 285.660156 197.476562 285.910156 197.183594 C 286.164062 196.886719 286.359375 196.558594 286.492188 196.195312 C 286.875 196.035156 287.246094 195.855469 287.601562 195.648438 C 288.589844 195.066406 288.964844 194.320312 288.535156 193.230469 Z M 288.535156 193.230469 " fill-opacity="1" fill-rule="nonzero"/><path fill="#ffffff" d="M 286.464844 197.800781 C 286.464844 197.800781 286.214844 200.136719 285.007812 201.203125 C 283.800781 202.269531 282.460938 201.980469 281.148438 201.347656 C 280.457031 201.050781 279.738281 200.875 278.988281 200.824219 C 278.660156 200.824219 278.304688 200.824219 277.9375 200.773438 L 277.820312 200.773438 C 276.875 200.753906 275.964844 200.566406 275.089844 200.21875 C 273.75 199.515625 273.152344 195.710938 274.496094 194.027344 C 274.738281 193.722656 275.542969 193.816406 275.902344 193.976562 C 277.558594 194.84375 279.152344 195.808594 280.6875 196.867188 C 281.605469 196.996094 282.453125 197.308594 283.234375 197.808594 C 284.515625 198.542969 286.464844 197.800781 286.464844 197.800781 Z M 286.464844 197.800781 " fill-opacity="1" fill-rule="nonzero"/><path fill="#000000" d="M 283.195312 202.144531 C 282.4375 202.109375 281.722656 201.914062 281.050781 201.558594 C 280.386719 201.269531 279.691406 201.101562 278.972656 201.054688 C 278.652344 201.054688 278.292969 201.054688 277.925781 201.011719 L 277.832031 201.011719 C 277.800781 201.019531 277.765625 201.019531 277.734375 201.011719 C 276.78125 200.988281 275.867188 200.796875 274.988281 200.429688 C 274.367188 200.113281 273.898438 199.277344 273.664062 198.132812 C 273.402344 196.886719 273.414062 195.019531 274.324219 193.890625 C 274.664062 193.460938 275.597656 193.585938 276.003906 193.773438 C 277.636719 194.625 279.214844 195.574219 280.730469 196.617188 L 280.789062 196.65625 L 281.082031 196.726562 C 281.902344 196.859375 282.660156 197.152344 283.359375 197.609375 C 284.515625 198.289062 286.355469 197.609375 286.375 197.609375 C 286.457031 197.578125 286.535156 197.585938 286.605469 197.640625 C 286.671875 197.695312 286.699219 197.765625 286.691406 197.851562 C 286.691406 197.953125 286.417969 200.292969 285.164062 201.402344 C 284.601562 201.90625 283.949219 202.152344 283.195312 202.144531 Z M 277.9375 200.542969 C 278.316406 200.542969 278.664062 200.582031 278.996094 200.585938 C 279.777344 200.636719 280.53125 200.820312 281.25 201.136719 C 282.804688 201.894531 283.917969 201.859375 284.859375 201.03125 C 285.796875 200.199219 286.050781 198.816406 286.175781 198.140625 C 285.523438 198.324219 284.140625 198.601562 283.121094 198 C 282.46875 197.566406 281.753906 197.289062 280.980469 197.167969 L 280.636719 197.09375 C 280.609375 197.085938 280.585938 197.074219 280.5625 197.054688 L 280.46875 196.992188 C 278.972656 195.960938 277.417969 195.027344 275.808594 194.183594 C 275.472656 194.027344 274.828125 193.996094 274.683594 194.183594 C 273.929688 195.128906 273.855469 196.804688 274.117188 198.039062 C 274.203125 198.851562 274.566406 199.511719 275.199219 200.019531 C 276.046875 200.359375 276.929688 200.539062 277.84375 200.554688 L 277.9375 200.554688 Z M 277.9375 200.542969 " fill-opacity="1" fill-rule="nonzero"/><path fill="#ffffff" d="M 311.777344 195.335938 C 311.933594 197.410156 302.1875 200.320312 297.402344 200.492188 C 294.613281 200.589844 291.835938 200.457031 289.070312 200.089844 C 288.632812 200.046875 288.070312 199.996094 287.441406 199.957031 C 285.777344 199.851562 283.300781 200.121094 282.09375 199.371094 C 280.886719 198.625 280.042969 196.394531 280.226562 196.394531 C 280.414062 196.394531 283.453125 196.894531 284.265625 196.5 C 285.082031 196.109375 285.1875 195.828125 283.949219 195.617188 C 282.710938 195.402344 282.53125 195.328125 283.277344 195.050781 C 284.316406 194.621094 285.367188 194.597656 286.425781 194.972656 C 287.59375 195.367188 288.542969 195.953125 289.722656 196.066406 C 290.738281 195.851562 297.273438 194.5 300.925781 193.914062 C 304.578125 193.328125 301.769531 171.488281 301.308594 168.039062 C 301.304688 167.976562 301.332031 167.933594 301.386719 167.910156 C 301.441406 167.886719 301.492188 167.894531 301.535156 167.9375 C 307.453125 175.195312 311.613281 193.296875 311.777344 195.335938 Z M 311.777344 195.335938 " fill-opacity="1" fill-rule="nonzero"/><path fill="#000000" d="M 295.746094 200.753906 C 293.5 200.761719 291.265625 200.617188 289.039062 200.320312 C 289.011719 200.324219 288.984375 200.324219 288.957031 200.320312 L 287.402344 200.199219 C 286.960938 200.199219 286.464844 200.199219 285.933594 200.199219 C 284.433594 200.199219 282.886719 200.199219 281.945312 199.617188 C 280.800781 198.90625 279.859375 196.816406 279.972656 196.402344 C 280.015625 196.28125 280.101562 196.21875 280.226562 196.207031 C 280.269531 196.207031 280.421875 196.207031 280.644531 196.25 C 281.367188 196.34375 283.570312 196.617188 284.167969 196.332031 C 284.324219 196.269531 284.46875 196.183594 284.601562 196.078125 C 284.378906 195.980469 284.148438 195.917969 283.90625 195.890625 C 282.933594 195.722656 282.628906 195.652344 282.597656 195.371094 C 282.566406 195.09375 282.886719 194.988281 283.191406 194.875 C 284.285156 194.433594 285.386719 194.40625 286.5 194.800781 C 286.898438 194.929688 287.273438 195.085938 287.632812 195.234375 C 288.292969 195.546875 288.988281 195.753906 289.710938 195.859375 C 291.507812 195.484375 297.445312 194.269531 300.910156 193.714844 C 303.402344 193.316406 302.777344 180.566406 301.097656 168.101562 C 301.070312 167.917969 301.140625 167.792969 301.308594 167.722656 C 301.480469 167.644531 301.621094 167.679688 301.734375 167.828125 C 307.746094 175.222656 311.875 193.535156 312.011719 195.367188 C 312.019531 195.738281 311.886719 196.054688 311.613281 196.308594 C 309.839844 198.292969 301.765625 200.625 297.421875 200.773438 C 296.84375 200.75 296.28125 200.753906 295.746094 200.753906 Z M 289.144531 199.863281 C 291.882812 200.222656 294.636719 200.355469 297.394531 200.261719 C 301.566406 200.121094 309.585938 197.828125 311.261719 195.953125 C 311.445312 195.785156 311.539062 195.578125 311.546875 195.328125 C 311.402344 193.542969 307.421875 175.84375 301.589844 168.34375 C 302.441406 174.722656 304.640625 193.515625 300.96875 194.109375 C 297.503906 194.664062 291.515625 195.890625 289.765625 196.257812 L 289.699219 196.257812 C 288.914062 196.15625 288.160156 195.933594 287.445312 195.589844 C 287.089844 195.441406 286.730469 195.292969 286.34375 195.160156 C 285.339844 194.800781 284.339844 194.824219 283.351562 195.230469 L 283.972656 195.347656 C 284.597656 195.460938 285.050781 195.597656 285.09375 195.925781 C 285.136719 196.257812 284.765625 196.476562 284.355469 196.675781 C 283.730469 196.980469 282.089844 196.824219 280.578125 196.632812 L 280.457031 196.632812 C 280.785156 197.632812 281.359375 198.464844 282.183594 199.125 C 283.003906 199.632812 284.550781 199.640625 285.914062 199.640625 C 286.449219 199.640625 286.953125 199.640625 287.414062 199.675781 C 288.039062 199.714844 288.617188 199.757812 289.050781 199.808594 C 289.089844 199.816406 289.121094 199.835938 289.144531 199.863281 Z M 289.144531 199.863281 " fill-opacity="1" fill-rule="nonzero"/><path fill="#ffffff" d="M 293.601562 168.667969 C 292.976562 169.988281 287.601562 172.597656 286.238281 170.765625 C 285.316406 169.519531 286.050781 169.695312 286.195312 165.832031 C 286.195312 165.527344 286.195312 165.210938 286.195312 164.949219 C 285.96875 164.929688 285.746094 164.894531 285.523438 164.84375 L 284.945312 164.707031 C 284.617188 164.628906 284.304688 164.515625 284 164.375 C 283.695312 164.234375 283.40625 164.066406 283.136719 163.871094 C 282.863281 163.671875 282.613281 163.453125 282.386719 163.207031 C 282.160156 162.960938 281.957031 162.691406 281.78125 162.40625 C 281.605469 162.121094 281.460938 161.820312 281.34375 161.507812 C 281.226562 161.191406 281.140625 160.871094 281.085938 160.539062 C 281.03125 160.207031 281.011719 159.875 281.023438 159.539062 C 281.035156 159.203125 281.078125 158.871094 281.15625 158.542969 L 282.1875 154.183594 C 282.265625 153.859375 282.375 153.542969 282.515625 153.238281 C 282.65625 152.933594 282.824219 152.644531 283.019531 152.375 C 283.21875 152.101562 283.4375 151.851562 283.683594 151.625 C 283.929688 151.394531 284.195312 151.195312 284.480469 151.019531 C 284.765625 150.839844 285.066406 150.695312 285.378906 150.578125 C 285.691406 150.460938 286.015625 150.375 286.347656 150.320312 C 286.675781 150.269531 287.007812 150.246094 287.34375 150.257812 C 287.679688 150.269531 288.011719 150.3125 288.335938 150.390625 L 288.921875 150.535156 C 289.230469 150.609375 289.53125 150.710938 289.824219 150.84375 C 290.113281 150.972656 290.390625 151.132812 290.652344 151.316406 C 290.914062 151.496094 291.15625 151.703125 291.378906 151.933594 C 291.605469 152.160156 291.804688 152.410156 291.980469 152.675781 C 292.15625 152.941406 292.308594 153.222656 292.433594 153.515625 C 292.558594 153.808594 292.652344 154.113281 292.722656 154.425781 C 292.789062 154.738281 292.828125 155.054688 292.835938 155.375 C 292.84375 155.695312 292.824219 156.011719 292.773438 156.328125 L 293.152344 156.160156 C 293.152344 156.160156 293.152344 156.203125 293.152344 156.269531 C 293.710938 156.007812 293.992188 156.226562 294.242188 157.128906 C 294.316406 157.609375 294.285156 158.078125 294.144531 158.539062 C 294.003906 159 293.769531 159.40625 293.4375 159.757812 C 293.710938 163.179688 293.972656 167.84375 293.601562 168.667969 Z M 293.601562 168.667969 " fill-opacity="1" fill-rule="nonzero"/><path fill="#000000" d="M 287.84375 171.632812 C 287.121094 171.699219 286.523438 171.457031 286.050781 170.902344 C 285.429688 170.082031 285.5 169.769531 285.652344 168.855469 C 285.832031 167.851562 285.933594 166.84375 285.964844 165.828125 C 285.964844 165.597656 285.964844 165.371094 285.964844 165.160156 C 285.800781 165.136719 285.636719 165.105469 285.472656 165.066406 L 284.886719 164.929688 C 284.546875 164.847656 284.21875 164.734375 283.898438 164.585938 C 283.582031 164.441406 283.277344 164.265625 282.996094 164.058594 C 282.710938 163.851562 282.449219 163.621094 282.210938 163.363281 C 281.972656 163.105469 281.761719 162.828125 281.578125 162.527344 C 281.394531 162.230469 281.242188 161.914062 281.121094 161.585938 C 281 161.257812 280.910156 160.917969 280.855469 160.574219 C 280.796875 160.226562 280.777344 159.878906 280.789062 159.527344 C 280.804688 159.175781 280.851562 158.832031 280.929688 158.488281 L 281.957031 154.128906 C 282.042969 153.789062 282.160156 153.460938 282.308594 153.144531 C 282.457031 152.828125 282.636719 152.53125 282.84375 152.25 C 283.050781 151.96875 283.285156 151.710938 283.542969 151.476562 C 283.800781 151.238281 284.078125 151.03125 284.375 150.851562 C 284.675781 150.667969 284.988281 150.519531 285.316406 150.398438 C 285.644531 150.277344 285.980469 150.191406 286.324219 150.136719 C 286.667969 150.082031 287.015625 150.0625 287.367188 150.074219 C 287.714844 150.089844 288.058594 150.136719 288.398438 150.214844 L 288.984375 150.351562 C 289.601562 150.503906 290.175781 150.757812 290.707031 151.113281 C 291.234375 151.46875 291.6875 151.90625 292.0625 152.421875 C 292.433594 152.941406 292.707031 153.507812 292.882812 154.121094 C 293.054688 154.734375 293.113281 155.359375 293.066406 155.996094 C 293.136719 155.960938 293.207031 155.960938 293.277344 155.996094 C 293.457031 155.929688 293.636719 155.929688 293.816406 155.996094 C 294.097656 156.128906 294.292969 156.445312 294.441406 157.070312 C 294.527344 157.566406 294.5 158.054688 294.363281 158.539062 C 294.226562 159.023438 293.988281 159.457031 293.65625 159.835938 C 294.042969 165.0625 294.078125 168.058594 293.769531 168.734375 C 293.308594 169.734375 290.464844 171.347656 288.285156 171.570312 C 288.140625 171.597656 287.992188 171.621094 287.84375 171.632812 Z M 287.160156 150.519531 C 286.613281 150.523438 286.082031 150.613281 285.566406 150.792969 C 285.046875 150.972656 284.574219 151.234375 284.144531 151.570312 C 283.714844 151.910156 283.351562 152.308594 283.058594 152.769531 C 282.761719 153.230469 282.546875 153.726562 282.417969 154.257812 L 281.390625 158.589844 C 281.316406 158.898438 281.273438 159.214844 281.261719 159.535156 C 281.25 159.855469 281.269531 160.171875 281.320312 160.488281 C 281.371094 160.804688 281.453125 161.113281 281.566406 161.414062 C 281.675781 161.714844 281.816406 162 281.984375 162.273438 C 282.152344 162.542969 282.34375 162.796875 282.5625 163.035156 C 282.777344 163.269531 283.015625 163.480469 283.273438 163.667969 C 283.535156 163.855469 283.808594 164.015625 284.097656 164.148438 C 284.390625 164.285156 284.691406 164.386719 285 164.460938 L 285.585938 164.601562 C 285.789062 164.652344 285.996094 164.6875 286.207031 164.707031 C 286.34375 164.71875 286.410156 164.796875 286.414062 164.929688 C 286.414062 165.21875 286.414062 165.519531 286.414062 165.828125 C 286.378906 166.871094 286.273438 167.910156 286.097656 168.941406 C 285.945312 169.8125 285.914062 169.96875 286.40625 170.628906 C 286.8125 171.171875 287.652344 171.210938 288.273438 171.148438 C 290.359375 170.929688 293.023438 169.367188 293.382812 168.582031 C 293.507812 168.300781 293.75 166.890625 293.222656 159.816406 C 293.214844 159.753906 293.230469 159.695312 293.269531 159.648438 C 293.574219 159.324219 293.792969 158.949219 293.925781 158.527344 C 294.058594 158.101562 294.09375 157.671875 294.03125 157.230469 C 293.90625 156.78125 293.769531 156.519531 293.632812 156.457031 C 293.632812 156.457031 293.511719 156.402344 293.265625 156.519531 C 293.191406 156.558594 293.117188 156.558594 293.046875 156.519531 L 292.871094 156.59375 C 292.792969 156.644531 292.714844 156.644531 292.636719 156.59375 C 292.566406 156.539062 292.539062 156.464844 292.546875 156.378906 C 292.644531 155.769531 292.628906 155.164062 292.5 154.5625 C 292.367188 153.960938 292.132812 153.40625 291.792969 152.894531 C 291.453125 152.378906 291.03125 151.945312 290.527344 151.59375 C 290.023438 151.242188 289.472656 150.992188 288.878906 150.84375 L 288.292969 150.707031 C 287.921875 150.601562 287.542969 150.539062 287.160156 150.519531 Z M 287.160156 150.519531 " fill-opacity="1" fill-rule="nonzero"/><path fill="#000000" d="M 292.542969 151.207031 C 289.585938 153.855469 280.445312 154.011719 280.445312 154.011719 C 280.445312 154.011719 285 148.023438 285.207031 148.074219 C 285.410156 148.121094 292.542969 151.207031 292.542969 151.207031 Z M 292.542969 151.207031 " fill-opacity="1" fill-rule="nonzero"/><path fill="#000000" d="M 285.933594 154.351562 C 285.855469 154.328125 285.816406 154.277344 285.816406 154.195312 C 285.816406 154.113281 285.855469 154.0625 285.933594 154.039062 L 286.207031 153.980469 C 287.453125 153.691406 290.097656 153.105469 291.054688 151.144531 C 291.101562 151.046875 291.171875 151.019531 291.265625 151.070312 C 291.359375 151.117188 291.382812 151.1875 291.339844 151.28125 C 290.316406 153.386719 287.609375 153.996094 286.28125 154.289062 L 286.007812 154.351562 C 285.984375 154.359375 285.957031 154.359375 285.933594 154.351562 Z M 277.96875 163.015625 C 278.066406 162.972656 278.09375 162.902344 278.042969 162.804688 C 276.480469 159.691406 278 153.503906 281.429688 148.746094 C 281.488281 148.660156 281.476562 148.585938 281.390625 148.523438 C 281.304688 148.460938 281.226562 148.472656 281.160156 148.558594 C 277.671875 153.40625 276.152344 159.726562 277.757812 162.949219 C 277.78125 162.992188 277.816406 163.019531 277.863281 163.03125 C 277.902344 163.042969 277.9375 163.039062 277.96875 163.015625 Z M 277.96875 163.015625 " fill-opacity="1" fill-rule="nonzero"/><path fill="#000000" d="M 294.296875 156.027344 L 289.636719 157.113281 C 289.601562 156.746094 289.457031 156.429688 289.203125 156.160156 C 288.949219 155.894531 288.644531 155.730469 288.28125 155.671875 C 287.035156 155.378906 285.585938 155.730469 285.167969 156.769531 L 284.222656 156.546875 C 284.378906 155.40625 283.40625 154.625 282.355469 154.382812 C 281.21875 154.109375 280.632812 154.507812 280.339844 155.742188 C 280.046875 156.976562 280.5625 158.144531 281.652344 158.40625 C 281.917969 158.46875 282.183594 158.480469 282.453125 158.4375 C 282.71875 158.394531 282.96875 158.304688 283.203125 158.164062 C 283.4375 158.023438 283.632812 157.84375 283.796875 157.628906 C 283.957031 157.410156 284.074219 157.167969 284.140625 156.90625 L 285.074219 157.128906 C 285.03125 157.410156 285.035156 157.691406 285.09375 157.96875 C 285.152344 158.246094 285.261719 158.5 285.417969 158.738281 C 285.570312 158.976562 285.765625 159.175781 285.996094 159.339844 C 286.226562 159.503906 286.480469 159.621094 286.753906 159.691406 C 287.042969 159.777344 287.335938 159.804688 287.632812 159.769531 C 287.929688 159.738281 288.210938 159.652344 288.472656 159.507812 C 288.734375 159.359375 288.957031 159.171875 289.144531 158.9375 C 289.328125 158.703125 289.460938 158.441406 289.542969 158.152344 C 289.59375 157.933594 289.625 157.710938 289.628906 157.484375 L 294.339844 156.390625 C 294.460938 156.359375 294.507812 156.285156 294.476562 156.164062 C 294.457031 156.066406 294.398438 156.023438 294.296875 156.027344 Z M 281.746094 158.097656 C 280.6875 157.847656 280.445312 156.738281 280.664062 155.816406 C 280.917969 154.757812 281.339844 154.464844 282.300781 154.695312 C 283.257812 154.925781 284.136719 155.625 283.886719 156.65625 C 283.84375 156.898438 283.757812 157.121094 283.625 157.324219 C 283.492188 157.527344 283.324219 157.699219 283.125 157.832031 C 282.921875 157.96875 282.699219 158.058594 282.460938 158.105469 C 282.222656 158.152344 281.984375 158.148438 281.746094 158.097656 Z M 289.214844 158.097656 C 289.140625 158.34375 289.023438 158.566406 288.859375 158.765625 C 288.699219 158.964844 288.503906 159.125 288.277344 159.246094 C 288.054688 159.367188 287.8125 159.441406 287.558594 159.46875 C 287.300781 159.496094 287.050781 159.472656 286.804688 159.398438 C 286.554688 159.335938 286.328125 159.226562 286.121094 159.074219 C 285.914062 158.917969 285.742188 158.730469 285.609375 158.511719 C 285.476562 158.289062 285.390625 158.050781 285.351562 157.796875 C 285.3125 157.539062 285.324219 157.289062 285.386719 157.039062 C 285.636719 155.992188 287.160156 155.792969 288.160156 156.003906 C 289.414062 156.269531 289.445312 157.28125 289.257812 158.078125 Z M 289.214844 158.097656 " fill-opacity="1" fill-rule="nonzero"/><path fill="#f56dcd" d="M 299.824219 166.144531 C 305.628906 169.777344 309.867188 181.460938 311.777344 187.839844 C 313.6875 194.21875 310.183594 206.023438 309.226562 206.1875 C 308.265625 206.347656 306.039062 205.707031 303.96875 202.199219 C 301.894531 198.691406 298.429688 193.480469 298.429688 193.480469 C 298.429688 193.480469 301.96875 193.410156 301.019531 192.929688 C 300.066406 192.453125 301.390625 191.996094 301.230469 191.515625 C 301.066406 191.039062 298.742188 190.328125 297.96875 181.230469 C 297.195312 172.136719 298.546875 165.347656 299.824219 166.144531 Z M 299.824219 166.144531 " fill-opacity="1" fill-rule="nonzero"/><path fill="#000000" d="M 157.335938 280.660156 L 157.292969 280.660156 C 157.230469 280.660156 150.953125 279.5625 145.792969 271.9375 C 140.636719 264.3125 140.195312 262.96875 140.195312 262.914062 C 140.167969 262.824219 140.1875 262.75 140.25 262.683594 L 151.691406 250.507812 C 151.757812 250.4375 151.835938 250.417969 151.929688 250.445312 C 152.019531 250.472656 152.074219 250.535156 152.089844 250.628906 C 152.089844 250.695312 153.460938 257.703125 158.164062 262.257812 C 161.023438 265.035156 164.183594 267.414062 167.636719 269.402344 C 167.703125 269.4375 167.742188 269.496094 167.753906 269.570312 C 167.769531 269.644531 167.75 269.710938 167.699219 269.765625 L 157.480469 280.597656 C 157.441406 280.636719 157.390625 280.65625 157.335938 280.660156 Z M 140.699219 262.875 C 140.902344 263.34375 141.890625 265.285156 146.1875 271.660156 C 150.839844 278.546875 156.378906 279.988281 157.257812 280.175781 L 167.175781 269.652344 C 163.785156 267.664062 160.671875 265.308594 157.839844 262.582031 C 153.714844 258.589844 152.117188 252.769531 151.730469 251.136719 Z M 140.421875 262.824219 Z M 225.742188 276.671875 C 225.09375 276.679688 224.449219 276.632812 223.808594 276.523438 C 223.726562 276.503906 223.671875 276.453125 223.640625 276.378906 L 218.09375 262.558594 C 218.058594 262.488281 218.058594 262.421875 218.09375 262.351562 C 218.136719 262.285156 218.191406 262.25 218.269531 262.238281 C 222.210938 261.652344 226.019531 260.59375 229.695312 259.054688 C 235.734375 256.5625 239.558594 250.515625 239.59375 250.453125 C 239.644531 250.375 239.71875 250.339844 239.8125 250.347656 C 239.90625 250.355469 239.972656 250.402344 240.011719 250.492188 L 246.234375 266.015625 C 246.265625 266.101562 246.253906 266.179688 246.195312 266.25 C 246.160156 266.292969 245.230469 267.402344 237.691406 272.597656 C 232.648438 276.050781 228.183594 276.671875 225.742188 276.671875 Z M 224.023438 276.085938 C 224.910156 276.230469 230.589844 276.921875 237.433594 272.210938 C 243.761719 267.851562 245.394531 266.40625 245.753906 266.050781 L 239.75 251.101562 C 238.796875 252.476562 235.183594 257.332031 229.886719 259.515625 C 226.261719 261.019531 222.511719 262.078125 218.636719 262.6875 Z M 224.023438 276.085938 " fill-opacity="1" fill-rule="nonzero"/></svg>