<svg xmlns="http://www.w3.org/2000/svg" xmlns:xlink="http://www.w3.org/1999/xlink" width="500" zoomAndPan="magnify" viewBox="0 0 375 374.999991" height="500" preserveAspectRatio="xMidYMid meet" version="1.0"><defs><clipPath id="87399c873a"><path d="M 203 69.082031 L 235 69.082031 L 235 102 L 203 102 Z M 203 69.082031 " clip-rule="nonzero"/></clipPath><clipPath id="86aada850d"><path d="M 69.082031 73 L 306 73 L 306 306.082031 L 69.082031 306.082031 Z M 69.082031 73 " clip-rule="nonzero"/></clipPath><clipPath id="1f3512dfda"><path d="M 69.082031 69.082031 L 282 69.082031 L 282 302 L 69.082031 302 Z M 69.082031 69.082031 " clip-rule="nonzero"/></clipPath><clipPath id="7343262f0e"><path d="M 69.082031 84 L 255 84 L 255 306 L 69.082031 306 Z M 69.082031 84 " clip-rule="nonzero"/></clipPath><clipPath id="0ed0d554ac"><path d="M 85 122 L 306 122 L 306 306.082031 L 85 306.082031 Z M 85 122 " clip-rule="nonzero"/></clipPath></defs><rect x="-37.5" width="450" fill="#ffffff" y="-37.499999" height="449.999989" fill-opacity="1"/><rect x="-37.5" width="450" fill="#ffffff" y="-37.499999" height="449.999989" fill-opacity="1"/><g clip-path="url(#87399c873a)"><path fill="#fdd6f1" d="M 204.449219 87.019531 L 206.832031 87.984375 C 208.105469 88.5 208.652344 90.003906 208.007812 91.21875 L 206.804688 93.492188 C 205.785156 95.417969 207.75 97.5625 209.757812 96.710938 L 212.121094 95.710938 C 213.386719 95.175781 214.835938 95.851562 215.242188 97.164062 L 215.996094 99.617188 C 216.640625 101.703125 219.542969 101.828125 220.359375 99.808594 L 221.328125 97.429688 C 221.84375 96.15625 223.347656 95.609375 224.5625 96.253906 L 226.832031 97.453125 C 228.757812 98.476562 230.902344 96.511719 230.050781 94.503906 L 229.050781 92.136719 C 228.515625 90.875 229.191406 89.421875 230.503906 89.019531 L 232.960938 88.261719 C 235.042969 87.621094 235.171875 84.71875 233.148438 83.898438 L 230.769531 82.933594 C 229.5 82.417969 228.949219 80.914062 229.59375 79.699219 L 230.796875 77.429688 C 231.816406 75.5 229.855469 73.359375 227.84375 74.207031 L 225.480469 75.207031 C 224.214844 75.746094 222.761719 75.066406 222.359375 73.753906 L 221.605469 71.296875 C 220.964844 69.210938 218.058594 69.085938 217.242188 71.105469 L 216.277344 73.488281 C 215.761719 74.761719 214.257812 75.308594 213.042969 74.667969 L 210.769531 73.460938 C 208.839844 72.441406 206.699219 74.40625 207.550781 76.414062 L 208.550781 78.78125 C 209.085938 80.046875 208.410156 81.496094 207.097656 81.898438 L 204.640625 82.65625 C 202.554688 83.296875 202.429688 86.199219 204.449219 87.019531 Z M 213.703125 82.8125 C 214.199219 81.734375 215.074219 80.855469 216.15625 80.363281 C 221.28125 78.011719 226.25 82.980469 223.898438 88.105469 C 223.40625 89.1875 222.527344 90.0625 221.449219 90.558594 C 216.324219 92.90625 211.355469 87.9375 213.703125 82.8125 Z M 213.703125 82.8125 " fill-opacity="1" fill-rule="nonzero"/></g><g clip-path="url(#86aada850d)"><path fill="#fdd6f1" d="M 304 164.273438 C 303.714844 163.964844 303.402344 163.699219 303.066406 163.472656 L 302.632812 163.183594 L 281.539062 148.351562 C 281.050781 147.742188 280.351562 147.242188 279.574219 146.945312 C 276.472656 145.769531 273.6875 144.839844 270.828125 144.230469 L 269.804688 137.9375 C 269.800781 137.921875 269.804688 137.902344 269.804688 137.882812 L 268.816406 131.878906 C 268.980469 131.933594 269.160156 131.960938 269.347656 131.941406 C 271.117188 131.757812 272.460938 130.671875 272.75 129.148438 C 272.875 128.488281 272.851562 127.84375 272.707031 127.265625 C 273.308594 125.554688 273.472656 123.746094 273.210938 122 C 276.558594 123.59375 280.636719 122.417969 282.59375 119.171875 C 284.675781 115.71875 283.5625 111.230469 280.109375 109.148438 C 277.695312 107.691406 274.773438 107.800781 272.523438 109.183594 L 272.289062 108.4375 C 271.671875 106.480469 272.882812 104.421875 274.890625 104.003906 L 278.648438 103.230469 C 281.839844 102.570312 282.4375 98.269531 279.546875 96.765625 L 276.144531 94.992188 C 274.324219 94.046875 273.726562 91.730469 274.851562 90.015625 L 276.960938 86.8125 C 278.753906 84.089844 276.136719 80.625 273.027344 81.605469 L 269.367188 82.757812 C 267.410156 83.375 265.347656 82.164062 264.933594 80.15625 L 264.160156 76.394531 C 263.5 73.203125 259.199219 72.601562 257.695312 75.492188 L 255.921875 78.898438 C 254.976562 80.71875 252.664062 81.320312 250.949219 80.195312 L 247.734375 78.082031 C 245.011719 76.292969 241.550781 78.910156 242.53125 82.015625 L 243.6875 85.675781 C 244.304688 87.632812 243.09375 89.699219 241.085938 90.113281 L 237.320312 90.886719 C 234.128906 91.546875 233.53125 95.847656 236.421875 97.351562 L 239.828125 99.121094 C 241.339844 99.910156 242.007812 101.640625 241.542969 103.191406 C 241.363281 103.183594 241.179688 103.175781 240.996094 103.175781 L 170.03125 103.175781 L 170.0625 94.972656 L 170.085938 94.972656 L 170.085938 89.332031 C 170.085938 86.769531 168.011719 84.691406 165.449219 84.691406 L 124.324219 84.691406 C 122.5625 84.691406 121.03125 85.675781 120.246094 87.121094 C 120.203125 87.199219 120.167969 87.28125 120.132812 87.359375 C 120.105469 87.414062 120.074219 87.46875 120.050781 87.527344 C 119.816406 88.082031 119.6875 88.691406 119.6875 89.332031 L 119.679688 91.128906 C 115.105469 92.3125 111.75 96.222656 111.75 101.550781 C 111.75 102.734375 111.84375 103.871094 111.996094 104.96875 C 111.316406 105.574219 110.839844 106.554688 110.773438 107.691406 C 110.765625 107.875 110.769531 108.058594 110.792969 108.238281 C 110.800781 108.324219 110.828125 108.40625 110.84375 108.488281 C 110.863281 108.578125 110.875 108.667969 110.902344 108.757812 C 110.9375 108.871094 110.988281 108.980469 111.035156 109.09375 C 111.054688 109.144531 111.070312 109.195312 111.097656 109.246094 C 111.160156 109.375 111.242188 109.503906 111.324219 109.628906 C 111.339844 109.648438 111.351562 109.671875 111.367188 109.695312 C 111.464844 109.835938 111.578125 109.964844 111.699219 110.09375 C 111.703125 110.097656 111.707031 110.101562 111.710938 110.109375 C 112.09375 110.503906 112.582031 110.832031 113.152344 111.066406 L 111.722656 123.429688 C 106.882812 123.914062 103.867188 124.507812 103.867188 124.507812 C 98.519531 126.078125 94.734375 128.035156 92.167969 129.101562 C 91.914062 129.207031 91.703125 129.371094 91.535156 129.570312 C 89.570312 130.9375 88.191406 133.121094 87.941406 135.6875 L 86.792969 157.988281 L 86.765625 157.988281 C 86.605469 157.988281 86.476562 158.117188 86.476562 158.273438 C 86.472656 158.34375 86.5 158.402344 86.539062 158.453125 C 86.316406 158.59375 86.164062 158.835938 86.152344 159.117188 L 85.496094 168.753906 L 91.339844 158.613281 L 85.320312 169.058594 C 84.0625 173.1875 86.390625 177.554688 90.519531 178.8125 C 92.273438 179.347656 94.074219 179.230469 95.660156 178.605469 C 95.644531 178.765625 95.632812 178.933594 95.617188 179.09375 C 95.488281 180.308594 96.023438 181.464844 96.960938 182.160156 C 96.5 189.019531 96.421875 196.539062 96.734375 202.917969 L 97.976562 226.390625 L 73.75 226.390625 C 71.828125 226.390625 70.179688 227.558594 69.476562 229.222656 C 69.449219 229.289062 69.429688 229.355469 69.402344 229.421875 C 69.375 229.496094 69.34375 229.574219 69.320312 229.648438 C 69.183594 230.085938 69.109375 230.546875 69.109375 231.027344 L 69.109375 265.777344 C 69.109375 268.339844 71.1875 270.878906 73.75 270.878906 L 98.820312 270.648438 C 99.789062 277.070312 101.046875 284.660156 101.804688 289.164062 L 103.820312 289.164062 L 103.820312 291.367188 C 103.820312 291.367188 103.824219 291.363281 103.824219 291.363281 C 103.28125 291.691406 102.855469 292.128906 102.609375 292.699219 C 101.582031 295.085938 100.460938 296.746094 98.921875 299.160156 C 97.515625 301.363281 97.042969 303.160156 97.050781 304.628906 C 97.054688 305.355469 97.65625 305.933594 98.378906 305.933594 L 116.148438 305.933594 C 116.875 305.933594 117.480469 305.355469 117.480469 304.628906 C 117.488281 300.605469 115.917969 296.804688 115.339844 294.289062 C 115.09375 293.214844 115.042969 292.289062 114.621094 292.003906 C 114.589844 291.976562 114.558594 291.972656 114.527344 291.953125 C 114.433594 290.894531 114.375 289.96875 114.339844 289.164062 L 115.949219 289.164062 L 116.347656 270.484375 L 124.296875 270.414062 C 124.445312 270.414062 124.59375 270.40625 124.742188 270.390625 C 126.179688 278.320312 128.019531 285.304688 129.183594 289.164062 L 130.84375 289.164062 C 130.921875 290.226562 130.992188 291.089844 131.050781 291.804688 C 130.875 291.726562 130.679688 291.703125 130.433594 291.773438 C 128.800781 292.238281 128.75 298.980469 128.75 304.707031 C 128.75 305.460938 129.359375 306.066406 130.113281 306.066406 L 155.578125 306.066406 C 156.394531 306.066406 157.03125 305.359375 156.9375 304.550781 C 156.734375 302.84375 155.972656 300.152344 153.210938 298.921875 C 149.007812 297.046875 146.214844 295.128906 144.96875 292.496094 C 144.34375 291.171875 142.9375 290.59375 141.542969 290.566406 C 141.460938 290.042969 141.394531 289.582031 141.339844 289.164062 L 142.800781 289.164062 L 141.757812 236.519531 L 137.679688 187.578125 C 139.027344 187.34375 139.296875 185.953125 139.515625 184.453125 L 142.679688 148.066406 C 142.742188 148.046875 142.792969 148.011719 142.828125 147.964844 L 147.9375 152.945312 C 147.769531 153.265625 147.816406 153.667969 148.089844 153.933594 L 155.003906 160.625 C 155.21875 160.832031 155.511719 160.886719 155.78125 160.820312 L 155.78125 292.460938 C 155.78125 299.722656 161.667969 305.609375 168.929688 305.609375 L 203.40625 305.609375 C 203.417969 305.8125 203.441406 305.933594 203.441406 305.933594 L 228.15625 305.933594 C 228.175781 305.820312 228.191406 305.71875 228.210938 305.609375 L 240.996094 305.609375 C 248.261719 305.609375 254.148438 299.722656 254.148438 292.460938 L 254.148438 291.339844 L 268.136719 291.710938 L 257.710938 291.4375 C 257.550781 291.917969 257.449219 292.429688 257.417969 292.960938 L 257.371094 293.890625 C 256.945312 298.808594 257.03125 302.371094 257.03125 305.933594 L 277.296875 305.933594 C 277.382812 301.945312 268.988281 299.375 268.988281 295.488281 L 268.988281 293.269531 C 268.988281 292.734375 268.910156 292.222656 268.773438 291.730469 L 278.359375 291.984375 C 278.367188 291.984375 279.339844 286.679688 279.671875 284.902344 L 279.753906 284.902344 C 279.910156 284.902344 280.042969 284.773438 280.042969 284.613281 C 280.042969 284.464844 279.925781 284.34375 279.78125 284.332031 C 282.003906 261.085938 286.917969 209.128906 286.917969 203.484375 C 286.917969 198.429688 286.660156 193.503906 285.238281 188.75 C 286.234375 188.28125 287.40625 187.710938 287.785156 187.304688 C 288.046875 187.019531 288.199219 186.710938 288.277344 186.386719 L 303.734375 172.078125 C 305.964844 169.996094 306.082031 166.5 304 164.273438 Z M 107.523438 290.574219 C 107.449219 290.574219 107.375 290.574219 107.304688 290.574219 C 107.375 290.574219 107.449219 290.574219 107.523438 290.574219 Z M 104.753906 290.941406 C 104.714844 290.957031 104.675781 290.972656 104.636719 290.988281 C 104.675781 290.972656 104.714844 290.957031 104.753906 290.941406 Z M 106.375 290.617188 C 106.359375 290.617188 106.34375 290.617188 106.328125 290.621094 C 106.34375 290.617188 106.359375 290.617188 106.375 290.617188 Z M 105.902344 290.675781 C 105.839844 290.683594 105.777344 290.695312 105.71875 290.703125 C 105.777344 290.691406 105.839844 290.683594 105.902344 290.675781 Z M 105.316406 290.785156 C 105.257812 290.800781 105.199219 290.816406 105.140625 290.832031 C 105.199219 290.816406 105.257812 290.800781 105.316406 290.785156 Z M 111.699219 291.425781 C 111.859375 291.496094 112.015625 291.570312 112.160156 291.648438 C 112.015625 291.570312 111.859375 291.496094 111.699219 291.425781 Z M 107.902344 290.589844 C 108 290.59375 108.09375 290.597656 108.191406 290.605469 C 108.09375 290.597656 108 290.59375 107.902344 290.589844 Z M 108.542969 290.636719 C 108.652344 290.648438 108.761719 290.664062 108.871094 290.675781 C 108.761719 290.664062 108.652344 290.648438 108.542969 290.636719 Z M 109.179688 290.71875 C 109.347656 290.746094 109.511719 290.773438 109.671875 290.808594 C 109.511719 290.777344 109.347656 290.746094 109.179688 290.71875 Z M 109.925781 290.863281 C 110.085938 290.898438 110.242188 290.933594 110.390625 290.972656 C 110.242188 290.933594 110.085938 290.898438 109.925781 290.863281 Z M 110.605469 291.035156 C 110.734375 291.070312 110.859375 291.109375 110.980469 291.148438 C 110.859375 291.109375 110.734375 291.070312 110.605469 291.035156 Z M 111.179688 291.21875 C 111.304688 291.265625 111.421875 291.3125 111.539062 291.359375 C 111.421875 291.3125 111.304688 291.265625 111.179688 291.21875 Z M 114.367188 291.886719 C 114.3125 291.875 114.261719 291.867188 114.210938 291.875 C 114.261719 291.867188 114.3125 291.871094 114.367188 291.886719 Z M 138.644531 291.464844 C 138.613281 291.492188 138.578125 291.515625 138.546875 291.542969 C 138.578125 291.515625 138.613281 291.492188 138.644531 291.464844 Z M 133.089844 292.867188 C 133.234375 292.886719 133.386719 292.902344 133.554688 292.902344 C 133.386719 292.902344 133.234375 292.886719 133.089844 292.867188 Z M 131.765625 292.3125 C 131.796875 292.335938 131.832031 292.363281 131.867188 292.386719 C 131.832031 292.363281 131.796875 292.335938 131.765625 292.3125 Z M 131.972656 292.460938 C 132.046875 292.507812 132.125 292.554688 132.207031 292.597656 C 132.125 292.554688 132.046875 292.507812 131.972656 292.460938 Z M 132.296875 292.640625 C 132.378906 292.679688 132.46875 292.71875 132.566406 292.75 C 132.46875 292.71875 132.378906 292.679688 132.296875 292.640625 Z M 132.613281 292.765625 C 132.726562 292.804688 132.851562 292.832031 132.984375 292.851562 C 132.851562 292.828125 132.726562 292.804688 132.613281 292.765625 Z M 138.320312 291.789062 C 138.292969 291.820312 138.261719 291.847656 138.234375 291.878906 C 138.261719 291.847656 138.292969 291.820312 138.320312 291.789062 Z M 139.878906 290.808594 C 139.886719 290.804688 139.898438 290.804688 139.90625 290.800781 C 139.898438 290.804688 139.886719 290.804688 139.878906 290.808594 Z M 138.929688 291.25 C 138.957031 291.234375 138.988281 291.21875 139.019531 291.199219 C 138.988281 291.21875 138.957031 291.234375 138.929688 291.25 Z M 139.378906 291.003906 C 139.398438 290.996094 139.421875 290.988281 139.441406 290.976562 C 139.421875 290.988281 139.398438 290.996094 139.378906 291.003906 Z M 259.015625 239.101562 C 259.003906 239.070312 258.996094 239.035156 259 239 C 258.996094 239.035156 259.003906 239.070312 259.015625 239.101562 Z M 259.125 239.242188 C 259.121094 239.238281 259.117188 239.234375 259.113281 239.230469 C 259.117188 239.234375 259.121094 239.238281 259.125 239.242188 Z M 259.0625 239.183594 C 259.054688 239.171875 259.046875 239.160156 259.039062 239.144531 C 259.046875 239.160156 259.054688 239.171875 259.0625 239.183594 Z M 120.484375 119.824219 C 120.609375 119.898438 120.734375 119.96875 120.863281 120.035156 C 120.734375 119.96875 120.609375 119.898438 120.484375 119.824219 Z M 125.414062 120.863281 C 125.226562 120.882812 125.039062 120.894531 124.851562 120.902344 C 125.039062 120.894531 125.226562 120.878906 125.414062 120.863281 Z M 114.527344 110.929688 C 114.53125 110.921875 114.539062 110.917969 114.542969 110.914062 C 114.554688 110.902344 114.566406 110.894531 114.578125 110.882812 C 114.5625 110.898438 114.539062 110.914062 114.523438 110.929688 C 114.523438 110.929688 114.523438 110.929688 114.527344 110.929688 Z M 114.808594 110.582031 C 114.824219 110.554688 114.832031 110.527344 114.84375 110.5 C 114.855469 110.480469 114.867188 110.460938 114.875 110.4375 C 114.855469 110.488281 114.832031 110.539062 114.808594 110.585938 C 114.808594 110.585938 114.808594 110.582031 114.808594 110.582031 Z M 114.945312 110.128906 C 114.949219 110.113281 114.953125 110.101562 114.953125 110.089844 C 114.953125 110.101562 114.949219 110.113281 114.945312 110.128906 Z M 114.929688 110.210938 C 114.933594 110.183594 114.945312 110.15625 114.945312 110.128906 C 114.941406 110.207031 114.925781 110.28125 114.90625 110.351562 C 114.917969 110.308594 114.921875 110.257812 114.929688 110.210938 Z M 114.746094 110.683594 C 114.722656 110.71875 114.699219 110.75 114.671875 110.78125 C 114.699219 110.75 114.722656 110.71875 114.746094 110.683594 Z M 99.128906 175.90625 C 99.078125 175.980469 99.019531 176.054688 98.964844 176.128906 C 99.019531 176.054688 99.078125 175.980469 99.128906 175.90625 Z M 99.972656 174.425781 C 99.9375 174.507812 99.898438 174.582031 99.859375 174.664062 C 99.898438 174.582031 99.9375 174.507812 99.972656 174.425781 Z M 99.59375 175.191406 C 99.542969 175.273438 99.492188 175.355469 99.441406 175.4375 C 99.492188 175.355469 99.542969 175.273438 99.59375 175.191406 Z M 98.429688 176.75 C 98.484375 176.691406 98.535156 176.632812 98.585938 176.574219 C 98.535156 176.632812 98.484375 176.691406 98.429688 176.75 Z M 125.710938 120.820312 C 125.789062 120.8125 125.863281 120.800781 125.9375 120.789062 C 125.863281 120.800781 125.789062 120.8125 125.710938 120.820312 Z M 126.332031 120.710938 C 126.367188 120.703125 126.398438 120.695312 126.429688 120.6875 C 126.398438 120.695312 126.367188 120.703125 126.332031 120.710938 Z M 271.988281 125.855469 C 271.976562 125.84375 271.96875 125.832031 271.957031 125.820312 C 271.96875 125.832031 271.976562 125.84375 271.988281 125.855469 Z M 160.222656 115.535156 C 160.230469 115.449219 160.242188 115.367188 160.25 115.285156 C 160.242188 115.371094 160.230469 115.449219 160.222656 115.535156 Z M 160.332031 114.746094 C 160.347656 114.65625 160.363281 114.566406 160.382812 114.480469 C 160.363281 114.566406 160.347656 114.65625 160.332031 114.746094 Z M 160.554688 113.8125 C 160.589844 113.691406 160.636719 113.574219 160.675781 113.457031 C 160.632812 113.574219 160.589844 113.691406 160.554688 113.8125 Z M 160.792969 113.136719 C 160.847656 113 160.902344 112.863281 160.964844 112.730469 C 160.902344 112.863281 160.847656 113 160.792969 113.136719 Z M 249.667969 115.242188 C 249.679688 115.332031 249.691406 115.425781 249.703125 115.519531 C 249.691406 115.425781 249.679688 115.332031 249.667969 115.242188 Z M 266.675781 123.84375 C 266.675781 123.886719 266.675781 123.929688 266.675781 123.976562 C 266.675781 123.929688 266.675781 123.886719 266.675781 123.84375 Z M 265.886719 123.382812 C 265.90625 123.382812 265.925781 123.382812 265.949219 123.382812 C 266.203125 123.386719 266.449219 123.386719 266.6875 123.390625 C 266.429688 123.390625 266.164062 123.386719 265.886719 123.382812 Z M 262.640625 123.191406 C 262.828125 123.210938 263.015625 123.234375 263.203125 123.25 C 263.238281 123.253906 263.277344 123.257812 263.3125 123.261719 C 263.589844 123.28125 263.859375 123.300781 264.128906 123.316406 C 264.164062 123.320312 264.203125 123.324219 264.242188 123.324219 C 264.394531 123.332031 264.542969 123.339844 264.691406 123.34375 C 264.03125 123.316406 263.34375 123.269531 262.640625 123.191406 Z M 262.261719 123.152344 C 262.296875 123.15625 262.328125 123.160156 262.359375 123.164062 C 262.328125 123.160156 262.296875 123.15625 262.261719 123.152344 Z M 261.320312 123.015625 C 261.347656 123.019531 261.367188 123.023438 261.394531 123.027344 C 261.488281 123.042969 261.585938 123.054688 261.683594 123.070312 C 261.5625 123.050781 261.441406 123.035156 261.320312 123.015625 Z M 258.558594 122.328125 C 258.570312 122.332031 258.585938 122.335938 258.597656 122.34375 C 259.183594 122.546875 259.789062 122.710938 260.402344 122.84375 C 260.410156 122.84375 260.417969 122.84375 260.421875 122.847656 C 260.546875 122.871094 260.667969 122.890625 260.792969 122.917969 C 260.03125 122.769531 259.277344 122.582031 258.558594 122.328125 Z M 259.832031 142.195312 C 259.820312 142.183594 259.8125 142.167969 259.804688 142.15625 C 259.8125 142.171875 259.820312 142.183594 259.832031 142.195312 Z M 259.265625 141.144531 C 259.257812 141.121094 259.246094 141.09375 259.238281 141.070312 C 259.246094 141.09375 259.257812 141.121094 259.265625 141.144531 Z M 259.070312 140.503906 C 259.058594 140.46875 259.050781 140.433594 259.042969 140.398438 C 259.050781 140.433594 259.058594 140.46875 259.070312 140.503906 Z M 261.269531 143.253906 C 261.261719 143.253906 261.253906 143.25 261.25 143.246094 C 261.253906 143.25 261.261719 143.253906 261.269531 143.253906 Z M 260.222656 142.621094 C 260.214844 142.617188 260.210938 142.613281 260.207031 142.609375 C 260.210938 142.613281 260.21875 142.617188 260.222656 142.621094 Z M 264.828125 143.3125 C 264.6875 143.355469 264.542969 143.394531 264.402344 143.429688 C 264.542969 143.394531 264.6875 143.355469 264.828125 143.3125 Z M 265.878906 142.894531 C 265.789062 142.9375 265.703125 142.976562 265.613281 143.015625 C 265.703125 142.976562 265.789062 142.9375 265.878906 142.894531 Z M 265.355469 143.125 C 265.257812 143.164062 265.160156 143.195312 265.0625 143.230469 C 265.160156 143.195312 265.257812 143.164062 265.355469 143.125 Z M 265.027344 123.359375 C 265.0625 123.363281 265.09375 123.363281 265.125 123.363281 C 265.34375 123.371094 265.558594 123.375 265.769531 123.378906 C 265.53125 123.375 265.285156 123.371094 265.027344 123.359375 Z M 266.902344 142.320312 C 266.824219 142.371094 266.746094 142.421875 266.667969 142.46875 C 266.746094 142.421875 266.824219 142.371094 266.902344 142.320312 Z M 266.398438 142.625 C 266.316406 142.671875 266.230469 142.71875 266.144531 142.761719 C 266.230469 142.71875 266.316406 142.671875 266.398438 142.625 Z M 266.703125 124.421875 C 266.707031 124.457031 266.707031 124.492188 266.710938 124.53125 C 266.75 124.929688 266.824219 125.367188 266.9375 125.820312 C 266.8125 125.324219 266.738281 124.847656 266.703125 124.421875 Z M 266.953125 125.898438 C 267.015625 126.140625 267.089844 126.382812 267.179688 126.625 C 267.085938 126.371094 267.007812 126.113281 266.945312 125.859375 C 266.949219 125.875 266.949219 125.886719 266.953125 125.898438 Z M 257.738281 122.003906 C 257.382812 121.847656 257.042969 121.671875 256.714844 121.476562 C 256.753906 121.5 256.789062 121.527344 256.832031 121.550781 C 256.859375 121.566406 256.882812 121.582031 256.910156 121.597656 C 257.15625 121.730469 257.410156 121.859375 257.667969 121.976562 C 257.691406 121.984375 257.714844 121.996094 257.738281 122.003906 Z M 255.359375 120.484375 C 255.378906 120.503906 255.398438 120.523438 255.417969 120.539062 C 255.621094 120.722656 255.835938 120.894531 256.058594 121.058594 C 256.082031 121.074219 256.105469 121.09375 256.132812 121.109375 C 255.855469 120.917969 255.59375 120.703125 255.351562 120.476562 C 255.355469 120.480469 255.355469 120.484375 255.359375 120.484375 Z M 254.148438 137.046875 C 254.945312 138.019531 255.988281 138.816406 257.238281 139.316406 C 257.777344 139.53125 258.324219 139.671875 258.875 139.761719 L 259.179688 143.605469 C 257.617188 143.742188 255.945312 143.957031 254.148438 144.257812 Z M 257.859375 185.375 C 257.726562 185.304688 257.597656 185.230469 257.46875 185.15625 C 257.597656 185.234375 257.726562 185.304688 257.859375 185.375 Z M 259.835938 186.148438 C 259.628906 186.09375 259.421875 186.035156 259.222656 185.964844 C 259.421875 186.035156 259.628906 186.09375 259.835938 186.148438 Z M 258.8125 185.8125 C 258.671875 185.757812 258.53125 185.699219 258.390625 185.636719 C 258.53125 185.699219 258.671875 185.757812 258.8125 185.8125 Z M 260.320312 186.261719 C 260.296875 186.253906 260.273438 186.25 260.246094 186.242188 C 260.269531 186.246094 260.296875 186.25 260.316406 186.253906 C 260.320312 186.257812 260.320312 186.257812 260.320312 186.261719 Z M 256.574219 184.558594 C 256.71875 184.667969 256.867188 184.769531 257.015625 184.871094 C 256.867188 184.773438 256.71875 184.667969 256.574219 184.558594 Z M 260.902344 186.355469 C 260.914062 186.355469 260.921875 186.359375 260.933594 186.359375 C 260.921875 186.359375 260.914062 186.359375 260.902344 186.355469 Z M 262.179688 186.449219 C 261.875 186.449219 261.582031 186.425781 261.292969 186.398438 C 261.582031 186.425781 261.875 186.449219 262.179688 186.449219 Z M 263.582031 186.363281 C 263.472656 186.375 263.367188 186.390625 263.257812 186.398438 C 263.367188 186.390625 263.476562 186.375 263.582031 186.363281 Z M 267.71875 185.074219 C 267.636719 185.121094 267.554688 185.167969 267.46875 185.210938 C 267.554688 185.167969 267.636719 185.121094 267.71875 185.074219 Z M 265.640625 185.949219 C 265.542969 185.976562 265.445312 186 265.347656 186.027344 C 265.445312 186 265.542969 185.976562 265.640625 185.949219 Z M 264.652344 186.195312 C 264.539062 186.21875 264.421875 186.238281 264.304688 186.261719 C 264.421875 186.238281 264.539062 186.21875 264.652344 186.195312 Z M 267.171875 142.140625 C 267.246094 142.09375 267.3125 142.039062 267.382812 141.988281 C 267.3125 142.039062 267.242188 142.09375 267.171875 142.140625 Z M 267.65625 141.78125 C 267.679688 141.761719 267.703125 141.742188 267.726562 141.722656 C 267.703125 141.742188 267.679688 141.761719 267.65625 141.78125 Z M 268.34375 141.152344 C 268.386719 141.109375 268.433594 141.066406 268.476562 141.019531 C 268.433594 141.066406 268.386719 141.109375 268.34375 141.152344 Z M 268.601562 184.546875 C 268.511719 184.605469 268.425781 184.664062 268.335938 184.71875 C 268.425781 184.660156 268.511719 184.605469 268.601562 184.546875 Z M 267.199219 126.667969 C 267.28125 126.894531 267.375 127.121094 267.480469 127.339844 C 267.375 127.121094 267.28125 126.894531 267.199219 126.667969 Z M 267.601562 127.550781 C 267.6875 127.710938 267.769531 127.871094 267.871094 128.023438 C 267.769531 127.871094 267.6875 127.710938 267.601562 127.550781 Z M 248.433594 111.742188 C 248.324219 111.566406 248.210938 111.394531 248.09375 111.230469 C 248.210938 111.394531 248.324219 111.566406 248.433594 111.742188 Z M 249.589844 114.738281 C 249.570312 114.625 249.546875 114.511719 249.523438 114.398438 C 249.546875 114.511719 249.570312 114.625 249.589844 114.738281 Z M 249.417969 114 C 249.382812 113.875 249.351562 113.746094 249.3125 113.621094 C 249.351562 113.746094 249.382812 113.871094 249.417969 114 Z M 249.234375 113.414062 C 249.113281 113.074219 248.976562 112.746094 248.816406 112.425781 C 248.976562 112.746094 249.117188 113.074219 249.234375 113.414062 Z M 248.777344 112.351562 C 248.6875 112.171875 248.589844 112 248.488281 111.832031 C 248.589844 112 248.6875 112.171875 248.777344 112.351562 Z M 161.578125 111.601562 C 161.386719 111.898438 161.214844 112.210938 161.058594 112.53125 C 161.214844 112.210938 161.386719 111.898438 161.578125 111.601562 Z M 244.765625 284.902344 L 244.621094 284.902344 C 244.761719 284.554688 244.847656 284.339844 244.851562 284.339844 C 244.96875 284.378906 245.054688 284.484375 245.054688 284.613281 C 245.054688 284.773438 244.925781 284.902344 244.765625 284.902344 Z M 256.246094 184.308594 C 256.070312 184.164062 255.894531 184.015625 255.726562 183.859375 C 255.898438 184.015625 256.070312 184.164062 256.246094 184.308594 Z M 255.425781 183.578125 C 255.269531 183.421875 255.117188 183.265625 254.964844 183.101562 C 255.117188 183.265625 255.269531 183.421875 255.425781 183.578125 Z M 254.664062 182.765625 C 254.539062 182.621094 254.417969 182.476562 254.296875 182.324219 C 254.417969 182.476562 254.539062 182.621094 254.664062 182.765625 Z M 269.203125 184.125 C 269.273438 184.070312 269.34375 184.023438 269.410156 183.96875 C 269.34375 184.023438 269.273438 184.070312 269.203125 184.125 Z M 270.921875 182.597656 C 270.980469 182.535156 271.035156 182.472656 271.09375 182.410156 C 271.035156 182.472656 270.980469 182.535156 270.921875 182.597656 Z M 279.375 188.613281 C 279.371094 188.605469 279.363281 188.59375 279.359375 188.585938 C 279.363281 188.59375 279.371094 188.605469 279.375 188.613281 Z M 279.292969 187.550781 C 279.292969 187.550781 279.292969 187.550781 279.292969 187.546875 C 279.292969 187.550781 279.292969 187.550781 279.292969 187.550781 Z M 277.914062 185.214844 C 277.9375 185.191406 277.957031 185.171875 277.976562 185.148438 C 277.957031 185.171875 277.9375 185.191406 277.914062 185.214844 Z M 278.117188 185.003906 C 278.136719 184.980469 278.15625 184.960938 278.171875 184.941406 C 278.15625 184.960938 278.136719 184.980469 278.117188 185.003906 Z M 278.289062 184.8125 C 278.304688 184.796875 278.320312 184.777344 278.335938 184.761719 C 278.320312 184.777344 278.304688 184.796875 278.289062 184.8125 Z M 278.570312 184.488281 C 278.574219 184.480469 278.578125 184.476562 278.582031 184.46875 C 278.578125 184.476562 278.574219 184.480469 278.570312 184.488281 Z M 278.4375 184.644531 C 278.449219 184.632812 278.460938 184.617188 278.46875 184.605469 C 278.460938 184.617188 278.449219 184.628906 278.4375 184.644531 Z M 277.289062 183.882812 C 277.316406 183.871094 277.339844 183.859375 277.367188 183.847656 C 277.339844 183.859375 277.316406 183.871094 277.289062 183.882812 Z M 277.648438 183.714844 C 277.652344 183.710938 277.660156 183.710938 277.664062 183.707031 C 277.660156 183.710938 277.652344 183.710938 277.648438 183.714844 Z M 279.449219 188.710938 C 279.460938 188.726562 279.472656 188.742188 279.484375 188.753906 C 279.472656 188.742188 279.460938 188.726562 279.449219 188.710938 Z M 279.617188 188.875 C 279.597656 188.859375 279.582031 188.84375 279.5625 188.828125 C 279.582031 188.84375 279.597656 188.859375 279.617188 188.875 Z M 282.492188 189.125 C 282.464844 189.078125 282.4375 189.027344 282.417969 188.976562 C 282.4375 189.027344 282.464844 189.078125 282.492188 189.125 Z M 285.164062 180.941406 C 285.1875 180.957031 285.207031 180.972656 285.226562 180.988281 C 285.207031 180.972656 285.1875 180.957031 285.164062 180.941406 Z M 283.695312 179.992188 C 283.707031 179.996094 283.71875 180.003906 283.730469 180.007812 C 283.71875 180.003906 283.707031 179.996094 283.695312 179.992188 Z M 284.707031 180.609375 C 284.730469 180.628906 284.753906 180.644531 284.777344 180.660156 C 284.753906 180.644531 284.730469 180.628906 284.707031 180.609375 Z M 274.886719 176.632812 C 274.910156 176.585938 274.933594 176.539062 274.957031 176.488281 C 274.933594 176.539062 274.910156 176.585938 274.886719 176.632812 Z M 271.632812 181.804688 C 271.695312 181.730469 271.753906 181.65625 271.816406 181.582031 C 271.753906 181.65625 271.695312 181.730469 271.632812 181.804688 Z M 272.347656 180.898438 C 272.390625 180.84375 272.433594 180.789062 272.476562 180.730469 C 272.433594 180.789062 272.390625 180.84375 272.347656 180.898438 Z M 273.722656 178.824219 C 273.757812 178.761719 273.792969 178.699219 273.828125 178.636719 C 273.792969 178.699219 273.757812 178.761719 273.722656 178.824219 Z M 274.300781 177.789062 C 274.339844 177.714844 274.382812 177.636719 274.421875 177.5625 C 274.378906 177.636719 274.339844 177.714844 274.300781 177.789062 Z M 268.84375 140.589844 C 268.800781 140.644531 268.753906 140.699219 268.707031 140.753906 C 268.753906 140.699219 268.800781 140.644531 268.84375 140.589844 Z M 269.738281 138.761719 C 269.730469 138.804688 269.726562 138.847656 269.714844 138.886719 C 269.726562 138.847656 269.730469 138.804688 269.738281 138.761719 Z M 269.617188 139.207031 C 269.597656 139.265625 269.578125 139.320312 269.554688 139.375 C 269.578125 139.320312 269.597656 139.265625 269.617188 139.207031 Z M 269.421875 139.675781 C 269.390625 139.738281 269.363281 139.796875 269.332031 139.851562 C 269.363281 139.792969 269.390625 139.734375 269.421875 139.675781 Z M 269.160156 140.140625 C 269.121094 140.199219 269.082031 140.257812 269.042969 140.3125 C 269.082031 140.257812 269.121094 140.199219 269.160156 140.140625 Z M 271.417969 125.378906 C 271.390625 125.363281 271.367188 125.347656 271.339844 125.335938 C 271.367188 125.347656 271.394531 125.363281 271.417969 125.378906 Z M 271.109375 125.226562 C 271.082031 125.210938 271.050781 125.199219 271.023438 125.1875 C 271.050781 125.199219 271.082031 125.210938 271.109375 125.226562 Z M 272.195312 126.121094 C 272.203125 126.128906 272.210938 126.140625 272.21875 126.152344 C 272.210938 126.140625 272.203125 126.128906 272.195312 126.121094 Z M 250.78125 92.402344 C 251.667969 90.867188 253.097656 89.6875 254.769531 89.101562 C 262.726562 86.332031 269.414062 94.425781 265.195312 101.714844 C 264.308594 103.25 262.878906 104.433594 261.203125 105.015625 C 253.25 107.785156 246.5625 99.695312 250.78125 92.402344 Z M 188.375 110.03125 C 188.40625 110.183594 188.464844 110.324219 188.53125 110.460938 C 188.464844 110.324219 188.40625 110.183594 188.375 110.03125 Z M 188.753906 110.792969 C 188.824219 110.878906 188.902344 110.957031 188.988281 111.027344 C 188.902344 110.957031 188.824219 110.878906 188.753906 110.792969 Z M 189.210938 111.179688 C 189.464844 111.328125 189.757812 111.417969 190.078125 111.417969 C 190.394531 111.417969 190.6875 111.328125 190.945312 111.179688 C 190.6875 111.328125 190.394531 111.417969 190.078125 111.417969 C 189.757812 111.417969 189.464844 111.328125 189.210938 111.179688 Z M 195.316406 108.917969 L 220.855469 108.917969 C 221.128906 108.917969 221.367188 109.085938 221.46875 109.324219 C 221.367188 109.085938 221.128906 108.917969 220.855469 108.917969 L 195.316406 108.917969 C 195.042969 108.917969 194.804688 109.085938 194.703125 109.324219 C 194.804688 109.085938 195.042969 108.917969 195.316406 108.917969 Z M 191.816406 109.679688 C 191.816406 109.800781 191.804688 109.917969 191.78125 110.03125 C 191.734375 110.257812 191.644531 110.46875 191.519531 110.652344 C 191.421875 110.796875 191.300781 110.917969 191.164062 111.027344 C 191.300781 110.917969 191.421875 110.796875 191.519531 110.652344 C 191.644531 110.46875 191.734375 110.257812 191.78125 110.03125 C 191.804688 109.917969 191.816406 109.800781 191.816406 109.679688 C 191.816406 109.5625 191.804688 109.445312 191.78125 109.332031 C 191.742188 109.144531 191.667969 108.972656 191.574219 108.8125 C 191.667969 108.972656 191.742188 109.144531 191.78125 109.332031 C 191.804688 109.445312 191.816406 109.5625 191.816406 109.679688 Z M 112.804688 104.472656 C 112.792969 104.480469 112.78125 104.484375 112.769531 104.488281 C 112.78125 104.484375 112.792969 104.480469 112.804688 104.472656 Z M 113.269531 104.355469 C 113.246094 104.359375 113.222656 104.363281 113.203125 104.367188 C 113.226562 104.363281 113.246094 104.359375 113.269531 104.355469 Z M 93.988281 148.992188 C 93.972656 149.015625 93.960938 149.035156 93.949219 149.058594 C 93.960938 149.035156 93.972656 149.015625 93.988281 148.992188 Z M 93.808594 149.367188 Z M 93.726562 149.695312 C 93.722656 149.722656 93.71875 149.75 93.714844 149.777344 C 93.71875 149.75 93.722656 149.722656 93.726562 149.695312 Z M 91.394531 158.515625 L 91.421875 158.472656 L 92.378906 156.808594 Z M 97.945312 177.207031 C 97.910156 177.238281 97.875 177.273438 97.835938 177.304688 C 97.875 177.273438 97.910156 177.238281 97.945312 177.207031 Z M 98.011719 182.683594 C 97.816406 182.625 97.632812 182.554688 97.457031 182.464844 C 97.632812 182.554688 97.816406 182.625 98.011719 182.683594 Z M 117.710938 206.214844 C 117.710938 206.214844 117.714844 206.214844 117.714844 206.214844 C 117.871094 206.214844 118.003906 206.089844 118.003906 205.929688 L 118.132812 194.320312 L 118.054688 201.386719 L 121.519531 226.390625 L 117.285156 226.390625 Z M 142.140625 125.148438 C 139.640625 124.242188 136.761719 123.617188 132.601562 123.128906 C 130.625 122.972656 128.6875 122.878906 126.808594 122.835938 L 126.878906 120.570312 C 127.007812 120.535156 127.136719 120.5 127.261719 120.457031 C 128.53125 120.015625 129.667969 119.273438 130.578125 118.3125 C 130.722656 118.160156 130.855469 118.003906 130.980469 117.84375 C 131.1875 117.589844 131.382812 117.332031 131.558594 117.054688 C 132.273438 115.925781 132.722656 114.609375 132.820312 113.183594 C 132.820312 113.195312 132.816406 113.203125 132.816406 113.214844 C 132.816406 113.203125 132.820312 113.195312 132.820312 113.183594 L 132.925781 111.601562 L 156.65625 111.601562 C 156.09375 113.070312 155.78125 114.660156 155.78125 116.328125 L 155.78125 138.046875 L 145.832031 127.25 C 144.761719 126.210938 143.488281 125.511719 142.140625 125.148438 Z M 254.148438 255.15625 L 259.203125 239.28125 C 259.226562 239.285156 259.246094 239.292969 259.273438 239.296875 L 254.148438 290.1875 Z M 279.699219 188.929688 C 279.722656 188.945312 279.742188 188.957031 279.765625 188.96875 C 279.742188 188.957031 279.71875 188.945312 279.699219 188.929688 Z M 279.851562 189.007812 C 279.878906 189.019531 279.90625 189.03125 279.933594 189.039062 C 279.90625 189.03125 279.878906 189.019531 279.851562 189.007812 Z M 280.015625 189.0625 C 280.050781 189.070312 280.082031 189.074219 280.113281 189.078125 C 280.082031 189.074219 280.050781 189.070312 280.015625 189.0625 Z M 280.195312 189.089844 C 280.234375 189.089844 280.269531 189.089844 280.304688 189.085938 C 280.269531 189.089844 280.234375 189.089844 280.195312 189.089844 Z M 280.785156 188.964844 C 280.851562 188.929688 280.917969 188.890625 280.988281 188.84375 C 280.917969 188.890625 280.851562 188.929688 280.785156 188.964844 Z M 280.386719 189.082031 C 280.425781 189.078125 280.464844 189.066406 280.503906 189.058594 C 280.464844 189.066406 280.425781 189.078125 280.386719 189.082031 Z M 280.585938 189.042969 C 280.628906 189.027344 280.671875 189.007812 280.71875 188.988281 C 280.671875 189.007812 280.628906 189.027344 280.585938 189.042969 Z M 282.4375 188.207031 C 282.414062 188.269531 282.394531 188.328125 282.378906 188.390625 C 282.394531 188.328125 282.414062 188.269531 282.4375 188.207031 Z M 282.371094 188.449219 C 282.363281 188.492188 282.355469 188.53125 282.355469 188.574219 C 282.355469 188.53125 282.363281 188.492188 282.371094 188.449219 Z M 282.355469 188.636719 C 282.355469 188.675781 282.359375 188.714844 282.363281 188.753906 C 282.359375 188.714844 282.355469 188.675781 282.355469 188.636719 Z M 282.410156 188.945312 C 282.394531 188.902344 282.378906 188.855469 282.371094 188.8125 C 282.382812 188.859375 282.394531 188.902344 282.410156 188.945312 Z M 282.519531 189.164062 C 282.539062 189.195312 282.566406 189.230469 282.59375 189.261719 C 282.566406 189.230469 282.539062 189.195312 282.519531 189.164062 Z M 282.628906 189.304688 C 282.65625 189.328125 282.683594 189.355469 282.714844 189.378906 C 282.683594 189.355469 282.65625 189.328125 282.628906 189.304688 Z M 282.757812 189.414062 C 282.792969 189.4375 282.828125 189.460938 282.863281 189.476562 C 282.828125 189.457031 282.792969 189.4375 282.757812 189.414062 Z M 282.902344 189.5 C 282.953125 189.523438 283.003906 189.542969 283.058594 189.558594 C 283.003906 189.542969 282.953125 189.523438 282.902344 189.5 Z M 283.089844 189.566406 C 283.136719 189.574219 283.183594 189.582031 283.230469 189.585938 C 283.183594 189.582031 283.136719 189.574219 283.089844 189.566406 Z M 283.289062 189.589844 C 283.328125 189.589844 283.367188 189.585938 283.410156 189.582031 C 283.367188 189.585938 283.328125 189.589844 283.289062 189.589844 Z M 283.664062 189.519531 C 283.726562 189.496094 283.789062 189.46875 283.855469 189.429688 C 283.914062 189.394531 283.988281 189.351562 284.074219 189.308594 C 283.988281 189.351562 283.914062 189.394531 283.855469 189.429688 C 283.789062 189.46875 283.726562 189.496094 283.664062 189.519531 Z M 283.476562 189.574219 C 283.519531 189.566406 283.5625 189.554688 283.605469 189.539062 C 283.5625 189.554688 283.519531 189.566406 283.476562 189.574219 Z M 284.953125 188.882812 C 284.96875 188.875 284.984375 188.867188 285 188.859375 C 284.984375 188.867188 284.96875 188.875 284.953125 188.882812 Z M 284.140625 189.273438 C 284.222656 189.234375 284.3125 189.1875 284.410156 189.140625 C 284.3125 189.1875 284.222656 189.234375 284.140625 189.273438 Z M 284.425781 189.132812 C 284.535156 189.082031 284.652344 189.023438 284.773438 188.96875 C 284.652344 189.023438 284.535156 189.082031 284.425781 189.132812 Z M 285.621094 181.308594 C 285.644531 181.328125 285.664062 181.347656 285.6875 181.367188 C 285.664062 181.347656 285.644531 181.328125 285.621094 181.308594 Z M 285.96875 181.625 C 285.996094 181.65625 286.027344 181.683594 286.054688 181.710938 C 286.027344 181.683594 285.996094 181.65625 285.96875 181.625 Z M 288.332031 185.839844 C 288.332031 185.816406 288.328125 185.792969 288.328125 185.773438 C 288.328125 185.792969 288.332031 185.816406 288.332031 185.839844 Z M 286.335938 182.019531 C 286.394531 182.089844 286.457031 182.167969 286.523438 182.246094 C 286.457031 182.164062 286.394531 182.089844 286.335938 182.019531 Z M 286.597656 182.335938 C 286.636719 182.386719 286.675781 182.4375 286.71875 182.488281 C 286.675781 182.4375 286.636719 182.386719 286.597656 182.335938 Z M 286.820312 182.617188 C 286.851562 182.660156 286.886719 182.703125 286.921875 182.746094 C 286.886719 182.703125 286.851562 182.660156 286.820312 182.617188 Z M 287.035156 182.902344 C 287.0625 182.9375 287.089844 182.972656 287.113281 183.011719 C 287.089844 182.972656 287.0625 182.9375 287.035156 182.902344 Z M 287.585938 183.714844 C 287.59375 183.726562 287.601562 183.738281 287.609375 183.75 C 287.601562 183.738281 287.59375 183.726562 287.585938 183.714844 Z M 287.746094 183.988281 C 287.757812 184.011719 287.769531 184.035156 287.78125 184.054688 C 287.769531 184.035156 287.757812 184.011719 287.746094 183.988281 Z M 288.324219 186.078125 C 288.324219 186.101562 288.320312 186.121094 288.316406 186.144531 C 288.320312 186.121094 288.324219 186.101562 288.324219 186.078125 Z M 287.90625 184.296875 C 287.917969 184.316406 287.925781 184.339844 287.9375 184.359375 C 287.925781 184.339844 287.914062 184.320312 287.90625 184.296875 Z M 288.050781 184.617188 C 288.050781 184.621094 288.050781 184.625 288.054688 184.625 C 288.050781 184.625 288.050781 184.621094 288.050781 184.617188 Z M 288.300781 185.492188 C 288.304688 185.5 288.304688 185.511719 288.304688 185.523438 C 288.304688 185.511719 288.304688 185.5 288.300781 185.492188 Z M 282.660156 179.5 C 282.074219 179.265625 281.515625 179.121094 281.058594 179.125 C 280.753906 179.125 280.484375 179.164062 280.238281 179.214844 C 278.882812 177.675781 277.277344 176.363281 275.484375 175.34375 C 277.148438 171.539062 278.394531 167.101562 279.472656 162.609375 C 279.550781 162.59375 279.621094 162.558594 279.667969 162.488281 L 290.703125 169.566406 Z M 282.660156 179.5 " fill-opacity="1" fill-rule="nonzero"/></g><path fill="#f56dcd" d="M 164.242188 125.40625 L 244.683594 125.40625 L 244.683594 266.96875 L 164.242188 266.96875 Z M 164.242188 125.40625 " fill-opacity="1" fill-rule="evenodd"/><g clip-path="url(#1f3512dfda)"><path fill="#fdd6f1" d="M 279.546875 96.765625 L 276.144531 94.996094 C 274.328125 94.046875 273.726562 91.734375 274.851562 90.019531 L 276.960938 86.8125 C 278.753906 84.089844 276.136719 80.625 273.027344 81.605469 L 269.367188 82.761719 C 267.410156 83.378906 265.347656 82.167969 264.933594 80.15625 L 264.160156 76.394531 C 263.5 73.203125 259.199219 72.605469 257.695312 75.496094 L 255.921875 78.902344 C 254.976562 80.722656 252.664062 81.324219 250.949219 80.195312 L 247.734375 78.082031 C 245.011719 76.292969 241.550781 78.910156 242.53125 82.019531 L 243.6875 85.679688 C 244.304688 87.636719 243.09375 89.699219 241.085938 90.113281 L 237.320312 90.890625 C 234.128906 91.546875 233.53125 95.847656 236.421875 97.351562 L 239.828125 99.125 C 241.648438 100.070312 242.25 102.386719 241.121094 104.101562 L 239.011719 107.308594 C 238.953125 107.398438 238.910156 107.492188 238.863281 107.582031 L 230.464844 107.582031 C 230.042969 107.582031 229.699219 107.925781 229.699219 108.351562 L 229.699219 109.515625 C 229.699219 112.515625 227.265625 114.949219 224.261719 114.949219 L 185.664062 114.949219 C 182.664062 114.949219 180.230469 112.515625 180.230469 109.515625 L 180.230469 108.351562 C 180.230469 107.925781 179.886719 107.582031 179.460938 107.582031 L 169.96875 107.582031 C 169.996094 107.378906 170.015625 107.175781 170.015625 106.964844 L 170.085938 89.332031 C 170.085938 86.773438 168.011719 84.695312 165.449219 84.695312 L 124.324219 84.695312 C 121.761719 84.695312 119.6875 86.773438 119.6875 89.332031 L 119.613281 106.964844 C 119.613281 109.527344 121.691406 111.601562 124.25 111.601562 L 161.578125 111.601562 C 160.699219 112.964844 160.183594 114.585938 160.183594 116.328125 L 160.183594 292.460938 C 160.183594 297.289062 164.097656 301.207031 168.929688 301.207031 L 240.996094 301.207031 C 245.828125 301.207031 249.742188 297.289062 249.742188 292.460938 L 249.742188 116.328125 C 249.742188 114.421875 249.125 112.664062 248.09375 111.230469 C 249.507812 111.414062 250.730469 112.464844 251.039062 113.964844 L 251.816406 117.722656 C 252.476562 120.910156 256.773438 121.507812 258.28125 118.621094 L 260.050781 115.21875 C 261 113.398438 263.3125 112.796875 265.027344 113.925781 L 268.234375 116.035156 C 270.957031 117.824219 274.417969 115.207031 273.441406 112.101562 L 272.289062 108.441406 C 271.671875 106.484375 272.882812 104.421875 274.890625 104.007812 L 278.648438 103.230469 C 281.839844 102.570312 282.4375 98.273438 279.546875 96.765625 Z M 241.367188 130.316406 L 241.382812 168.304688 L 167.425781 168.332031 L 167.414062 130.34375 Z M 188.664062 284.449219 C 186.878906 284.449219 185.433594 283.003906 185.433594 281.21875 C 185.433594 279.433594 186.878906 277.988281 188.664062 277.988281 C 190.449219 277.988281 191.894531 279.433594 191.894531 281.21875 C 191.894531 283.003906 190.449219 284.449219 188.664062 284.449219 Z M 206.664062 286.105469 C 203.96875 286.105469 201.78125 283.917969 201.78125 281.21875 C 201.78125 278.519531 203.96875 276.332031 206.664062 276.332031 C 209.363281 276.332031 211.550781 278.519531 211.550781 281.21875 C 211.550781 283.917969 209.363281 286.105469 206.664062 286.105469 Z M 218.0625 251.269531 L 166.855469 251.269531 L 166.855469 197.546875 L 218.0625 197.546875 Z M 224.667969 284.449219 C 222.882812 284.449219 221.4375 283.003906 221.4375 281.21875 C 221.4375 279.433594 222.882812 277.988281 224.667969 277.988281 C 226.453125 277.988281 227.898438 279.433594 227.898438 281.21875 C 227.898438 283.003906 226.453125 284.449219 224.667969 284.449219 Z M 237.308594 251.269531 L 224.164062 251.269531 L 224.164062 197.546875 L 237.308594 197.546875 Z M 167.425781 190.847656 L 167.425781 186.148438 L 241.378906 186.121094 L 241.382812 190.820312 Z M 167.425781 179.589844 L 167.425781 174.890625 L 241.378906 174.863281 L 241.382812 179.5625 Z M 265.195312 101.71875 C 264.308594 103.253906 262.878906 104.433594 261.203125 105.015625 C 253.25 107.785156 246.5625 99.695312 250.777344 92.402344 C 251.667969 90.867188 253.097656 89.6875 254.769531 89.101562 C 262.726562 86.335938 269.414062 94.425781 265.195312 101.71875 Z M 204.449219 87.019531 L 206.832031 87.984375 C 208.105469 88.5 208.652344 90.003906 208.007812 91.21875 L 206.804688 93.492188 C 205.785156 95.417969 207.75 97.5625 209.757812 96.710938 L 212.121094 95.710938 C 213.386719 95.175781 214.835938 95.851562 215.242188 97.164062 L 215.996094 99.617188 C 216.640625 101.703125 219.542969 101.828125 220.359375 99.808594 L 221.328125 97.429688 C 221.84375 96.15625 223.347656 95.609375 224.5625 96.253906 L 226.832031 97.453125 C 228.757812 98.476562 230.902344 96.511719 230.050781 94.503906 L 229.050781 92.136719 C 228.515625 90.875 229.191406 89.421875 230.503906 89.019531 L 232.960938 88.261719 C 235.042969 87.621094 235.171875 84.71875 233.148438 83.898438 L 230.769531 82.933594 C 229.5 82.417969 228.949219 80.914062 229.59375 79.699219 L 230.796875 77.429688 C 231.816406 75.5 229.855469 73.359375 227.84375 74.207031 L 225.480469 75.207031 C 224.214844 75.746094 222.761719 75.066406 222.359375 73.753906 L 221.605469 71.296875 C 220.964844 69.210938 218.058594 69.085938 217.242188 71.105469 L 216.277344 73.488281 C 215.761719 74.761719 214.257812 75.308594 213.042969 74.667969 L 210.769531 73.460938 C 208.839844 72.441406 206.699219 74.40625 207.550781 76.414062 L 208.550781 78.78125 C 209.085938 80.046875 208.410156 81.496094 207.097656 81.898438 L 204.640625 82.65625 C 202.554688 83.296875 202.429688 86.199219 204.449219 87.019531 Z M 213.703125 82.8125 C 214.199219 81.734375 215.074219 80.855469 216.15625 80.363281 C 221.28125 78.011719 226.25 82.980469 223.898438 88.105469 C 223.40625 89.1875 222.527344 90.0625 221.449219 90.558594 C 216.324219 92.90625 211.355469 87.9375 213.703125 82.8125 Z M 128.933594 231.027344 L 128.933594 265.777344 C 128.933594 268.339844 126.859375 270.414062 124.296875 270.414062 L 73.75 270.878906 C 71.1875 270.878906 69.113281 268.339844 69.113281 265.777344 L 69.113281 231.027344 C 69.113281 228.46875 71.1875 226.390625 73.75 226.390625 L 124.296875 226.390625 C 126.859375 226.390625 128.933594 228.46875 128.933594 231.027344 Z M 259.289062 239.296875 C 259.285156 239.296875 259.28125 239.296875 259.277344 239.296875 C 259.121094 239.292969 258.992188 239.160156 259 239 L 260.242188 198.992188 L 255.84375 193.863281 C 255.738281 193.742188 255.753906 193.558594 255.875 193.453125 C 255.996094 193.351562 256.179688 193.367188 256.285156 193.484375 L 260.753906 198.699219 C 260.800781 198.753906 260.824219 198.824219 260.824219 198.898438 L 259.578125 239.015625 C 259.574219 239.171875 259.445312 239.296875 259.289062 239.296875 Z M 280.039062 284.613281 C 280.039062 284.453125 279.910156 284.324219 279.75 284.324219 L 256.609375 284.324219 C 256.449219 284.324219 256.320312 284.453125 256.320312 284.613281 C 256.320312 284.773438 256.449219 284.902344 256.609375 284.902344 L 279.75 284.902344 C 279.910156 284.902344 280.039062 284.773438 280.039062 284.613281 Z M 245.054688 284.613281 C 245.054688 284.453125 244.925781 284.324219 244.765625 284.324219 L 218.546875 284.324219 C 218.386719 284.324219 218.257812 284.453125 218.257812 284.613281 C 218.257812 284.773438 218.386719 284.902344 218.546875 284.902344 L 244.765625 284.902344 C 244.925781 284.902344 245.054688 284.773438 245.054688 284.613281 Z M 118.003906 205.929688 L 118.132812 194.320312 L 122.851562 193.0625 C 123.007812 193.019531 123.097656 192.859375 123.054688 192.707031 C 123.015625 192.554688 122.859375 192.460938 122.703125 192.503906 L 117.769531 193.816406 C 117.644531 193.851562 117.558594 193.964844 117.554688 194.09375 L 117.425781 205.921875 C 117.421875 206.082031 117.550781 206.214844 117.710938 206.214844 C 117.710938 206.214844 117.714844 206.214844 117.714844 206.214844 C 117.871094 206.214844 118.003906 206.089844 118.003906 205.929688 Z M 118.003906 205.929688 " fill-opacity="1" fill-rule="evenodd"/></g><path fill="#fdd6f1" d="M 202.378906 241.734375 L 173.375 241.734375 C 172.898438 241.734375 172.507812 242.121094 172.507812 242.601562 C 172.507812 243.082031 172.898438 243.46875 173.375 243.46875 L 202.378906 243.46875 C 202.859375 243.46875 203.246094 243.082031 203.246094 242.601562 C 203.246094 242.121094 202.859375 241.734375 202.378906 241.734375 Z M 202.378906 241.734375 " fill-opacity="1" fill-rule="evenodd"/><path fill="#fdd6f1" d="M 191.816406 109.679688 C 191.816406 109.910156 191.769531 110.132812 191.683594 110.347656 C 191.59375 110.558594 191.46875 110.746094 191.304688 110.910156 C 191.144531 111.074219 190.957031 111.199219 190.742188 111.285156 C 190.53125 111.375 190.308594 111.417969 190.078125 111.417969 C 189.847656 111.417969 189.625 111.375 189.414062 111.285156 C 189.199219 111.199219 189.011719 111.074219 188.847656 110.910156 C 188.6875 110.746094 188.558594 110.558594 188.472656 110.347656 C 188.382812 110.132812 188.339844 109.910156 188.339844 109.679688 C 188.339844 109.449219 188.382812 109.230469 188.472656 109.015625 C 188.558594 108.804688 188.6875 108.617188 188.847656 108.453125 C 189.011719 108.289062 189.199219 108.164062 189.414062 108.074219 C 189.625 107.988281 189.847656 107.945312 190.078125 107.945312 C 190.308594 107.945312 190.53125 107.988281 190.742188 108.074219 C 190.957031 108.164062 191.144531 108.289062 191.304688 108.453125 C 191.46875 108.617188 191.59375 108.804688 191.683594 109.015625 C 191.769531 109.230469 191.816406 109.449219 191.816406 109.679688 Z M 191.816406 109.679688 " fill-opacity="1" fill-rule="nonzero"/><path fill="#fdd6f1" d="M 220.855469 110.253906 L 195.316406 110.253906 C 194.949219 110.253906 194.652344 109.953125 194.652344 109.585938 C 194.652344 109.21875 194.949219 108.917969 195.316406 108.917969 L 220.855469 108.917969 C 221.222656 108.917969 221.519531 109.21875 221.519531 109.585938 C 221.519531 109.953125 221.222656 110.253906 220.855469 110.253906 Z M 220.855469 110.253906 " fill-opacity="1" fill-rule="nonzero"/><g clip-path="url(#7343262f0e)"><path fill="#f56dcd" d="M 240.996094 103.175781 L 168.929688 103.175781 C 161.667969 103.175781 155.777344 109.066406 155.777344 116.328125 L 155.777344 292.460938 C 155.777344 299.722656 161.667969 305.609375 168.929688 305.609375 L 240.996094 305.609375 C 248.257812 305.609375 254.148438 299.722656 254.148438 292.460938 L 254.148438 116.328125 C 254.148438 109.066406 248.257812 103.175781 240.996094 103.175781 Z M 195.316406 108.917969 L 220.855469 108.917969 C 221.222656 108.917969 221.519531 109.21875 221.519531 109.585938 C 221.519531 109.953125 221.222656 110.253906 220.855469 110.253906 L 195.316406 110.253906 C 194.949219 110.253906 194.652344 109.953125 194.652344 109.585938 C 194.652344 109.21875 194.949219 108.917969 195.316406 108.917969 Z M 190.078125 107.945312 C 191.035156 107.945312 191.816406 108.722656 191.816406 109.679688 C 191.816406 110.640625 191.039062 111.417969 190.078125 111.417969 C 189.117188 111.417969 188.339844 110.640625 188.339844 109.679688 C 188.339844 108.722656 189.117188 107.945312 190.078125 107.945312 Z M 249.742188 292.460938 C 249.742188 297.289062 245.828125 301.207031 240.996094 301.207031 L 168.929688 301.207031 C 164.097656 301.207031 160.183594 297.289062 160.183594 292.460938 L 160.183594 116.328125 C 160.183594 111.496094 164.097656 107.582031 168.929688 107.582031 L 179.460938 107.582031 C 179.882812 107.582031 180.230469 107.925781 180.230469 108.351562 L 180.230469 109.515625 C 180.230469 112.515625 182.664062 114.949219 185.664062 114.949219 L 224.261719 114.949219 C 227.265625 114.949219 229.699219 112.515625 229.699219 109.515625 L 229.699219 108.351562 C 229.699219 107.925781 230.042969 107.582031 230.464844 107.582031 L 240.996094 107.582031 C 245.828125 107.582031 249.742188 111.496094 249.742188 116.328125 Z M 165.449219 84.695312 L 124.324219 84.695312 C 121.761719 84.695312 119.6875 86.769531 119.6875 89.332031 L 119.6875 94.972656 L 170.085938 94.972656 L 170.085938 89.332031 C 170.085938 86.769531 168.011719 84.695312 165.449219 84.695312 Z M 164.304688 91.386719 C 163.445312 91.386719 162.753906 90.691406 162.753906 89.835938 C 162.753906 88.976562 163.449219 88.28125 164.304688 88.28125 C 165.160156 88.28125 165.855469 88.976562 165.855469 89.835938 C 165.855469 90.691406 165.160156 91.386719 164.304688 91.386719 Z M 156.003906 102.851562 L 133.21875 102.851562 C 132.703125 102.851562 132.289062 102.4375 132.289062 101.925781 C 132.289062 101.410156 132.703125 100.996094 133.21875 100.996094 L 156.003906 100.996094 C 156.515625 100.996094 156.933594 101.410156 156.933594 101.925781 C 156.933594 102.4375 156.515625 102.851562 156.003906 102.851562 Z M 191.894531 281.21875 C 191.894531 283.003906 190.449219 284.449219 188.664062 284.449219 C 186.878906 284.449219 185.433594 283.003906 185.433594 281.21875 C 185.433594 279.433594 186.878906 277.988281 188.664062 277.988281 C 190.449219 277.988281 191.894531 279.433594 191.894531 281.21875 Z M 211.550781 281.21875 C 211.550781 283.917969 209.363281 286.105469 206.664062 286.105469 C 203.96875 286.105469 201.78125 283.917969 201.78125 281.21875 C 201.78125 278.519531 203.96875 276.332031 206.664062 276.332031 C 209.363281 276.332031 211.550781 278.519531 211.550781 281.21875 Z M 227.898438 281.21875 C 227.898438 283.003906 226.453125 284.449219 224.667969 284.449219 C 222.882812 284.449219 221.4375 283.003906 221.4375 281.21875 C 221.4375 279.433594 222.882812 277.988281 224.667969 277.988281 C 226.453125 277.988281 227.898438 279.433594 227.898438 281.21875 Z M 121.863281 254.964844 L 76.179688 254.964844 C 75.667969 254.964844 75.253906 254.550781 75.253906 254.035156 C 75.253906 253.523438 75.667969 253.109375 76.179688 253.109375 L 121.863281 253.109375 C 122.375 253.109375 122.792969 253.523438 122.792969 254.035156 C 122.792969 254.550781 122.375 254.964844 121.863281 254.964844 Z M 121.863281 245.800781 L 76.179688 245.800781 C 75.667969 245.800781 75.253906 245.386719 75.253906 244.871094 C 75.253906 244.359375 75.667969 243.945312 76.179688 243.945312 L 121.863281 243.945312 C 122.375 243.945312 122.792969 244.359375 122.792969 244.871094 C 122.792969 245.386719 122.375 245.800781 121.863281 245.800781 Z M 124.296875 226.390625 L 73.75 226.390625 C 71.1875 226.390625 69.113281 228.46875 69.113281 231.027344 L 69.113281 236.667969 L 128.933594 236.667969 L 128.933594 231.027344 C 128.933594 228.46875 126.859375 226.390625 124.296875 226.390625 Z M 74.628906 233.082031 C 73.773438 233.082031 73.078125 232.386719 73.078125 231.53125 C 73.078125 230.671875 73.773438 229.980469 74.628906 229.980469 C 75.484375 229.980469 76.179688 230.671875 76.179688 231.53125 C 76.179688 232.386719 75.484375 233.082031 74.628906 233.082031 Z M 74.628906 233.082031 " fill-opacity="1" fill-rule="evenodd"/></g><path fill="#fdd6f1" d="M 171.898438 135.269531 L 202.964844 135.28125 L 202.953125 163.390625 L 171.886719 163.378906 Z M 235.40625 143.019531 L 208.925781 143.019531 C 208.445312 143.019531 208.058594 143.410156 208.058594 143.890625 C 208.058594 144.367188 208.445312 144.757812 208.925781 144.757812 L 235.40625 144.757812 C 235.886719 144.757812 236.277344 144.367188 236.277344 143.890625 C 236.277344 143.410156 235.886719 143.019531 235.40625 143.019531 Z M 235.40625 136.347656 L 208.925781 136.347656 C 208.445312 136.347656 208.058594 136.738281 208.058594 137.214844 C 208.058594 137.695312 208.445312 138.082031 208.925781 138.082031 L 235.40625 138.082031 C 235.886719 138.082031 236.277344 137.695312 236.277344 137.214844 C 236.277344 136.738281 235.886719 136.347656 235.40625 136.347656 Z M 229.828125 160.351562 L 209.023438 160.351562 C 208.542969 160.351562 208.152344 160.738281 208.152344 161.21875 C 208.152344 161.699219 208.542969 162.085938 209.023438 162.085938 L 229.828125 162.085938 C 230.308594 162.085938 230.699219 161.699219 230.699219 161.21875 C 230.699219 160.738281 230.308594 160.351562 229.828125 160.351562 Z M 208.925781 151.429688 L 229.734375 151.429688 C 230.214844 151.429688 230.601562 151.039062 230.601562 150.5625 C 230.601562 150.082031 230.214844 149.695312 229.734375 149.695312 L 208.925781 149.695312 C 208.449219 149.695312 208.058594 150.082031 208.058594 150.5625 C 208.058594 151.039062 208.445312 151.429688 208.925781 151.429688 Z M 213.335938 222.90625 L 213.335938 202.15625 L 172.21875 202.15625 L 172.21875 222.90625 Z M 211.15625 229.257812 C 211.15625 228.777344 210.769531 228.386719 210.289062 228.386719 L 173.375 228.386719 C 172.898438 228.386719 172.507812 228.777344 172.507812 229.257812 C 172.507812 229.734375 172.898438 230.125 173.375 230.125 L 210.289062 230.125 C 210.769531 230.125 211.15625 229.734375 211.15625 229.257812 Z M 211.15625 235.929688 C 211.15625 235.449219 210.769531 235.0625 210.289062 235.0625 L 173.375 235.0625 C 172.898438 235.0625 172.507812 235.449219 172.507812 235.929688 C 172.507812 236.40625 172.898438 236.796875 173.375 236.796875 L 210.289062 236.796875 C 210.769531 236.796875 211.15625 236.40625 211.15625 235.929688 Z M 203.246094 242.601562 C 203.246094 242.121094 202.859375 241.734375 202.378906 241.734375 L 173.375 241.734375 C 172.898438 241.734375 172.507812 242.121094 172.507812 242.601562 C 172.507812 243.082031 172.898438 243.46875 173.375 243.46875 L 202.378906 243.46875 C 202.859375 243.46875 203.246094 243.082031 203.246094 242.601562 Z M 203.246094 242.601562 " fill-opacity="1" fill-rule="evenodd"/><path fill="#f56dcd" d="M 192.421875 142.726562 C 191.976562 140.382812 193.996094 138.371094 196.335938 138.816406 C 197.644531 139.0625 198.703125 140.121094 198.949219 141.429688 C 199.390625 143.769531 197.375 145.785156 195.03125 145.339844 C 193.722656 145.09375 192.667969 144.035156 192.421875 142.726562 Z M 202.953125 157.347656 L 193.746094 147.492188 L 189.949219 151.550781 L 183.054688 142.199219 L 171.890625 157.324219 L 184.539062 157.328125 L 184.527344 157.339844 Z M 190.734375 205.507812 L 185.886719 205.507812 L 184.949219 207.550781 L 184.945312 207.550781 L 184.945312 218.753906 L 201.28125 218.753906 L 201.28125 207.550781 L 191.671875 207.550781 Z M 190.734375 205.507812 " fill-opacity="1" fill-rule="nonzero"/><path fill="#a36357" d="M 124.003906 120.886719 C 123.777344 120.871094 123.554688 120.847656 123.335938 120.816406 C 123.117188 120.785156 122.898438 120.742188 122.6875 120.691406 C 122.046875 120.542969 121.4375 120.324219 120.863281 120.035156 C 120.734375 119.96875 120.609375 119.898438 120.484375 119.824219 C 120.171875 119.648438 119.875 119.453125 119.59375 119.238281 C 119.824219 119.414062 120.058594 119.578125 120.308594 119.730469 C 119.753906 119.398438 119.246094 119 118.789062 118.554688 C 117.0625 116.984375 115.144531 114.460938 113.746094 111.210938 C 114.035156 111.214844 114.308594 111.109375 114.527344 110.929688 C 114.539062 110.917969 114.550781 110.910156 114.558594 110.898438 C 114.601562 110.863281 114.640625 110.820312 114.675781 110.777344 C 114.691406 110.757812 114.707031 110.738281 114.722656 110.714844 C 114.753906 110.671875 114.785156 110.628906 114.808594 110.582031 C 114.824219 110.554688 114.835938 110.527344 114.847656 110.503906 C 114.886719 110.410156 114.914062 110.316406 114.929688 110.210938 C 114.9375 110.183594 114.945312 110.15625 114.949219 110.128906 L 114.945312 110.128906 C 114.949219 110.113281 114.953125 110.101562 114.953125 110.089844 C 114.953125 110.089844 114.972656 109.609375 114.964844 108.925781 C 114.960938 108.828125 114.960938 108.726562 114.957031 108.621094 C 114.957031 108.613281 114.957031 108.605469 114.957031 108.601562 C 114.953125 108.386719 114.941406 108.160156 114.929688 107.925781 C 114.929688 107.914062 114.929688 107.902344 114.929688 107.890625 C 114.914062 107.65625 114.898438 107.414062 114.875 107.171875 C 114.875 107.164062 114.875 107.160156 114.871094 107.152344 C 114.863281 107.035156 114.847656 106.917969 114.835938 106.800781 C 114.832031 106.796875 114.832031 106.792969 114.832031 106.789062 C 114.804688 106.542969 114.765625 106.304688 114.722656 106.078125 C 114.722656 106.074219 114.722656 106.070312 114.71875 106.0625 C 114.609375 105.488281 114.449219 104.988281 114.222656 104.675781 C 114.21875 104.675781 114.21875 104.675781 114.21875 104.675781 C 114.070312 104.476562 113.898438 104.351562 113.6875 104.335938 C 112.191406 104.25 110.886719 105.753906 110.777344 107.691406 C 110.691406 109.144531 111.632812 110.4375 113.152344 111.066406 L 111.550781 124.921875 C 111.105469 128.945312 113.863281 132.628906 118.140625 133.09375 C 122.421875 133.554688 126.25 130.667969 126.691406 126.644531 L 126.878906 120.574219 C 126.230469 120.765625 125.550781 120.878906 124.851562 120.90625 C 124.570312 120.910156 124.289062 120.90625 124.003906 120.886719 Z M 124.003906 120.886719 " fill-opacity="1" fill-rule="nonzero"/><path fill="#a36357" d="M 103.824219 289.164062 L 103.824219 291.367188 C 106.023438 290.03125 110.167969 290.554688 112.160156 291.648438 C 112.785156 291.996094 113.503906 292 114.210938 291.875 C 114.308594 291.855469 114.414062 291.890625 114.527344 291.953125 C 114.433594 290.894531 114.375 289.972656 114.339844 289.164062 Z M 103.824219 289.164062 " fill-opacity="1" fill-rule="nonzero"/><path fill="#a36357" d="M 105.796875 154.984375 C 106.316406 154.6875 106.746094 154.4375 106.90625 154.324219 C 107.429688 153.953125 108.253906 153.390625 107.953125 152.417969 C 107.792969 151.910156 107.378906 151.691406 106.929688 151.628906 C 107.753906 151.046875 107.785156 150.15625 107.617188 149.8125 C 107.3125 149.1875 106.945312 149.128906 106.207031 149.21875 C 105.464844 149.308594 101.4375 149.777344 101.425781 149.78125 C 101.300781 149.789062 101.175781 149.804688 101.054688 149.839844 L 100.621094 149.972656 C 100.40625 149.824219 100.175781 149.695312 99.9375 149.589844 L 100.777344 148.996094 C 101.820312 148.925781 103.546875 148.800781 104.53125 148.699219 C 106.011719 148.546875 106.46875 147.558594 106.476562 147.109375 C 106.488281 146.414062 105.953125 146.351562 105.25 146.140625 L 100.621094 145.53125 C 100.167969 145.484375 99.726562 145.558594 99.351562 145.730469 C 99.339844 145.738281 99.332031 145.742188 99.320312 145.75 C 99.234375 145.789062 99.15625 145.839844 99.078125 145.890625 L 94.5625 148.363281 C 93.996094 148.765625 93.667969 149.425781 93.695312 150.121094 L 92.378906 156.808594 L 85.320312 169.058594 C 84.0625 173.1875 86.390625 177.554688 90.519531 178.8125 C 94.648438 180.070312 99.015625 177.742188 100.273438 173.613281 L 101.691406 160.332031 C 102.238281 160.097656 102.796875 159.859375 102.796875 159.859375 C 102.894531 159.824219 102.988281 159.78125 103.082031 159.730469 L 106.011719 157.542969 C 107.90625 156.089844 106.6875 154.757812 105.796875 154.984375 Z M 105.796875 154.984375 " fill-opacity="1" fill-rule="nonzero"/><path fill="#a36357" d="M 127.101562 113.46875 C 126.894531 113.480469 126.6875 113.492188 126.488281 113.492188 C 124.734375 113.492188 122.5625 112.777344 122.5625 114.414062 C 122.5625 115.128906 122.890625 115.78125 123.4375 116.292969 C 124.316406 117.113281 125.820312 116.488281 125.832031 115.289062 C 125.832031 115.28125 125.832031 115.273438 125.832031 115.265625 C 125.832031 115.265625 125.851562 115.265625 125.886719 115.265625 C 125.894531 115.265625 125.90625 115.261719 125.917969 115.261719 C 125.949219 115.261719 125.984375 115.261719 126.027344 115.261719 C 126.039062 115.261719 126.050781 115.261719 126.0625 115.261719 C 126.113281 115.261719 126.167969 115.261719 126.226562 115.257812 C 126.242188 115.257812 126.257812 115.257812 126.273438 115.257812 C 126.339844 115.257812 126.40625 115.257812 126.476562 115.257812 C 126.480469 115.257812 126.488281 115.257812 126.492188 115.257812 C 126.820312 115.253906 127.144531 115.25 127.144531 115.25 C 127.144531 115.257812 127.144531 115.261719 127.144531 115.265625 L 127.144531 115.289062 C 127.15625 116.488281 128.660156 117.117188 129.539062 116.296875 C 130.085938 115.785156 130.414062 115.128906 130.414062 114.414062 C 130.414062 112.964844 128.707031 113.359375 127.101562 113.46875 Z M 127.101562 113.46875 " fill-opacity="1" fill-rule="nonzero"/><path fill="#a36357" d="M 126.871094 111.683594 C 130.789062 111.683594 132.3125 110.882812 133.171875 107.9375 L 132.820312 113.183594 C 132.820312 113.195312 132.816406 113.203125 132.816406 113.214844 C 132.816406 113.203125 132.820312 113.195312 132.820312 113.183594 L 133.523438 102.710938 C 133.546875 102.375 133.542969 102.027344 133.53125 101.679688 C 133.53125 101.679688 133.53125 101.679688 133.53125 101.683594 C 133.519531 101.378906 133.492188 101.070312 133.457031 100.765625 C 133.441406 100.640625 133.425781 100.511719 133.402344 100.386719 C 133.386719 100.289062 133.371094 100.191406 133.351562 100.09375 C 133.304688 99.855469 133.253906 99.617188 133.191406 99.382812 C 133.109375 99.082031 133.007812 98.792969 132.902344 98.507812 C 132.855469 98.378906 132.800781 98.257812 132.75 98.132812 C 132.6875 97.988281 132.625 97.847656 132.558594 97.707031 C 132.484375 97.546875 132.402344 97.390625 132.316406 97.234375 C 132.273438 97.152344 132.222656 97.070312 132.175781 96.988281 C 132.070312 96.808594 131.964844 96.628906 131.847656 96.453125 C 130.742188 97.175781 129.347656 97.445312 126.589844 97.726562 C 124.445312 97.945312 120.859375 97.9375 118.929688 97.292969 C 116.925781 100.003906 118.960938 103.1875 116.703125 104.839844 C 117.757812 110.59375 121.195312 111.683594 126.871094 111.683594 Z M 126.871094 111.683594 " fill-opacity="1" fill-rule="nonzero"/><path fill="#a36357" d="M 286.335938 182.019531 C 285.273438 180.742188 282.605469 179.121094 281.058594 179.125 C 279.507812 179.128906 278.671875 179.960938 278.671875 179.960938 C 277.730469 180.644531 276.113281 181.929688 275.78125 182.164062 C 274.171875 183.285156 275.515625 184.839844 276.914062 184.078125 C 277.976562 183.496094 278.601562 183.390625 280.144531 182.605469 C 278.660156 184.117188 279.078125 184.0625 277.679688 185.453125 C 276.195312 186.925781 277.761719 188.632812 279.082031 187.570312 C 279.1875 187.484375 279.304688 187.390625 279.425781 187.292969 C 278.691406 188.429688 279.871094 189.617188 280.988281 188.84375 C 281.660156 188.378906 282.660156 187.71875 283.675781 187.050781 C 283.675781 187.050781 283.679688 187.054688 283.683594 187.054688 C 283.457031 187.226562 283.601562 187.113281 282.917969 187.628906 C 281.652344 188.585938 282.75 190.089844 283.855469 189.429688 C 284.558594 189.007812 287.179688 187.953125 287.785156 187.300781 C 289.273438 185.691406 287.402344 183.296875 286.335938 182.019531 Z M 286.335938 182.019531 " fill-opacity="1" fill-rule="nonzero"/><path fill="#a36357" d="M 270.695312 125.097656 C 269.1875 124.8125 268.816406 126.230469 268.628906 127.210938 L 268.359375 128.644531 C 266.917969 127.082031 266.59375 124.582031 266.6875 123.390625 C 262.664062 123.375 255.789062 123.046875 253.816406 118.277344 C 253.25 119.414062 252.898438 120.679688 252.835938 122.03125 L 252.390625 131.800781 C 252.253906 134.988281 254.109375 138.066406 257.238281 139.316406 C 257.789062 139.535156 258.351562 139.683594 258.917969 139.769531 C 259.292969 142.101562 260.339844 143.578125 263.273438 143.578125 C 265.890625 143.578125 270.050781 140.78125 269.804688 137.882812 L 268.816406 131.878906 C 268.980469 131.933594 269.160156 131.960938 269.347656 131.941406 C 271.117188 131.757812 272.460938 130.671875 272.75 129.152344 C 273.121094 127.199219 272.199219 125.382812 270.695312 125.097656 Z M 270.695312 125.097656 " fill-opacity="1" fill-rule="nonzero"/><path fill="#a36357" d="M 200.359375 131.128906 C 200.859375 130.511719 200.210938 129.5625 198.410156 129.289062 C 196.21875 128.953125 194.691406 128.800781 189.386719 128.835938 C 189.652344 128.753906 189.902344 128.679688 190.117188 128.617188 C 191.832031 128.132812 190.085938 125.753906 187.222656 126.246094 C 184.96875 126.632812 181.335938 127.230469 181.335938 127.230469 C 178.703125 127.140625 175.058594 128.0625 173.777344 131.910156 L 162.996094 145.902344 C 162.960938 146.027344 162.902344 146.148438 162.808594 146.25 L 156.414062 160.109375 C 157.929688 161.664062 159.152344 162.859375 159.546875 163.097656 C 163.054688 165.230469 167.625 164.117188 169.757812 160.613281 L 182.328125 137.871094 C 182.535156 137.867188 182.742188 137.863281 182.941406 137.851562 L 182.960938 137.851562 C 183.847656 137.804688 189.75 137.3125 189.75 137.3125 C 190.058594 137.289062 190.363281 137.242188 190.667969 137.175781 C 191.796875 136.933594 194.734375 136.28125 196.265625 135.820312 C 196.617188 135.714844 196.863281 135.523438 197.027344 135.296875 C 197.699219 135.226562 198.265625 135.164062 198.644531 135.121094 C 199.515625 135.023438 199.730469 134.394531 199.433594 133.796875 C 199.835938 133.757812 200.1875 133.71875 200.472656 133.675781 C 202.148438 133.425781 201.972656 131.730469 200.359375 131.128906 Z M 200.359375 131.128906 " fill-opacity="1" fill-rule="nonzero"/><path fill="#a36357" d="M 130.84375 289.164062 C 130.921875 290.226562 130.992188 291.089844 131.050781 291.804688 C 131.636719 292.058594 132.03125 292.902344 133.554688 292.902344 C 135.542969 292.902344 136.347656 291.1875 138.007812 292.257812 C 138.5 291.175781 140.019531 290.542969 141.542969 290.570312 C 141.460938 290.042969 141.394531 289.582031 141.335938 289.164062 Z M 130.84375 289.164062 " fill-opacity="1" fill-rule="nonzero"/><path fill="#a36357" d="M 129.917969 118.933594 C 130.148438 118.738281 130.371094 118.53125 130.578125 118.3125 C 130.839844 118.035156 131.074219 117.738281 131.292969 117.425781 C 130.898438 117.984375 130.4375 118.492188 129.917969 118.933594 Z M 129.917969 118.933594 " fill-opacity="1" fill-rule="nonzero"/><g clip-path="url(#0ed0d554ac)"><path fill="#f56dcd" d="M 162.808594 146.25 L 156.1875 160.601562 C 155.867188 160.9375 155.335938 160.945312 155.003906 160.625 L 148.089844 153.933594 C 147.816406 153.667969 147.769531 153.265625 147.933594 152.945312 L 142.699219 147.839844 L 139.511719 184.453125 C 139.277344 186.0625 138.988281 187.550781 137.363281 187.609375 C 123.980469 188.105469 110.863281 186.460938 98.011719 182.683594 C 96.449219 182.226562 95.445312 180.710938 95.617188 179.09375 C 95.632812 178.933594 95.640625 178.765625 95.65625 178.605469 C 97.796875 177.757812 99.550781 175.988281 100.273438 173.613281 L 101.691406 160.332031 C 102.238281 160.097656 102.792969 159.859375 102.796875 159.859375 C 102.890625 159.824219 102.988281 159.78125 103.078125 159.730469 L 106.011719 157.542969 C 107.90625 156.089844 106.6875 154.757812 105.796875 154.984375 C 106.316406 154.6875 106.746094 154.4375 106.90625 154.324219 C 107.429688 153.953125 108.253906 153.390625 107.953125 152.417969 C 107.792969 151.910156 107.378906 151.691406 106.925781 151.628906 C 107.753906 151.046875 107.785156 150.15625 107.617188 149.8125 C 107.3125 149.1875 106.945312 149.128906 106.207031 149.21875 C 105.542969 149.300781 102.242188 149.683594 101.558594 149.765625 C 101.480469 149.773438 101.425781 149.78125 101.425781 149.78125 C 101.300781 149.789062 101.175781 149.804688 101.054688 149.839844 L 100.621094 149.972656 C 100.40625 149.824219 100.175781 149.695312 99.9375 149.589844 L 100.777344 148.996094 C 100.894531 148.988281 101.019531 148.980469 101.152344 148.972656 C 101.1875 148.96875 101.226562 148.964844 101.261719 148.964844 C 101.371094 148.957031 101.484375 148.949219 101.601562 148.9375 C 101.632812 148.9375 101.660156 148.933594 101.691406 148.933594 C 101.828125 148.921875 101.964844 148.914062 102.105469 148.902344 C 102.160156 148.898438 102.214844 148.894531 102.269531 148.890625 C 102.378906 148.882812 102.484375 148.875 102.59375 148.867188 C 102.65625 148.863281 102.71875 148.855469 102.78125 148.851562 C 102.867188 148.84375 102.953125 148.839844 103.039062 148.832031 C 103.109375 148.824219 103.175781 148.820312 103.246094 148.816406 C 103.726562 148.777344 104.175781 148.734375 104.53125 148.699219 C 106.011719 148.546875 106.464844 147.558594 106.476562 147.109375 C 106.488281 146.414062 105.953125 146.351562 105.25 146.140625 L 103.917969 145.96875 L 100.621094 145.53125 C 100.167969 145.484375 99.726562 145.558594 99.351562 145.734375 C 99.339844 145.738281 99.332031 145.746094 99.320312 145.75 C 99.234375 145.792969 99.15625 145.839844 99.078125 145.890625 L 94.5625 148.367188 C 94.421875 148.464844 94.292969 148.585938 94.183594 148.714844 C 93.851562 149.101562 93.675781 149.601562 93.695312 150.121094 L 92.378906 156.808594 L 85.496094 168.75 L 86.152344 159.113281 C 86.171875 158.746094 86.429688 158.441406 86.773438 158.347656 L 87.941406 135.6875 C 88.191406 133.121094 89.570312 130.9375 91.535156 129.570312 C 91.703125 129.371094 91.914062 129.207031 92.167969 129.101562 C 94.734375 128.035156 98.519531 126.074219 103.871094 124.507812 C 103.871094 124.507812 106.882812 123.914062 111.722656 123.429688 L 111.546875 124.921875 C 111.105469 128.945312 113.863281 132.628906 118.140625 133.089844 C 122.421875 133.554688 126.246094 130.667969 126.691406 126.644531 L 126.808594 122.835938 C 128.6875 122.882812 130.625 122.972656 132.601562 123.128906 C 136.761719 123.617188 139.644531 124.242188 142.140625 125.152344 C 143.488281 125.511719 144.761719 126.210938 145.832031 127.25 L 159.925781 142.550781 C 160.242188 142.414062 160.621094 142.480469 160.867188 142.746094 L 162.8125 145.101562 C 163.117188 145.425781 163.113281 145.929688 162.808594 146.25 Z M 268.984375 295.488281 L 268.984375 293.269531 C 268.984375 292.734375 268.90625 292.21875 268.773438 291.730469 L 257.710938 291.4375 C 257.550781 291.917969 257.445312 292.429688 257.417969 292.960938 L 257.371094 293.890625 C 256.945312 298.808594 257.03125 302.371094 257.03125 305.933594 L 277.296875 305.933594 C 277.378906 301.945312 268.984375 299.371094 268.984375 295.488281 Z M 114.621094 292.003906 C 114.460938 291.894531 114.335938 291.851562 114.210938 291.875 C 113.503906 292.003906 112.785156 291.996094 112.160156 291.648438 C 109.679688 290.285156 103.855469 289.800781 102.609375 292.699219 C 101.582031 295.085938 100.460938 296.746094 98.921875 299.160156 C 97.515625 301.363281 97.042969 303.160156 97.050781 304.628906 C 97.054688 305.355469 97.65625 305.933594 98.382812 305.933594 L 116.148438 305.933594 C 116.875 305.933594 117.480469 305.355469 117.480469 304.628906 C 117.488281 300.605469 115.917969 296.804688 115.339844 294.289062 C 115.09375 293.214844 115.042969 292.289062 114.621094 292.003906 Z M 153.210938 298.921875 C 149.007812 297.046875 146.214844 295.128906 144.96875 292.496094 C 143.660156 289.726562 138.953125 290.1875 138.007812 292.257812 C 136.347656 291.1875 135.542969 292.898438 133.554688 292.898438 C 131.566406 292.898438 131.503906 291.46875 130.433594 291.773438 C 128.800781 292.238281 128.75 298.980469 128.75 304.707031 C 128.75 305.460938 129.359375 306.066406 130.113281 306.066406 L 155.582031 306.066406 C 156.394531 306.066406 157.03125 305.359375 156.9375 304.550781 C 156.738281 302.847656 155.972656 300.152344 153.210938 298.921875 Z M 218.183594 289.855469 C 217.625 290.582031 217.15625 291.441406 216.835938 292.449219 C 216.835938 292.449219 216.324219 293.808594 215.371094 295.488281 C 214.066406 298.136719 209.011719 300.199219 206.253906 301.53125 C 202.847656 303.175781 203.441406 305.933594 203.441406 305.933594 L 228.15625 305.933594 C 229.074219 300.828125 227.996094 298.871094 228.636719 293.042969 C 228.859375 292.132812 228.894531 291.324219 228.785156 290.609375 Z M 283.34375 187.269531 C 283.355469 187.273438 283.367188 187.277344 283.378906 187.285156 C 283.542969 187.160156 283.535156 187.167969 283.683594 187.054688 C 283.679688 187.054688 283.675781 187.050781 283.675781 187.050781 C 283.5625 187.125 283.457031 187.195312 283.34375 187.269531 Z M 304 164.273438 C 303.714844 163.964844 303.402344 163.699219 303.066406 163.472656 L 302.632812 163.183594 L 281.539062 148.351562 C 281.050781 147.742188 280.351562 147.242188 279.574219 146.945312 C 276.472656 145.769531 273.6875 144.839844 270.828125 144.230469 L 269.804688 137.9375 C 269.972656 140.449219 266.851562 142.871094 264.328125 143.449219 C 263.550781 143.425781 262.753906 143.421875 261.925781 143.445312 C 260.003906 143.042969 259.226562 141.699219 258.917969 139.769531 C 258.902344 139.765625 258.886719 139.761719 258.871094 139.757812 L 259.179688 143.605469 C 256.53125 143.835938 253.597656 144.289062 250.21875 145 C 250.027344 145.039062 249.84375 145.089844 249.667969 145.148438 C 246.945312 145.859375 244.898438 148.292969 244.820312 151.25 C 244.757812 153.5 244.839844 173.882812 244.929688 178.300781 C 244.929688 178.300781 243.320312 194.121094 242.554688 202.003906 C 244.695312 194.769531 247.632812 186.300781 252.367188 180.375 C 252.023438 179.71875 251.027344 177.660156 250.253906 174.394531 C 252.542969 181.195312 256.210938 186.445312 262.175781 186.445312 C 272.472656 186.445312 276.613281 174.601562 279.523438 162.394531 L 290.703125 169.566406 L 282.660156 179.5 C 284.046875 180.050781 285.585938 181.117188 286.335938 182.015625 C 287.214844 183.070312 288.632812 184.878906 288.277344 186.386719 L 303.734375 172.074219 C 305.964844 169.996094 306.082031 166.5 304 164.273438 Z M 304 164.273438 " fill-opacity="1" fill-rule="evenodd"/></g><path fill="#293237" d="M 282.59375 119.175781 C 280.636719 122.417969 276.558594 123.59375 273.210938 122 C 273.472656 123.746094 273.308594 125.558594 272.707031 127.269531 C 272.425781 126.144531 271.6875 125.285156 270.695312 125.097656 C 269.1875 124.8125 268.816406 126.230469 268.628906 127.210938 L 268.359375 128.648438 C 267.644531 127.871094 267.203125 126.863281 266.953125 125.898438 C 266.949219 125.886719 266.949219 125.871094 266.945312 125.859375 C 266.824219 125.394531 266.75 124.941406 266.710938 124.53125 C 266.707031 124.492188 266.707031 124.457031 266.703125 124.421875 C 266.6875 124.265625 266.679688 124.117188 266.675781 123.976562 C 266.675781 123.929688 266.675781 123.886719 266.675781 123.84375 C 266.671875 123.679688 266.675781 123.523438 266.6875 123.390625 C 266.449219 123.390625 266.203125 123.386719 265.949219 123.382812 C 265.925781 123.382812 265.90625 123.382812 265.882812 123.382812 C 265.640625 123.378906 265.382812 123.371094 265.125 123.363281 C 265.09375 123.363281 265.058594 123.363281 265.027344 123.359375 C 264.769531 123.351562 264.507812 123.339844 264.242188 123.324219 C 264.203125 123.324219 264.164062 123.320312 264.128906 123.320312 C 263.859375 123.304688 263.589844 123.285156 263.316406 123.261719 C 263.277344 123.257812 263.238281 123.253906 263.203125 123.25 C 262.925781 123.226562 262.644531 123.199219 262.363281 123.164062 C 262.328125 123.160156 262.292969 123.15625 262.261719 123.152344 C 261.972656 123.117188 261.683594 123.074219 261.394531 123.027344 C 261.371094 123.023438 261.347656 123.019531 261.324219 123.015625 C 261.023438 122.964844 260.722656 122.910156 260.425781 122.847656 C 260.417969 122.84375 260.410156 122.84375 260.402344 122.84375 C 259.789062 122.710938 259.183594 122.546875 258.601562 122.34375 C 258.585938 122.335938 258.574219 122.332031 258.558594 122.328125 C 258.28125 122.230469 258.007812 122.121094 257.742188 122.003906 C 257.71875 121.996094 257.691406 121.984375 257.671875 121.976562 C 257.410156 121.859375 257.15625 121.730469 256.910156 121.597656 C 256.886719 121.582031 256.859375 121.566406 256.832031 121.550781 C 256.589844 121.414062 256.355469 121.269531 256.132812 121.109375 C 256.109375 121.09375 256.082031 121.074219 256.058594 121.054688 C 255.835938 120.894531 255.621094 120.722656 255.417969 120.539062 C 255.398438 120.519531 255.378906 120.503906 255.359375 120.484375 C 255.15625 120.296875 254.960938 120.09375 254.785156 119.878906 C 254.773438 119.867188 254.761719 119.851562 254.753906 119.839844 C 254.375 119.378906 254.058594 118.863281 253.816406 118.277344 C 253.683594 117.949219 253.566406 117.601562 253.480469 117.226562 C 256.917969 112.441406 263.496094 111.265625 268.378906 114.464844 L 270.089844 111.632812 C 272.171875 108.179688 276.660156 107.066406 280.113281 109.148438 C 283.566406 111.234375 284.675781 115.71875 282.59375 119.175781 Z M 99.34375 154.265625 C 99.367188 154.265625 99.390625 154.261719 99.410156 154.257812 L 102.167969 153.597656 L 105.921875 152.117188 C 106.070312 152.054688 106.144531 151.886719 106.085938 151.742188 C 106.023438 151.59375 105.855469 151.515625 105.710938 151.578125 L 101.996094 153.046875 L 99.277344 153.695312 C 99.121094 153.730469 99.027344 153.886719 99.0625 154.042969 C 99.09375 154.175781 99.214844 154.265625 99.34375 154.265625 Z M 86.769531 157.988281 L 91.671875 158.035156 L 91.339844 158.613281 L 86.761719 158.566406 C 86.601562 158.5625 86.472656 158.433594 86.476562 158.273438 C 86.476562 158.113281 86.609375 157.988281 86.765625 157.988281 C 86.765625 157.988281 86.765625 157.988281 86.769531 157.988281 Z M 98.847656 157.140625 L 101.566406 156.492188 L 105.277344 155.023438 C 105.425781 154.960938 105.597656 155.035156 105.652344 155.183594 C 105.710938 155.335938 105.640625 155.503906 105.492188 155.558594 L 101.738281 157.042969 L 98.980469 157.703125 C 98.957031 157.707031 98.9375 157.710938 98.914062 157.710938 C 98.78125 157.710938 98.664062 157.621094 98.632812 157.488281 C 98.59375 157.332031 98.691406 157.175781 98.847656 157.140625 Z M 274.804688 159.371094 C 274.890625 159.234375 275.074219 159.199219 275.203125 159.285156 L 279.578125 162.089844 C 279.714844 162.175781 279.753906 162.355469 279.667969 162.488281 C 279.613281 162.574219 279.519531 162.621094 279.421875 162.621094 C 279.371094 162.621094 279.316406 162.605469 279.265625 162.574219 L 274.890625 159.769531 C 274.757812 159.683594 274.71875 159.507812 274.804688 159.371094 Z M 93.652344 138.832031 L 94.519531 148.398438 C 94.304688 148.558594 94.128906 148.757812 93.992188 148.980469 L 93.078125 138.886719 C 93.0625 138.726562 93.179688 138.585938 93.339844 138.570312 C 93.480469 138.558594 93.640625 138.675781 93.652344 138.832031 Z M 98.335938 136.792969 C 98.265625 136.28125 98.621094 135.863281 99.132812 135.859375 L 123.140625 135.570312 C 123.652344 135.566406 124.121094 135.972656 124.191406 136.484375 L 128.605469 168.039062 C 128.675781 168.546875 128.320312 168.96875 127.808594 168.972656 L 103.804688 169.257812 C 103.292969 169.265625 102.820312 168.855469 102.75 168.347656 L 101.664062 160.585938 L 101.691406 160.332031 C 102.238281 160.097656 102.792969 159.859375 102.796875 159.859375 C 102.890625 159.824219 102.988281 159.78125 103.078125 159.730469 L 106.011719 157.542969 C 107.90625 156.089844 106.6875 154.757812 105.796875 154.984375 C 106.316406 154.6875 106.746094 154.4375 106.90625 154.324219 C 107.429688 153.953125 108.253906 153.390625 107.953125 152.417969 C 107.792969 151.910156 107.378906 151.691406 106.925781 151.628906 C 107.753906 151.046875 107.785156 150.152344 107.617188 149.8125 C 107.3125 149.1875 106.945312 149.128906 106.207031 149.21875 C 105.464844 149.308594 101.4375 149.777344 101.425781 149.78125 C 101.300781 149.789062 101.175781 149.804688 101.054688 149.839844 L 100.621094 149.972656 C 100.46875 149.863281 100.304688 149.773438 100.140625 149.691406 L 100.109375 149.46875 L 100.777344 148.996094 C 101.820312 148.925781 103.542969 148.800781 104.53125 148.699219 C 106.011719 148.546875 106.464844 147.558594 106.476562 147.109375 C 106.488281 146.414062 105.953125 146.347656 105.25 146.140625 L 100.621094 145.53125 C 100.253906 145.492188 99.894531 145.535156 99.574219 145.644531 Z M 113.6875 104.335938 C 115.183594 104.421875 114.953125 110.085938 114.953125 110.085938 C 114.914062 110.746094 114.359375 111.214844 113.746094 111.210938 C 115.144531 114.460938 117.0625 116.984375 118.789062 118.554688 C 119.246094 119 119.753906 119.398438 120.308594 119.730469 C 120.488281 119.839844 120.675781 119.941406 120.863281 120.035156 C 121.4375 120.324219 122.046875 120.542969 122.683594 120.691406 C 122.898438 120.742188 123.117188 120.785156 123.335938 120.816406 C 123.554688 120.847656 123.777344 120.875 124.003906 120.886719 C 124.289062 120.90625 124.570312 120.910156 124.851562 120.902344 C 125.6875 120.875 126.5 120.71875 127.261719 120.457031 C 128.53125 120.015625 129.667969 119.273438 130.578125 118.3125 C 130.941406 117.925781 131.269531 117.503906 131.554688 117.054688 C 132.269531 115.925781 132.722656 114.609375 132.816406 113.183594 L 133.171875 107.9375 C 132.308594 110.882812 130.785156 111.683594 126.871094 111.683594 C 121.195312 111.683594 117.753906 110.59375 116.703125 104.839844 C 118.960938 103.1875 116.925781 100.003906 118.929688 97.292969 C 120.859375 97.933594 124.445312 97.945312 126.589844 97.726562 C 129.347656 97.445312 130.738281 97.175781 131.847656 96.453125 C 132.433594 97.332031 132.898438 98.308594 133.191406 99.382812 C 133.398438 100.136719 133.503906 100.917969 133.53125 101.683594 C 133.535156 101.640625 133.542969 101.59375 133.546875 101.550781 C 134.015625 95.046875 128.667969 90.746094 122.648438 90.746094 C 116.628906 90.746094 111.75 95.121094 111.75 101.550781 C 111.75 102.734375 111.84375 103.871094 111.996094 104.96875 C 112.480469 104.539062 113.066406 104.300781 113.6875 104.335938 Z M 126.488281 113.492188 C 128.242188 113.492188 130.414062 112.777344 130.414062 114.414062 C 130.414062 115.128906 130.085938 115.78125 129.539062 116.292969 C 128.660156 117.113281 127.15625 116.488281 127.144531 115.289062 L 127.144531 115.265625 C 127.144531 115.261719 127.144531 115.257812 127.144531 115.25 C 127.144531 115.25 125.832031 115.261719 125.832031 115.265625 C 125.832031 115.273438 125.832031 115.28125 125.832031 115.289062 C 125.820312 116.488281 124.316406 117.113281 123.4375 116.292969 C 122.890625 115.78125 122.5625 115.128906 122.5625 114.414062 C 122.5625 112.777344 124.734375 113.492188 126.488281 113.492188 Z M 189.386719 129.125 L 188.933594 129.128906 C 188.753906 129.128906 188.582031 129.128906 188.414062 129.128906 C 186.789062 129.128906 185.550781 129.0625 183.328125 128.324219 C 183.179688 128.273438 183.097656 128.109375 183.148438 127.957031 C 183.199219 127.804688 183.363281 127.722656 183.511719 127.773438 C 185.871094 128.5625 187.019531 128.554688 188.929688 128.550781 L 189.386719 128.546875 C 189.546875 128.546875 189.675781 128.675781 189.675781 128.835938 C 189.675781 128.996094 189.546875 129.125 189.386719 129.125 Z M 182.074219 137.925781 C 182.074219 138.085938 181.945312 138.214844 181.785156 138.214844 L 178.148438 138.214844 C 177.988281 138.214844 177.859375 138.085938 177.859375 137.925781 C 177.859375 137.765625 177.988281 137.636719 178.148438 137.636719 L 181.785156 137.636719 C 181.945312 137.636719 182.074219 137.765625 182.074219 137.925781 Z M 198.660156 130.792969 C 198.644531 130.945312 198.519531 131.058594 198.371094 131.058594 C 198.363281 131.058594 198.351562 131.054688 198.34375 131.054688 C 195.746094 130.8125 190.992188 130.542969 189.746094 130.476562 C 189.773438 130.871094 189.796875 131.363281 189.808594 131.886719 L 197.273438 132.351562 C 197.429688 132.359375 197.550781 132.496094 197.542969 132.65625 C 197.53125 132.808594 197.40625 132.929688 197.253906 132.929688 C 197.246094 132.929688 197.242188 132.929688 197.234375 132.925781 L 189.8125 132.464844 C 189.8125 132.855469 189.796875 133.25 189.769531 133.621094 C 190.871094 133.742188 193.574219 133.570312 195.4375 133.261719 C 195.589844 133.230469 195.742188 133.339844 195.769531 133.496094 C 195.792969 133.65625 195.6875 133.804688 195.53125 133.832031 C 194.03125 134.082031 192.054688 134.238281 190.699219 134.238281 C 190.304688 134.238281 189.96875 134.222656 189.707031 134.195312 C 189.671875 134.453125 189.625 134.6875 189.5625 134.890625 C 189.523438 135.011719 189.410156 135.09375 189.285156 135.09375 C 189.257812 135.09375 189.226562 135.089844 189.199219 135.082031 C 189.046875 135.035156 188.960938 134.871094 189.007812 134.71875 C 189.453125 133.261719 189.101562 129.648438 189.097656 129.613281 C 189.082031 129.453125 189.199219 129.3125 189.355469 129.296875 C 189.507812 129.273438 189.65625 129.394531 189.671875 129.554688 C 189.675781 129.582031 189.6875 129.707031 189.703125 129.894531 C 190.824219 129.953125 195.734375 130.226562 198.398438 130.480469 C 198.554688 130.496094 198.671875 130.636719 198.660156 130.792969 Z M 286.914062 203.484375 C 286.914062 209.128906 282.003906 261.085938 279.777344 284.332031 C 279.769531 284.328125 278.371094 291.984375 278.359375 291.984375 L 254.03125 291.339844 L 259.273438 239.296875 C 259.273438 239.296875 259.277344 239.296875 259.277344 239.296875 C 259.28125 239.296875 259.285156 239.296875 259.289062 239.296875 C 259.445312 239.296875 259.574219 239.175781 259.578125 239.019531 L 260.824219 198.898438 C 260.824219 198.828125 260.800781 198.757812 260.753906 198.703125 L 256.28125 193.488281 C 256.179688 193.367188 255.996094 193.351562 255.875 193.453125 C 255.753906 193.558594 255.738281 193.742188 255.84375 193.863281 L 260.242188 198.992188 L 259 239 C 258.996094 239.132812 259.082031 239.242188 259.203125 239.28125 L 244.851562 284.34375 C 244.824219 284.332031 242.003906 291.554688 241.972656 291.554688 L 214.847656 289.617188 C 221.230469 267.757812 238.78125 215.277344 241.566406 205.4375 C 243.78125 197.609375 246.859375 187.269531 252.363281 180.375 C 252 179.683594 250.90625 177.410156 250.113281 173.792969 C 249.25 169.835938 248.617188 163.46875 250.519531 155.632812 C 250.558594 155.476562 250.710938 155.386719 250.867188 155.417969 C 251.023438 155.457031 251.121094 155.613281 251.082031 155.769531 C 249.207031 163.488281 249.824219 169.75 250.671875 173.644531 C 251.59375 177.863281 252.976562 180.289062 252.988281 180.316406 C 253.023438 180.375 253.03125 180.445312 253.019531 180.507812 C 254.871094 183.515625 257.25 185.644531 260.320312 186.261719 C 260.046875 184.828125 259.777344 183.472656 259.519531 182.175781 C 257.996094 174.535156 256.894531 169.015625 258.234375 160.789062 C 259.242188 154.613281 261.816406 150.386719 262.21875 149.753906 L 261.949219 143.589844 C 261.941406 143.429688 262.066406 143.296875 262.226562 143.289062 C 262.386719 143.285156 262.523438 143.40625 262.527344 143.566406 L 262.800781 149.824219 C 262.804688 149.882812 262.785156 149.945312 262.753906 149.996094 C 262.722656 150.039062 259.875 154.339844 258.804688 160.882812 C 257.480469 169.007812 258.574219 174.484375 260.085938 182.0625 C 260.351562 183.386719 260.628906 184.773438 260.902344 186.242188 C 260.910156 186.28125 260.910156 186.320312 260.902344 186.359375 C 261.316406 186.414062 261.738281 186.449219 262.175781 186.449219 C 268.621094 186.449219 272.652344 181.808594 275.480469 175.34375 C 277.277344 176.363281 278.882812 177.679688 280.238281 179.21875 C 279.21875 179.429688 278.671875 179.960938 278.671875 179.960938 C 277.726562 180.644531 276.113281 181.933594 275.78125 182.164062 C 274.171875 183.285156 275.515625 184.84375 276.914062 184.078125 C 277.914062 183.53125 278.535156 183.398438 279.886719 182.734375 C 279.832031 182.621094 279.847656 182.480469 279.949219 182.390625 L 280.929688 181.503906 C 281.046875 181.398438 281.230469 181.40625 281.335938 181.527344 C 281.445312 181.644531 281.433594 181.828125 281.316406 181.933594 L 280.335938 182.820312 C 280.28125 182.871094 280.210938 182.894531 280.140625 182.894531 C 280.070312 182.894531 280 182.867188 279.941406 182.8125 C 278.699219 184.113281 279.011719 184.132812 277.675781 185.453125 C 276.191406 186.925781 277.757812 188.632812 279.078125 187.570312 C 279.117188 187.539062 279.160156 187.503906 279.199219 187.472656 C 279.109375 187.355469 279.113281 187.1875 279.222656 187.085938 L 283.011719 183.492188 C 283.128906 183.382812 283.3125 183.386719 283.421875 183.503906 C 283.53125 183.617188 283.527344 183.800781 283.410156 183.914062 L 279.621094 187.503906 C 279.566406 187.558594 279.496094 187.585938 279.421875 187.585938 C 279.378906 187.585938 279.332031 187.570312 279.292969 187.550781 C 278.867188 188.597656 279.953125 189.5625 280.984375 188.847656 C 281.320312 188.613281 281.738281 188.332031 282.199219 188.027344 C 282.152344 187.910156 282.183594 187.773438 282.289062 187.695312 L 285.03125 185.617188 C 285.15625 185.519531 285.339844 185.542969 285.4375 185.671875 C 285.53125 185.800781 285.507812 185.980469 285.378906 186.078125 L 282.636719 188.15625 C 282.585938 188.195312 282.523438 188.214844 282.464844 188.214844 C 282.453125 188.214844 282.445312 188.210938 282.4375 188.207031 C 282.0625 189.074219 282.953125 189.96875 283.851562 189.429688 C 284.113281 189.273438 284.644531 189.03125 285.234375 188.75 C 286.660156 193.5 286.914062 198.429688 286.914062 203.484375 Z M 159.839844 142.972656 C 159.941406 143.09375 159.925781 143.277344 159.804688 143.378906 L 148.3125 152.921875 C 148.257812 152.96875 148.195312 152.988281 148.128906 152.988281 C 148.046875 152.988281 147.964844 152.953125 147.90625 152.886719 C 147.804688 152.761719 147.820312 152.578125 147.945312 152.476562 L 159.433594 142.933594 C 159.554688 142.832031 159.738281 142.847656 159.839844 142.972656 Z M 141.757812 236.519531 L 142.800781 289.164062 L 129.183594 289.164062 C 126.542969 280.394531 120.40625 255.519531 123.402344 239.984375 L 118.054688 201.386719 L 118.132812 194.320312 L 122.851562 193.0625 C 123.003906 193.019531 123.097656 192.859375 123.054688 192.707031 C 123.015625 192.554688 122.859375 192.460938 122.703125 192.503906 L 117.769531 193.816406 C 117.644531 193.851562 117.558594 193.964844 117.554688 194.09375 L 117.425781 205.921875 C 117.421875 206.082031 117.550781 206.214844 117.710938 206.214844 L 115.949219 289.164062 L 101.804688 289.164062 C 100.789062 283.125 98.875 271.535156 97.957031 264.65625 C 96.675781 255.042969 98.574219 237.664062 98.574219 237.664062 L 96.730469 202.914062 C 96.421875 196.539062 96.5 189.019531 96.960938 182.160156 C 97.269531 182.390625 97.625 182.570312 98.011719 182.683594 C 110.863281 186.460938 123.980469 188.101562 137.363281 187.609375 C 137.476562 187.605469 137.578125 187.59375 137.679688 187.578125 Z M 97.773438 164.105469 C 96.636719 163.875 95.546875 163.199219 95.128906 162.457031 C 95.050781 162.320312 95.097656 162.140625 95.238281 162.0625 C 95.375 161.984375 95.550781 162.03125 95.632812 162.171875 C 95.921875 162.683594 96.789062 163.316406 97.886719 163.539062 C 98.59375 163.679688 99.632812 163.695312 100.585938 162.960938 C 100.714844 162.863281 100.894531 162.886719 100.992188 163.015625 C 101.089844 163.140625 101.066406 163.320312 100.9375 163.417969 C 100.167969 164.015625 99.351562 164.195312 98.648438 164.195312 C 98.328125 164.195312 98.03125 164.15625 97.773438 164.105469 Z M 143.984375 137.621094 L 142.890625 147.824219 C 142.875 147.972656 142.746094 148.082031 142.601562 148.082031 C 142.589844 148.082031 142.582031 148.082031 142.570312 148.078125 C 142.410156 148.0625 142.296875 147.917969 142.3125 147.761719 L 143.410156 137.558594 C 143.425781 137.402344 143.570312 137.289062 143.730469 137.304688 C 143.886719 137.320312 144.003906 137.464844 143.984375 137.621094 Z M 143.984375 137.621094 " fill-opacity="1" fill-rule="evenodd"/></svg>