<svg xmlns="http://www.w3.org/2000/svg" xmlns:xlink="http://www.w3.org/1999/xlink" width="500" zoomAndPan="magnify" viewBox="0 0 375 374.999991" height="500" preserveAspectRatio="xMidYMid meet" version="1.0"><defs><clipPath id="0051b3a503"><path d="M 47 49 L 296 49 L 296 303 L 47 303 Z M 47 49 " clip-rule="nonzero"/></clipPath><clipPath id="3e262239a1"><path d="M 323.667969 37.503906 L 335.890625 299.71875 L 51.199219 312.988281 L 38.976562 50.773438 Z M 323.667969 37.503906 " clip-rule="nonzero"/></clipPath><clipPath id="4de04b3202"><path d="M 323.667969 37.503906 L 335.890625 299.71875 L 51.199219 312.988281 L 38.976562 50.773438 Z M 323.667969 37.503906 " clip-rule="nonzero"/></clipPath><clipPath id="5b4fa57005"><path d="M 47 47 L 324 47 L 324 296 L 47 296 Z M 47 47 " clip-rule="nonzero"/></clipPath><clipPath id="3da2545cd9"><path d="M 323.667969 37.503906 L 335.890625 299.71875 L 51.199219 312.988281 L 38.976562 50.773438 Z M 323.667969 37.503906 " clip-rule="nonzero"/></clipPath><clipPath id="0233f2d96b"><path d="M 323.667969 37.503906 L 335.890625 299.71875 L 51.199219 312.988281 L 38.976562 50.773438 Z M 323.667969 37.503906 " clip-rule="nonzero"/></clipPath><clipPath id="7ad1df3be5"><path d="M 80 137 L 187 137 L 187 266.386719 L 80 266.386719 Z M 80 137 " clip-rule="nonzero"/></clipPath><clipPath id="25f0089c23"><path d="M 95 132 L 264 132 L 264 266.386719 L 95 266.386719 Z M 95 132 " clip-rule="nonzero"/></clipPath><clipPath id="6472354855"><path d="M 82 92.386719 L 259 92.386719 L 259 265 L 82 265 Z M 82 92.386719 " clip-rule="nonzero"/></clipPath></defs><g clip-path="url(#0051b3a503)"><g clip-path="url(#3e262239a1)"><g clip-path="url(#4de04b3202)"><path fill="#fbf6f3" d="M 163.765625 49.308594 C 145.371094 49.824219 127.621094 56.765625 111.914062 66.351562 C 93.742188 77.441406 77.699219 92.308594 66.476562 110.394531 C 49.945312 137.035156 44.574219 169.929688 49.503906 200.894531 C 54.730469 233.707031 71.714844 264.992188 98.082031 285.222656 C 117.625 300.214844 145.582031 308.585938 166.808594 296.082031 C 174.980469 291.269531 181.332031 283.839844 189.367188 278.796875 C 204.898438 269.046875 224.394531 269.378906 242.660156 267.769531 C 260.925781 266.15625 281.179688 260.78125 290.253906 244.847656 C 297.5 232.128906 295.464844 216.449219 294.761719 201.824219 C 293.691406 179.410156 296.246094 156.558594 290.898438 134.761719 C 279.671875 89.03125 208.460938 48.050781 163.765625 49.308594 " fill-opacity="1" fill-rule="nonzero"/></g></g></g><g clip-path="url(#5b4fa57005)"><g clip-path="url(#3da2545cd9)"><g clip-path="url(#0233f2d96b)"><path fill="#f1a8db" d="M 47.605469 172.339844 C 47.320312 166.242188 47.265625 159.90625 47.4375 153.3125 C 48.304688 120.441406 55.117188 97.09375 68.882812 79.828125 C 85.132812 59.449219 112.976562 47.320312 143.371094 47.386719 C 167.5 47.4375 193.671875 54.628906 223.386719 69.363281 C 232.027344 73.648438 240.734375 79.007812 249.152344 84.1875 C 263.796875 93.199219 278.9375 102.515625 294.824219 106.992188 C 317.269531 113.320312 327.9375 130.21875 322.664062 151.09375 C 317.867188 170.09375 301.761719 183.910156 290.0625 192.652344 C 286.695312 195.167969 283.199219 197.644531 279.816406 200.039062 C 268.886719 207.785156 257.585938 215.792969 249.046875 226.234375 C 243.121094 233.480469 238.417969 242.023438 233.867188 250.285156 C 226.4375 263.777344 218.75 277.726562 205.628906 286.082031 C 191.066406 295.359375 172.703125 295.554688 160.160156 294.894531 C 134.910156 293.566406 113.902344 287.5 97.71875 276.867188 C 79.582031 264.953125 65.003906 245.429688 56.664062 221.902344 C 51.464844 207.234375 48.46875 190.894531 47.605469 172.339844 Z M 322.425781 139.210938 C 321.640625 122.390625 308.359375 112.425781 294.402344 108.492188 C 278.308594 103.957031 263.074219 94.578125 248.339844 85.511719 C 239.949219 80.351562 231.273438 75.007812 222.695312 70.757812 C 193.199219 56.128906 167.25 48.992188 143.367188 48.941406 C 113.445312 48.878906 86.054688 60.785156 70.097656 80.796875 C 56.554688 97.785156 49.851562 120.839844 48.996094 153.351562 C 48.292969 179.824219 51.289062 202.074219 58.128906 221.382812 C 66.355469 244.59375 80.71875 263.835938 98.574219 275.570312 C 114.523438 286.050781 135.269531 292.027344 160.242188 293.34375 C 172.574219 293.992188 190.605469 293.808594 204.792969 284.769531 C 217.582031 276.628906 224.828125 263.46875 232.503906 249.535156 C 237.089844 241.210938 241.828125 232.605469 247.84375 225.25 C 256.511719 214.644531 267.902344 206.574219 278.917969 198.773438 C 282.292969 196.378906 285.78125 193.910156 289.132812 191.40625 C 300.636719 182.808594 316.476562 169.234375 321.15625 150.710938 C 322.203125 146.570312 322.589844 142.738281 322.425781 139.210938 " fill-opacity="1" fill-rule="nonzero"/></g></g></g><g clip-path="url(#7ad1df3be5)"><path fill="#f56dcd" d="M 128.960938 175.976562 C 119.980469 174.988281 119.980469 174.988281 119.980469 174.988281 L 122.167969 179.375 L 110.234375 179.6875 L 95.253906 211.355469 C 95.253906 211.355469 81.324219 206.570312 80.339844 196.042969 C 79.351562 185.511719 87.894531 168.410156 87.894531 168.410156 C 87.894531 168.410156 85.816406 157.332031 84.828125 151.191406 C 83.84375 145.050781 88.113281 138.363281 94.027344 138.140625 C 99.941406 137.921875 99.941406 137.921875 99.941406 137.921875 L 111.328125 159.746094 L 112.644531 158.976562 L 112.863281 139.019531 C 112.863281 139.019531 121.84375 138.800781 126.113281 145.707031 C 130.378906 152.617188 133.011719 156.671875 135.417969 162.046875 C 137.832031 167.421875 137.941406 176.960938 128.960938 175.976562 Z M 146.546875 240.863281 C 146.546875 240.863281 142.542969 239.796875 140.542969 242.46875 L 135.339844 237.523438 C 135.339844 237.523438 132.9375 240.996094 136.007812 244.867188 C 139.074219 248.742188 145.210938 254.222656 146.8125 255.957031 C 148.414062 257.695312 150.015625 257.027344 149.480469 253.820312 C 148.949219 250.613281 146.546875 240.863281 146.546875 240.863281 Z M 184.832031 262.234375 C 182.296875 261.035156 171.359375 255.554688 171.359375 255.554688 C 171.359375 255.554688 169.359375 256.753906 169.492188 259.425781 L 159.890625 259.425781 C 159.890625 259.425781 160.289062 266.109375 164.6875 266.109375 C 169.089844 266.109375 182.429688 266.109375 184.832031 266.109375 C 187.230469 266.113281 187.367188 263.441406 184.832031 262.234375 Z M 184.832031 262.234375 " fill-opacity="1" fill-rule="nonzero"/></g><path fill="#fdd6f1" d="M 101.75 210.894531 C 115.03125 210.894531 137.796875 210.894531 137.796875 210.894531 L 136.589844 215.386719 C 136.589844 215.386719 134.347656 219.878906 126.585938 219.878906 C 118.824219 219.878906 97.78125 219.878906 90.707031 219.878906 C 83.632812 219.878906 81.566406 214.699219 79.152344 209.6875 C 76.738281 204.679688 72.078125 180.667969 71.21875 175.835938 C 70.355469 171 73.976562 168.925781 77.425781 168.925781 C 80.875 168.925781 87.894531 168.925781 87.894531 168.925781 C 87.894531 168.925781 82.941406 180.667969 80.875 190.171875 C 78.804688 199.667969 88.46875 210.894531 101.75 210.894531 Z M 260.921875 168.226562 C 260.921875 168.226562 257.128906 183.773438 254.710938 192.753906 C 252.296875 201.734375 243.320312 208.125 236.074219 208.125 C 228.832031 208.125 226.25 207.953125 226.25 207.953125 L 224.074219 219.992188 C 224.074219 219.992188 234.171875 219.992188 244.867188 219.992188 C 255.5625 219.992188 261.09375 211.234375 263.507812 200.527344 C 265.921875 189.816406 267.300781 180.488281 267.820312 174.964844 C 268.335938 169.441406 263.507812 168.226562 260.921875 168.226562 Z M 260.921875 168.226562 " fill-opacity="1" fill-rule="nonzero"/><g clip-path="url(#25f0089c23)"><path fill="#ffffff" d="M 156.183594 205.828125 L 165.65625 243.226562 L 150.351562 243.226562 L 146.347656 235.378906 L 147.164062 230.484375 L 134.695312 226.320312 L 137.792969 210.894531 C 137.792969 210.894531 107.132812 210.894531 101.746094 210.894531 C 96.355469 210.894531 95.683594 209.941406 95.683594 209.941406 L 110.234375 179.683594 L 122.167969 179.371094 C 122.167969 179.371094 133.230469 179.371094 143.609375 179.371094 C 153.996094 179.371094 161.097656 186.492188 158.730469 195.609375 C 156.363281 204.734375 156.183594 205.828125 156.183594 205.828125 Z M 254.609375 134.394531 C 249.570312 133.070312 242.136719 132.589844 242.136719 132.589844 C 242.136719 132.589844 236.019531 136.914062 230.980469 134.394531 C 230.980469 134.394531 222.824219 135.835938 220.664062 140.394531 C 218.503906 144.960938 212.03125 159.253906 212.03125 159.253906 L 195.242188 139.675781 L 186.484375 147.484375 C 186.484375 147.484375 201.355469 166.703125 205.195312 171.75 C 209.03125 176.792969 217.910156 175.953125 217.910156 175.953125 L 217.066406 180.996094 L 219.230469 191.085938 C 219.230469 191.085938 238.78125 188.5625 245.976562 187.84375 C 253.175781 187.121094 256.894531 183.757812 258.09375 179.675781 C 259.292969 175.589844 263.609375 157.933594 263.972656 149.164062 C 264.324219 140.402344 259.644531 135.714844 254.609375 134.394531 Z M 198.878906 260.972656 C 198.878906 260.972656 196.488281 261.304688 196.488281 263.214844 C 196.488281 265.125 197.152344 266.371094 198.808594 266.371094 C 200.46875 266.371094 217.378906 266.371094 220 266.371094 C 222.625 266.371094 221.621094 261.003906 221.621094 261.003906 Z M 198.878906 260.972656 " fill-opacity="1" fill-rule="nonzero"/></g><path fill="#a36357" d="M 119.554688 119.417969 C 120.269531 123.433594 119.554688 130.605469 116.6875 132.898438 C 113.824219 135.191406 111.460938 135.40625 111.460938 135.40625 L 111.5625 136.714844 L 109.578125 139.757812 L 108.386719 144.0625 L 107.527344 140.160156 L 102.582031 136.84375 C 102.582031 136.84375 102.296875 134.550781 100.578125 133.972656 C 98.859375 133.398438 93.449219 125.039062 94.734375 119.449219 C 96.023438 113.855469 100.292969 107.734375 108.808594 109.097656 C 117.332031 110.457031 118.835938 115.40625 119.554688 119.417969 Z M 120.21875 157.167969 L 125.058594 161.957031 L 122.832031 156.667969 C 122.832031 156.667969 121.605469 156.332031 120.21875 157.167969 Z M 103.195312 159.558594 C 100.140625 160.117188 98.488281 160.929688 97.820312 161.65625 C 97.152344 162.378906 95.914062 166.300781 95.859375 167.640625 C 95.800781 168.976562 95.636719 171.871094 97.082031 171.871094 C 98.527344 171.871094 102.363281 169.585938 103.808594 168.695312 C 105.253906 167.804688 105.863281 163.570312 105.863281 163.570312 L 109.648438 161.007812 C 109.652344 161.011719 106.257812 159.003906 103.195312 159.558594 Z M 168.820312 253.25 C 168.179688 251.527344 165.65625 243.226562 165.65625 243.226562 L 155.210938 243.128906 C 155.210938 243.128906 158.570312 251.382812 159.214844 254.257812 C 159.855469 257.128906 159.886719 259.433594 159.886719 259.433594 C 159.886719 259.433594 166.957031 259.433594 169.488281 259.433594 C 169.726562 257.433594 171.355469 255.5625 171.355469 255.5625 C 171.355469 255.5625 169.46875 254.96875 168.820312 253.25 Z M 147.167969 230.484375 L 137.640625 227.332031 C 137.640625 227.332031 137.351562 229.417969 136.777344 232.429688 C 136.203125 235.445312 135.34375 237.527344 135.34375 237.527344 L 140.546875 242.472656 C 143.238281 240.019531 146.550781 240.867188 146.550781 240.867188 C 146.550781 240.867188 146.101562 237.746094 146.351562 235.382812 C 146.597656 233.019531 147.167969 230.484375 147.167969 230.484375 Z M 205.796875 240.777344 L 202.308594 241.5625 C 202.308594 241.5625 203.527344 244.410156 204.261719 247.746094 C 204.992188 251.082031 204.339844 253.683594 203.933594 254.824219 L 204.667969 255.234375 C 204.667969 255.234375 205.96875 254.011719 206.375 252.382812 C 206.375 252.382812 212.796875 250.835938 215.230469 255.640625 L 219.78125 255.640625 L 219.941406 247.992188 L 206.382812 247.992188 Z M 211.679688 188.925781 C 217.578125 188.316406 218.335938 187.402344 218.335938 187.402344 L 217.066406 180.996094 C 217.066406 180.996094 214.242188 181.300781 210.929688 181.484375 C 207.613281 181.664062 203.480469 182.5625 202.40625 183.460938 C 201.328125 184.359375 198.546875 186.875 198.816406 189.03125 C 200.851562 188.804688 201 188.578125 201 188.578125 C 201 188.578125 205.78125 189.535156 211.679688 188.925781 Z M 183.238281 134.527344 C 180.546875 134.3125 179.199219 134.066406 177.816406 133.886719 C 176.4375 133.707031 176.011719 134.914062 176.683594 135.414062 C 177.355469 135.90625 179.164062 136.832031 179.164062 136.832031 L 174.980469 138.035156 C 174.980469 138.035156 172.003906 136.617188 171.117188 136.117188 C 170.234375 135.621094 168.605469 136.648438 169.949219 137.859375 C 171.296875 139.0625 173.523438 140.234375 175.121094 141.085938 C 176.714844 141.9375 180.046875 142.007812 183.09375 142.113281 C 186.140625 142.21875 187.207031 142.183594 187.207031 142.183594 L 189.542969 144.738281 L 195.242188 139.675781 C 195.242188 139.675781 192.558594 137.21875 190.640625 136.117188 C 188.730469 135.019531 185.929688 134.738281 183.238281 134.527344 Z M 243.246094 109.5 C 242.03125 99.691406 221.007812 98.253906 218.792969 110.414062 C 216.582031 122.574219 218.792969 125.316406 221.78125 128.53125 C 224.765625 131.742188 230.296875 130.96875 230.296875 130.96875 L 230.976562 134.398438 C 236.96875 137.019531 242.132812 132.59375 242.132812 132.59375 L 239.597656 127.671875 C 239.597656 127.671875 244.460938 119.304688 243.246094 109.5 Z M 243.246094 109.5 " fill-opacity="1" fill-rule="nonzero"/><g clip-path="url(#6472354855)"><path fill="#000000" d="M 134.328125 261.78125 C 134.585938 262.925781 133.714844 264.011719 132.546875 264.011719 C 131.71875 264.011719 130.996094 263.460938 130.78125 262.664062 L 119.03125 219.839844 L 124.855469 219.753906 Z M 246.25 219.753906 L 240.425781 219.839844 L 252.179688 262.664062 C 252.394531 263.460938 253.117188 264.011719 253.941406 264.011719 C 255.109375 264.011719 255.980469 262.925781 255.722656 261.78125 Z M 82.28125 261.78125 C 82.023438 262.925781 82.894531 264.011719 84.066406 264.011719 C 84.890625 264.011719 85.613281 263.460938 85.828125 262.664062 L 97.582031 219.839844 L 91.753906 219.753906 Z M 258.089844 179.675781 C 258.089844 179.675781 256.167969 186.113281 248.671875 187.285156 C 241.175781 188.457031 219.230469 191.085938 219.230469 191.085938 L 218.335938 187.402344 C 218.335938 187.402344 210.136719 190.101562 201 188.574219 C 201 188.574219 191.511719 189.980469 189.167969 196.320312 C 186.828125 202.652344 188.582031 208.519531 189.871094 214.03125 C 191.160156 219.542969 198.894531 242.65625 198.894531 242.65625 L 205.804688 240.777344 L 206.394531 248.050781 L 207 248.050781 C 207.050781 248.988281 207.074219 250.863281 206.585938 252.347656 C 206.519531 252.359375 206.449219 252.371094 206.382812 252.382812 C 206.382812 252.382812 205.890625 253.644531 205.082031 254.777344 L 203.945312 254.820312 C 203.945312 254.820312 201.734375 258.664062 198.703125 261 L 221.632812 261 C 221.632812 261 221.371094 255.636719 219.789062 255.636719 C 218.210938 255.636719 215.238281 255.636719 215.238281 255.636719 C 215.238281 255.636719 213.925781 251.273438 207.195312 252.242188 C 207.621094 250.730469 207.609375 248.980469 207.554688 248.046875 L 221.851562 248.046875 C 221.851562 248.046875 225.25 220.71875 226.539062 208.398438 C 226.539062 208.398438 228.179688 208.398438 235.328125 208.398438 C 242.464844 208.402344 254.855469 205.382812 258.089844 179.675781 Z M 228.542969 117.875 C 228.929688 117.875 229.242188 117.5625 229.242188 117.175781 C 229.242188 116.789062 228.929688 116.472656 228.542969 116.472656 C 228.15625 116.472656 227.84375 116.789062 227.84375 117.175781 C 227.84375 117.5625 228.15625 117.875 228.542969 117.875 Z M 220.03125 118.539062 C 220.414062 118.539062 220.730469 118.222656 220.730469 117.835938 C 220.730469 117.449219 220.414062 117.136719 220.03125 117.136719 C 219.644531 117.136719 219.328125 117.449219 219.328125 117.835938 C 219.328125 118.222656 219.644531 118.539062 220.03125 118.539062 Z M 199.457031 187.179688 C 199.308594 187.21875 199.21875 187.371094 199.257812 187.519531 C 199.289062 187.644531 199.402344 187.730469 199.527344 187.730469 C 199.550781 187.730469 199.570312 187.726562 199.59375 187.722656 C 199.605469 187.71875 200.953125 187.386719 202.222656 187.386719 C 202.375 187.386719 202.5 187.261719 202.5 187.109375 C 202.5 186.957031 202.375 186.832031 202.222656 186.832031 C 200.882812 186.828125 199.515625 187.164062 199.457031 187.179688 Z M 203.453125 185.832031 C 203.597656 185.847656 203.742188 185.738281 203.757812 185.585938 C 203.773438 185.433594 203.664062 185.296875 203.511719 185.277344 C 201.929688 185.105469 200.433594 185.5 200.371094 185.515625 C 200.222656 185.558594 200.132812 185.710938 200.171875 185.855469 C 200.207031 185.980469 200.316406 186.0625 200.441406 186.0625 C 200.46875 186.0625 200.492188 186.058594 200.515625 186.054688 C 200.527344 186.046875 201.972656 185.664062 203.453125 185.832031 Z M 205.21875 184.394531 C 205.230469 184.394531 205.246094 184.398438 205.257812 184.398438 C 205.394531 184.398438 205.511719 184.296875 205.53125 184.160156 C 205.558594 184.007812 205.453125 183.863281 205.300781 183.84375 C 203.726562 183.609375 202.292969 183.835938 202.234375 183.84375 C 202.082031 183.867188 201.980469 184.011719 202.003906 184.164062 C 202.027344 184.316406 202.160156 184.421875 202.320312 184.394531 C 202.332031 184.394531 203.734375 184.175781 205.21875 184.394531 Z M 179.730469 137.78125 C 176.585938 137.9375 175.027344 137.765625 175.015625 137.761719 C 174.851562 137.742188 174.722656 137.855469 174.707031 138.007812 C 174.691406 138.160156 174.800781 138.296875 174.953125 138.3125 C 175.019531 138.320312 176.566406 138.496094 179.761719 138.332031 C 183.046875 138.167969 185.152344 138.144531 186.703125 139.195312 C 186.75 139.226562 186.804688 139.242188 186.859375 139.242188 C 186.949219 139.242188 187.035156 139.199219 187.089844 139.125 C 187.171875 138.996094 187.140625 138.824219 187.015625 138.734375 C 185.316406 137.59375 183.132812 137.613281 179.730469 137.78125 Z M 222.261719 115.265625 C 222.285156 115.28125 222.3125 115.3125 222.335938 115.332031 C 223.054688 114.964844 223.785156 115.179688 224.167969 115.351562 C 224.195312 115.320312 224.214844 115.285156 224.242188 115.261719 C 227.359375 112.476562 231.242188 114.207031 232.339844 114.945312 L 234.507812 114.253906 C 234.527344 114.070312 234.554688 113.878906 234.597656 113.675781 C 234.597656 113.675781 230.054688 113.585938 231.105469 108.339844 C 231.105469 108.339844 225.953125 111.96875 222.199219 108.25 C 222.199219 108.25 221.371094 109.738281 219.140625 109.5625 L 218.222656 114.070312 C 218.222656 114.070312 215.734375 112.582031 216.910156 109.300781 C 216.910156 109.300781 214.769531 104.011719 217.480469 101.648438 C 220.1875 99.289062 223.679688 100.730469 223.679688 100.730469 C 223.679688 100.730469 225.121094 97.976562 228.789062 98.28125 C 232.457031 98.589844 233.941406 100.777344 233.941406 100.777344 C 233.941406 100.777344 237.308594 98.0625 240.753906 100.207031 C 244.203125 102.351562 243.636719 105.894531 243.636719 105.894531 C 243.636719 105.894531 247.042969 106.289062 247.917969 110.878906 C 248.789062 115.472656 245.425781 117.917969 245.425781 117.917969 C 245.425781 117.917969 246.039062 122.683594 244.03125 125.351562 C 242.023438 128.019531 239.597656 127.664062 239.597656 127.664062 C 239.597656 127.664062 237.351562 125.523438 238.617188 121.585938 C 238.617188 121.585938 242.371094 120.496094 242.15625 116.339844 C 241.9375 112.1875 238.574219 113.457031 238.574219 113.457031 L 236.652344 118.003906 C 236.652344 118.003906 234.503906 117.363281 234.472656 114.847656 L 232.730469 115.402344 C 233.015625 116.015625 233.09375 117.144531 232.753906 118.167969 C 232.417969 119.164062 231.425781 120.839844 228.496094 120.839844 C 225.464844 120.839844 224.394531 119.214844 224.023438 118.242188 C 223.691406 117.367188 223.707031 116.449219 223.914062 115.832031 C 223.625 115.710938 223.128906 115.578125 222.636719 115.808594 C 222.855469 116.417969 222.898438 117.375 222.71875 118.300781 L 222.980469 118.363281 C 222.980469 118.363281 222.59375 119.953125 222.378906 120.871094 C 222.351562 121 222.328125 121.167969 222.378906 121.246094 C 222.480469 121.386719 222.9375 121.425781 223.464844 121.476562 C 223.609375 121.488281 223.765625 121.503906 223.9375 121.519531 C 224.089844 121.535156 224.199219 121.671875 224.183594 121.824219 C 224.164062 121.964844 224.046875 122.074219 223.910156 122.074219 C 223.898438 122.074219 223.886719 122.074219 223.878906 122.074219 C 223.714844 122.058594 223.5625 122.042969 223.417969 122.03125 C 222.671875 121.960938 222.183594 121.917969 221.929688 121.570312 C 221.734375 121.304688 221.785156 120.976562 221.835938 120.746094 C 221.882812 120.542969 221.9375 120.308594 221.992188 120.070312 C 221.464844 120.796875 220.722656 121.230469 219.796875 121.308594 C 219.691406 121.316406 219.585938 121.320312 219.488281 121.320312 C 218.261719 121.320312 217.25 120.65625 216.605469 119.421875 C 215.945312 118.15625 215.796875 116.390625 216.300781 115.785156 C 218.074219 113.679688 221.460938 114.765625 222.261719 115.265625 Z M 224.613281 115.675781 C 224.601562 115.6875 224.585938 115.710938 224.570312 115.730469 C 224.570312 115.777344 224.5625 115.828125 224.53125 115.875 C 224.511719 115.90625 224.480469 115.929688 224.453125 115.949219 C 224.285156 116.378906 224.214844 117.191406 224.539062 118.054688 C 224.859375 118.886719 225.796875 120.289062 228.492188 120.289062 C 230.945312 120.289062 231.875 119.046875 232.226562 117.996094 C 232.640625 116.753906 232.3125 115.613281 232.132812 115.480469 C 231.347656 114.886719 227.539062 113.066406 224.613281 115.675781 Z M 216.726562 116.15625 C 216.464844 116.464844 216.445312 117.925781 217.101562 119.179688 C 217.515625 119.972656 218.304688 120.894531 219.753906 120.765625 C 221.367188 120.625 221.9375 119.230469 222.132812 118.414062 C 222.457031 117.066406 222.175781 115.863281 221.976562 115.738281 C 221.582031 115.492188 220.476562 115.074219 219.308594 115.074219 C 218.375 115.074219 217.40625 115.339844 216.726562 116.15625 Z M 226.320312 125.46875 C 226.171875 125.519531 226.097656 125.675781 226.148438 125.824219 C 226.191406 125.933594 226.296875 126.007812 226.410156 126.007812 C 226.441406 126.007812 226.472656 126.003906 226.503906 125.992188 C 226.5625 125.972656 228.019531 125.449219 228.699219 124.238281 C 229.183594 123.375 228.886719 122.960938 228.734375 122.820312 C 228.375 122.492188 227.722656 122.585938 227.03125 123.0625 C 225.980469 123.789062 224.710938 123.894531 224.691406 123.894531 C 224.539062 123.910156 224.425781 124.042969 224.4375 124.195312 C 224.453125 124.347656 224.597656 124.460938 224.738281 124.449219 C 224.792969 124.445312 226.164062 124.328125 227.34375 123.515625 C 227.894531 123.140625 228.257812 123.140625 228.359375 123.230469 C 228.445312 123.3125 228.4375 123.574219 228.21875 123.964844 C 227.640625 124.988281 226.335938 125.460938 226.320312 125.46875 Z M 225.816406 113.355469 C 225.828125 113.34375 227.234375 112.171875 229.90625 113.261719 C 230.046875 113.320312 230.210938 113.253906 230.269531 113.109375 C 230.324219 112.96875 230.257812 112.808594 230.117188 112.746094 C 227.136719 111.53125 225.523438 112.875 225.453125 112.9375 C 225.335938 113.039062 225.324219 113.210938 225.425781 113.328125 C 225.480469 113.390625 225.558594 113.425781 225.632812 113.425781 C 225.699219 113.425781 225.761719 113.398438 225.816406 113.355469 Z M 219.003906 113.355469 C 219.058594 113.308594 220.445312 112.179688 223.09375 113.257812 C 223.238281 113.316406 223.398438 113.25 223.457031 113.105469 C 223.515625 112.964844 223.445312 112.804688 223.304688 112.742188 C 220.324219 111.527344 218.710938 112.871094 218.640625 112.933594 C 218.523438 113.03125 218.511719 113.207031 218.613281 113.324219 C 218.667969 113.386719 218.746094 113.421875 218.828125 113.421875 C 218.886719 113.425781 218.953125 113.398438 219.003906 113.355469 Z M 218.210938 173.84375 C 218.347656 173.84375 218.46875 173.742188 218.484375 173.601562 L 221.207031 153.21875 C 221.640625 149.617188 222.753906 147.167969 223.660156 146.085938 C 223.753906 145.96875 223.738281 145.792969 223.621094 145.695312 C 223.507812 145.597656 223.328125 145.613281 223.230469 145.730469 C 222.769531 146.289062 221.214844 148.46875 220.65625 153.148438 L 217.933594 173.53125 C 217.914062 173.683594 218.019531 173.820312 218.171875 173.839844 C 218.1875 173.839844 218.199219 173.84375 218.210938 173.84375 Z M 247.632812 144.972656 C 247.59375 145.101562 246.78125 148.179688 246.964844 151.316406 C 247.046875 152.796875 246.546875 154.085938 246.011719 155.441406 C 245.457031 156.847656 244.886719 158.304688 244.980469 160.039062 C 245.0625 161.578125 244.527344 163.472656 243.957031 165.480469 C 243.355469 167.605469 242.675781 170.011719 242.636719 172.394531 L 216.984375 180.738281 C 216.839844 180.785156 216.757812 180.945312 216.808594 181.089844 C 216.84375 181.207031 216.953125 181.28125 217.074219 181.28125 C 217.101562 181.28125 217.128906 181.277344 217.15625 181.269531 L 243 172.863281 C 243.113281 172.828125 243.191406 172.71875 243.191406 172.597656 C 243.191406 170.230469 243.851562 167.894531 244.492188 165.636719 C 245.074219 163.585938 245.625 161.648438 245.535156 160.015625 C 245.445312 158.402344 245.996094 157.003906 246.527344 155.652344 C 247.058594 154.296875 247.609375 152.898438 247.519531 151.292969 C 247.339844 148.25 248.164062 145.15625 248.171875 145.125 C 248.210938 144.976562 248.121094 144.824219 247.972656 144.785156 C 247.824219 144.738281 247.671875 144.824219 247.632812 144.972656 Z M 239.773438 118.136719 C 239.65625 118.238281 239.640625 118.414062 239.742188 118.527344 C 239.796875 118.59375 239.875 118.628906 239.953125 118.628906 C 240.015625 118.628906 240.078125 118.609375 240.132812 118.566406 C 240.179688 118.523438 241.304688 117.566406 241.042969 116.195312 C 240.828125 115.054688 239.789062 114.710938 239.265625 114.683594 C 239.097656 114.671875 238.984375 114.796875 238.976562 114.945312 C 238.96875 115.101562 239.085938 115.230469 239.238281 115.238281 C 239.28125 115.242188 240.308594 115.304688 240.496094 116.296875 C 240.695312 117.34375 239.78125 118.128906 239.773438 118.136719 Z M 121.445312 187.402344 C 119.234375 187.230469 117.328125 187.085938 116.269531 186.839844 C 112.582031 185.992188 111.8125 183.132812 111.785156 183.011719 C 111.746094 182.863281 111.59375 182.773438 111.445312 182.808594 C 111.296875 182.84375 111.207031 183 111.246094 183.144531 C 111.277344 183.277344 112.113281 186.457031 116.144531 187.378906 C 117.242188 187.628906 119.078125 187.773438 121.398438 187.953125 C 127.183594 188.40625 135.882812 189.078125 140.714844 192.273438 L 137.6875 208.449219 C 137.660156 208.597656 137.757812 208.742188 137.910156 208.769531 C 137.925781 208.773438 137.945312 208.773438 137.960938 208.773438 C 138.09375 208.773438 138.207031 208.679688 138.234375 208.546875 L 141.296875 192.195312 C 141.316406 192.085938 141.273438 191.976562 141.179688 191.910156 C 136.261719 188.554688 127.347656 187.863281 121.445312 187.402344 Z M 155.882812 208 C 155.734375 207.960938 155.578125 208.050781 155.542969 208.199219 L 149.53125 231.117188 L 147.480469 230.402344 C 147.335938 230.351562 147.179688 230.433594 147.125 230.578125 C 147.074219 230.722656 147.15625 230.878906 147.296875 230.929688 L 149.628906 231.742188 C 149.65625 231.753906 149.691406 231.757812 149.722656 231.757812 C 149.765625 231.757812 149.808594 231.746094 149.851562 231.726562 C 149.917969 231.6875 149.96875 231.625 149.988281 231.550781 L 156.074219 208.34375 C 156.121094 208.191406 156.03125 208.039062 155.882812 208 Z M 138.28125 234.433594 C 138.222656 234.480469 136.828125 235.675781 136.984375 237.671875 C 136.996094 237.816406 137.117188 237.925781 137.261719 237.925781 C 137.269531 237.925781 137.277344 237.925781 137.285156 237.925781 C 137.4375 237.914062 137.550781 237.78125 137.539062 237.628906 C 137.402344 235.925781 138.628906 234.871094 138.640625 234.859375 C 138.757812 234.757812 138.773438 234.585938 138.675781 234.46875 C 138.578125 234.351562 138.402344 234.335938 138.28125 234.433594 Z M 163.007812 255.300781 C 163.0625 255.160156 162.996094 255 162.855469 254.9375 C 162.710938 254.878906 162.554688 254.949219 162.492188 255.089844 C 162.464844 255.164062 161.773438 256.921875 162.898438 258.527344 C 162.953125 258.605469 163.039062 258.644531 163.125 258.644531 C 163.179688 258.644531 163.234375 258.628906 163.285156 258.59375 C 163.410156 258.503906 163.441406 258.332031 163.355469 258.207031 C 162.402344 256.855469 163 255.316406 163.007812 255.300781 Z M 114.214844 174.53125 C 114.238281 174.546875 114.261719 174.554688 114.289062 174.558594 L 119.949219 175.261719 C 119.960938 175.261719 119.972656 175.265625 119.984375 175.265625 C 120.121094 175.265625 120.242188 175.160156 120.257812 175.023438 C 120.277344 174.871094 120.167969 174.734375 120.015625 174.714844 L 114.738281 174.054688 C 119.480469 169.671875 126.171875 163.195312 126.25 163.121094 C 126.304688 163.070312 126.332031 162.992188 126.332031 162.917969 C 126.332031 162.839844 126.296875 162.765625 126.238281 162.714844 L 125.722656 162.242188 L 128.15625 162.277344 C 128.15625 162.277344 128.160156 162.277344 128.160156 162.277344 C 128.3125 162.277344 128.433594 162.15625 128.4375 162 C 128.4375 161.847656 128.316406 161.722656 128.164062 161.71875 L 125.242188 161.683594 L 120.554688 150.320312 C 120.496094 150.179688 120.332031 150.109375 120.191406 150.171875 C 120.050781 150.226562 119.984375 150.394531 120.042969 150.535156 L 124.363281 161.019531 L 118.066406 155.304688 C 117.976562 155.21875 117.835938 155.207031 117.726562 155.28125 L 112.648438 158.691406 L 112.867188 139.027344 L 111.5625 136.722656 L 109.578125 139.769531 L 108.386719 144.070312 L 107.527344 140.167969 L 102.371094 135.933594 L 99.941406 137.933594 L 111.261719 159.625 L 105.710938 163.351562 C 105.582031 163.4375 105.550781 163.609375 105.636719 163.738281 C 105.71875 163.867188 105.894531 163.898438 106.023438 163.816406 L 117.855469 155.867188 L 125.648438 162.929688 C 124.273438 164.261719 116.570312 171.691406 112.410156 175.421875 C 106.910156 180.359375 97.957031 180.5625 94.214844 177.4375 C 89.726562 173.691406 88.546875 170.464844 88.539062 170.429688 C 88.488281 170.285156 88.328125 170.210938 88.183594 170.261719 C 88.039062 170.3125 87.964844 170.472656 88.015625 170.617188 C 88.066406 170.753906 89.242188 174.007812 93.863281 177.863281 C 95.714844 179.410156 98.269531 180.082031 100.976562 180.082031 C 105.261719 180.082031 109.925781 178.402344 112.78125 175.839844 C 113.222656 175.441406 113.707031 175 114.214844 174.53125 Z M 99.445312 160.582031 C 99.460938 160.582031 99.472656 160.582031 99.484375 160.578125 C 99.636719 160.558594 99.742188 160.417969 99.722656 160.265625 L 98.84375 153.796875 C 98.824219 153.644531 98.6875 153.539062 98.53125 153.558594 C 98.375 153.582031 98.273438 153.722656 98.292969 153.875 L 99.167969 160.339844 C 99.191406 160.484375 99.308594 160.582031 99.445312 160.582031 Z M 108.394531 121.699219 C 108.394531 122.085938 108.710938 122.402344 109.097656 122.402344 C 109.480469 122.402344 109.796875 122.085938 109.796875 121.699219 C 109.796875 121.3125 109.480469 121 109.097656 121 C 108.710938 121 108.394531 121.3125 108.394531 121.699219 Z M 116.449219 121.699219 C 116.449219 122.085938 116.765625 122.402344 117.152344 122.402344 C 117.539062 122.402344 117.851562 122.085938 117.851562 121.699219 C 117.851562 121.3125 117.539062 121 117.152344 121 C 116.765625 121 116.449219 121.3125 116.449219 121.699219 Z M 115.894531 125.75 C 116.007812 125.574219 116.019531 125.363281 115.933594 125.152344 C 115.59375 124.363281 114.5625 122.460938 114.519531 122.382812 C 114.445312 122.25 114.277344 122.195312 114.140625 122.269531 C 114.007812 122.339844 113.957031 122.511719 114.027344 122.648438 C 114.039062 122.667969 115.089844 124.609375 115.417969 125.375 C 115.4375 125.425781 115.429688 125.441406 115.421875 125.453125 C 115.289062 125.65625 114.511719 125.8125 113.871094 125.832031 C 113.71875 125.835938 113.597656 125.964844 113.601562 126.117188 C 113.605469 126.265625 113.730469 126.386719 113.878906 126.386719 C 113.882812 126.386719 113.882812 126.386719 113.886719 126.386719 C 114.164062 126.378906 115.539062 126.3125 115.894531 125.75 Z M 113.371094 128.945312 C 113.71875 128.945312 114.121094 128.882812 114.585938 128.726562 C 114.734375 128.679688 114.8125 128.523438 114.765625 128.375 C 114.714844 128.230469 114.558594 128.152344 114.414062 128.199219 C 112.664062 128.785156 112.082031 127.8125 112.058594 127.769531 C 111.984375 127.636719 111.816406 127.585938 111.683594 127.660156 C 111.550781 127.730469 111.496094 127.902344 111.570312 128.039062 C 111.59375 128.082031 112.082031 128.945312 113.371094 128.945312 Z M 112.152344 119.316406 C 112.203125 119.351562 112.261719 119.367188 112.320312 119.367188 C 112.402344 119.367188 112.488281 119.328125 112.542969 119.253906 C 112.632812 119.128906 112.609375 118.957031 112.484375 118.867188 C 109.835938 116.925781 106.820312 118.839844 106.789062 118.859375 C 106.660156 118.945312 106.625 119.113281 106.710938 119.242188 C 106.792969 119.371094 106.964844 119.40625 107.09375 119.328125 C 107.195312 119.253906 109.820312 117.601562 112.152344 119.316406 Z M 114.898438 118.867188 C 114.773438 118.960938 114.75 119.132812 114.839844 119.253906 C 114.933594 119.378906 115.105469 119.402344 115.226562 119.3125 C 115.308594 119.25 117.25 117.84375 118.796875 119.289062 C 118.847656 119.339844 118.917969 119.367188 118.984375 119.367188 C 119.058594 119.367188 119.132812 119.339844 119.1875 119.277344 C 119.292969 119.164062 119.289062 118.992188 119.175781 118.886719 C 117.292969 117.128906 114.921875 118.851562 114.898438 118.867188 Z M 91.132812 118.929688 C 90.992188 124.34375 94.199219 130.316406 100.582031 133.972656 L 98.984375 126.359375 C 98.984375 126.359375 96.125 127.136719 95.449219 124.21875 C 94.773438 121.300781 98.460938 120.78125 98.460938 120.78125 L 98.980469 126.359375 C 98.980469 126.359375 101.136719 124.933594 102.695312 122.175781 L 106.164062 122.175781 C 106.234375 123.179688 106.757812 125.320312 109.90625 125.320312 C 112.613281 125.320312 113.371094 122.613281 113.511719 121.964844 C 113.738281 121.851562 114.328125 121.632812 114.925781 121.960938 C 115.0625 122.554688 115.765625 124.980469 117.972656 124.980469 C 118.726562 124.980469 119.320312 124.765625 119.734375 124.351562 C 120.441406 123.636719 120.4375 122.507812 120.433594 121.898438 L 120.433594 121.785156 C 120.433594 121.632812 120.308594 121.507812 120.15625 121.507812 C 120.003906 121.507812 119.878906 121.632812 119.878906 121.785156 L 119.878906 121.898438 C 119.882812 122.460938 119.886719 123.410156 119.339844 123.957031 C 119.035156 124.265625 118.570312 124.421875 117.972656 124.421875 C 115.9375 124.421875 115.460938 121.839844 115.445312 121.734375 C 115.433594 121.65625 115.386719 121.585938 115.320312 121.546875 C 114.230469 120.84375 113.160156 121.519531 113.117188 121.546875 C 113.050781 121.589844 113.003906 121.660156 112.992188 121.738281 C 112.96875 121.863281 112.484375 124.753906 109.902344 124.753906 C 107.121094 124.753906 106.703125 122.960938 106.703125 121.890625 C 106.703125 121.738281 106.578125 121.613281 106.425781 121.613281 L 102.984375 121.613281 C 104.046875 119.492188 104.699219 116.683594 103.902344 113.214844 C 103.902344 113.214844 110.726562 116.707031 118.230469 115.1875 C 118.230469 115.1875 117.019531 109.039062 111.027344 107.675781 C 105.742188 106.46875 99.226562 106.273438 94.796875 110.558594 C 94.328125 109.785156 93.109375 108.449219 90.375 108.785156 C 86.578125 109.253906 85.074219 114.71875 87.152344 117.320312 C 88.378906 118.847656 89.996094 119.03125 91.132812 118.929688 Z M 109.746094 136.269531 C 109.980469 136.367188 110.714844 136.507812 111.558594 136.644531 L 111.464844 135.40625 C 109.582031 135.40625 109.085938 135.996094 109.746094 136.269531 Z M 102.953125 162.792969 C 102.796875 162.761719 102.65625 162.863281 102.628906 163.011719 C 102.597656 163.195312 101.824219 167.429688 102.855469 168.976562 C 102.90625 169.058594 102.996094 169.101562 103.085938 169.101562 C 103.136719 169.101562 103.1875 169.085938 103.238281 169.054688 C 103.367188 168.96875 103.398438 168.796875 103.3125 168.667969 C 102.5625 167.539062 102.957031 164.273438 103.171875 163.109375 C 103.203125 162.964844 103.101562 162.820312 102.953125 162.792969 Z M 100.503906 163.832031 C 100.351562 163.804688 100.210938 163.902344 100.183594 164.050781 C 100.152344 164.234375 99.378906 168.46875 100.410156 170.015625 C 100.460938 170.097656 100.550781 170.140625 100.636719 170.140625 C 100.691406 170.140625 100.742188 170.125 100.792969 170.09375 C 100.917969 170.007812 100.953125 169.835938 100.867188 169.707031 C 100.113281 168.578125 100.507812 165.3125 100.726562 164.152344 C 100.753906 164.003906 100.652344 163.859375 100.503906 163.832031 Z M 98.238281 165.121094 C 98.085938 165.09375 97.945312 165.191406 97.917969 165.34375 C 97.886719 165.523438 97.113281 169.757812 98.144531 171.304688 C 98.195312 171.386719 98.285156 171.429688 98.371094 171.429688 C 98.425781 171.429688 98.476562 171.414062 98.527344 171.382812 C 98.65625 171.296875 98.6875 171.125 98.601562 170.996094 C 97.851562 169.867188 98.242188 166.601562 98.460938 165.441406 C 98.488281 165.292969 98.390625 165.148438 98.238281 165.121094 Z M 148.285156 122.589844 C 145.042969 122.589844 144.429688 120.46875 144.359375 119.183594 C 144.335938 118.75 144.226562 117.34375 144.078125 115.394531 C 143.621094 109.414062 142.859375 99.40625 142.929688 97.253906 C 143.027344 94.328125 145.058594 92.796875 147.011719 92.796875 C 147.808594 92.796875 157.09375 92.714844 166.914062 92.625 C 178.207031 92.519531 189.882812 92.414062 191.039062 92.414062 C 193.207031 92.414062 194.265625 93.71875 194.265625 96.40625 C 194.265625 98.230469 194.328125 106.074219 194.34375 108.4375 C 194.355469 109.722656 195.070312 110.890625 196.214844 111.476562 L 206.953125 117.015625 C 207.070312 117.074219 207.125 117.207031 207.09375 117.332031 C 207.0625 117.457031 206.96875 117.554688 206.8125 117.539062 L 196.5 117.078125 C 195.339844 117.027344 194.257812 117.546875 193.582031 118.464844 C 193.003906 119.253906 192.160156 119.710938 191.066406 119.824219 C 188.566406 120.082031 151.605469 122.480469 148.542969 122.585938 C 148.457031 122.589844 148.371094 122.589844 148.285156 122.589844 Z M 148.527344 122.03125 C 151.585938 121.929688 188.511719 119.527344 191.011719 119.269531 C 191.941406 119.175781 192.652344 118.796875 193.136719 118.136719 C 193.921875 117.070312 195.183594 116.464844 196.523438 116.527344 L 205.574219 116.929688 L 195.960938 111.972656 C 194.632812 111.289062 193.800781 109.933594 193.789062 108.441406 C 193.769531 106.078125 193.710938 98.230469 193.710938 96.40625 C 193.710938 94.03125 192.886719 92.972656 191.039062 92.972656 C 189.882812 92.972656 178.207031 93.074219 166.921875 93.179688 C 157.097656 93.269531 147.820312 93.355469 147.015625 93.355469 C 145.328125 93.355469 143.574219 94.699219 143.488281 97.273438 C 143.417969 99.394531 144.210938 109.777344 144.636719 115.355469 C 144.785156 117.308594 144.894531 118.71875 144.917969 119.152344 C 145.027344 121.136719 146.242188 122.105469 148.527344 122.03125 Z M 150.152344 99.730469 L 186.382812 99.445312 C 186.539062 99.445312 186.664062 99.320312 186.65625 99.167969 C 186.65625 99.015625 186.535156 98.894531 186.378906 98.894531 C 186.378906 98.894531 186.378906 98.894531 186.375 98.894531 L 150.148438 99.179688 C 149.996094 99.179688 149.871094 99.304688 149.875 99.457031 C 149.875 99.605469 150 99.730469 150.152344 99.730469 Z M 150.246094 105.652344 C 150.09375 105.652344 149.96875 105.777344 149.972656 105.929688 C 149.972656 106.082031 150.097656 106.203125 150.25 106.203125 C 150.25 106.203125 150.25 106.203125 150.253906 106.203125 L 186.480469 105.917969 C 186.632812 105.917969 186.757812 105.792969 186.753906 105.640625 C 186.753906 105.484375 186.617188 105.371094 186.476562 105.367188 Z M 186.667969 112.316406 L 150.433594 112.601562 C 150.28125 112.601562 150.15625 112.726562 150.160156 112.878906 C 150.160156 113.03125 150.285156 113.152344 150.4375 113.152344 C 150.4375 113.152344 150.4375 113.152344 150.441406 113.152344 L 186.671875 112.867188 C 186.824219 112.867188 186.949219 112.742188 186.945312 112.589844 C 186.945312 112.441406 186.820312 112.316406 186.667969 112.316406 Z M 233.914062 131.421875 C 233.914062 130.78125 233.332031 130.371094 230.296875 130.96875 L 230.832031 133.660156 C 232.222656 132.859375 233.914062 131.800781 233.914062 131.421875 Z M 233.914062 131.421875 " fill-opacity="1" fill-rule="nonzero"/></g></svg>