<svg xmlns="http://www.w3.org/2000/svg" xmlns:xlink="http://www.w3.org/1999/xlink" width="500" zoomAndPan="magnify" viewBox="0 0 375 374.999991" height="500" preserveAspectRatio="xMidYMid meet" version="1.0"><defs><clipPath id="a4ec45d0e8"><path d="M 47 61 L 296 61 L 296 315 L 47 315 Z M 47 61 " clip-rule="nonzero"/></clipPath><clipPath id="4ea9e39b0b"><path d="M 323.667969 49.792969 L 335.890625 312.011719 L 51.199219 325.28125 L 38.976562 63.0625 Z M 323.667969 49.792969 " clip-rule="nonzero"/></clipPath><clipPath id="4b36573905"><path d="M 323.667969 49.792969 L 335.890625 312.011719 L 51.199219 325.28125 L 38.976562 63.0625 Z M 323.667969 49.792969 " clip-rule="nonzero"/></clipPath><clipPath id="dc7651002f"><path d="M 47 59 L 324 59 L 324 308 L 47 308 Z M 47 59 " clip-rule="nonzero"/></clipPath><clipPath id="07198407d4"><path d="M 323.667969 49.792969 L 335.890625 312.011719 L 51.199219 325.28125 L 38.976562 63.0625 Z M 323.667969 49.792969 " clip-rule="nonzero"/></clipPath><clipPath id="9f0005ae4f"><path d="M 323.667969 49.792969 L 335.890625 312.011719 L 51.199219 325.28125 L 38.976562 63.0625 Z M 323.667969 49.792969 " clip-rule="nonzero"/></clipPath><clipPath id="464d67dbe7"><path d="M 64 140 L 281.226562 140 L 281.226562 265 L 64 265 Z M 64 140 " clip-rule="nonzero"/></clipPath><clipPath id="acaf75b2cb"><path d="M 82 191 L 281.226562 191 L 281.226562 265 L 82 265 Z M 82 191 " clip-rule="nonzero"/></clipPath></defs><g clip-path="url(#a4ec45d0e8)"><g clip-path="url(#4ea9e39b0b)"><g clip-path="url(#4b36573905)"><path fill="#fbf6f3" d="M 163.765625 61.597656 C 145.371094 62.117188 127.621094 69.058594 111.914062 78.640625 C 93.742188 89.730469 77.699219 104.597656 66.476562 122.6875 C 49.945312 149.328125 44.574219 182.222656 49.503906 213.183594 C 54.730469 246 71.714844 277.285156 98.082031 297.511719 C 117.625 312.503906 145.582031 320.875 166.808594 308.375 C 174.980469 303.5625 181.332031 296.128906 189.367188 291.089844 C 204.898438 281.339844 224.394531 281.671875 242.660156 280.058594 C 260.925781 278.449219 281.179688 273.070312 290.253906 257.140625 C 297.5 244.417969 295.464844 228.738281 294.761719 214.117188 C 293.691406 191.699219 296.246094 168.851562 290.898438 147.054688 C 279.671875 101.324219 208.460938 60.34375 163.765625 61.597656 " fill-opacity="1" fill-rule="nonzero"/></g></g></g><g clip-path="url(#dc7651002f)"><g clip-path="url(#07198407d4)"><g clip-path="url(#9f0005ae4f)"><path fill="#f1a8db" d="M 47.605469 184.628906 C 47.320312 178.53125 47.265625 172.199219 47.4375 165.601562 C 48.304688 132.734375 55.117188 109.382812 68.882812 92.117188 C 85.132812 71.738281 112.976562 59.609375 143.371094 59.679688 C 167.5 59.730469 193.671875 66.917969 223.386719 81.65625 C 232.027344 85.941406 240.734375 91.296875 249.152344 96.476562 C 263.796875 105.488281 278.9375 114.808594 294.824219 119.285156 C 317.269531 125.609375 327.9375 142.507812 322.664062 163.382812 C 317.867188 182.382812 301.761719 196.203125 290.0625 204.941406 C 286.695312 207.457031 283.199219 209.933594 279.816406 212.332031 C 268.886719 220.074219 257.585938 228.082031 249.046875 238.527344 C 243.121094 245.773438 238.417969 254.3125 233.867188 262.574219 C 226.4375 276.066406 218.75 290.019531 205.628906 298.371094 C 191.066406 307.652344 172.703125 307.84375 160.160156 307.1875 C 134.910156 305.855469 113.902344 299.789062 97.71875 289.160156 C 79.582031 277.242188 65.003906 257.722656 56.664062 234.195312 C 51.464844 219.523438 48.46875 203.183594 47.605469 184.628906 Z M 322.425781 151.5 C 321.640625 134.679688 308.359375 124.714844 294.402344 120.78125 C 278.308594 116.246094 263.074219 106.871094 248.339844 97.804688 C 239.949219 92.640625 231.273438 87.300781 222.695312 83.050781 C 193.199219 68.421875 167.25 61.285156 143.367188 61.234375 C 113.445312 61.167969 86.054688 73.074219 70.097656 93.085938 C 56.554688 110.074219 49.851562 133.128906 48.996094 165.644531 C 48.292969 192.117188 51.289062 214.367188 58.128906 233.675781 C 66.355469 256.882812 80.71875 276.128906 98.574219 287.859375 C 114.523438 298.339844 135.269531 304.320312 160.242188 305.632812 C 172.574219 306.28125 190.605469 306.097656 204.792969 297.0625 C 217.582031 288.917969 224.828125 275.757812 232.503906 261.824219 C 237.089844 253.503906 241.828125 244.898438 247.84375 237.542969 C 256.511719 226.933594 267.902344 218.867188 278.917969 211.0625 C 282.292969 208.671875 285.78125 206.199219 289.132812 203.695312 C 300.636719 195.097656 316.476562 181.523438 321.15625 163.003906 C 322.203125 158.859375 322.589844 155.03125 322.425781 151.5 " fill-opacity="1" fill-rule="nonzero"/></g></g></g><g clip-path="url(#464d67dbe7)"><path fill="#f56dcd" d="M 281.226562 202.804688 L 281.226562 264.835938 L 205.171875 264.835938 L 208.519531 221.304688 C 208.84375 217.070312 212.371094 213.804688 216.617188 213.804688 L 233.144531 213.804688 L 239.667969 196.519531 C 241.648438 191.273438 246.667969 187.800781 252.28125 187.800781 L 266.226562 187.800781 C 274.507812 187.792969 281.226562 194.515625 281.226562 202.804688 Z M 141.546875 193.542969 L 120.613281 193.542969 L 116.960938 182.59375 C 116.242188 180.425781 114.214844 178.96875 111.9375 178.96875 L 67.882812 178.96875 C 65.511719 178.96875 63.710938 181.09375 64.097656 183.429688 L 76.882812 260.949219 C 77.1875 262.804688 78.789062 264.160156 80.667969 264.160156 L 168.667969 264.160156 L 149.632812 199.59375 C 148.578125 196.003906 145.285156 193.542969 141.546875 193.542969 Z M 98.324219 142.378906 L 96.652344 141.710938 L 96.152344 140.710938 L 94.59375 144.542969 L 90.3125 140.710938 L 87.304688 141.730469 L 98.957031 154.949219 Z M 98.324219 142.378906 " fill-opacity="1" fill-rule="nonzero"/></g><g clip-path="url(#acaf75b2cb)"><path fill="#f1a8db" d="M 124.980469 194.390625 L 118.070312 217.003906 C 118.070312 217.003906 116.042969 209.960938 114.148438 202.652344 C 112.253906 195.339844 109.140625 193.984375 103.316406 193.984375 C 97.492188 193.984375 82.597656 193.984375 82.597656 193.984375 L 82.324219 192.167969 L 133.292969 192.207031 L 133.105469 191.066406 L 134.929688 191.066406 L 130.800781 195.46875 Z M 205.359375 262.375 L 205.171875 264.835938 L 281.226562 264.835938 L 281.226562 262.375 Z M 208.890625 230.492188 C 211.351562 226.988281 214.132812 222.964844 215.425781 220.875 C 217.921875 216.847656 222.441406 214.003906 225.796875 213.800781 L 216.617188 213.800781 C 212.773438 213.800781 209.523438 216.484375 208.703125 220.136719 C 208.6875 220.21875 208.664062 220.304688 208.644531 220.390625 C 208.628906 220.480469 208.613281 220.566406 208.601562 220.660156 C 208.5625 220.871094 208.535156 221.082031 208.519531 221.300781 L 205.761719 257.164062 L 208.894531 257.164062 L 208.894531 230.492188 Z M 119.742188 244.003906 L 135.890625 264.160156 L 159.402344 264.160156 L 138.511719 215.851562 Z M 119.742188 244.003906 " fill-opacity="1" fill-rule="nonzero"/></g><path fill="#ffffff" d="M 239.515625 196.628906 L 233.136719 213.78125 L 201.199219 213.78125 C 205.410156 225.277344 208.8125 238.5625 208.8125 238.5625 L 208.8125 249.574219 L 195.371094 249.574219 C 195.371094 249.574219 184.683594 223.664062 181.609375 214.917969 C 178.53125 206.175781 184.070312 198.105469 190.449219 195.648438 C 196.828125 193.195312 209.589844 189.269531 209.589844 189.269531 L 222.347656 189.761719 Z M 186.117188 262.417969 C 185.984375 263.785156 187.125 264.929688 187.125 264.929688 L 208.921875 264.929688 L 208.902344 262.417969 Z M 119.511719 164.914062 L 108.828125 164.914062 L 98.054688 184.757812 C 94.464844 184.757812 89.792969 185.386719 89.792969 185.386719 L 87.101562 189.421875 L 82.613281 189.421875 L 82.613281 192.207031 C 82.613281 192.207031 71.28125 184.988281 68.210938 182.050781 C 65.136719 179.113281 64.605469 172.96875 65.539062 169.496094 C 66.472656 166.019531 68.476562 157.476562 70.480469 152.535156 C 72.488281 147.59375 76.492188 144.921875 79.832031 143.855469 C 83.171875 142.785156 87.3125 141.714844 87.3125 141.714844 L 98.953125 154.949219 L 98.324219 142.378906 C 98.324219 142.378906 106.042969 145.878906 107.929688 146.867188 C 109.816406 147.855469 113.046875 149.023438 114.570312 153.0625 C 116.101562 157.105469 119.511719 164.914062 119.511719 164.914062 Z M 82.796875 171.554688 L 79.832031 165.09375 L 76.242188 174.429688 L 82.164062 180.265625 Z M 126.90625 165.042969 L 138.972656 165.042969 L 141.445312 159.71875 L 133.050781 155.21875 Z M 121.0625 237.898438 L 118.238281 229.179688 C 117.105469 229.558594 115.042969 230.484375 115.761719 233.761719 C 116.480469 237.035156 119.421875 247.730469 120.648438 249.980469 C 121.875 252.230469 124.4375 250.699219 124.746094 249.058594 C 125.050781 247.421875 125.972656 243.324219 126.585938 239.699219 C 124.53125 236.996094 121.0625 237.898438 121.0625 237.898438 Z M 174.699219 259.523438 C 172.191406 257.933594 165.957031 255.78125 165.957031 255.78125 L 162.71875 260.945312 L 151.96875 260.917969 C 151.96875 260.917969 152.3125 264.117188 154.070312 264.117188 C 155.824219 264.117188 171.027344 264.117188 173.617188 264.117188 C 176.203125 264.121094 177.203125 261.109375 174.699219 259.523438 Z M 174.699219 259.523438 " fill-opacity="1" fill-rule="nonzero"/><path fill="#a36357" d="M 213.136719 174.882812 L 226.699219 178.414062 C 226.699219 178.414062 225.90625 183.273438 225.246094 186.300781 C 224.589844 189.328125 222.34375 189.761719 222.34375 189.761719 C 222.34375 189.761719 221.164062 190.632812 218.609375 191.121094 C 216.058594 191.605469 210.28125 190.511719 206.511719 187.835938 C 202.738281 185.160156 190.886719 176.40625 190.886719 176.40625 C 190.886719 176.40625 184.746094 176.285156 183.226562 176.226562 C 181.707031 176.167969 179.761719 176.226562 178.605469 175.4375 C 177.453125 174.648438 176.785156 174.160156 176.175781 173.492188 C 175.566406 172.824219 176.542969 172.15625 177.273438 172.457031 C 178.003906 172.761719 179.582031 173.3125 179.582031 173.3125 L 182.621094 173.066406 C 182.621094 173.066406 182.621094 171.972656 183.289062 171.609375 C 183.957031 171.246094 185.84375 170.390625 188.03125 169.117188 C 190.21875 167.839844 192.347656 167.535156 195.082031 168.691406 C 197.816406 169.847656 213.222656 176.820312 213.222656 176.820312 Z M 246.199219 118.109375 C 239.527344 110.921875 226.988281 115.105469 225.375 120.820312 C 223.757812 126.542969 223.8125 130.6875 223.863281 131.878906 C 223.910156 133.070312 222.773438 134.835938 222.878906 135.402344 C 222.984375 135.972656 224.484375 136.074219 224.484375 136.074219 C 224.484375 136.074219 224.847656 140.277344 227.179688 142.195312 C 229.511719 144.109375 234.847656 143.128906 234.847656 143.128906 L 235.496094 145.183594 L 246.890625 145.183594 L 245.308594 138.34375 C 245.320312 138.347656 252.871094 125.296875 246.199219 118.109375 Z M 141.335938 157.503906 C 141.335938 157.503906 145.023438 157.199219 147.285156 156.523438 C 149.542969 155.847656 154.132812 151.632812 154.054688 150.503906 C 153.980469 149.375 152.324219 149.300781 151.117188 149.523438 C 149.914062 149.75 146.003906 151.707031 146.003906 151.707031 C 146.003906 151.707031 141.710938 151.707031 138.328125 151.707031 C 134.941406 151.707031 133.050781 155.222656 133.050781 155.222656 L 140.433594 159.007812 Z M 102.046875 126.421875 L 101.960938 122.53125 L 96.945312 118.039062 C 96.945312 118.039062 93.089844 122.117188 87.78125 122.765625 C 86.980469 127.53125 84.921875 128.835938 84.921875 128.835938 L 83.523438 126.265625 C 83.523438 126.265625 80.976562 126.960938 81.421875 129.945312 C 81.863281 132.925781 87.347656 141.738281 87.347656 141.738281 L 90.3125 140.714844 L 94.59375 144.546875 L 96.152344 140.714844 L 96.652344 141.714844 L 96.597656 139.378906 C 96.597656 139.378906 101.824219 137.988281 102.101562 131.648438 C 102.101562 131.648438 104.105469 130.535156 103.492188 128.3125 C 102.878906 126.085938 102.046875 126.421875 102.046875 126.421875 Z M 88.582031 185.628906 C 86.609375 187.074219 86.148438 189.242188 86.148438 189.242188 L 95.933594 189.308594 L 98.054688 184.757812 C 92.097656 183.945312 88.582031 185.628906 88.582031 185.628906 Z M 161.511719 253.027344 C 160.074219 250.625 145.667969 210.054688 145.667969 210.054688 C 145.667969 210.054688 147.828125 206.933594 149.867188 201.773438 C 151.910156 196.609375 148.308594 191.089844 142.667969 191.089844 C 137.03125 191.089844 134.9375 191.070312 134.9375 191.070312 L 130.804688 195.472656 L 124.980469 194.390625 L 118.070312 217.003906 L 125.625 216.171875 C 125.625 216.171875 123.101562 220.257812 121.664062 223.375 C 120.222656 226.496094 118.179688 229.136719 118.179688 229.136719 L 121.0625 237.898438 C 124.785156 237.535156 126.585938 239.699219 126.585938 239.699219 C 126.585938 239.699219 127.425781 235.859375 128.746094 234.058594 C 130.066406 232.257812 134.027344 226.375 134.027344 226.375 C 134.027344 226.375 149.035156 252.058594 150.234375 254.945312 C 151.433594 257.828125 151.914062 260.945312 151.914062 260.945312 L 162.714844 260.945312 L 165.953125 255.78125 C 165.957031 255.78125 162.953125 255.425781 161.511719 253.027344 Z M 161.511719 253.027344 " fill-opacity="1" fill-rule="nonzero"/><path fill="#000000" d="M 256.832031 162.402344 C 256.398438 170.910156 254.925781 187.792969 254.925781 187.792969 C 254.925781 187.792969 253.621094 187.792969 252.277344 187.792969 C 243.375 187.792969 239.515625 196.628906 239.515625 196.628906 C 230.945312 195.601562 222.34375 189.757812 222.34375 189.757812 C 222.34375 189.757812 224.367188 189.191406 225.042969 186.261719 C 225.589844 183.894531 226.699219 178.410156 226.699219 178.410156 L 212.203125 174.640625 C 212.203125 174.640625 213.679688 163.878906 215.332031 157.191406 C 216.980469 150.507812 223.492188 145.121094 228.789062 145.121094 C 230.410156 145.121094 232.863281 145.121094 235.480469 145.121094 L 234.847656 143.128906 C 237.53125 142.464844 237.804688 142.464844 238.070312 143.109375 C 238.214844 143.453125 237 144.351562 235.828125 145.121094 C 241.683594 145.121094 248.234375 145.121094 248.234375 145.121094 C 250.667969 146.164062 257.269531 153.894531 256.832031 162.402344 Z M 222.640625 121.425781 C 224.449219 122.542969 227.003906 124.300781 227.003906 124.300781 C 228.277344 130.527344 232.058594 130.421875 232.058594 130.421875 L 232.964844 127.125 C 232.964844 127.125 236.742188 127.070312 236.90625 130.050781 C 237.0625 133.035156 233.820312 133.992188 233.820312 133.992188 C 232.542969 137.503906 237.011719 137.554688 237.011719 137.554688 C 237.011719 137.554688 237.652344 138.621094 239.246094 138.726562 C 240.84375 138.835938 242.230469 137.820312 242.230469 137.820312 C 243.824219 138.777344 245.324219 138.355469 245.324219 138.355469 C 249.109375 136.917969 248.722656 133.191406 248.722656 133.191406 C 248.722656 133.191406 250.15625 132.769531 250.851562 131.007812 C 251.539062 129.253906 250.425781 127.125 250.425781 127.125 C 250.425781 127.125 251.859375 125.738281 251.757812 123.503906 C 251.648438 121.273438 249.574219 120.3125 249.574219 120.3125 C 249.574219 120.3125 250.851562 117.96875 249.519531 116.003906 C 248.1875 114.035156 245.847656 114.460938 245.847656 114.460938 C 245.847656 114.460938 245.367188 112.492188 243.71875 111.796875 C 242.066406 111.101562 239.941406 112.328125 239.941406 112.328125 C 239.941406 112.328125 239.25 110.363281 236.960938 110.097656 C 234.671875 109.832031 233.019531 111.960938 233.019531 111.960938 C 233.019531 111.960938 231.320312 110.417969 227.914062 111.214844 C 224.507812 112.015625 224.453125 115.15625 224.453125 115.15625 C 220.085938 115.890625 220.832031 120.308594 222.640625 121.425781 Z M 225.453125 132.652344 C 225.734375 132.652344 225.960938 132.425781 225.960938 132.144531 C 225.960938 131.867188 225.734375 131.640625 225.453125 131.640625 C 225.175781 131.640625 224.949219 131.867188 224.949219 132.144531 C 224.949219 132.425781 225.175781 132.652344 225.453125 132.652344 Z M 226.835938 129.917969 C 226.875 129.949219 226.925781 129.960938 226.976562 129.960938 C 227.050781 129.960938 227.128906 129.925781 227.179688 129.859375 C 227.253906 129.746094 227.226562 129.59375 227.113281 129.515625 C 225.65625 128.503906 224.296875 129.207031 224.238281 129.234375 C 224.121094 129.300781 224.070312 129.449219 224.132812 129.566406 C 224.195312 129.683594 224.339844 129.730469 224.460938 129.667969 C 224.511719 129.644531 225.632812 129.082031 226.835938 129.917969 Z M 226.75 138.726562 C 226.617188 138.769531 226.546875 138.910156 226.59375 139.035156 C 226.625 139.140625 226.722656 139.207031 226.828125 139.207031 C 226.847656 139.207031 226.875 139.203125 226.898438 139.199219 C 227.789062 138.917969 228.386719 138.445312 228.730469 137.757812 C 228.925781 137.371094 228.875 136.984375 228.605469 136.746094 C 228.304688 136.484375 227.839844 136.503906 227.425781 136.789062 C 226.835938 137.195312 225.675781 137.238281 225.667969 137.238281 C 225.53125 137.242188 225.421875 137.355469 225.429688 137.492188 C 225.433594 137.625 225.539062 137.730469 225.671875 137.730469 C 225.675781 137.730469 225.675781 137.730469 225.679688 137.730469 C 225.734375 137.730469 226.992188 137.683594 227.703125 137.195312 C 227.957031 137.019531 228.175781 137.027344 228.277344 137.117188 C 228.375 137.203125 228.378906 137.363281 228.289062 137.542969 C 228.007812 138.101562 227.503906 138.488281 226.75 138.726562 Z M 235.257812 131.550781 C 235.28125 131.558594 235.304688 131.558594 235.324219 131.558594 C 235.429688 131.558594 235.527344 131.492188 235.5625 131.382812 C 235.800781 130.574219 235.742188 129.902344 235.394531 129.390625 C 234.855469 128.59375 233.828125 128.488281 233.789062 128.480469 C 233.65625 128.46875 233.535156 128.566406 233.523438 128.703125 C 233.507812 128.839844 233.605469 128.957031 233.742188 128.96875 C 233.75 128.96875 234.585938 129.058594 234.992188 129.664062 C 235.253906 130.050781 235.285156 130.585938 235.089844 131.242188 C 235.050781 131.375 235.128906 131.507812 235.257812 131.550781 Z M 187.863281 172.566406 C 187.820312 172.4375 187.679688 172.367188 187.554688 172.410156 C 187.550781 172.410156 187.125 172.550781 185.667969 172.90625 L 185.300781 172.996094 C 183.898438 173.34375 183.03125 173.515625 182.851562 172.980469 C 182.808594 172.855469 182.671875 172.785156 182.542969 172.828125 C 182.414062 172.875 182.34375 173.007812 182.386719 173.140625 C 182.554688 173.640625 182.96875 173.8125 183.515625 173.8125 C 184.058594 173.8125 184.730469 173.644531 185.414062 173.472656 L 185.78125 173.382812 C 187.273438 173.023438 187.6875 172.882812 187.707031 172.878906 C 187.839844 172.832031 187.90625 172.691406 187.863281 172.566406 Z M 186.117188 262.417969 C 186.019531 263.445312 186.632812 264.339844 186.949219 264.726562 C 186.632812 264.339844 186.019531 263.445312 186.117188 262.417969 Z M 195.535156 249.550781 C 195.535156 249.550781 195.804688 251.269531 195.804688 253.078125 C 195.804688 254.890625 189.65625 258.597656 187.214844 260.585938 C 186.476562 261.191406 186.175781 261.828125 186.117188 262.425781 L 208.902344 262.425781 L 208.8125 249.578125 Z M 187.113281 264.910156 C 187.085938 264.882812 187.03125 264.820312 186.949219 264.726562 C 187.027344 264.820312 187.085938 264.882812 187.113281 264.910156 Z M 197.671875 213.539062 C 197.539062 213.539062 197.429688 213.648438 197.429688 213.78125 C 197.429688 213.917969 197.539062 214.027344 197.671875 214.027344 L 201.199219 214.027344 C 201.335938 214.027344 201.445312 213.917969 201.445312 213.78125 C 201.445312 213.648438 201.335938 213.539062 201.199219 213.539062 Z M 87.3125 141.714844 C 87.3125 141.714844 89.414062 136.480469 84.980469 132.105469 C 84.980469 132.105469 82.003906 132.515625 81.421875 129.945312 C 80.839844 127.375 83.523438 126.265625 83.523438 126.265625 L 84.921875 128.835938 C 84.921875 128.835938 87.839844 127.082031 87.78125 122.765625 C 87.78125 122.765625 93.03125 122.355469 96.945312 118.039062 L 101.960938 122.53125 C 101.960938 122.53125 101.496094 117.042969 95.308594 114.824219 C 89.121094 112.605469 81.011719 116.222656 78.613281 122.644531 C 76.222656 129.070312 76.222656 135.605469 77.683594 138.40625 C 79.140625 141.210938 83.695312 142.808594 87.3125 141.714844 Z M 92.902344 128.507812 C 93.210938 128.507812 93.460938 128.261719 93.460938 127.949219 C 93.460938 127.644531 93.214844 127.390625 92.902344 127.390625 C 92.59375 127.390625 92.34375 127.636719 92.34375 127.949219 C 92.34375 128.261719 92.589844 128.507812 92.902344 128.507812 Z M 99.054688 128.007812 C 99.363281 128.007812 99.617188 127.761719 99.617188 127.449219 C 99.617188 127.140625 99.367188 126.890625 99.054688 126.890625 C 98.75 126.890625 98.496094 127.136719 98.496094 127.449219 C 98.496094 127.753906 98.75 128.007812 99.054688 128.007812 Z M 92.476562 124.628906 C 90.984375 124.808594 90.316406 125.757812 90.289062 125.796875 C 90.214844 125.910156 90.242188 126.058594 90.351562 126.136719 C 90.394531 126.167969 90.445312 126.179688 90.492188 126.179688 C 90.570312 126.179688 90.644531 126.144531 90.695312 126.078125 C 90.71875 126.046875 91.277344 125.269531 92.542969 125.117188 C 93.804688 124.964844 94.453125 125.488281 94.480469 125.507812 C 94.585938 125.59375 94.738281 125.582031 94.828125 125.480469 C 94.914062 125.378906 94.90625 125.226562 94.800781 125.132812 C 94.761719 125.105469 93.96875 124.449219 92.476562 124.628906 Z M 100.96875 125.34375 C 101.074219 125.425781 101.226562 125.414062 101.316406 125.316406 C 101.402344 125.210938 101.394531 125.058594 101.289062 124.96875 C 101.257812 124.941406 100.464844 124.285156 98.976562 124.460938 C 97.480469 124.644531 96.8125 125.589844 96.785156 125.628906 C 96.710938 125.742188 96.738281 125.898438 96.851562 125.972656 C 96.890625 126 96.941406 126.019531 96.988281 126.019531 C 97.066406 126.019531 97.144531 125.984375 97.191406 125.910156 C 97.195312 125.902344 97.761719 125.101562 99.035156 124.949219 C 100.292969 124.796875 100.941406 125.320312 100.96875 125.34375 Z M 97.875 130.453125 C 97.644531 129.949219 96.722656 128.015625 96.722656 128.015625 L 96.28125 128.230469 C 96.28125 128.230469 97.195312 130.15625 97.425781 130.65625 C 97.445312 130.691406 97.457031 130.746094 97.421875 130.835938 C 97.316406 131.105469 96.863281 131.425781 96.503906 131.566406 C 96.375 131.617188 96.316406 131.761719 96.367188 131.886719 C 96.40625 131.984375 96.496094 132.042969 96.597656 132.042969 C 96.628906 132.042969 96.660156 132.039062 96.6875 132.023438 C 97.011719 131.894531 97.679688 131.519531 97.878906 131.023438 C 97.960938 130.824219 97.957031 130.628906 97.875 130.453125 Z M 96.023438 133.476562 C 94.597656 133.597656 93.945312 132.457031 93.917969 132.40625 C 93.851562 132.289062 93.699219 132.246094 93.582031 132.3125 C 93.464844 132.378906 93.421875 132.527344 93.488281 132.648438 C 93.519531 132.707031 94.242188 133.976562 95.808594 133.976562 C 95.890625 133.976562 95.972656 133.972656 96.066406 133.96875 C 96.199219 133.953125 96.300781 133.835938 96.289062 133.703125 C 96.277344 133.566406 96.160156 133.464844 96.023438 133.476562 Z M 93.476562 140.746094 C 93.988281 140.917969 95.039062 141.246094 95.90625 141.3125 L 96.152344 140.710938 L 96.539062 141.488281 C 96.574219 141.5 96.609375 141.507812 96.648438 141.519531 L 96.597656 139.378906 C 94.992188 139.734375 94.121094 139.917969 93.066406 139.734375 C 92.003906 139.550781 92.417969 140.398438 93.476562 140.746094 Z M 84.695312 143.625 C 84.691406 143.488281 84.59375 143.382812 84.441406 143.382812 C 84.308594 143.390625 84.199219 143.503906 84.203125 143.636719 C 84.207031 143.757812 84.609375 155.824219 97.398438 157.019531 C 97.410156 157.019531 97.414062 157.019531 97.421875 157.019531 C 97.550781 157.019531 97.652344 156.925781 97.667969 156.796875 C 97.679688 156.664062 97.582031 156.546875 97.445312 156.53125 C 85.097656 155.378906 84.703125 144.101562 84.695312 143.625 Z M 101.226562 155.847656 C 101.136719 155.945312 101.144531 156.101562 101.242188 156.195312 C 101.289062 156.234375 101.347656 156.257812 101.40625 156.257812 C 101.472656 156.257812 101.542969 156.230469 101.585938 156.175781 C 105.375 151.957031 102.84375 145.347656 102.734375 145.066406 C 102.683594 144.941406 102.542969 144.878906 102.417969 144.925781 C 102.289062 144.976562 102.226562 145.117188 102.277344 145.242188 C 102.308594 145.3125 104.808594 151.851562 101.226562 155.847656 Z M 98.617188 156.984375 C 98.617188 156.40625 99.09375 155.933594 99.667969 155.933594 C 100.246094 155.933594 100.71875 156.40625 100.71875 156.984375 C 100.71875 157.5625 100.246094 158.035156 99.667969 158.035156 C 99.09375 158.035156 98.617188 157.566406 98.617188 156.984375 Z M 99.109375 156.984375 C 99.109375 157.289062 99.363281 157.542969 99.667969 157.542969 C 99.976562 157.542969 100.230469 157.289062 100.230469 156.984375 C 100.230469 156.675781 99.976562 156.421875 99.667969 156.421875 C 99.363281 156.421875 99.109375 156.675781 99.109375 156.984375 Z M 100.484375 164.191406 C 100.484375 163.617188 100.960938 163.140625 101.539062 163.140625 C 102.113281 163.140625 102.589844 163.617188 102.589844 164.191406 C 102.589844 164.769531 102.113281 165.246094 101.539062 165.246094 C 100.960938 165.246094 100.484375 164.769531 100.484375 164.191406 Z M 100.972656 164.191406 C 100.972656 164.5 101.226562 164.753906 101.53125 164.753906 C 101.839844 164.753906 102.09375 164.5 102.09375 164.191406 C 102.09375 163.886719 101.839844 163.632812 101.53125 163.632812 C 101.226562 163.632812 100.972656 163.882812 100.972656 164.191406 Z M 103.863281 169.941406 C 104.441406 169.941406 104.917969 170.414062 104.917969 170.992188 C 104.917969 171.570312 104.441406 172.042969 103.863281 172.042969 C 103.289062 172.042969 102.8125 171.570312 102.8125 170.992188 C 102.8125 170.414062 103.289062 169.941406 103.863281 169.941406 Z M 103.304688 170.992188 C 103.304688 171.300781 103.558594 171.550781 103.863281 171.550781 C 104.171875 171.550781 104.425781 171.300781 104.425781 170.992188 C 104.425781 170.6875 104.171875 170.433594 103.863281 170.433594 C 103.558594 170.433594 103.304688 170.6875 103.304688 170.992188 Z M 133.296875 189.523438 L 145.726562 165.753906 L 144.980469 165.074219 L 113.089844 164.933594 C 113.121094 164.90625 113.15625 164.875 113.171875 164.832031 C 115.402344 159.003906 111.0625 153.375 111.015625 153.316406 C 110.929688 153.207031 110.777344 153.1875 110.671875 153.273438 C 110.566406 153.359375 110.546875 153.511719 110.632812 153.617188 C 110.671875 153.671875 114.847656 159.089844 112.714844 164.65625 C 112.675781 164.757812 112.710938 164.871094 112.792969 164.933594 L 108.835938 164.914062 L 95.402344 189.246094 L 82.226562 189.246094 L 82.226562 192.207031 L 133.292969 192.207031 L 133.292969 189.523438 Z M 136.171875 196.773438 C 136.140625 196.707031 136.082031 196.652344 136.007812 196.632812 L 130.867188 195.238281 C 130.734375 195.203125 130.601562 195.28125 130.5625 195.410156 C 130.527344 195.542969 130.605469 195.675781 130.734375 195.710938 L 135.578125 197.027344 C 134.621094 198.753906 129.355469 208.28125 125.40625 216.066406 C 125.34375 216.1875 125.394531 216.335938 125.515625 216.394531 C 125.550781 216.414062 125.589844 216.421875 125.628906 216.421875 C 125.71875 216.421875 125.804688 216.371094 125.851562 216.285156 C 130.183594 207.742188 136.105469 197.09375 136.164062 196.988281 C 136.195312 196.921875 136.199219 196.839844 136.171875 196.773438 Z M 145.804688 209.847656 C 145.691406 209.777344 145.539062 209.808594 145.464844 209.921875 C 140.546875 217.535156 133.902344 226.140625 133.835938 226.226562 C 133.753906 226.335938 133.773438 226.488281 133.878906 226.570312 C 133.925781 226.605469 133.980469 226.617188 134.027344 226.617188 C 134.101562 226.617188 134.171875 226.585938 134.222656 226.523438 C 134.289062 226.4375 140.949219 217.820312 145.875 210.183594 C 145.949219 210.070312 145.917969 209.921875 145.804688 209.847656 Z M 87.894531 185.75 C 87.960938 185.75 88.023438 185.722656 88.074219 185.667969 C 88.164062 185.570312 88.160156 185.410156 88.0625 185.320312 L 82.335938 180.082031 C 82.238281 179.992188 82.082031 179.996094 81.988281 180.097656 C 81.898438 180.195312 81.902344 180.355469 82.003906 180.445312 L 87.726562 185.683594 C 87.773438 185.734375 87.835938 185.75 87.894531 185.75 Z M 82.570312 159.035156 C 82.445312 158.988281 82.300781 159.046875 82.25 159.171875 L 76.09375 174.253906 C 76.042969 174.378906 76.101562 174.523438 76.226562 174.574219 C 76.257812 174.589844 76.289062 174.59375 76.324219 174.59375 C 76.417969 174.59375 76.511719 174.535156 76.546875 174.4375 L 82.707031 159.355469 C 82.753906 159.230469 82.695312 159.085938 82.570312 159.035156 Z M 203.359375 142.199219 L 169.445312 142.089844 C 168.078125 142.085938 166.953125 141.011719 166.882812 139.648438 L 166.011719 123.003906 C 165.976562 122.28125 166.226562 121.601562 166.730469 121.082031 C 167.230469 120.5625 167.902344 120.285156 168.625 120.292969 L 202.210938 120.839844 C 203.492188 120.863281 204.546875 121.796875 204.71875 123.0625 L 205.851562 131.332031 C 205.972656 132.214844 206.519531 132.976562 207.3125 133.371094 L 215.605469 137.519531 C 215.710938 137.574219 215.765625 137.691406 215.734375 137.804688 C 215.699219 137.917969 215.597656 137.992188 215.480469 137.984375 L 207.847656 137.5 C 207.347656 137.46875 206.871094 137.640625 206.507812 137.984375 C 206.140625 138.328125 205.941406 138.792969 205.941406 139.292969 L 205.941406 139.621094 C 205.941406 140.3125 205.671875 140.957031 205.183594 141.445312 C 204.699219 141.925781 204.050781 142.199219 203.367188 142.199219 C 203.363281 142.199219 203.363281 142.199219 203.359375 142.199219 Z M 169.445312 141.597656 L 203.359375 141.707031 C 203.359375 141.707031 203.363281 141.707031 203.363281 141.707031 C 203.917969 141.707031 204.441406 141.488281 204.832031 141.097656 C 205.230469 140.703125 205.445312 140.175781 205.445312 139.621094 L 205.445312 139.292969 C 205.445312 138.65625 205.703125 138.066406 206.167969 137.628906 C 206.632812 137.191406 207.246094 136.972656 207.878906 137.015625 L 214.308594 137.421875 L 207.097656 133.816406 C 206.160156 133.347656 205.507812 132.445312 205.371094 131.402344 L 204.238281 123.132812 C 204.097656 122.101562 203.242188 121.34375 202.207031 121.332031 L 168.617188 120.785156 C 168.605469 120.785156 168.597656 120.785156 168.582031 120.785156 C 168.015625 120.785156 167.480469 121.011719 167.085938 121.421875 C 166.679688 121.839844 166.472656 122.394531 166.503906 122.976562 L 167.375 139.621094 C 167.429688 140.722656 168.339844 141.59375 169.445312 141.597656 Z M 198.503906 125.832031 L 172.824219 125.460938 C 172.691406 125.460938 172.574219 125.566406 172.574219 125.703125 C 172.574219 125.839844 172.683594 125.949219 172.820312 125.949219 L 198.5 126.324219 C 198.5 126.324219 198.503906 126.324219 198.503906 126.324219 C 198.636719 126.324219 198.746094 126.21875 198.746094 126.082031 C 198.746094 125.945312 198.636719 125.832031 198.503906 125.832031 Z M 198.382812 131.167969 L 172.703125 130.671875 C 172.566406 130.675781 172.453125 130.773438 172.453125 130.910156 C 172.449219 131.042969 172.558594 131.15625 172.691406 131.15625 L 198.371094 131.652344 C 198.371094 131.652344 198.375 131.652344 198.375 131.652344 C 198.511719 131.652344 198.621094 131.546875 198.621094 131.414062 C 198.625 131.285156 198.515625 131.171875 198.382812 131.167969 Z M 198.253906 136.753906 L 172.945312 136.378906 C 172.945312 136.378906 172.941406 136.378906 172.941406 136.378906 C 172.804688 136.378906 172.699219 136.484375 172.699219 136.621094 C 172.699219 136.757812 172.804688 136.871094 172.941406 136.871094 L 198.25 137.242188 C 198.25 137.242188 198.253906 137.242188 198.253906 137.242188 C 198.390625 137.242188 198.5 137.136719 198.5 137 C 198.5 136.863281 198.390625 136.753906 198.253906 136.753906 Z M 198.253906 136.753906 " fill-opacity="1" fill-rule="nonzero"/></svg>